<svg width="355" height="596" xmlns="http://www.w3.org/2000/svg">
 <defs>
  <linearGradient x1="0.50001" y1="1" x2="0.50001" y2="0" id="imagebot_43">
   <stop stop-color="#00233f" offset="0" id="imagebot_57"/>
   <stop stop-color="#00bf69" offset="1" id="imagebot_56"/>
  </linearGradient>
  <linearGradient x1="0.50046" y1="1.00011" x2="0.50046" y2="0" id="imagebot_29">
   <stop stop-color="#095f00" offset="0" id="imagebot_55"/>
   <stop stop-color="#3fff42" offset="1" id="imagebot_54"/>
  </linearGradient>
  <linearGradient x1="0.50193" y1="1" x2="0.50193" y2="0" id="imagebot_23">
   <stop stop-color="#095f00" offset="0" id="imagebot_51"/>
   <stop stop-color="#3fff42" offset="1" id="imagebot_50"/>
  </linearGradient>
 </defs>
 <g id="imagebot_2">
  <path stroke-width="10" stroke="#000000" fill-opacity="0" fill-rule="evenodd" d="M0.384,411.91856C42.761,409.22856 74.2795,410.71856 116.7365,407.94856C116.1865,422.49856 120.314,435.55606 119.684,450.18606C123.244,450.18606 154.794,450.52356 158.344,450.52356C182.704,450.52356 171.7665,451.78356 195.4865,444.83356C195.0165,409.80356 192.984,371.57856 192.504,336.47856C162.064,334.25856 131.624,332.04856 101.184,329.82856C99.684,337.97856 98.184,346.11856 96.604,354.33856C66.796,352.12856 36.911,349.83856 7.024,347.54856C7.815,323.02856 8.607,298.52856 9.396,273.93856C9.95,250.60856 11.215,227.36856 12.403,203.25856C12.403,198.74856 12.957,195.02856 12.957,194.23856C16.512,129.64856 20.071,65.05856 23.707,0.37856C70.669,3.86256 117.714,7.34156 164.757,10.89956C210.297,7.42056 255.917,3.94156 301.527,0.38356C298.607,26.71056 296.157,50.74456 294.417,71.77556C292.597,92.09856 291.967,110.82856 291.407,127.35856C279.477,128.14856 270.457,128.85856 264.527,129.64856C258.527,130.35856 252.597,130.35856 247.217,130.35856C232.827,130.35856 208.947,129.64856 176.067,127.35856C143.247,125.13856 117.557,123.63856 99.607,123.63856C98.427,161.66856 97.237,199.77856 96.057,237.88856C110.367,224.28856 125.307,215.26856 140.247,209.25856C155.187,203.25856 172.507,200.24856 192.187,200.24856C238.207,200.24856 275.287,217.56856 302.717,251.39856C330.867,285.15856 344.617,329.51856 344.617,384.38856C344.617,440.75856 328.487,488.10856 295.597,527.95856C263.347,567.72856 222.707,587.25856 173.687,587.25856C119.927,587.25856 78.104,571.51856 47.037,539.18856C15.962,506.92856 0.387,464.07856 0.387,409.91856L0.384,411.91856z" id="imagebot_46"/>
  <path fill-opacity="0" stroke-width="10" stroke="#000000" fill-rule="evenodd" fill="url(#imagebot_43)" d="M 320.04 290.63 C 314.27 300.99 307.63 306.05 300.12 305.82 C 292.45 305.34 283.91 299.89 274.5 288.82 C 265.81 298.94 258.22 303.84 251.73 303.21 C 245.17 302.65 239.72 296.57 235.37 285.26 C 227.14 293.72 219.87 297.28 212.36 296.8 C 204.93 296.01 197.97 291.19 191.17 281.46 C 181.76 295.14 172.59 301.78 163.34 302.26 C 153.86 302.42 145.08 296.41 135.83 283.36 C 127.76 291.03 120.81 294.35 114.96 293.64 C 108.94 292.85 104.04 287.71 100.25 278.54 C 83.567 289.13 72.105 294.27 64.988 294.9 C 57.872 295.22 55.738 290.63 58.268 281.15 C 46.252 287.16 36.764 289.92 29.806 289.45 C 22.611 288.82 18.264 284.94 16.127 277.83 L 12.887 343.13 L 91.5765 347.755 L 101.955 323.7075 L 190.7875 328.98 L 199.23 448.44 C 169.98 456.98 203.42 454.13 157.96 454.13 C 154.41 454.13 121.75 452.63 118.2 452.63 L 115.27 412.87 L 10.12 418.56 L 10.117 437.06 C 10.117 491.13 31.625 508.53 62.694 540.86 C 93.76 573.12 124.12 579.6275 177.894 579.6275 C 226.914 579.6275 255.054 563.55 287.314 523.79 C 320.204 483.94 335.694 439.35 335.694 382.98 C 335.694 328.19 334.034 335.23 320.044 290.63 L 320.04 290.63 z" id="imagebot_42"/>
  <path fill-opacity="0" fill-rule="evenodd" stroke="#000000" stroke-width="2" stroke-miterlimit="10" fill="#df9800" d="M 255.60000000000002 374.99000022888185 C 259.32 374.76000022888184 264.54 373.25000022888185 271.26 370.49000022888185 C 278.06 367.32000022888184 288.02 360.2100002288818 295.61 357.99000022888185 C 302.8 355.94000022888184 309.92 355.62000022888185 315.14 357.68000022888185 C 320.36 359.50000022888185 324.39 364.56000022888185 326.37 368.9100002288818 C 328.03 372.94000022888184 327.71 377.92000022888186 325.42 382.98000022888186 C 322.57 383.37000022888185 320.12 382.6600002288818 318.06 381.7100002288818 C 315.85 380.5300002288818 314.03 378.7100002288818 312.61 376.26000022888184 C 312.85 379.0300002288818 313.8 381.1600002288818 315.14 382.98000022888186 C 316.56 384.56000022888185 318.38 385.83000022888183 320.91 386.4600002288818 C 312.93 387.7200002288818 305.57 387.9600002288818 298.85 387.17000022888186 C 292.05 386.2200002288818 287.39 383.69000022888184 280.27 381.7100002288818 C 272.84 379.58000022888183 264.94 377.45000022888183 255.60000000000002 374.99000022888185 z" id="imagebot_40"/>
  <path fill-opacity="0" fill-rule="evenodd" stroke="#000000" stroke-width="2" stroke-miterlimit="10" fill="#df9800" d="M 255.64 375.2800002288818 C 250.9 374.25000022888185 246.24 372.67000022888186 242.52 370.5400002288818 C 238.73 368.4000002288818 235.01 365.7200002288818 232.24 362.4700002288818 L 232.88 385.56000022888185 C 236.59 382.56000022888185 240.23 380.11000022888186 244.1 378.5200002288818 C 247.82 376.7800002288818 251.77 375.6000002288818 255.64 375.2800002288818 z" id="imagebot_39"/>
  <path stroke="#000000" stroke-width="0.036" stroke-miterlimit="10" fill-rule="evenodd" d="M 303.91 364.08000022888183 C 303.52 365.0300002288818 310.79 370.01000022888184 312.93 370.17000022888186 C 314.82 369.86000022888186 316.48 365.5900002288818 315.14 364.4000002288818 C 313.48 363.2900002288818 304.15 362.98000022888186 303.91 364.08000022888183 z" id="imagebot_38"/>
  <path fill-opacity="0" fill-rule="evenodd" stroke="#000000" stroke-width="2" stroke-miterlimit="10" fill="#ffeb3f" d="M 99.58 502.8500002288818 C 96.34 502.69000022888184 92.62 501.51000022888184 87.246 499.2900002288818 C 81.79 496.8400002288818 73.883 491.1500002288818 68.113 489.49000022888185 C 62.18300000000001 487.83000022888183 56.727000000000004 487.75000022888185 52.695 489.25000022888185 C 48.507 490.83000022888183 45.264 494.39000022888183 43.919 498.11000022888186 C 42.575 501.51000022888184 42.814 504.99000022888185 44.632 509.1800002288818 C 46.766 509.25000022888185 48.822 509.0200002288818 50.483 508.1500002288818 C 52.064 507.2800002288818 53.488 505.86000022888186 54.754 503.88000022888184 C 54.516 506.0900002288819 53.724 507.75000022888185 52.696 509.1800002288818 C 51.509 510.4400002288818 50.009 511.4700002288819 48.19 511.9400002288818 C 54.435 512.8900002288818 60.128 513.0500002288818 65.584 512.4200002288818 C 70.881 511.5500002288818 74.439 509.73000022888186 80.211 508.1500002288818 C 85.822 506.49000022888185 92.38 504.8300002288819 99.58 502.8500002288818 z" id="imagebot_36"/>
  <path fill-opacity="0" fill-rule="evenodd" stroke="#000000" stroke-width="2" stroke-miterlimit="10" fill="#ffeb3f" d="M 99.72 503.06000022888185 C 103.6 502.11000022888186 106.92 500.8500002288818 110 499.2700002288818 C 113.00999999999999 497.5300002288818 115.69 495.55000022888186 118.06 493.0200002288818 L 117.59 511.12000022888185 C 114.58000000000001 508.6700002288818 111.74 506.9400002288818 108.74 505.5900002288819 C 105.65 504.25000022888185 102.65 503.30000022888186 99.72 503.06000022888185 z" id="imagebot_35"/>
  <path stroke="#000000" stroke-width="0.036" stroke-miterlimit="10" fill-rule="evenodd" d="M 61.551 494.31000022888185 C 61.629999999999995 494.87000022888185 56.018 498.98000022888186 54.515 499.06000022888185 C 52.934 498.9000002288818 51.509 495.26000022888184 52.696 494.55000022888186 C 53.723 493.6000002288818 61.156000000000006 493.5200002288818 61.551 494.31000022888185 z" id="imagebot_34"/>
  <path fill-opacity="0" fill-rule="evenodd" stroke="#000000" stroke-width="2" stroke-miterlimit="10" fill="#ff471f" d="M 237.65999999999997 459.17250022888186 C 239.72000000000003 460.75250022888184 242.15999999999997 462.0225002288818 245.01 462.9725002288818 C 247.77999999999997 463.92250022888186 251.26 465.5825002288818 254.57999999999998 464.63250022888184 C 257.66 463.29250022888186 261.38 458.1525002288818 263.91 455.30250022888185 C 266.2 452.14250022888183 266.91 447.95250022888183 269.05 446.68250022888185 C 271.02 445.18250022888185 273.47 445.18250022888185 276.08 447.31250022888185 C 278.77 449.2125002288818 282.57 454.9125002288818 285.02 459.17250022888186 C 286.99 463.6025002288818 288.5 468.9025002288818 288.89 472.61250022888186 C 289.29 475.8525002288818 288.65 477.99250022888185 287.31 479.0225002288818 C 285.65 476.01250022888183 284.15 474.51250022888183 282.8 474.8325002288818 C 281.22 475.06250022888185 279.32 477.9125002288818 278.93 480.2825002288818 C 278.53 482.50250022888184 279.4 485.6625002288818 280.27 487.32250022888184 C 280.83 488.51250022888183 281.78 489.2225002288818 282.8 488.5825002288818 C 278.22 490.64250022888183 274.34 491.8325002288818 270.31 492.14250022888183 C 266.04 492.30250022888185 262.09 491.98250022888186 259.08 490.25250022888184 C 256.32 488.19250022888184 254.82 482.6525002288818 253.31 480.92250022888186 C 251.57 479.18250022888185 250.07 479.18250022888185 248.49 479.6525002288818 C 246.60000000000002 479.73250022888186 244.7 480.68250022888185 242.48000000000002 482.18250022888185 C 243.89999999999998 479.25250022888184 244.53999999999996 476.49250022888185 244.7 473.88250022888184 C 244.62 471.19250022888184 243.98000000000002 468.74250022888185 242.8 466.2125002288818 C 241.61 463.6025002288818 239.78999999999996 461.4725002288818 237.65999999999997 459.17250022888186 z" id="imagebot_32"/>
  <path stroke="#000000" stroke-width="0.036" stroke-miterlimit="10" fill-rule="evenodd" d="M 274.69 454.2700002288818 C 277.48 454.2700002288818 279.75 456.57000022888184 279.75 459.4100002288818 C 279.75 462.24000022888185 277.48 464.5400002288818 274.69 464.5400002288818 S 269.63 462.24000022888185 269.63 459.4100002288818 C 269.63 456.57000022888184 271.9 454.2700002288818 274.69 454.2700002288818" id="imagebot_31"/>
  <path fill-opacity="0" fill-rule="evenodd" stroke="#000000" stroke-width="2" stroke-miterlimit="10" fill="url(#imagebot_29)" d="M 226.9375 565.8400002288819 C 228.9175 565.8400002288819 231.6075 565.5300002288818 234.3775 565.2100002288819 C 237.0575 564.7400002288819 240.4575 564.1100002288819 243.9375 563.3100002288818 C 236.1975 554.6200002288818 233.1075 547.3400002288819 234.3775 540.8600002288819 C 235.7175 534.4600002288819 251.2175 529.2400002288819 251.2975 524.8900002288818 C 250.6575 520.3000002288818 233.5075 517.3800002288818 232.7175 513.3500002288819 C 232.1575 509.0800002288819 248.6875 504.10000022888187 247.4975 499.9100002288818 C 245.8375 495.48000022888186 229.7075 492.24000022888185 224.0975 487.73000022888186 C 218.5575 482.99000022888185 215.2375 478.48000022888186 214.4475 473.0200002288818 C 210.1075 476.11000022888186 208.5175 478.88000022888184 209.3875 481.64000022888183 C 210.2575 484.25000022888185 215.0775 485.68000022888185 219.5875 489.00000022888185 C 223.7775 492.24000022888185 234.9275 496.51000022888184 234.6875 500.5400002288818 C 233.8175 504.10000022888187 218.0875 507.74000022888185 217.3775 511.7700002288818 C 216.8975 515.8800002288818 230.0275 520.8600002288819 231.7675 524.5800002288819 C 233.1875 527.8200002288818 229.2375 529.5600002288818 226.9475 532.2500002288818 C 224.4175 534.9300002288818 217.7775 538.4100002288818 217.3775 540.8600002288819 C 216.7475 542.9200002288818 221.7275 541.5700002288818 223.4675 545.6800002288818 C 224.9675 549.9500002288819 226.2275 556.3600002288819 226.9375 565.8400002288819 z" id="imagebot_28"/>
  <path fill-opacity="0" stroke="#000000" stroke-width="2" stroke-miterlimit="10" fill-rule="evenodd" d="M 177.7225 575.1175002288818 C 180.3325 569.7375002288818 180.9625 564.5175002288819 179.6125 559.1475002288819 C 178.1125 553.5275002288819 168.0725 547.6775002288819 169.6525 542.7775002288819 C 171.0825 537.7975002288819 188.1525 534.7975002288819 188.5525 529.4975002288818 C 188.7125 523.9575002288818 170.6825 515.1875002288818 171.6325 510.2075002288818 C 172.7425 505.06750022888184 194.0825 504.82750022888183 193.8425 499.13750022888183 C 192.9025 493.36750022888185 167.8325 483.79750022888186 167.7625 475.8975002288818 C 167.6025 467.5875002288818 189.9725 450.74750022888185 193.1325 450.35750022888186 C 195.8225 450.19750022888184 180.4025 465.06750022888184 185.3125 473.5975002288818 C 190.2925 481.66750022888186 218.7525 491.62750022888184 222.7825 498.5875002288818 C 226.2625 505.2275002288818 207.6025 508.54750022888186 207.6825 513.7675002288819 C 207.9225 518.6675002288819 224.2825 523.0175002288819 223.5725 528.9475002288818 C 222.3925 534.6375002288819 203.4925 541.1175002288818 201.3625 549.0275002288819 C 198.9825 556.9275002288819 202.3025 565.6275002288818 210.4525 575.7475002288818 C 199.5425 575.5875002288818 188.6325 575.3475002288818 177.7225 575.1175002288818 z" id="imagebot_27"/>
  <path fill-opacity="0" fill-rule="evenodd" stroke="#000000" stroke-width="2" stroke-miterlimit="10" fill="url(#imagebot_23)" d="M 134.415 581.1725002288819 C 136.315 581.6425002288819 138.845 581.7225002288818 141.695 582.0325002288819 C 144.535 582.2725002288819 147.695 582.1125002288818 151.495 582.1925002288818 C 145.885 572.0025002288818 144.225 564.4025002288819 146.825 558.2425002288818 C 149.515 552.2325002288818 165.725 550.3325002288818 166.755 546.1425002288819 C 167.305 541.4825002288818 150.785 534.9925002288818 151.015 530.9625002288818 C 151.255 526.5325002288819 168.495 525.4325002288818 168.255 520.9225002288819 C 167.465 516.3325002288818 152.445 509.61250022888186 147.935 504.1625002288818 C 143.505 498.54250022888186 141.295 493.17250022888186 141.615 487.7225002288818 C 136.785 489.7725002288818 134.415 492.2225002288818 134.815 495.07250022888184 C 134.965 497.9125002288818 139.715 500.2125002288818 143.275 504.4025002288818 C 146.755 508.19250022888184 156.555 515.1525002288819 155.605 518.8625002288818 C 154.265 522.3425002288818 137.575 522.2625002288819 136.315 526.2225002288818 C 134.815 530.1725002288819 146.835 537.6825002288818 147.695 541.7125002288818 C 148.415 545.0325002288819 144.295 546.3025002288819 141.455 548.2825002288819 C 138.375 550.3325002288818 131.175 552.4725002288818 130.225 554.6825002288818 C 129.195 556.5025002288818 134.175 556.2625002288819 135.125 560.6925002288818 C 135.755 565.1225002288818 135.525 571.8425002288818 134.415 581.1725002288819 z" id="imagebot_22"/>
  <path stroke="#000000" stroke-width="0.036" stroke-miterlimit="10" fill-rule="evenodd" d="M 65.662 494.55000022888186 C 67.401 496.45000022888183 68.19 498.19000022888184 67.719 500.0900002288818 C 67.323 501.75000022888185 65.662 503.5600002288818 63.05200000000001 505.2200002288819 C 67.561 504.12000022888185 69.774 502.69000022888184 70.327 500.95000022888183 C 70.722 499.13000022888184 69.062 497.00000022888185 65.662 494.55000022888186 z" id="imagebot_21"/>
  <path stroke="#000000" stroke-width="0.036" stroke-miterlimit="10" fill-rule="evenodd" d="M 299.09 366.8500002288818 C 298.14 368.0400002288818 297.75 369.62000022888185 298.22 371.5900002288818 C 298.46 373.57000022888184 299.57 375.86000022888186 301.22 378.7900002288818 C 296.4 376.26000022888184 293.95 373.89000022888183 293.56 371.99000022888185 C 293.24 370.01000022888184 294.98 368.20000022888183 299.09 366.8500002288818 z" id="imagebot_20"/>
  <path stroke="#000000" stroke-width="0.036" stroke-miterlimit="10" fill-rule="evenodd" d="M 264.54 465.36000022888186 C 263.67 467.81000022888185 263.67 470.42000022888186 264.54 473.51000022888184 C 265.25 476.51000022888184 267.07 479.9100002288818 269.68 483.7100002288818 C 265.65 482.20000022888183 263.12 479.83000022888183 262.41 476.9100002288818 C 261.54 473.82000022888184 262.25 469.87000022888185 264.54 465.36000022888186 z" id="imagebot_19"/>
  <path stroke="#000000" stroke-width="0.036" stroke-miterlimit="10" fill-rule="evenodd" d="M 257.74 465.8400002288818 C 256.71 468.44000022888184 256 470.9000002288818 256.48 473.50000022888185 C 256.56 475.88000022888184 257.82 478.4100002288818 259.4 480.7800002288818 C 255.83999999999997 478.4100002288818 254.10000000000002 475.88000022888184 253.87 473.50000022888185 C 253.55 470.9000002288818 254.74 468.45000022888183 257.74 465.8400002288818 z" id="imagebot_18"/>
  <path fill-opacity="0" fill-rule="evenodd" stroke="#000000" stroke-width="2" stroke-miterlimit="10" fill="#b87800" d="M 192.54488 52.722 C 192.62488 50.193 193.33488 48.137 194.36488 46.24 C 195.38488 44.105 196.73488 42.365 198.71488 41.338 C 200.44488 40.232 203.21488 39.756 205.19488 40.232 C 206.85488 40.547 208.75488 41.338 209.69488 43.552 C 210.57488 45.608 209.46488 49.956 210.96488 52.644 C 212.31488 55.016 214.83488 56.992 218.23488 58.573 C 222.27488 49.482 226.38488 42.999 230.88488 38.255 C 235.39488 33.59 240.69488 32.009 244.64488 30.507 C 248.43488 29.005 250.89488 28.055 252.86488 28.53 C 254.13488 31.297 254.37488 33.748 253.57488 35.882 C 252.70488 37.86 250.89488 39.519 247.80488 40.863 C 250.57488 42.761 251.52488 44.817 250.97488 47.03 C 250.25488 49.086 247.72488 51.378 243.69488 53.593 C 246.86488 54.304 247.96488 55.964 247.01488 58.257 C 245.83488 60.471 242.98488 63.633 237.61488 67.428 C 232.31488 64.66 237.89688 70.68396 237.97688 71.39496 C 237.81688 71.94896 233.26488 68.139 237.61488 71.064 C 241.95488 73.752 249.70488 78.101 255.31488 80.789 C 260.53488 83.398 265.20488 84.9 269.31488 86.165 C 266.62488 90.672 263.93488 93.126 260.37488 93.836 C 256.81488 94.466 253.02488 93.046 248.67488 89.881 C 253.34488 93.596 255.79488 96.206 256.34488 98.336 C 256.58488 100.396 253.73488 102.056 251.44488 101.816 C 249.15488 101.186 246.38488 99.366 242.82488 95.496 C 245.75488 100.636 247.65488 103.956 248.20488 106.326 C 248.59488 108.386 247.57488 108.146 246.06488 108.616 C 244.48488 109.096 242.19488 109.246 238.87488 109.096 C 236.73488 100.946 234.28488 95.176 231.83488 90.907 C 229.30488 86.717 226.46488 85.926 223.61488 84.266 C 220.37488 82.289 216.89488 83 214.12488 79.997 C 211.51488 76.835 210.01488 69.402 207.48488 65.924 C 204.56488 62.366 201.32488 59.599 197.44488 58.255 C 196.57488 56.674 195.62488 55.567 194.91488 54.619 C 194.04488 53.671 193.25488 53.038 192.54488 52.722 z" id="imagebot_16"/>
  <path stroke="#000000" stroke-width="0.036" stroke-miterlimit="10" fill-rule="evenodd" d="M 200.26 48.15300022888184 C 200.74 49.181000228881835 202 49.57600022888184 203.03 49.102000228881835 C 204.14 48.62700022888183 204.61 47.36300022888184 204.14 46.334000228881834 C 203.66 45.30700022888183 202.4 44.91100022888184 201.29 45.386000228881834 C 200.26 45.861000228881835 199.79 47.126000228881836 200.26 48.15300022888184 z" id="imagebot_15"/>
  <path fill-opacity="0" fill-rule="evenodd" stroke="#000000" stroke-miterlimit="10" fill="#ffff00" d="M 192.68372723893114 54.481762349514774 C 191.18452974871585 55.80866400876503 190.46849512652346 57.135565668015296 189.85315287307688 58.108925232558065 C 189.23781061963032 59.16955151668053 189.0588019640822 59.87775451019269 189.3161269064326 60.58483869960767 C 190.91601676539372 60.673224223284535 192.1578893132586 60.40806765225392 193.38857382015178 60.14179227712613 C 194.54094204024264 59.788250182418636 195.6933102603335 59.08116599300365 196.4876611693282 58.372962999491506 C 195.8723189158816 57.31121791127186 195.42479727701138 56.33897715082627 194.8094550235648 55.80866400876503 C 194.1941127701182 55.01207549157601 193.47807814792583 54.56902906909447 192.68372723893114 54.481762349514774 z" id="imagebot_14"/>
  <path fill-opacity="0" fill-rule="evenodd" stroke="#000000" stroke-width="2" stroke-miterlimit="10" fill="#b87800" d="M 191.92968210220337 54.26324050784111 C 188.36968210220337 53.31524050784111 184.89968210220337 52.76224050784111 181.80968210220337 52.92024050784111 C 178.48968210220337 52.92024050784111 175.56968210220336 53.55224050784111 172.71968210220336 54.81824050784111 C 173.10968210220338 57.82124050784111 174.92968210220337 60.27324050784111 177.29968210220338 62.48624050784112 C 179.59968210220336 64.70024050784112 183.30968210220337 66.36024050784111 187.57968210220338 67.78324050784111 C 186.07968210220338 68.9692405078411 185.60968210220338 70.23424050784111 186.15968210220336 71.57824050784112 C 186.62968210220336 72.84324050784112 188.28968210220336 74.74024050784111 190.26968210220338 75.45224050784111 C 192.00968210220336 76.16324050784111 194.29968210220338 75.76724050784111 197.14968210220337 75.13624050784111 C 196.43968210220336 76.08424050784112 196.51968210220338 77.1922405078411 197.69968210220338 78.13924050784111 C 198.72968210220336 78.85124050784111 200.62968210220336 80.11724050784112 203.39968210220337 80.67024050784111 C 206.15968210220336 81.06524050784111 209.24968210220337 81.38124050784111 213.50968210220336 81.30324050784111 C 212.08968210220337 79.32524050784112 211.05968210220337 77.03324050784111 210.11968210220337 74.74024050784111 C 209.08968210220337 72.21124050784111 209.79968210220338 69.9182405078411 207.97968210220336 67.22924050784111 C 205.83968210220337 64.6202405078411 202.75968210220336 61.932240507841115 198.09968210220336 59.165240507841105 C 195.24968210220337 60.35124050784111 193.03968210220336 60.905240507841114 191.45968210220337 61.14224050784111 C 189.71968210220336 61.22024050784111 188.84968210220336 60.98324050784112 188.52968210220337 60.11424050784112 C 188.44968210220338 59.007240507841104 189.07968210220338 57.98024050784112 189.55968210220337 57.031240507841105 S 190.81968210220336 55.05424050784111 191.92968210220337 54.26324050784111 z" id="imagebot_13"/>
  <path fill-opacity="0" fill-rule="evenodd" stroke="#000000" stroke-width="2" stroke-miterlimit="10" fill="#b87800" d="M 117.9504017686844 50.906399553775785 C 117.23040176868437 51.53939955377579 116.92040176868437 52.25139955377579 116.68040176868439 53.357399553775785 C 116.44040176868438 54.22739955377579 116.28040176868438 55.41339955377579 116.5204017686844 56.91439955377578 C 113.5204017686844 58.65439955377579 110.91040176868438 60.47239955377579 109.0104017686844 62.686399553775786 C 106.96040176868439 64.66239955377578 106.16040176868438 67.11239955377579 104.8204017686844 69.72239955377579 C 103.3204017686844 72.33239955377579 102.05040176868437 75.96839955377578 99.84040176868439 78.49839955377578 C 97.15040176868439 80.79039955377579 93.8304017686844 82.5303995537758 90.1954017686844 83.71639955377579 C 86.55740176868437 84.74439955377579 82.68440176868438 85.13939955377579 78.25740176868439 84.9023995537758 L 68.21640176868439 103.01039955377578 C 66.39740176868439 103.40039955377578 64.89640176868438 103.01039955377578 64.57840176868439 102.1403995537758 C 64.02440176868438 101.11039955377579 64.02440176868438 99.45039955377578 65.21140176868438 97.47039955377579 C 66.23740176868439 95.10039955377579 71.30040176868438 90.59439955377579 70.90540176868438 90.03939955377578 C 70.11140176868439 89.48639955377578 64.57840176868439 94.15039955377578 61.96940176868439 94.86039955377579 C 59.280401768684385 95.42039955377578 55.801401768684386 94.86039955377579 55.48740176868438 93.84039955377578 C 55.012401768684384 92.73039955377578 56.27840176868439 90.83039955377579 59.280401768684385 88.1433995537758 C 56.83140176868439 88.38039955377579 54.69540176868438 88.61839955377579 52.87640176868439 88.22339955377579 C 50.74340176868438 87.74839955377578 49.32140176868438 87.2743995537758 47.73740176868438 86.16739955377578 C 46.157401768684394 85.13939955377579 44.89140176868439 83.55839955377579 43.94240176868439 81.73939955377578 C 54.46040176868439 82.05539955377579 62.523401768684394 81.02839955377578 68.45140176868439 79.2893995537758 C 74.38440176868437 77.23339955377578 77.54540176868437 74.46639955377579 78.81040176868439 70.35439955377579 C 73.90740176868438 68.22039955377579 70.42840176868438 66.40139955377579 67.42640176868439 64.8993995537758 C 64.26240176868438 63.317399553775786 61.81140176868439 62.132399553775784 61.33640176868438 61.024399553775794 C 60.783401768684385 59.680399553775786 61.81140176868439 58.257399553775784 64.41840176868439 56.75539955377579 C 60.387401768684384 56.281399553775785 58.25240176868439 55.56939955377578 57.066401768684386 54.305399553775786 C 55.95940176868439 53.119399553775786 56.11840176868439 51.38039955377579 57.85740176868438 49.40239955377579 C 55.169401768684395 47.50539955377579 53.270401768684394 45.05439955377579 52.48040176868439 41.73439955377579 C 51.45340176868439 38.33439955377579 51.45340176868439 34.302399553775786 52.48040176868439 29.637399553775786 C 58.56740176868439 31.061399553775786 63.78740176868439 33.116399553775786 68.45040176868439 36.12039955377579 C 72.95840176868438 39.125399553775786 75.88440176868437 43.07839955377579 79.67840176868438 47.03039955377579 C 83.31640176868439 50.509399553775786 86.32140176868438 55.96539955377578 89.56140176868439 57.62539955377579 C 92.65040176868439 59.04839955377578 96.12040176868439 57.70539955377579 97.86040176868437 56.36039955377579 C 99.29040176868438 54.85939955377579 97.94040176868438 51.53839955377579 98.73040176868437 49.40239955377579 C 99.36040176868437 47.110399553775785 100.3904017686844 44.580399553775784 102.13040176868441 43.314399553775786 C 103.87040176868439 41.891399553775784 106.56040176868439 41.022399553775784 109.0104017686844 41.33839955377579 C 111.15040176868439 41.33839955377579 113.91040176868438 42.76139955377579 115.49040176868439 44.42239955377579 C 117.00040176868438 46.083399553775784 117.71040176868439 48.13939955377579 117.9504017686844 50.906399553775785 z" id="imagebot_11"/>
  <path fill-opacity="0" fill-rule="evenodd" stroke="#000000" stroke-width="2" stroke-miterlimit="10" fill="#b87800" d="M 72.9559999165535 39.317000252723695 C 71.6109999165535 37.81500025272369 70.8219999165535 35.918000252723694 70.5839999165535 33.625000252723694 C 70.10999991655349 31.015000252723695 69.87199991655349 25.16600025272369 71.37499991655349 24.92800025272369 C 72.8769999165535 24.612000252723696 76.8289999165535 28.248000252723692 79.59799991655349 31.569000252723697 C 82.0469999165535 34.415000252723694 84.8939999165535 39.000000252723694 86.3179999165535 43.1910002527237 C 87.8189999165535 47.3800002527237 88.2159999165535 51.41300025272369 88.13399991655349 56.15700025272369 C 85.8439999165535 52.67800025272369 83.4719999165535 49.911000252723696 81.0199999165535 46.98600025272369 C 78.4099999165535 44.061000252723694 75.7219999165535 41.610000252723694 72.9559999165535 39.317000252723695 z" id="imagebot_10"/>
  <path stroke="#000000" stroke-width="0.036" stroke-miterlimit="10" fill-rule="evenodd" d="M 109.45 46.67700022888184 C 110.67 46.67700022888184 111.66 47.63400022888184 111.66 48.81100022888184 C 111.66 49.989000228881835 110.67 50.946000228881836 109.45 50.946000228881836 C 108.22 50.946000228881836 107.23 49.989000228881835 107.23 48.81100022888184 C 107.23 47.63400022888184 108.22 46.67700022888184 109.45 46.67700022888184" id="imagebot_9"/>
  <path fill-opacity="0" fill-rule="evenodd" stroke="#000000" stroke-miterlimit="10" fill="#ffff00" d="M 118.76868878813829 51.79033640816911 C 120.09823965402688 51.88498881299971 120.98088266583525 52.4613976885707 122.13167039009178 53.51713605014282 C 123.10369497271623 54.57287441171494 123.9863379845246 55.81913107531788 124.77959942551698 57.641796614491824 C 123.9863379845246 57.9293943060925 123.01431340190018 58.21699199769318 121.86352567764368 58.12233959286259 C 120.6345290789231 57.9293943060925 119.21559664221849 57.73887600406168 117.62907376023378 57.16246712849068 C 117.2715474769696 55.53153338371721 117.36092904778565 54.285276720114254 117.53969218941774 53.42127015294259 C 117.62907376023378 52.55847707814055 118.154190488778 51.88498881299971 118.76868878813829 51.79033640816911 z" id="imagebot_8"/>
  <path fill-opacity="0" fill-rule="evenodd" stroke="#000000" stroke-width="2" stroke-miterlimit="10" fill="#b87800" d="M 175.2 246.60000022888184 C 175.91 246.83000022888183 176.54 247.47000022888182 177.1 248.18000022888185 C 177.49 248.81000022888185 178.05 249.76000022888184 178.44 251.03000022888182 C 181.61 251.50000022888185 184.21 252.05000022888186 186.59 253.32000022888184 C 188.88 254.27000022888183 190.22 255.93000022888185 192.44 257.67000022888186 C 194.49 259.25000022888185 196.55 262.01000022888184 199.55 263.20000022888183 C 202.4 264.23000022888186 205.72 264.4700002288818 209.2 264.23000022888186 C 212.6 263.9100002288818 215.92 262.81000022888185 219.48 261.2200002288818 L 233.94 272.7700002288818 L 233.95 272.7700002288818 C 235.61 272.2900002288818 236.4 271.74000022888185 236.63 270.7900002288818 C 236.71 269.76000022888184 236 268.3400002288818 234.5 267.1500002288818 C 232.68 265.81000022888185 227.14 263.2800002288818 227.3 262.9600002288818 C 227.38 262.4100002288818 233.95 264.1500002288818 236.32 263.9100002288818 C 238.53 263.2800002288818 241.22 261.94000022888184 241.3 260.83000022888183 C 241.38 259.64000022888183 239.4 258.61000022888186 236.24 257.43000022888185 C 238.29 256.80000022888186 239.95 256.4000002288818 241.54 255.37000022888185 C 243.04 254.27000022888183 244.14 253.40000022888182 245.17 251.89000022888183 C 246.12 250.31000022888185 246.44 248.97000022888182 246.75 246.99000022888183 C 238.06 250.7900002288818 231.26 252.76000022888184 225.72 253.24000022888185 C 220.27 253.55000022888186 216.39 252.37000022888185 214.1 249.36000022888186 C 217.42 245.97000022888184 219.56 243.28000022888185 221.69 240.98000022888183 C 223.59 238.69000022888184 225.33 236.95000022888183 225.41 235.77000022888183 C 225.33 234.58000022888183 223.98 233.47000022888184 221.38 233.31000022888185 C 224.38 231.73000022888183 226.04 229.99000022888183 226.67 228.73000022888183 C 227.15 227.31000022888185 226.36 226.04000022888184 224.3 224.93000022888182 C 225.8 222.56000022888185 226.51 219.87000022888185 226.12 216.87000022888185 C 225.64 213.87000022888185 224.3 210.55000022888183 222.09 206.91000022888184 C 217.42 210.23000022888183 213.86 213.71000022888182 211.1 217.66000022888184 C 208.49 221.54000022888184 206.83 226.12000022888185 205.49 230.47000022888184 C 203.82 234.58000022888183 202.64 240.03000022888185 200.98 242.57000022888184 C 198.84 244.78000022888185 195.29 244.86000022888183 193.62 244.30000022888183 C 191.73 243.51000022888184 191.73 240.35000022888184 190.54 238.77000022888183 C 189.28 236.95000022888183 187.38 235.45000022888183 185.72 234.90000022888182 C 183.66 234.34000022888185 181.13 234.58000022888183 179.39 235.61000022888183 C 177.42 236.56000022888185 175.76 238.45000022888183 175.05 240.43000022888182 C 174.25 242.17000022888183 174.41 244.23000022888183 175.2 246.60000022888184 z" id="imagebot_6"/>
  <path fill-opacity="0" fill-rule="evenodd" stroke="#000000" stroke-width="2" stroke-miterlimit="10" fill="#b87800" d="M 207.39535998344422 221.49304020404816 C 207.95535998344423 219.83304020404816 207.95535998344423 218.01304020404817 207.39535998344422 216.03304020404815 C 206.61535998344422 213.66304020404814 205.1053599834442 209.00304020404815 203.8453599834442 209.07304020404817 C 202.4153599834442 209.15304020404815 200.20535998344423 213.82304020404817 199.33535998344422 217.30304020404816 C 198.14535998344422 220.78304020404815 197.51535998344423 224.97304020404815 197.7553599834442 229.24304020404816 C 197.9153599834442 233.19304020404815 198.86535998344422 236.75304020404815 200.6053599834442 240.54304020404817 C 201.23535998344423 236.91304020404814 202.26535998344423 233.66304020404814 203.36535998344422 230.50304020404815 C 204.39535998344422 227.10304020404817 205.73535998344423 224.41304020404814 207.39535998344422 221.49304020404816 z" id="imagebot_5"/>
  <path stroke="#000000" stroke-width="0.036" stroke-miterlimit="10" fill-rule="evenodd" d="M 179.79 242.17000022888183 C 180.18 243.12000022888185 181.37 243.59000022888185 182.39 243.12000022888185 C 183.42 242.72000022888184 183.9 241.62000022888185 183.5 240.59000022888185 C 183.1 239.64000022888183 182 239.17000022888183 180.97 239.64000022888183 C 179.87 240.04000022888184 179.39 241.14000022888183 179.79 242.17000022888183 z" id="imagebot_4"/>
  <path fill-opacity="0" fill-rule="evenodd" stroke="#000000" stroke-width="2" stroke-miterlimit="10" fill="#ffff00" d="M 174.45645013194337 247.15872773487678 C 173.43849753003371 247.5918990548384 172.83205768208757 248.36077814777008 172.32308138113274 249.4761942966711 C 171.71664153318656 250.41834191758744 171.55420228820097 251.696197311474 171.46756802420865 253.33141904432887 C 172.1498128531481 253.49385828931446 173.09196047406445 252.98488198835958 173.94747383098854 252.72497919638272 C 174.80298718791258 252.2160028954279 175.83176907282126 251.53375806648842 177.03381948571456 250.67824470956435 C 176.77391669373762 249.30292576868646 176.42737963776838 248.36077814777008 176.00503760080588 247.8518018468153 C 175.57186628084435 247.33199626286142 175.06288997988952 246.99628848989124 174.45645013194337 247.15872773487678 z" id="imagebot_3"/>
  <title>imagebot_2</title>
 </g>
 <metadata>image/svg+xmlOpenclipartCreation Days Numbers2007-11-13T16:32:45The days of creation - completed originally to fulfill a request on the OpenClipart wiki.https://openclipart.org/detail/8224/creation-days-numbers-by-gerald_g-8224Gerald_Gadamcartooncreationevegodnumberreligionrequest+completedsource+wiki</metadata>
</svg>