<?xml version="1.0"?>
<svg xmlns:rdf="http://www.w3.org/1999/02/22-rdf-syntax-ns#" xmlns="http://www.w3.org/2000/svg" xmlns:cc="http://web.resource.org/cc/" xmlns:xlink="http://www.w3.org/1999/xlink" xmlns:dc="http://purl.org/dc/elements/1.1/" xmlns:svg="http://www.w3.org/2000/svg" id="svg2" viewBox="0 0 375 618" version="1.0">
  <defs id="defs127">
    <linearGradient id="XMLID_3_" y2="13.502" gradientUnits="userSpaceOnUse" x2="176.09" y1="326.59" x1="176.09">
      <stop id="stop26" stop-color="#1fb2ff" offset="0"/>
      <stop id="stop28" stop-color="#dff0ff" offset="1"/>
    </linearGradient>
    <linearGradient id="XMLID_4_" y2="286.82" gradientUnits="userSpaceOnUse" x2="180.91" y1="583.93" x1="180.91">
      <stop id="stop33" stop-color="#00233f" offset="0"/>
      <stop id="stop35" stop-color="#00bf69" offset="1"/>
    </linearGradient>
    <linearGradient id="XMLID_5_" y2="488.26" gradientUnits="userSpaceOnUse" x2="214.81" y1="581.09" x1="214.81">
      <stop id="stop64" stop-color="#095f00" offset="0"/>
      <stop id="stop66" stop-color="#3fff42" offset="1"/>
    </linearGradient>
    <linearGradient id="XMLID_6_" y2="478.22" gradientUnits="userSpaceOnUse" x2="188.26" y1="583.22" x1="188.26">
      <stop id="stop73" stop-color="#095f00" offset="0"/>
      <stop id="stop75" stop-color="#3fff42" offset="1"/>
    </linearGradient>
    <linearGradient id="XMLID_7_" y2="488.9" gradientUnits="userSpaceOnUse" x2="160.37" y1="583.37" x1="160.37">
      <stop id="stop82" stop-color="#095f00" offset="0"/>
      <stop id="stop84" stop-color="#3fff42" offset="1"/>
    </linearGradient>
    <filter id="filter3501">
      <feGaussianBlur id="feGaussianBlur3503" stdDeviation="11.638813"/>
    </filter>
  </defs>
  <g id="g3505" fill-rule="evenodd">
    <path id="path2530" opacity=".5" filter="url(#filter3501)" d="m18.857 427.56c42.377-2.69 84.833-5.45 127.29-8.22-0.56 14.54-1.11 29.17-1.74 43.8 3.55 0 28.85 1.9 32.41 1.9 24.35 0 11.86 1.26 35.58-5.7-0.48-35.02-0.95-70.12-1.42-105.23-30.44-2.21-60.88-4.43-91.32-6.64-1.5 8.14-3 16.29-4.58 24.51-29.811-2.21-59.696-4.51-89.583-6.8 0.791-24.51 1.583-49.02 2.372-73.6 0.554-23.33 1.819-46.57 3.007-70.69 0-4.5 0.554-8.22 0.554-9.01 3.555-64.59 7.114-129.18 10.75-193.86 46.962 3.482 94 6.961 141.04 10.519 45.54-3.479 91.16-6.958 136.78-10.516-2.92 26.327-5.38 50.361-7.11 71.392-1.82 20.315-2.46 39.055-3.01 55.585-11.94 0.79-20.95 1.5-26.88 2.29-6.01 0.71-11.94 0.71-17.31 0.71-14.39 0-38.27-0.71-71.16-3.01-32.81-2.21-58.51-3.71-76.45-3.71-1.19 38.03-2.37 76.13-3.56 114.24 14.31-13.6 29.25-22.61 44.2-28.62 14.94-6.01 32.25-9.01 51.94-9.01 46.01 0 83.09 17.31 110.53 51.15 28.14 33.76 41.9 78.12 41.9 132.98 0 56.37-16.13 103.73-49.02 143.58-32.26 39.77-72.89 59.29-121.91 59.29-53.77 0-95.586-15.73-126.66-48.06-31.068-32.26-46.643-75.11-46.643-129.27z"/>
    <path id="path23" d="m8 418.53c42.377-2.69 84.833-5.45 127.29-8.22-0.55 14.55-1.11 29.17-1.74 43.8 3.56 0 28.86 1.9 32.41 1.9 24.36 0 11.86 1.26 35.58-5.69-0.47-35.03-0.94-70.13-1.42-105.23-30.44-2.22-60.88-4.43-91.32-6.65-1.5 8.15-3 16.29-4.58 24.51-29.808-2.21-59.693-4.5-89.58-6.79 0.791-24.52 1.583-49.02 2.372-73.61 0.554-23.33 1.819-46.57 3.007-70.68 0-4.51 0.554-8.23 0.554-9.02 3.555-64.59 7.114-129.18 10.75-193.86 46.962 3.484 94.007 6.963 141.05 10.521 45.54-3.479 91.16-6.958 136.77-10.516-2.92 26.327-5.37 50.361-7.11 71.392-1.82 20.323-2.45 39.053-3.01 55.583-11.93 0.79-20.95 1.5-26.88 2.29-6 0.71-11.93 0.71-17.31 0.71-14.39 0-38.27-0.71-71.15-3-32.82-2.22-58.51-3.72-76.46-3.72-1.18 38.03-2.37 76.14-3.55 114.25 14.31-13.6 29.25-22.62 44.19-28.63 14.94-6 32.26-9.01 51.94-9.01 46.02 0 83.1 17.32 110.53 51.15 28.15 33.76 41.9 78.12 41.9 132.99 0 56.37-16.13 103.72-49.02 143.57-32.25 39.77-72.89 59.3-121.91 59.3-53.76 0-95.583-15.74-126.65-48.07-31.075-32.26-46.65-75.11-46.65-129.27z"/>
    <path id="path30" d="m24.128 286.82l4.664 17.07 21.189 8.94 270.63 13.76 7.43-26.97c-10.67-21.97-10.04-22.68-32.41-44.74-32.03-31.71-59.46-37.72-105.47-37.72-19.77 0-33.29 8.07-48.23 14.08-14.94 6-29.89 15.02-44.197 28.54l0.159-137.33c17.868 0 43.568 1.5 76.448 3.71 32.89 2.22 56.77 3.01 71.08 3.01 5.38 0 11.39 0 17.32-0.79 6-0.71 14.94-1.5 26.88-2.22 0.63-16.52 2.52-20.95 4.26-41.266 1.82-21.031 4.2-45.065 7.2-71.394l-125.15 11.703-137.89-9.963-10.353 191.88c0 0.79-0.554 4.51-0.554 9.02-1.187 24.03-2.452 47.35-3.005 70.68z" stroke="#4794ff" stroke-miterlimit="10" stroke-width=".036" fill="url(#XMLID_3_)"/>
    <path id="path37" fill="url(#XMLID_4_)" d="m328.04 299.62c-5.77 10.36-12.41 15.42-19.92 15.19-7.67-0.48-16.21-5.93-25.62-17-8.69 10.12-16.28 15.02-22.77 14.39-6.56-0.56-12.01-6.64-16.36-17.95-8.23 8.46-15.5 12.02-23.01 11.54-7.43-0.79-14.39-5.61-21.19-15.34-9.41 13.68-18.58 20.32-27.83 20.8-9.48 0.16-18.26-5.85-27.51-18.9-8.07 7.67-15.02 10.99-20.87 10.28-6.02-0.79-10.92-5.93-14.71-15.1-16.683 10.59-28.145 15.73-35.262 16.36-7.116 0.32-9.25-4.27-6.72-13.75-12.016 6.01-21.504 8.77-28.462 8.3-7.195-0.63-11.542-4.51-13.679-11.62l-3.24 65.3 74.002 1.5 5.691-25.61 112.27 9.96-5.62 119.46c-29.25 8.54 4.19 5.69-41.27 5.69-3.55 0-36.21-1.5-39.76-1.5l-2.93-39.76-105.15 5.69-0.003 18.5c0 54.07 21.508 71.47 52.577 103.8 31.066 32.26 61.426 34.08 115.2 34.08 49.02 0 77.16-11.39 109.42-51.15 32.89-39.85 48.38-84.44 48.38-140.81 0-54.79-1.66-47.75-15.65-92.35z"/>
    <path id="path39" stroke="#000" stroke-width=".036" stroke-miterlimit="10" d="m227.71 362.8c-0.47 7.11-0.79 13.83-0.63 20.79 0 6.8 0.32 13.44 0.95 20.24 4.27-6.64 10.04-11.23 17.31-13.44 7.28-2.53 15.5-1.82 25.62-0.32 9.96 1.51 22.06 8.15 33.28 9.25 10.99 0.79 26.96 0.71 32.02-4.19 4.35-5.21 1.66-20.55-3.48-25.93-5.14-5.61-14.62-8.46-26.32-6.4-12.02 1.97-30.92 18.02-44.2 18.26-13.36-0.24-24.59-5.93-34.55-18.26z"/>
    <path id="path41" d="m263.6 383.98c3.72-0.23 8.94-1.74 15.66-4.5 6.8-3.17 16.76-10.28 24.35-12.5 7.19-2.05 14.31-2.37 19.53-0.31 5.22 1.82 9.25 6.88 11.23 11.23 1.66 4.03 1.34 9.01-0.95 14.07-2.85 0.39-5.3-0.32-7.36-1.27-2.21-1.18-4.03-3-5.45-5.45 0.24 2.77 1.19 4.9 2.53 6.72 1.42 1.58 3.24 2.85 5.77 3.48-7.98 1.26-15.34 1.5-22.06 0.71-6.8-0.95-11.46-3.48-18.58-5.46-7.43-2.13-15.33-4.26-24.67-6.72z" stroke="#000" stroke-miterlimit="10" stroke-width=".036" fill="#df9800"/>
    <path id="path43" d="m253.64 383.27c-4.74-1.03-9.4-2.61-13.12-4.74-3.79-2.14-7.51-4.82-10.28-8.07l0.64 23.09c3.71-3 7.35-5.45 11.22-7.04 3.72-1.74 7.67-2.92 11.54-3.24z" stroke="#000" stroke-miterlimit="10" stroke-width=".036" fill="#df9800"/>
    <path id="path45" stroke="#000" stroke-width=".036" stroke-miterlimit="10" d="m311.91 373.07c-0.39 0.95 6.88 5.93 9.02 6.09 1.89-0.31 3.55-4.58 2.21-5.77-1.66-1.11-10.99-1.42-11.23-0.32z"/>
    <path id="path47" stroke="#000" stroke-width=".036" stroke-miterlimit="10" d="m135.8 495.24c0.24 5.53 0.72 10.99 0.56 16.36 0.08 5.38-0.48 10.68-0.79 15.9-3.48-5.22-7.91-8.86-13.6-10.6-5.93-1.9-12.33-1.66-20.16-0.24-7.828 1.11-17.791 6.49-26.249 7.28-8.699 0.63-21.585 0.55-25.222-3.24-3.715-4.11-1.345-16.21 2.846-20.48 3.717-4.35 11.305-6.72 20.634-4.98 9.33 1.42 24.194 14.23 34.791 14.31 10.43-0.08 19.29-4.74 27.19-14.31z"/>
    <path id="path49" d="m107.58 511.84c-3.24-0.16-6.96-1.34-12.334-3.56-5.456-2.45-13.363-8.14-19.133-9.8-5.93-1.66-11.386-1.74-15.418-0.24-4.188 1.58-7.431 5.14-8.776 8.86-1.344 3.4-1.105 6.88 0.713 11.07 2.134 0.07 4.19-0.16 5.851-1.03 1.581-0.87 3.005-2.29 4.271-4.27-0.238 2.21-1.03 3.87-2.058 5.3-1.187 1.26-2.687 2.29-4.506 2.76 6.245 0.95 11.938 1.11 17.394 0.48 5.297-0.87 8.855-2.69 14.627-4.27 5.611-1.66 12.169-3.32 19.369-5.3z" stroke="#000" stroke-miterlimit="10" stroke-width=".036" fill="#ffeb3f"/>
    <path id="path51" d="m115.72 511.05c3.88-0.95 7.2-2.21 10.28-3.79 3.01-1.74 5.69-3.72 8.06-6.25l-0.47 18.1c-3.01-2.45-5.85-4.18-8.85-5.53-3.09-1.34-6.09-2.29-9.02-2.53z" stroke="#000" stroke-miterlimit="10" stroke-width=".036" fill="#ffeb3f"/>
    <path id="path53" stroke="#000" stroke-width=".036" stroke-miterlimit="10" d="m69.551 503.3c0.079 0.56-5.533 4.67-7.036 4.75-1.581-0.16-3.006-3.8-1.819-4.51 1.027-0.95 8.46-1.03 8.855-0.24z"/>
    <path id="path55" stroke="#000" stroke-width=".036" stroke-miterlimit="10" d="m240.84 461.78c2.37 3.56 4.19 7.2 5.77 10.91 1.5 3.4 3.87 6.4 3.16 11.15-0.95 4.66-3.71 10.43-8.3 17.31 5.21-7.43 10.12-11.46 14.39-11.23 4.27 0 5.06 10.04 11.22 11.55 5.93 1.42 18.82 0.47 24.36-3.8 5.29-4.66 8.46-15.73 7.03-23.72-1.89-8.45-10.67-23.79-16.6-24.98-5.85-0.95-11.94 16.45-18.58 18.9-6.8 1.97-14.39 0.15-22.45-6.09z"/>
    <path id="path57" d="m245.66 466.6c2.06 1.58 4.5 2.85 7.35 3.8 2.77 0.95 6.25 2.61 9.57 1.66 3.08-1.34 6.8-6.48 9.33-9.33 2.29-3.16 3-7.35 5.14-8.62 1.97-1.5 4.42-1.5 7.03 0.63 2.69 1.9 6.49 7.6 8.94 11.86 1.97 4.43 3.48 9.73 3.87 13.44 0.4 3.24-0.24 5.38-1.58 6.41-1.66-3.01-3.16-4.51-4.51-4.19-1.58 0.23-3.48 3.08-3.87 5.45-0.4 2.22 0.47 5.38 1.34 7.04 0.56 1.19 1.51 1.9 2.53 1.26-4.58 2.06-8.46 3.25-12.49 3.56-4.27 0.16-8.22-0.16-11.23-1.89-2.76-2.06-4.26-7.6-5.77-9.33-1.74-1.74-3.24-1.74-4.82-1.27-1.89 0.08-3.79 1.03-6.01 2.53 1.42-2.93 2.06-5.69 2.22-8.3-0.08-2.69-0.72-5.14-1.9-7.67-1.19-2.61-3.01-4.74-5.14-7.04z" stroke="#000" stroke-miterlimit="10" stroke-width=".036" fill="#ff471f"/>
    <path id="path59" stroke="#000" stroke-width=".036" stroke-miterlimit="10" d="m282.69 463.26c2.79 0 5.06 2.3 5.06 5.14 0 2.83-2.27 5.13-5.06 5.13s-5.06-2.3-5.06-5.13c0-2.84 2.27-5.14 5.06-5.14"/>
    <path id="path61" stroke="#000" stroke-width=".036" stroke-miterlimit="10" d="m207.71 584.01c1.74-5.06 1.74-9.65 0-14.39-2.06-4.66-11.39-9.17-10.59-13.52 0.94-4.74 15.33-9.01 15.41-13.76-0.47-5.14-17.31-10.75-17-15.33 0.08-4.67 19.69-7.2 18.58-12.18-1.5-5.06-24.58-10.83-25.61-17.95-1.03-7.51 17.07-24.58 19.84-25.3 2.37-0.63-9.8 14.63-4.5 21.43 5.29 6.72 31.7 12.49 35.89 18.26 3.79 5.46-12.57 10.6-11.86 15.1 0.4 4.51 15.97 6.33 15.65 11.86-0.55 5.38-16.36 12.81-17.55 20.16-1.02 7.04 2.3 14.71 10.83 22.69-9.64 0.95-19.36 1.9-29.09 2.93z"/>
    <path id="path68" d="m211.5 581.08c1.98 0 4.67-0.31 7.44-0.63 2.68-0.47 6.08-1.1 9.56-1.9-7.74-8.69-10.83-15.97-9.56-22.45 1.34-6.4 16.84-11.62 16.92-15.97-0.64-4.59-17.79-7.51-18.58-11.54-0.56-4.27 15.97-9.25 14.78-13.44-1.66-4.43-17.79-7.67-23.4-12.18-5.54-4.74-8.86-9.25-9.65-14.71-4.34 3.09-5.93 5.86-5.06 8.62 0.87 2.61 5.69 4.04 10.2 7.36 4.19 3.24 15.34 7.51 15.1 11.54-0.87 3.56-16.6 7.2-17.31 11.23-0.48 4.11 12.65 9.09 14.39 12.81 1.42 3.24-2.53 4.98-4.82 7.67-2.53 2.68-9.17 6.16-9.57 8.61-0.63 2.06 4.35 0.71 6.09 4.82 1.5 4.27 2.76 10.68 3.47 20.16z" stroke="#000" stroke-miterlimit="10" stroke-width=".036" fill="url(#XMLID_5_)"/>
    <path id="path70" stroke="#000" stroke-width=".036" stroke-miterlimit="10" d="m171.66 585.67c2.61-5.38 3.24-10.6 1.89-15.97-1.5-5.62-11.54-11.47-9.96-16.37 1.43-4.98 18.5-7.98 18.9-13.28 0.16-5.54-17.87-14.31-16.92-19.29 1.11-5.14 22.45-5.38 22.21-11.07-0.94-5.77-26.01-15.34-26.08-23.24-0.16-8.31 22.21-25.15 25.37-25.54 2.69-0.16-12.73 14.71-7.82 23.24 4.98 8.07 33.44 18.03 37.47 24.99 3.48 6.64-15.18 9.96-15.1 15.18 0.24 4.9 16.6 9.25 15.89 15.18-1.18 5.69-20.08 12.17-22.21 20.08-2.38 7.9 0.94 16.6 9.09 26.72-10.91-0.16-21.82-0.4-32.73-0.63z"/>
    <path id="path77" d="m176.32 582.98c2.22 0.24 4.98 0.32 8.3 0.24 3.09-0.08 6.72-0.48 10.91-0.87-7.35-10.52-10.04-19.14-7.74-26.17 2.21-7.04 20.47-10.52 20.95-15.58 0.23-5.38-19.06-10.43-19.14-15.18-0.15-4.9 18.9-8.14 18.11-13.04-1.27-5.22-18.74-10.84-24.35-16.53-5.62-5.77-8.54-11.54-8.78-17.63-5.3 2.93-7.27 5.7-6.8 8.94 0.56 2.84 5.93 5.29 10.36 9.48 4.43 3.96 15.81 10.52 15.26 14.79-1.11 4.03-19.69 5.69-20.72 10.2-1.02 4.35 12.73 11.85 14.39 16.13 0.95 3.79-3.08 5.21-6.32 7.9-3.32 2.85-10.83 5.62-11.86 8.3-1.11 2.38 4.9 1.19 6.17 6.17 1.1 4.82 1.74 12.33 1.26 22.85z" stroke="#000" stroke-miterlimit="10" stroke-width=".036" fill="url(#XMLID_6_)"/>
    <path id="path79" stroke="#000" stroke-width=".036" stroke-miterlimit="10" d="m140.11 583.82c2.77-4.58 3.8-9.17 3.09-14.07-0.87-5.22-9.17-11.07-7.51-15.42 1.74-4.27 16.84-5.53 17.86-10.2 0.48-4.9-14.54-14.23-13.36-18.58 1.19-4.43 20.79-3.16 20.72-8.06-0.4-5.53-21.82-15.5-21.27-22.85 0.71-7.51 21.74-20.48 24.66-20.64 2.62-0.08-12.72 12.42-8.85 20.09 3.87 7.59 28.23 18.89 31.23 25.37 2.53 6.09-14.47 7.75-14.71 12.26-0.31 4.35 13.92 9.72 12.81 14.86-1.74 5.06-18.73 9.1-21.42 16.05-2.69 6.8-0.64 14.87 5.85 24.51-9.65-1.1-19.37-2.21-29.1-3.32z"/>
    <path id="path86" d="m145.54 582.35c1.9 0.47 4.43 0.55 7.28 0.86 2.84 0.24 6 0.08 9.8 0.16-5.61-10.19-7.27-17.79-4.67-23.95 2.69-6.01 18.9-7.91 19.93-12.1 0.55-4.66-15.97-11.15-15.74-15.18 0.24-4.43 17.48-5.53 17.24-10.04-0.79-4.59-15.81-11.31-20.32-16.76-4.43-5.62-6.64-10.99-6.32-16.44-4.83 2.05-7.2 4.5-6.8 7.35 0.15 2.84 4.9 5.14 8.46 9.33 3.48 3.79 13.28 10.75 12.33 14.46-1.34 3.48-18.03 3.4-19.29 7.36-1.5 3.95 10.52 11.46 11.38 15.49 0.72 3.32-3.4 4.59-6.24 6.57-3.08 2.05-10.28 4.19-11.23 6.4-1.03 1.82 3.95 1.58 4.9 6.01 0.63 4.43 0.4 11.15-0.71 20.48z" stroke="#000" stroke-miterlimit="10" stroke-width=".036" fill="url(#XMLID_7_)"/>
    <path id="path88" stroke="#000" stroke-width=".036" stroke-miterlimit="10" d="m73.662 503.54c1.739 1.9 2.528 3.64 2.057 5.54-0.396 1.66-2.057 3.47-4.667 5.13 4.509-1.1 6.722-2.53 7.275-4.27 0.395-1.82-1.265-3.95-4.665-6.4z"/>
    <path id="path90" stroke="#000" stroke-width=".036" stroke-miterlimit="10" d="m307.09 375.84c-0.95 1.19-1.34 2.77-0.87 4.74 0.24 1.98 1.35 4.27 3 7.2-4.82-2.53-7.27-4.9-7.66-6.8-0.32-1.98 1.42-3.79 5.53-5.14z"/>
    <path id="path92" stroke="#000" stroke-width=".036" stroke-miterlimit="10" d="m272.54 474.35c-0.87 2.45-0.87 5.06 0 8.15 0.71 3 2.53 6.4 5.14 10.2-4.03-1.51-6.56-3.88-7.27-6.8-0.87-3.09-0.16-7.04 2.13-11.55z"/>
    <path id="path94" stroke="#000" stroke-width=".036" stroke-miterlimit="10" d="m265.74 474.83c-1.03 2.6-1.74 5.06-1.26 7.66 0.08 2.38 1.34 4.91 2.92 7.28-3.56-2.37-5.3-4.9-5.53-7.28-0.32-2.6 0.87-5.05 3.87-7.66z"/>
    <path id="path96" stroke="#000" stroke-width=".036" stroke-miterlimit="10" d="m221.55 92.483c-7.12 0.238-13.29-0.791-18.82-3.083-5.69-2.293-10.2-6.562-14.39-10.673-4.19-4.428-7.75-9.093-10.67-14.864 1.97-2.056 4.82-3.479 8.54-3.954 3.63-0.474 8.14-0.315 13.51 0.792 0.32-4.428 1.43-7.669 3.33-10.042 1.73-2.292 4.66-4.111 7.58-3.953 2.53-0.159 6.96 1.107 8.7 3.479 1.82 2.372 0.56 7.669 1.98 10.356 1.11 2.292 2.85 3.795 5.22 4.191 2.69-8.618 7.19-15.417 13.52-20.398 6.24-5.059 14.31-8.223 24.19-9.803-0.87 13.282-2.77 23.007-5.69 30.359-3.01 7.037-6.96 11.228-12.18 12.255 3.56 3.4 8.15 6.088 14.07 9.013 5.7 2.609 12.73 5.14 20.8 7.273-2.22 4.27-4.51 6.959-7.2 8.929-2.92 1.9-5.61 2.22-9.01 1.82 1.82 3.48 2.13 5.85 0.95 7.12-1.27 1.1-3.96 1.26-8.38 0.16 2.61 3.63 3.08 6.01 1.1 7.43-2.21 1.42-6.08 1.58-12.8 0.79-1.82-7.12-3.64-12.65-5.78-16.6-2.05-4.194-3.79-5.458-6.72-7.197-3.16-1.897-7.11-2.925-11.85-3.4z"/>
    <path id="path98" d="m200.99 61.096c0.08-2.529 0.79-4.585 1.82-6.482 1.02-2.135 2.37-3.875 4.35-4.902 1.73-1.106 4.5-1.582 6.48-1.106 1.66 0.315 3.56 1.106 4.5 3.32 0.88 2.056-0.23 6.404 1.27 9.092 1.35 2.372 3.87 4.348 7.27 5.929 4.04-9.091 8.15-15.574 12.65-20.318 4.51-4.665 9.81-6.246 13.76-7.748 3.79-1.502 6.25-2.452 8.22-1.977 1.27 2.767 1.51 5.218 0.71 7.352-0.87 1.978-2.68 3.637-5.77 4.981 2.77 1.898 3.72 3.954 3.17 6.167-0.72 2.056-3.25 4.348-7.28 6.563 3.17 0.711 4.27 2.371 3.32 4.664-1.18 2.214-4.03 5.376-9.4 9.171-5.3-2.768-7.91-3.953-7.83-3.242-0.16 0.554 3.48 3.953 7.83 6.878 4.34 2.688 12.09 7.037 17.7 9.725 5.22 2.609 9.89 4.111 14 5.376-2.69 4.507-5.38 6.961-8.94 7.671-3.56 0.63-7.35-0.79-11.7-3.955 4.67 3.715 7.12 6.325 7.67 8.455 0.24 2.06-2.61 3.72-4.9 3.48-2.29-0.63-5.06-2.45-8.62-6.32 2.93 5.14 4.83 8.46 5.38 10.83 0.39 2.06-0.63 1.82-2.14 2.29-1.58 0.48-3.87 0.63-7.19 0.48-2.14-8.15-4.59-13.92-7.04-18.189-2.53-4.19-5.37-4.981-8.22-6.641-3.24-1.977-6.72-1.266-9.49-4.269-2.61-3.162-4.11-10.595-6.64-14.073-2.92-3.558-6.16-6.325-10.04-7.669-0.87-1.581-1.82-2.688-2.53-3.636-0.87-0.948-1.66-1.581-2.37-1.897z" stroke="#000" stroke-miterlimit="10" stroke-width=".036" fill="#b87800"/>
    <path id="path100" stroke="#000" stroke-width=".036" stroke-miterlimit="10" d="m208.26 57.143c0.48 1.028 1.74 1.423 2.77 0.949 1.11-0.475 1.58-1.739 1.11-2.768-0.48-1.027-1.74-1.423-2.85-0.948-1.03 0.475-1.5 1.74-1.03 2.767z"/>
    <path id="path102" d="m200.91 62.757c-1.34 1.186-1.98 2.372-2.53 3.242-0.55 0.948-0.71 1.581-0.48 2.213 1.43 0.079 2.54-0.158 3.64-0.396 1.03-0.316 2.06-0.948 2.77-1.581-0.55-0.949-0.95-1.818-1.5-2.292-0.55-0.712-1.19-1.108-1.9-1.186z" stroke="#000" stroke-miterlimit="10" stroke-width=".036" fill="#ff0"/>
    <path id="path104" d="m199.09 62.835c-3.56-0.948-7.03-1.501-10.12-1.343-3.32 0-6.24 0.632-9.09 1.898 0.39 3.003 2.21 5.455 4.58 7.668 2.3 2.214 6.01 3.874 10.28 5.297-1.5 1.186-1.97 2.451-1.42 3.795 0.47 1.265 2.13 3.162 4.11 3.874 1.74 0.711 4.03 0.315 6.88-0.316-0.71 0.948-0.63 2.056 0.55 3.003 1.03 0.712 2.93 1.978 5.7 2.531 2.76 0.395 5.85 0.711 10.11 0.633-1.42-1.978-2.45-4.27-3.39-6.563-1.03-2.529-0.32-4.822-2.14-7.511-2.14-2.609-5.22-5.297-9.88-8.064-2.85 1.186-5.06 1.74-6.64 1.977-1.74 0.078-2.61-0.159-2.93-1.028-0.08-1.107 0.55-2.134 1.03-3.083s1.26-1.977 2.37-2.768z" stroke="#000" stroke-miterlimit="10" stroke-width=".036" fill="#b87800"/>
    <path id="path106" stroke="#000" stroke-width=".036" stroke-miterlimit="10" d="m128.73 60.068c-0.56-2.767-1.98-4.981-3.4-6.641-1.82-1.977-4.03-3.4-6.33-3.954-2.45-0.631-5.37-0.79-7.51 0.475-2.21 0.949-4.98 4.032-5.85 6.246-1.1 2.135 0.4 4.507-0.39 6.167-1.03 1.186-2.3 1.818-4.67 1.582-0.55-5.06-1.423-9.409-2.608-13.361-1.187-3.875-2.293-6.8-4.823-9.962-2.926-3.716-9.407-9.725-11.858-10.752-2.61-1.027-2.61 2.767-3.005 5.297-0.553 2.372-0.474 5.534 0.236 9.487-2.685-2.056-5.533-3.795-8.536-4.901-3.163-1.266-6.485-2.135-9.964-2.609-1.422 5.771-1.976 11.227-1.66 16.05 0.238 4.665-1.184 7.985 3.32 12.729 4.429 4.744 11.782 9.803 22.69 15.496-1.66 3.083-5.454 5.296-11.699 6.641-6.248 1.106-14.706 1.739-25.378 1.027 1.896 3.162 4.427 5.534 7.272 7.116 2.767 1.581 6.166 2.292 9.883 2.45-3.164 2.529-4.032 4.429-2.609 5.689 1.424 1.03 4.822 1.43 10.832 1.19-2.451 3.4-3.164 6.01-2.134 7.51 1.024 1.34 3.319 1.9 7.746 1.34l10.595-18.259c7.905 0.08 14.23-1.898 18.98-5.06 4.58-3.795 5.85-11.068 9.01-15.101 3.08-3.953 5.77-6.562 8.93-8.143 2.45 0.159 4.27 0.316 5.77 0.159 1.43-0.159 2.22-0.475 2.69-0.949-0.63-1.739-1.66-3.162-2.45-4.269-0.95-1.266-1.97-2.057-3.08-2.69z"/>
    <path id="path108" d="m126.36 60.306c-0.72 0.633-1.03 1.345-1.27 2.451-0.24 0.87-0.4 2.056-0.16 3.557-3 1.74-5.61 3.558-7.51 5.772-2.05 1.976-2.85 4.426-4.19 7.036-1.5 2.61-2.77 6.246-4.98 8.776-2.69 2.292-6.01 4.032-9.645 5.218-3.638 1.028-7.511 1.423-11.938 1.186l-10.041 18.108c-1.819 0.39-3.32 0-3.638-0.87-0.554-1.03-0.554-2.69 0.633-4.67 1.026-2.37 6.089-6.876 5.694-7.431-0.794-0.553-6.327 4.111-8.936 4.821-2.689 0.56-6.168 0-6.482-1.02-0.475-1.11 0.791-3.01 3.793-5.697-2.449 0.237-4.585 0.475-6.404 0.08-2.133-0.475-3.555-0.949-5.139-2.056-1.58-1.028-2.846-2.609-3.795-4.428 10.518 0.316 18.581-0.711 24.509-2.45 5.933-2.056 9.094-4.823 10.359-8.935-4.903-2.134-8.382-3.953-11.384-5.455-3.164-1.582-5.615-2.767-6.09-3.875-0.553-1.344 0.475-2.767 3.082-4.269-4.031-0.474-6.166-1.186-7.352-2.45-1.107-1.186-0.948-2.925 0.791-4.903-2.688-1.897-4.587-4.348-5.377-7.668-1.027-3.4-1.027-7.432 0-12.097 6.087 1.424 11.307 3.479 15.97 6.483 4.508 3.005 7.434 6.958 11.228 10.91 3.638 3.479 6.643 8.935 9.883 10.595 3.089 1.423 6.559 0.08 8.299-1.265 1.43-1.501 0.08-4.822 0.87-6.958 0.63-2.292 1.66-4.822 3.4-6.088 1.74-1.423 4.43-2.292 6.88-1.976 2.14 0 4.9 1.423 6.48 3.084 1.51 1.661 2.22 3.717 2.46 6.484z" stroke="#000" stroke-miterlimit="10" stroke-width=".036" fill="#b87800"/>
    <path id="path110" d="m82.556 46.707c-1.345-1.502-2.134-3.399-2.372-5.692-0.474-2.61-0.712-8.459 0.791-8.697 1.502-0.316 5.454 3.32 8.223 6.641 2.449 2.846 5.296 7.431 6.72 11.622 1.501 4.189 1.898 8.222 1.816 12.966-2.29-3.479-4.662-6.246-7.114-9.171-2.61-2.925-5.298-5.376-8.064-7.669z" stroke="#000" stroke-miterlimit="10" stroke-width=".036" fill="#b87800"/>
    <path id="path112" stroke="#000" stroke-width=".036" stroke-miterlimit="10" d="m117.45 55.667c1.22 0 2.21 0.957 2.21 2.134 0 1.178-0.99 2.135-2.21 2.135-1.23 0-2.22-0.957-2.22-2.135 0-1.177 0.99-2.134 2.22-2.134"/>
    <path id="path114" d="m127.22 61.334c1.19 0.078 1.98 0.553 3.01 1.423 0.87 0.87 1.66 1.897 2.37 3.399-0.71 0.237-1.58 0.474-2.61 0.396-1.1-0.159-2.37-0.316-3.79-0.791-0.32-1.344-0.24-2.371-0.08-3.083 0.08-0.711 0.55-1.266 1.1-1.344z" stroke="#000" stroke-miterlimit="10" stroke-width=".036" fill="#ff0"/>
    <path id="path116" stroke="#000" stroke-width=".036" stroke-miterlimit="10" d="m181.22 256.14c-0.31-2.37-0.23-4.66 0.56-6.56 0.79-2.37 1.98-4.19 3.87-5.46 1.74-1.34 3.88-2.45 6.41-2.13 2.13 0.08 5.14 1.74 6.88 3.16 1.34 1.27 1.34 3.95 2.44 4.98 1.19 0.71 2.54 0.71 4.35-0.31-1.34-4.35-2.13-8.3-2.37-11.86-0.55-3.8-0.47-6.17 0.56-9.89 0.94-4.11 4.34-11.14 6.24-12.88 1.58-1.82 3.01 1.42 4.27 3.32 1.03 1.89 2.29 4.43 2.93 7.91 1.42-2.69 3.24-4.91 5.45-6.96 2.06-2.14 4.51-3.96 7.35-5.46 3.09 4.43 5.46 8.54 6.8 12.65 1.27 4.19 3.48 5.93 1.51 11.62-2.14 5.3-6.41 12.26-13.44 20.56 2.37 1.9 6.32 2.61 11.85 1.5 5.62-1.19 12.42-3.56 21.35-7.75-0.63 3.16-1.81 5.93-3.55 8.3-1.9 2.38-4.36 3.88-7.36 5.38 3.32 1.11 4.98 2.37 4.11 3.8-0.63 1.26-3.79 2.92-8.61 4.66 3.16 1.98 4.5 3.8 4.34 5.46-0.47 1.42-2.13 2.76-5.92 3.71l-14.95-11.46c-6.64 2.69-12.33 3.32-17.39 2.21-5.06-1.5-8.94-6.96-12.57-9.33-3.8-2.37-7.27-3.32-10.12-3.71-2.06 0.87-3.4 1.66-4.67 2.05-1.34 0.24-1.97 0.4-2.53 0.16 0-1.74 0.08-3.08 0.56-4.35 0.23-1.26 0.79-2.37 1.65-3.32z"/>
    <path id="path118" d="m183.2 255.59c0.71 0.23 1.34 0.87 1.9 1.58 0.39 0.63 0.95 1.58 1.34 2.85 3.17 0.47 5.77 1.02 8.15 2.29 2.29 0.95 3.63 2.61 5.85 4.35 2.05 1.58 4.11 4.34 7.11 5.53 2.85 1.03 6.17 1.27 9.65 1.03 3.4-0.32 6.72-1.42 10.28-3.01l14.46 11.55h0.01c1.66-0.48 2.45-1.03 2.68-1.98 0.08-1.03-0.63-2.45-2.13-3.64-1.82-1.34-7.36-3.87-7.2-4.19 0.08-0.55 6.65 1.19 9.02 0.95 2.21-0.63 4.9-1.97 4.98-3.08 0.08-1.19-1.9-2.22-5.06-3.4 2.05-0.63 3.71-1.03 5.3-2.06 1.5-1.1 2.6-1.97 3.63-3.48 0.95-1.58 1.27-2.92 1.58-4.9-8.69 3.8-15.49 5.77-21.03 6.25-5.45 0.31-9.33-0.87-11.62-3.88 3.32-3.39 5.46-6.08 7.59-8.38 1.9-2.29 3.64-4.03 3.72-5.21-0.08-1.19-1.43-2.3-4.03-2.46 3-1.58 4.66-3.32 5.29-4.58 0.48-1.42-0.31-2.69-2.37-3.8 1.5-2.37 2.21-5.06 1.82-8.06-0.48-3-1.82-6.32-4.03-9.96-4.67 3.32-8.23 6.8-10.99 10.75-2.61 3.88-4.27 8.46-5.61 12.81-1.67 4.11-2.85 9.56-4.51 12.1-2.14 2.21-5.69 2.29-7.36 1.73-1.89-0.79-1.89-3.95-3.08-5.53-1.26-1.82-3.16-3.32-4.82-3.87-2.06-0.56-4.59-0.32-6.33 0.71-1.97 0.95-3.63 2.84-4.34 4.82-0.8 1.74-0.64 3.8 0.15 6.17z" stroke="#000" stroke-miterlimit="10" stroke-width=".036" fill="#b87800"/>
    <path id="path120" d="m214.74 229.5c0.56-1.66 0.56-3.48 0-5.46-0.78-2.37-2.29-7.03-3.55-6.96-1.43 0.08-3.64 4.75-4.51 8.23-1.19 3.48-1.82 7.67-1.58 11.94 0.16 3.95 1.11 7.51 2.85 11.3 0.63-3.63 1.66-6.88 2.76-10.04 1.03-3.4 2.37-6.09 4.03-9.01z" stroke="#000" stroke-miterlimit="10" stroke-width=".036" fill="#b87800"/>
    <path id="path122" stroke="#000" stroke-width=".036" stroke-miterlimit="10" d="m187.79 251.16c0.39 0.95 1.58 1.42 2.6 0.95 1.03-0.4 1.51-1.5 1.11-2.53-0.4-0.95-1.5-1.42-2.53-0.95-1.1 0.4-1.58 1.5-1.18 2.53z"/>
    <path id="path124" d="m182.8 256.77c-0.94 0.4-1.5 1.11-1.97 2.14-0.56 0.87-0.71 2.05-0.79 3.56 0.63 0.15 1.5-0.32 2.29-0.56 0.79-0.47 1.74-1.1 2.85-1.89-0.24-1.27-0.56-2.14-0.95-2.61-0.4-0.48-0.87-0.79-1.43-0.64z" stroke="#000" stroke-miterlimit="10" stroke-width=".036" fill="#ff0"/>
  </g>
  <metadata>
    <rdf:RDF>
      <cc:Work>
        <dc:format>image/svg+xml</dc:format>
        <dc:type rdf:resource="http://purl.org/dc/dcmitype/StillImage"/>
        <cc:license rdf:resource="http://creativecommons.org/licenses/publicdomain/"/>
        <dc:publisher>
          <cc:Agent rdf:about="http://openclipart.org/">
            <dc:title>Openclipart</dc:title>
          </cc:Agent>
        </dc:publisher>
        <dc:title>Creation Days Numbers</dc:title>
        <dc:date>2007-11-13T16:32:45</dc:date>
        <dc:description>The days of creation - completed originally to fulfill a request on the OpenClipart wiki.</dc:description>
        <dc:source>http://openclipart.org/detail/8224/creation-days-numbers-by-gerald_g-8224</dc:source>
        <dc:creator>
          <cc:Agent>
            <dc:title>Gerald_G</dc:title>
          </cc:Agent>
        </dc:creator>
        <dc:subject>
          <rdf:Bag>
            <rdf:li>adam</rdf:li>
            <rdf:li>cartoon</rdf:li>
            <rdf:li>clip art</rdf:li>
            <rdf:li>clipart</rdf:li>
            <rdf:li>creation</rdf:li>
            <rdf:li>eve</rdf:li>
            <rdf:li>god</rdf:li>
            <rdf:li>number</rdf:li>
            <rdf:li>religion</rdf:li>
          </rdf:Bag>
        </dc:subject>
      </cc:Work>
      <cc:License rdf:about="http://creativecommons.org/licenses/publicdomain/">
        <cc:permits rdf:resource="http://creativecommons.org/ns#Reproduction"/>
        <cc:permits rdf:resource="http://creativecommons.org/ns#Distribution"/>
        <cc:permits rdf:resource="http://creativecommons.org/ns#DerivativeWorks"/>
      </cc:License>
    </rdf:RDF>
  </metadata>
</svg>
