<?xml version="1.0" encoding="utf-8"?>
<!-- Generator: Adobe Illustrator 22.0.1, SVG Export Plug-In . SVG Version: 6.00 Build 0)  -->
<svg version="1.1" id="Layer_1" xmlns="http://www.w3.org/2000/svg" xmlns:xlink="http://www.w3.org/1999/xlink" x="0px" y="0px"
	 width="850.4px" height="850.4px" viewBox="0 0 850.4 850.4" style="enable-background:new 0 0 850.4 850.4;" xml:space="preserve"
	>
<style type="text/css">
	.st0{fill:#F26638;}
	.st1{fill:#FFFFFF;}
	.st2{fill:#F6C73E;}
</style>
<g>
	<path class="st0" d="M400.7,313.6c17.3-49.5,232.1-40,261.4,3c3.6,5.4,9.5,8.9,16.1,8.9c12.5,0,23.3-13.1,23.3-28.6
		c4.5-41.9,5.2-84.6,2.8-127.1c24.4-37.4,50.5-70.8,81.4-103.9c-42.3-1-84.1,7.7-123.2,23.7c-3.6-5-7.4-9.9-11.4-14.6
		C659.4,51.5,669,28.6,680,5.3c-24.5,7.2-47.7,17.7-69.5,30.8c-11.7-8.9-24.3-16.7-37.6-23.3c2.6,15,4.4,30.2,5.6,45.4
		c-3,2.3-5.9,4.7-8.8,7.1c-12.5-9.2-25.8-17.3-39.7-24.1c5.3-13.1,11.1-26.1,17.3-39.3c-20,5.9-39.2,14-57.4,23.9
		c-9.5-2.7-19.1-4.8-28.9-6.3c3.1,6,6.1,12.1,9,18.2c-11.4,7.4-22.4,15.5-32.9,24.3c-4.3-3.2-8.6-6.2-13.1-9
		c5.5-13.6,11.4-27.1,17.9-40.8C423.8,17.6,406,24.9,389,33.8c-19.2-8.5-39.4-14.5-60.2-17.7c7.3,14,13.9,28.4,19.8,43
		c-5.6,4.2-11.2,8.5-16.6,13c-11.4-8.4-23.4-15.9-36-22.3c-7.4-13.9-14.2-28.1-20.2-42.6c-5.5,9.1-10.3,18.5-14.5,28.1
		c-12.3-4.1-25-7.1-37.9-9.1c7.9,15.1,14.9,30.5,21.2,46.3c-3.4-3.5-6.7-7.1-10-10.7c-4.3,19.9-5.8,40.2-5,60.4
		c-37.3,8-73.2,22.4-105,43.7c31.2,8.1,60.4,17.6,89.4,29.1c-26.7,18.2-50.7,40.3-70.3,66.2c18.1-1.4,35.7-2.2,53.2-2.4
		c-9.9,9.8-19.3,20.1-27.7,31.3c22.3-1.8,44-2.6,65.6-2.4L170,315.7l62.2,46.3l-65.5,28.2l56.9,42.4L171.7,455l63.6,47.4l-16.6,51.5
		l71.1-15.3l10.5,69.4l56.7-45.3l20.1,63.6l47.1-51.5l15.7,49.8l37.4-40.8c1,1,2,2,2.9,3l-15.7,31.5l25-1.5
		c-0.2,13.8-4.6,28.1-11.6,38c-14.9,21.5-44.7,28-71.6,26.8c-51.9-2.4-139-31.6-168.9,29.8c-43.6,87.7,109.2,140.2,263.1,131.3
		c149.8-8.4,251.8-226.2,186.2-364C628.7,357.1,372.1,397.1,400.7,313.6z"/>
	<path class="st1" d="M428.8,210.4c0,55.3-44.9,100.2-100.2,100.2c-55.3,0-100.2-45-100.2-100.2c0-55.2,45-100.2,100.2-100.2
		C383.8,110.1,428.8,155.1,428.8,210.4z"/>
	<path d="M327.4,162.6c-25.2,0-45.5,20.4-45.5,45.5s20.4,45.5,45.5,45.5c25.2,0,45.5-20.4,45.5-45.5S352.6,162.6,327.4,162.6z
		 M310.7,212.7c-7.1,0-12.9-5.8-12.9-12.9c0-7.1,5.8-12.9,12.9-12.9s12.9,5.8,12.9,12.9C323.6,206.9,317.9,212.7,310.7,212.7z"/>
	<path class="st1" d="M589.3,173.2c0,40.8-33.2,74.1-74.1,74.1c-40.8,0-74.1-33.2-74.1-74.1c0-40.8,33.3-74.1,74.1-74.1
		C556.2,99.1,589.3,132.4,589.3,173.2z"/>
	<path d="M514.5,137.9c-18.6,0-33.7,15.1-33.7,33.7s15.1,33.7,33.7,33.7c18.6,0,33.7-15.1,33.7-33.7S533.1,137.9,514.5,137.9z
		 M502.1,174.9c-5.3,0-9.5-4.3-9.5-9.5c0-5.3,4.3-9.5,9.5-9.5s9.5,4.3,9.5,9.5C511.7,170.6,507.4,174.9,502.1,174.9z"/>
	<g>
		<path class="st1" d="M650.9,498.7c-30.7,22.1-70.6,26.8-108.4,26.9c-52.7,0.2-105.3-6.9-156.1-21c-31.8-8.8-63.5-20.8-88.9-41.8
			c-55.3-45.6-6.2-119,58.3-102c30.1,7.9,51.1,34.1,76.4,52.2c36.7,26.2,81.5,34,125,41.3c6.5,1.1,43,7.1,70,16.1
			C650,478,666,487.8,650.9,498.7z"/>
	</g>
	<path d="M650.9,498.7c-30.7,22.1-70.6,26.8-108.4,26.9c-10.5,0-21-0.2-31.4-0.7v-16.4c0-6.5-2.7-12.5-7-16.8
		c-4.3-4.3-10.3-7-16.8-7c-13.1,0-23.8,10.7-23.8,23.8v12c-5.7-0.7-11.3-1.6-17-2.5v-18c0-6.5-2.7-12.5-7-16.8
		c-4.3-4.3-10.3-7-16.8-7c-13.1,0-23.8,10.7-23.8,23.8v8c-4-1-7.9-2-11.9-3.2v-42.2c0-6.5-2.7-12.5-7-16.8c-4.3-4.3-10.3-7-16.8-7
		c-13.1,0-23.8,10.7-23.8,23.8v25.7c-15-6.7-29.3-14.9-42-25.4c-43.5-35.9-22.4-88.9,19.9-101.7v21.6c0,13.1,10.7,23.8,23.8,23.8
		c13.1,0,23.8-10.7,23.8-23.8v-18.8c4.1,1.7,8.1,3.7,12,5.9c-0.1,0.3-0.1,0.6-0.1,1v45.9c0,13.1,10.7,23.8,23.8,23.8
		c13.1,0,23.8-10.7,23.8-23.8v-9.6c2.5,2,5.1,4,7.7,5.9c1.4,1,2.8,1.9,4.1,2.9v38.2c0,13.1,10.7,23.8,23.8,23.8
		c13.1,0,23.8-10.7,23.8-23.8v-15.8c5.6,1.8,11.3,3.4,17,4.9v19.4c0,13.1,10.7,23.8,23.8,23.8s23.8-10.7,23.8-23.8v-9.7
		c2.9,0.5,5.8,1,8.8,1.5c1.4,0.2,4.3,0.7,8.2,1.4v15.4c0,13.1,10.7,23.8,23.8,23.8s23.8-10.7,23.8-23.8v-5c4.9,1.3,9.7,2.8,14.2,4.3
		C650,478,666,487.8,650.9,498.7z"/>
	<path class="st2" d="M686.6,478.8c-57.9-121.7-314.5-81.7-285.8-165.3c17.3-49.5,232.1-40,261.4,3c3.6,5.4,9.5,8.9,16.1,8.9
		c12.5,0,23.3-13.1,23.3-28.6c5.4-49.5,5.4-100.2,1.2-150.4c-1.2-9-8.4-15.5-17.3-16.1l-98.3-1c-14.8-24.1-41.4-40.3-71.7-40.3
		c-29.7,0-55.8,15.5-70.8,38.8l-38.2-0.4c-20.3-19.2-47.7-30.9-77.8-30.9c-62.8,0-113.8,51.1-113.8,113.8c0,31,12.5,59.1,32.6,79.7
		l-17.8,168c0,54.9,56.1,76.9,101.4,88.3c26.9,7.2,53.7,11.3,81.2,16.7c20.3,4.2,45.9,5.4,63.3,19.1c20.3,16.1,16.1,53.1,2.4,72.8
		c-14.9,21.5-44.7,28.1-71.6,26.8c-51.9-2.4-139-31.6-168.9,29.9c-43.6,87.7,109.2,140.2,263.1,131.3
		C650.2,834.5,752.2,616.7,686.6,478.8z M515.3,99.1c40.9,0,74.1,33.3,74.1,74.1c0,40.8-33.2,74.1-74.1,74.1
		c-40.8,0-74.1-33.2-74.1-74.1C441.2,132.4,474.5,99.1,515.3,99.1z M228.3,210.4c0-55.2,45-100.2,100.2-100.2
		c55.3,0,100.2,45,100.2,100.2c0,55.3-44.9,100.2-100.2,100.2C273.3,310.6,228.3,265.6,228.3,210.4z M386.4,504.6
		c-31.8-8.8-63.5-20.8-88.9-41.8c-55.3-45.6-6.2-119,58.3-102c30.1,7.9,51.1,34.1,76.4,52.2c36.7,26.2,81.5,34,125,41.3
		c6.5,1.1,43,7.1,70,16.1c22.8,7.6,38.8,17.5,23.7,28.4c-30.7,22.1-70.6,26.8-108.4,26.9C489.8,525.8,437.1,518.7,386.4,504.6z
		 M545.6,618.4c5.4-3.5,8.1-5.2,13.6-8.7c9.1-5.8,20.6-6.7,26.4-3.2c5.9,3.5,10.6,14.1,9.7,24.8c-0.5,6.4-0.8,9.7-1.3,16.1
		c-0.9,10.7-17.7,14.3-35.2,3.8C541.3,640.7,536.5,624.2,545.6,618.4z M507.9,591.7c-17.5-10.5-22.3-27-13.3-32.8
		c5.4-3.5,8.1-5.2,13.6-8.7c9.1-5.8,20.6-6.7,26.4-3.2c5.9,3.5,10.6,14.1,9.7,24.8c-0.5,6.4-0.8,9.7-1.3,16.1
		C542.2,598.7,525.4,602.2,507.9,591.7z M349.2,746c-0.7,8.9-1.1,13.3-1.8,22.1c-1.2,14.8-24.3,19.7-48.4,5.2
		c-24.1-14.4-30.7-37.1-18.3-45.2c7.5-4.8,11.2-7.2,18.7-12c12.5-8,28.3-9.2,36.4-4.3S350.4,731.2,349.2,746z M425.5,799.5
		c-0.5,6.4-0.8,9.7-1.3,16.1c-0.9,10.7-17.7,14.3-35.2,3.8c-17.5-10.5-22.3-27-13.3-32.8c5.4-3.5,8.1-5.2,13.6-8.7
		c9.1-5.8,20.6-6.7,26.4-3.2C421.6,778.2,426.3,788.7,425.5,799.5z M428.9,726.4c-0.5,6.4-0.8,9.7-1.3,16.1
		c-0.9,10.7-17.7,14.3-35.2,3.8c-17.5-10.5-22.3-27-13.3-32.8c5.4-3.5,8.1-5.2,13.6-8.7c9.1-5.8,20.6-6.7,26.4-3.2
		C425,705.1,429.7,715.7,428.9,726.4z M498.5,763.8c-0.5,6.4-0.8,9.7-1.3,16.1c-0.9,10.7-17.7,14.3-35.2,3.8
		c-17.5-10.5-22.3-27-13.3-32.8c5.4-3.5,8.1-5.2,13.6-8.7c9.1-5.8,20.6-6.7,26.4-3.2C494.7,742.5,499.4,753,498.5,763.8z
		 M496.1,725.8c-24.1-14.4-30.7-37.1-18.3-45.2c7.5-4.8,11.2-7.2,18.7-12c12.5-8,28.3-9.2,36.4-4.3c8.1,4.8,14.5,19.3,13.4,34.1
		c-0.7,8.9-1.1,13.3-1.8,22.1C543.3,735.4,520.2,740.3,496.1,725.8z M585.1,774c-0.5,6.4-0.8,9.7-1.3,16.1
		c-0.9,10.7-17.7,14.3-35.2,3.8c-17.5-10.5-22.3-27-13.3-32.8c5.4-3.5,8.1-5.2,13.6-8.7c9.1-5.8,20.6-6.7,26.4-3.2
		C581.3,752.7,586,763.2,585.1,774z M655,700.2c-0.7,8.9-1.1,13.3-1.8,22.1c-1.2,14.8-24.3,19.7-48.4,5.2
		c-24.1-14.4-30.7-37.1-18.3-45.2c7.5-4.8,11.2-7.2,18.7-12c12.5-8,28.3-9.2,36.4-4.3C649.7,670.9,656.1,685.4,655,700.2z
		 M673.4,622.8c-0.5,6.4-0.8,9.7-1.3,16.1c-0.9,10.7-17.7,14.3-35.2,3.8c-17.5-10.5-22.3-27-13.3-32.8c5.4-3.5,8.1-5.2,13.6-8.7
		c9.1-5.8,20.6-6.7,26.4-3.2C669.6,601.5,674.3,612.1,673.4,622.8z"/>
</g>
</svg>
