<?xml version="1.0" encoding="utf-8"?>
<!-- Generator: Adobe Illustrator 22.0.1, SVG Export Plug-In . SVG Version: 6.00 Build 0)  -->
<svg version="1.1" id="Layer_1" xmlns="http://www.w3.org/2000/svg" xmlns:xlink="http://www.w3.org/1999/xlink" x="0px" y="0px"
	 width="850.4px" height="850.4px" viewBox="0 0 850.4 850.4" style="enable-background:new 0 0 850.4 850.4;" xml:space="preserve"
	>
<style type="text/css">
	.st0{fill:#90BB42;}
	.st1{fill:#E7663C;}
	.st2{fill:#EEF0E8;}
	.st3{fill:#FFFFFF;}
	.st4{fill:#211D1E;}
</style>
<g>
	<path class="st0" d="M708.7,399.7l93.4-71.7c-0.9-0.4-75.6-32.6-132-56.9L736.4,144c-1,0.1-83,2.3-144.5,4.1l14.5-135.7
		c-0.9,0.4-81.1,39.4-146,71c0,0-0.1,0-0.1,0c-14.2-4.5-28.9-7.7-44-9.5l-0.2-0.1L276.4,3.6c0.1,0.7,4.1,44.6,8.5,92.1
		c-2,1-4.1,2-6.1,3.1c-0.8,0.4-1.6,0.8-2.4,1.3c-2.1,1.1-4.1,2.2-6.1,3.4c-2.2,1.3-4.3,2.5-6.5,3.8c-0.7,0.4-1.3,0.8-1.9,1.2
		c-1.2,0.8-2.4,1.6-3.7,2.3c-1,0.7-2,1.4-3,2c-2,1.4-4,2.7-6,4.2c-2,1.4-3.9,2.8-5.8,4.3c-0.3,0.2-0.6,0.5-0.9,0.7
		c-1.9,1.5-3.8,3-5.7,4.6c-0.3,0.3-0.6,0.5-0.9,0.8c-1.7,1.4-3.3,2.8-5,4.3c-2.4,2.1-4.8,4.3-7.1,6.5c-1.8,1.7-3.6,3.5-5.3,5.3
		c-0.1,0.1-0.3,0.3-0.4,0.4c-1.3,1.3-2.5,2.6-3.8,4c-0.8,0.8-1.6,1.7-2.3,2.5c-1.9,2.1-3.7,4.2-5.5,6.3c-1.5,1.7-2.9,3.4-4.3,5.2
		c-0.1,0.1-0.2,0.2-0.3,0.3c-1.7,2.1-3.4,4.3-5,6.4c-1.4,1.8-2.7,3.7-4,5.6c-0.6,0.7-1.1,1.5-1.5,2.2c-1.3,1.9-2.6,3.8-3.9,5.8
		c-0.8,1.2-1.5,2.4-2.2,3.6c-0.7,1.2-1.4,2.3-2.1,3.5c-1.2,1.9-2.2,3.8-3.3,5.8c-5.1,9-9.5,18.5-13.4,28.2c-1,2.4-1.9,4.9-2.7,7.4
		c-1,2.6-1.8,5.3-2.7,8c-0.3,0.9-0.6,1.8-0.9,2.8c-0.2,0.7-0.5,1.5-0.7,2.2c-0.3,1-0.6,2-0.9,3c-0.1,0.3-0.2,0.5-0.2,0.8
		c-0.3,1.2-0.7,2.4-1,3.6c-0.5,1.8-0.9,3.6-1.3,5.4c-0.1,0.3-0.1,0.6-0.2,0.9c-0.4,1.8-0.8,3.5-1.2,5.3c-0.3,1.6-0.6,3.2-0.9,4.8
		c-0.3,1.5-0.6,3.1-0.8,4.6c-0.2,1.3-0.4,2.6-0.6,3.9c-1.1,7.1-1.8,14.3-2.2,21.6c-0.1,1.4-0.1,2.7-0.2,4.1v0.6
		c-0.1,1.1-0.1,2.2-0.1,3.4c0,1.7-0.1,3.5-0.1,5.2c0,91.7,52,171.3,128,211.2c12.4,19.7,53.2,84.5,53.7,85.2l4.7,7.5l3.9-7.9
		c0.2-0.4,13.8-30.4,26.6-58.6c7.1,0.6,14.3,1,21.5,1c20.1,0,39.6-2.5,58.3-7.2c-0.2,9-4.5,20.4-11,32.4
		c-21.1-5.9-47.4-13.3-48.3-13.5l-8.7-2.5l18.8,64.6c-17.4-16-35.5-32.4-36.2-33.1l-6.6-6.2l-11.7,63.2L307.2,596l-3.6,7.8
		c-0.2,0.4-11.3,27.1-22.5,53.9c-10.4-7-22.6-12.6-29.8-7.5c-35,24.4-63.8,176.3,26.6,165.5c2.7-0.3,5.5-0.7,8.2-1.1
		c0.9-0.1,1.8-0.3,2.6-0.4c11.6-1.8,23.1-4.1,34.3-7l44.3,34.9l7.6-52.6c0.1,0,0.3-0.1,0.4-0.2c0.8-0.3,1.5-0.7,2.2-1l72.3,57
		l9.6-66.1l79.6,62.8l14-96.1c58.5,3.9,125.3,8.1,124.9,7.3l-45.4-94.7l128.4-11.1c1-0.1-40.9-61.6-75.2-111.7l108.4-9.4
		C795.2,526.4,744.1,451.5,708.7,399.7z M340.2,661.4c-4,1.5-8.1,3-12.1,4.4c-12.7,4-26.4,2.6-38.3-3c7.5-18,15.2-36.5,19.5-46.7
		l31.2,44.1L340.2,661.4z M387.3,634.6c-10.6,9.4-23.1,16.5-36.2,22.3l10-54.1c7.4,6.7,19.7,18,30.6,27.9
		C390.2,632.1,388.8,633.4,387.3,634.6z M405.8,616.1l-12.7-43.6c9,2.5,23.8,6.7,37.3,10.4C423.4,594.4,414.7,606,405.8,616.1z
		 M344.4,573.1c-3.8,8.3-7.1,15.5-9.4,20.7c-10.6-16.9-28.5-45.3-40.5-64.2c19.4,8.4,40.2,14.2,61.8,17
		C352.3,555.7,348.1,564.9,344.4,573.1z M601.9,552c1.3-3,2.5-6.1,3.7-9.2l0.6,0L601.9,552z"/>
	<path class="st1" d="M549.6,135.3C524.3,112,494,94,460.4,83.3c-14.2-4.6-29-7.8-44.3-9.6c-9.1-1.1-18.5-1.6-27.9-1.6
		c-37,0-72.1,8.5-103.4,23.6c-2,1-4.1,2-6.1,3.1c-0.8,0.4-1.6,0.8-2.4,1.3c-2.1,1.1-4.1,2.2-6.1,3.4c-2.2,1.3-4.3,2.5-6.5,3.8
		c-0.7,0.4-1.3,0.8-1.9,1.2c-1.2,0.8-2.4,1.6-3.7,2.3c-1,0.7-2,1.4-3,2c-2,1.4-4,2.7-6,4.2c-2,1.4-3.9,2.8-5.8,4.3
		c-0.3,0.2-0.6,0.5-0.9,0.7c-1.9,1.5-3.8,3-5.7,4.6c-0.3,0.3-0.6,0.5-0.9,0.8c-1.7,1.4-3.3,2.8-5,4.3c-2.4,2.1-4.8,4.3-7.1,6.5
		c-1.8,1.7-3.6,3.5-5.3,5.3c-0.1,0.1-0.3,0.3-0.4,0.4c-1.3,1.3-2.5,2.6-3.8,4c-0.8,0.8-1.6,1.7-2.3,2.5c-1.9,2.1-3.7,4.2-5.5,6.3
		c-1.5,1.7-2.9,3.4-4.3,5.2c-0.1,0.1-0.2,0.2-0.3,0.3c-1.7,2.1-3.4,4.3-5,6.4c-1.4,1.8-2.7,3.7-4,5.6c-0.6,0.7-1.1,1.5-1.5,2.2
		c-1.3,1.9-2.6,3.8-3.9,5.8c-0.8,1.2-1.5,2.4-2.2,3.6c-0.7,1.2-1.4,2.3-2.1,3.5c-1.2,1.9-2.3,3.8-3.3,5.8c-5.1,9-9.5,18.5-13.4,28.2
		c-1,2.4-1.9,4.9-2.7,7.4c-1,2.6-1.8,5.3-2.7,8c-0.3,0.9-0.6,1.8-0.9,2.8c-0.2,0.7-0.5,1.5-0.7,2.2c-0.3,1-0.6,2-0.9,3
		c-0.1,0.3-0.2,0.5-0.2,0.8c-0.3,1.2-0.7,2.4-1,3.6c-0.5,1.8-0.9,3.6-1.3,5.4c-0.1,0.3-0.1,0.6-0.2,0.9c-0.4,1.8-0.8,3.5-1.2,5.3
		c-0.3,1.6-0.6,3.2-0.9,4.8c-0.3,1.5-0.6,3.1-0.8,4.6c-0.2,1.3-0.4,2.6-0.6,3.9c-1.1,7.1-1.8,14.3-2.2,21.6
		c-0.1,1.4-0.1,2.7-0.2,4.1v0.6c-0.1,1.1-0.1,2.2-0.1,3.4c0,1.7-0.1,3.5-0.1,5.2c0,91.7,52,171.3,128,211.2
		c12.4,19.7,53.2,84.5,53.7,85.2l4.7,7.5l3.9-7.9c0.2-0.4,13.8-30.4,26.6-58.6c7.1,0.6,14.3,1,21.5,1c20.1,0,39.6-2.5,58.3-7.2
		c-0.2,9-4.5,20.4-11,32.4c-21.1-5.9-47.4-13.3-48.3-13.5l-8.7-2.5l18.8,64.6c-17.4-16-35.5-32.4-36.2-33.1l-6.6-6.2l-11.7,63.2
		L307.2,596l-3.6,7.8c-0.2,0.4-11.3,27.1-22.5,53.9c-10.4-7-22.6-12.6-29.8-7.5c-35,24.4-63.8,176.3,26.6,165.5
		c2.7-0.3,5.5-0.7,8.2-1.1c0.9-0.1,1.8-0.3,2.6-0.4c11.6-1.8,23.1-4.1,34.3-7c17.8-4.6,35.2-10.5,51.9-17.6c0.1,0,0.3-0.1,0.4-0.2
		c0.8-0.3,1.5-0.7,2.2-1c101.2-44,181.2-132.7,224.4-236.4c1.3-3,2.5-6.1,3.7-9.2c18.3-46.7,29.1-96.1,31.2-145.9
		C640.6,304.6,634.6,207.4,549.6,135.3z M344.4,573.1c-3.8,8.3-7.1,15.5-9.4,20.7c-10.6-16.9-28.5-45.3-40.5-64.2
		c19.4,8.4,40.2,14.2,61.8,17C352.3,555.7,348.1,564.9,344.4,573.1z M393.1,572.5c9,2.5,23.8,6.7,37.3,10.4
		c-7.1,11.5-15.8,23.1-24.6,33.2L393.1,572.5z M309.2,616l31.2,44.1l-0.3,1.4c-4,1.5-8.1,3-12.1,4.4c-12.7,4-26.4,2.6-38.3-3
		C297.2,644.8,304.9,626.3,309.2,616z M348.1,732.1c-2,5-3,7.5-4.9,12.4c-5.7,14.3-22.6,20.7-38.3,20.7s-32.6-6.4-38.3-20.7
		c-1.9-5-2.9-7.4-4.9-12.4c-5.6-14.3,13.2-36.2,43.2-36.2S353.7,717.8,348.1,732.1z M361.1,602.8c7.4,6.7,19.7,18,30.6,27.9
		c-1.5,1.4-2.9,2.7-4.4,3.9c-10.6,9.4-23.1,16.5-36.2,22.3L361.1,602.8z M448.8,699.1c-2,5-3,7.5-4.9,12.4
		c-5.7,14.3-22.6,20.7-38.3,20.7s-32.6-6.4-38.3-20.7c-1.9-5-2.9-7.4-4.9-12.4c-5.6-14.3,13.2-36.2,43.2-36.2
		S454.5,684.8,448.8,699.1z M521.5,634.7c-2,5-3,7.5-4.9,12.4c-5.7,14.3-22.6,20.7-38.3,20.7s-32.6-6.4-38.3-20.7
		c-1.9-5-2.9-7.4-4.9-12.4c-5.6-14.3,13.2-36.2,43.2-36.2S527.1,620.4,521.5,634.7z M561.7,565.6c-1.4,3.4-2,5.2-3.4,8.6
		c-3.9,9.9-15.6,14.3-26.5,14.3c-10.8,0-22.5-4.4-26.5-14.3c-1.4-3.4-2-5.2-3.4-8.6c-3.9-9.9,9.1-25,29.8-25
		C552.6,540.6,565.7,555.7,561.7,565.6z M591.6,505.2c-1.2,3.1-1.8,4.6-3,7.7c-3.5,8.9-14,12.8-23.7,12.8s-20.2-3.9-23.7-12.8
		c-1.2-3.1-1.8-4.6-3-7.7c-3.5-8.9,8.2-22.4,26.7-22.4S595.1,496.4,591.6,505.2z M388.2,520.4c-115.8,0-210-94.2-210-210
		c0-115.7,94.2-209.9,210-209.9s209.9,94.2,209.9,209.9C598.1,426.2,504,520.4,388.2,520.4z"/>
	<path class="st2" d="M340.4,660.1l-0.2,1.4h0c-4,1.5-8.1,3-12.1,4.4c-12.7,4-26.4,2.6-38.3-3c7.5-18,15.2-36.5,19.5-46.7
		L340.4,660.1z"/>
	<path class="st2" d="M391.7,630.7c-1.5,1.4-2.9,2.7-4.4,3.9c-10.6,9.4-23.1,16.5-36.2,22.3l10-54.1
		C368.5,609.5,380.9,620.8,391.7,630.7z"/>
	<path class="st2" d="M430.5,582.9c-7.1,11.5-15.8,23.1-24.6,33.2l-12.7-43.6C402.2,575,416.9,579.2,430.5,582.9z"/>
	<path class="st2" d="M356.4,546.7c-8.2,18-16.6,36.8-21.4,47.2c-10.6-16.9-28.6-45.3-40.5-64.2C314,538,334.7,543.8,356.4,546.7z"
		/>
	<path class="st3" d="M598.1,310.5c0,115.8-94.1,210-209.9,210s-210-94.2-210-210c0-115.7,94.2-209.9,210-209.9
		S598.1,194.8,598.1,310.5z"/>
	<path class="st4" d="M385.9,210.4c-52.7,0-95.4,42.7-95.4,95.4s42.7,95.4,95.4,95.4s95.4-42.7,95.4-95.4S438.6,210.4,385.9,210.4z
		 M350.9,315.3c-14.9,0-27-12.1-27-27c0-14.9,12.1-27,27-27c14.9,0,27,12.1,27,27C377.9,303.2,365.9,315.3,350.9,315.3z"/>
</g>
</svg>
