<?xml version="1.0" encoding="utf-8"?>
<!-- Generator: Adobe Illustrator 22.0.1, SVG Export Plug-In . SVG Version: 6.00 Build 0)  -->
<svg version="1.1" id="Layer_1" xmlns="http://www.w3.org/2000/svg" xmlns:xlink="http://www.w3.org/1999/xlink" x="0px" y="0px"
	 width="850.4px" height="850.4px" viewBox="0 0 850.4 850.4" style="enable-background:new 0 0 850.4 850.4;" xml:space="preserve"
	>
<style type="text/css">
	.st0{fill:#8BB4D5;}
	.st1{fill:#FFFFFF;}
	.st2{fill:#3792C1;}
</style>
<g>
	<path class="st0" d="M669.9,393.8c-9.2-2.3-18.3-5-27.3-7.9c3.1-2.8,6.1-5.9,8.9-9c25.9-8.6,50.2-21.7,71.3-39.2
		c-14.4-3.6-28.6-8-42.5-13.1c3.1-11.3,4.9-23.1,4.9-35.4c0-72.3-58.8-131-131-131c-7.3,0-14.4,0.6-21.3,1.7
		c-6.1-2.9-13.5-4.2-21.4-4.4c6.4-13.7,10-29,10-45.2c0-59-48-107-107-107s-107,48-107,107c0,33.2,15.2,62.9,39,82.6H346
		c-48.9,0-88.7,39.8-88.7,88.8c0,9.6,1.6,18.8,4.4,27.5c-8-7.4-15.8-15.1-23.3-23.1c-5.7,30-4.8,60.8,2,90.4
		c-7-6.5-13.8-13.3-20.3-20.3c-3.5,18.7-4.5,37.7-3.1,56.6c-21.8,16.4-41.4,35.8-57.4,58.1c18-1.9,35.6-3.1,53-3.6
		c-1.8,3-3.5,6-5.2,9.2c-25.4,17.7-48,39.3-66.2,64.5c10.3-1.1,18.6-1.8,25.7-2.2c-27.1,8.8-45,34.2-74,47.5
		c21,2.7,42.6,9.2,63.4,17.8c-0.1,0.3-0.2,0.7-0.3,1.1c-16.9-2.3-33.6-5.5-50.1-9.7c13.7,33.9,35.8,63.7,63.7,87.2
		c-17.4,34.5,17.2,31.2,15.1,69.9c35.8-28.7,28.6-32.4,68.1-53.2h122.5l0.3,30.5c-8.1-0.5-16.2-1.1-24.3-1.9c-0.6,1.2-1.7,2-3.1,2
		c-6.5,0.2-12.8,2-18.4,5.3l-89.3,51.6c-0.7,0.4-0.3,1.6,0.5,1.4l43.4-6.4c0.7-0.1,1.2,0.8,0.7,1.3l-41,41c-0.6,0.6,0.1,1.6,0.9,1.2
		l32.9-14.4c0.7-0.3,1.4,0.6,0.9,1.2L252.4,844c-0.5,0.6,0,1.4,0.7,1.2l81.6-15.4l37.3-7.4c15.7-3.1,31.6-4.4,47.6-4
		c33.2,0.8,66.5,0.1,99.7-2.3c25.7-1.9,51.5,0.8,76.1,8.3l57.4,17.4c0.7,0.2,1.3-0.7,0.8-1.2l-25.9-31.5c-0.5-0.6,0.2-1.5,0.9-1.2
		l32.9,14.4c0.8,0.3,1.5-0.6,0.9-1.2l-41-41c-0.5-0.5-0.1-1.4,0.7-1.3l42.8,6.3c0.9,0.1,1.2-1.1,0.5-1.5l-91.5-46.9
		c-4-2.1-8.4-3.4-12.9-4l-19.1-2.5c-1.8-0.2-3.1-1.7-3.1-3.6v-0.4c-0.2,0-0.3,0-0.5,0.1v-23c0.6-0.4,1.2-0.8,1.7-1.2
		c46.5,1.6,53.7-1.3,103.5,26.7c-11.7-21.4-16.8-73.2-26.5-114.7c11.7,3.6,24.9,9.8,45.2,21.2c-18.4-33.7-13.6-71.6-43.3-95.3
		c0.2-1,0.4-2.2,0.4-3.6c14.1-32.5,20.8-67.9,18.5-103.3c-6.2,5.2-12.8,7.2-19.7,7.1c1.2-5.3,2.2-10.7,3.1-16.1
		C638.7,416.1,655.1,406.1,669.9,393.8z M373.5,543.9h-96.3c-4.4,0-7.7-3.8-6-8.2c9.8-27.3,17.5-38.7,34.5-65.6
		c15.9-25.2,35-49.2,58-75.5c3.8-4.4,11.5-2.7,11.5,3.3c-0.5,48.7,4.9,116.4,4.9,140C380.1,541.1,376.8,543.9,373.5,543.9z"/>
	<path class="st1" d="M422.3,281.7c0,42-34.2,76.3-76.3,76.3s-76.3-34.2-76.3-76.3c0-42.1,34.2-76.3,76.3-76.3
		S422.3,239.7,422.3,281.7z"/>
	<path d="M346,246.6c-19.4,0-35.1,15.7-35.1,35.1s15.7,35.1,35.1,35.1c19.4,0,35.1-15.7,35.1-35.1S365.4,246.6,346,246.6z
		 M333.2,285.2c-5.5,0-9.9-4.5-9.9-9.9c0-5.5,4.5-9.9,9.9-9.9c5.5,0,9.9,4.5,9.9,9.9C343.1,280.8,338.7,285.2,333.2,285.2z"/>
	<path class="st1" d="M509.1,110.4c0,52.2-42.4,94.6-94.6,94.6c-52.2,0-94.6-42.4-94.6-94.6c0-52.1,42.4-94.5,94.6-94.5
		C466.7,15.9,509.1,58.3,509.1,110.4z"/>
	<path d="M414.6,67.5c-23.7,0-42.9,19.2-42.9,42.9s19.2,42.9,42.9,42.9s42.9-19.2,42.9-42.9S438.2,67.5,414.6,67.5z M398.8,114.7
		c-6.7,0-12.1-5.4-12.1-12.1c0-6.7,5.4-12.1,12.1-12.1s12.1,5.4,12.1,12.1C411,109.3,405.5,114.7,398.8,114.7z"/>
	<path class="st1" d="M672.8,289.3c0,65.4-53.2,118.6-118.6,118.6c-65.4,0-118.6-53.2-118.6-118.6s53.2-118.6,118.6-118.6
		C619.6,170.7,672.8,223.9,672.8,289.3z"/>
	<path d="M554.2,236.2c-29.3,0-53.1,23.8-53.1,53.1s23.8,53.1,53.1,53.1c29.3,0,53.1-23.8,53.1-53.1S583.5,236.2,554.2,236.2z
		 M534.7,294.6c-8.3,0-15-6.7-15-15c0-8.3,6.7-15,15-15s15,6.7,15,15C549.7,287.8,543,294.6,534.7,294.6z"/>
	<g>
		<path class="st1" d="M235.2,605.5c-1.1,56.4,114.3,72.5,154.8,75.5c52.2,4,154.3-2.6,155-75.5c0.7-67-115.3-43.8-154.8-40.9
			C359,566.9,236.2,558.8,235.2,605.5z"/>
	</g>
	<path class="st2" d="M573.8,736.5c-4-2.1-8.4-3.4-12.9-4l-19.1-2.5c-1.8-0.2-3.1-1.8-3.1-3.6v-0.4c-0.2,0-0.3,0-0.5,0v-26.9h31.2
		c12.6,0,23-10.4,23-23V559.8c0-12.6-10.4-23-23-23h-18.1c1.1-38.8,2-77.6,2.6-116.5h0.2c72.3,0,131-58.8,131-131s-58.8-131-131-131
		c-7.2,0-14.3,0.6-21.2,1.8c-6.1-2.9-13.5-4.2-21.4-4.4c6.4-13.7,10.1-29,10.1-45.2c0-59-48-107-107-107s-107,48-107,107
		c0,33.2,15.2,62.9,39,82.6H346c-48.9,0-88.7,39.8-88.7,88.8c0,27.9,12.9,52.8,33.1,69C240.7,436.7,186.5,540.7,164,585
		c-10.9,20.8-14.8,44.3-8.8,66.7c7.1,26.8,25.2,47.6,59.1,47.6h160.8l0.3,30.4c-8.1-0.5-16.2-1.1-24.3-1.9c-0.6,1.2-1.7,2-3.1,2
		c-6.5,0.2-12.8,2-18.4,5.2l-89.3,51.6c-0.7,0.4-0.3,1.6,0.5,1.4l43.4-6.4c0.7-0.1,1.2,0.8,0.7,1.3l-41,41.1
		c-0.6,0.6,0.1,1.6,0.9,1.3l32.9-14.4c0.7-0.3,1.4,0.6,0.9,1.2L252.4,844c-0.5,0.6,0,1.4,0.7,1.3l81.6-15.4l37.3-7.4
		c15.7-3.1,31.6-4.4,47.6-4c33.2,0.8,66.5,0.1,99.7-2.3c25.7-1.9,51.5,0.9,76.2,8.3l57.4,17.4c0.7,0.2,1.3-0.6,0.8-1.2l-25.9-31.5
		c-0.5-0.6,0.2-1.5,0.9-1.2l32.9,14.4c0.8,0.3,1.5-0.7,0.9-1.3l-41-41.1c-0.5-0.5-0.1-1.4,0.7-1.3l42.8,6.3c0.9,0.1,1.2-1.1,0.5-1.5
		L573.8,736.5z M554.2,170.7c65.4,0,118.6,53.2,118.6,118.6s-53.2,118.6-118.6,118.6c-65.4,0-118.6-53.2-118.6-118.6
		S488.8,170.7,554.2,170.7z M501.7,448.2c-10.9,1.8-19.7-7-19.7-19.7c0-12.7,8.5-16.9,19.7-15.2c11.2,1.8,19.7,6.1,19.7,15.2
		C521.4,437.5,512.6,446.4,501.7,448.2z M515.8,505.3c0,9-8.8,17.9-19.7,19.7c-10.9,1.8-19.7-7-19.7-19.7c0-12.7,8.5-16.9,19.7-15.2
		C507.2,491.9,515.8,496.3,515.8,505.3z M426.5,482.9c11.2,1.8,19.7,6.1,19.7,15.2c0,9-8.8,17.9-19.7,19.7
		c-10.9,1.8-19.7-7-19.7-19.7C406.8,485.3,415.3,481.1,426.5,482.9z M407.8,399.4c0-12.7,8.5-16.9,19.7-15.2
		c11.2,1.8,19.7,6.1,19.7,15.2c0,9-8.8,17.9-19.7,19.7C416.7,420.9,407.8,412.2,407.8,399.4z M433.8,451.3
		c0-12.7,8.5-16.9,19.7-15.2c11.2,1.8,19.7,6.1,19.7,15.2c0,9-8.8,17.9-19.7,19.7C442.6,472.8,433.8,464.1,433.8,451.3z M320,110.4
		c0-52.1,42.4-94.5,94.6-94.5c52.1,0,94.6,42.4,94.6,94.5c0,52.2-42.4,94.6-94.6,94.6C362.4,205,320,162.6,320,110.4z M269.8,281.7
		c0-42.1,34.2-76.3,76.3-76.3s76.3,34.2,76.3,76.3c0,42-34.2,76.3-76.3,76.3S269.8,323.8,269.8,281.7z M380.1,537.9
		c0,3.3-3.3,6-6.6,6h-96.3c-4.4,0-7.7-3.8-6-8.2c9.8-27.3,17.5-38.7,34.5-65.6c15.9-25.2,35-49.2,58-75.5c3.8-4.4,11.5-2.7,11.5,3.3
		C374.7,446.6,380.1,514.3,380.1,537.9z M307.5,380.1c11.2,1.8,19.7,6.1,19.7,15.2c0,9-8.8,17.9-19.7,19.7
		c-10.9,1.8-19.7-7-19.7-19.7S296.4,378.3,307.5,380.1z M269.7,432c11.2,1.8,19.7,6.1,19.7,15.2c0,9-8.8,17.9-19.7,19.7
		c-10.9,1.8-19.7-7-19.7-19.7S258.5,430.2,269.7,432z M225.1,502.2c0-12.7,8.5-16.9,19.7-15.2c11.2,1.8,19.7,6.1,19.7,15.2
		c0,9-8.8,17.9-19.7,19.7C234,523.7,225.1,514.9,225.1,502.2z M390.1,681c-40.5-3.1-155.9-19.2-154.8-75.5
		c0.9-46.7,123.7-38.6,155-40.9c39.5-2.9,155.5-26.1,154.8,40.9C544.3,678.4,442.3,685,390.1,681z M445.6,753.4
		c-10.9,1.8-19.7-7-19.7-19.7s8.5-16.9,19.7-15.2c11.2,1.8,19.7,6.1,19.7,15.2C465.3,742.7,456.5,751.6,445.6,753.4z M525.6,781.4
		c-10.9,1.8-19.7-7-19.7-19.7c0-12.7,8.5-16.9,19.7-15.2c11.2,1.8,19.7,6.1,19.7,15.2C545.3,770.8,536.5,779.7,525.6,781.4z"/>
	<path d="M545.1,605.5c-0.3,26.4-13.8,44.1-33.5,55.8v-6.8c0-13.4-11-24.4-24.4-24.4c-13.4,0-24.4,11-24.4,24.4v23.5
		c-3.4,0.6-6.9,1.1-10.4,1.6v-19.8c0-13.4-11-24.4-24.4-24.4c-13.4,0-24.4,11-24.4,24.4v22.1c-4.8-0.2-9.3-0.4-13.5-0.7v-32.8
		c0-13.4-11-24.4-24.4-24.4c-13.4,0-24.4,11-24.4,24.4v26.3c-3.4-0.7-6.9-1.3-10.4-2.1v-16.9c0-13.4-11-24.4-24.4-24.4
		c-13.4,0-24.4,11-24.4,24.4v2.1c-26.9-11.5-47.4-28.2-47-52.1c0.4-18.9,20.8-28.8,47-34.1V588c0,13.4,11,24.4,24.4,24.4
		c13.4,0,24.4-11,24.4-24.4v-21.9c3.5-0.2,7-0.3,10.4-0.4v17.1c0,13.4,11,24.4,24.4,24.4c13.4,0,24.4-11,24.4-24.4v-18.2h0.1
		c3.8-0.3,8.3-0.7,13.4-1.3v30.9c0,13.4,11,24.4,24.4,24.4c13.4,0,24.4-11,24.4-24.4v-35.5c3.5-0.2,6.9-0.3,10.4-0.3v19.2
		c0,13.4,11,24.4,24.4,24.4c13.4,0,24.4-11,24.4-24.4v-14C531.5,569.8,545.4,582.2,545.1,605.5z"/>
</g>
</svg>
