<?xml version="1.0" encoding="UTF-8" standalone="no"?>
<svg id="svg2" xmlns:rdf="http://www.w3.org/1999/02/22-rdf-syntax-ns#" xmlns="http://www.w3.org/2000/svg" height="994pt" width="910pt" version="1.1" xmlns:cc="http://creativecommons.org/ns#" xmlns:dc="http://purl.org/dc/elements/1.1/" viewBox="0 0 910 994">
<path id="path4" d="m534.42 0h9.97c26.14 22.5 56.1 40.18 86.65 55.98 4.25 2.56 11.47 1.46 12.63 7.48 31.06 9.37 56.76 32.57 80.59 54.28 13.94 13.87 29.17 27.5 36.89 46.07 25.07 32.1 52.29 62.56 77.42 94.62 1.92 31.15 45.01 38.87 50.41 69.58 8.26 26.07 2.2 53.4 5 80.01 4.75 32.69 9.32 65.51 16.02 97.85v56.53c-2.64 74.69-18.34 149.97-54.89 215.71-42.04 75.65-103.24 144.44-185.48 176.51-63.26 26.6-132.24 36.15-200.28 39.38h-24.85c-53.89-1.99-107.25-12.99-158.27-30.22-11.7-6.14-24.42-9.29-37.35-11.51-87.58-56.32-168.11-131.07-209.87-228.27-26.09-60.04-36.41-125.69-39.01-190.68v-41.6c-3.86-67.78 27.79-129.44 51.88-190.84 8.12-21.59 20.52-42.32 21.99-65.76 2.86-13.25-20.71-14.57-12.94-28.89 45.12-6.82 72.24-48.12 106.76-73.54 48.35-40.98 103.19-74.39 162.69-96.2 22.17 2.71 44.05-4.59 62.46-16.65 42.77-25.02 94.65-13.72 141.58-19.84m-15.12 37.13c-7.85 22.62-25.77 42.95-23.85 67.98 18.56-15.76 39.5-33.17 47.45-56.88-6.56-4.67-15.76-8.38-23.6-11.1m-50.47 6.12c-9.23 4.33-16.82 14.22-18.67 24.31 9.73-4.31 30.59-11.53 18.67-24.31m-49.59 7.13c-12.21 3.29-27.64 6.98-35.25 17.51 9.4 8.67 23.82 12.89 35.65 18 6.48-9.72 11.82-29.18-0.4-35.51m157.46 8.86c-4.5 5.65-11.55 20.27-0.81 22.67 4.93-4.68 9.35-11.1 13.03-17.13 0.08-5.12-8.4-5.68-12.22-5.54m-232.7 12.76c3.27 11.06 17.97 19.82 25.94 7.95-6.33-5.19-17.88-4.88-25.94-7.95m275.36 13.43c-21.19 2.43-44.07 16-52.79 34.95 21.99-8.81 44.51-23.68 69.79-23.62 3.25-9.63-10.52-11.63-17-11.33m-317.82 1.04c-14.48 1.69-30.03 7.47-40.32 17.38 30.73 5.8 60.06 27.1 91.1 36.79 5.3 1.52 14.27 4.88 17.59 0.76-19.13-14.7-30.91-46.79-59.24-42.91-1.07-6.26 1.1-16.5-9.13-12.02m76.87 11.54c2.03 9.6 18.09 8.63 23.41 16.47 0.26 14.92 2.46 30.21 0.63 44.94-19.43 1.66-39.53 1.88-59.24 1.39 0.24 5.21 11.26 5.14 9.62 11.9-3.09 7.09-2.27 19.27-13.58 15.37-32.92-5.71-64.95-16.53-97.42-24.65-2.43-0.05-7.82 3.18-6.07 5.79 31.74 18.72 62.26 39.52 94.28 57.78 5.11 4.72 9.97-2.41 14.16-4.81 24.12-16.6 43.86-38.88 69.18-53.82 27.06-15.11 58.38-18.83 88.5-23.45 17.43-4.26 17.97-26.18 31.48-35.71 5.61-5.23-7.09-3.3-9.26-2.55-11.75 11.13-23.47 22.4-35.23 33.52-16.94 2.08-35.79 0.38-50.16-9.9-19.48-11.73-34.67-35.4-60.3-32.27m272.06 11.32c-28.93 5.09-56.59 15.61-83.07 28.06-5.33 3.77-17.06 8.12-13.28 16.3 6.02 4.87 15.07 10.89 22.76 6.2 27.15-12.58 55.81-25.14 76.02-48.01 2.05-2.49 0.08-3.57-2.43-2.55m21.36 16.99c-25.2 14.05-51.91 28.53-71.01 50.45 30.66-9.94 61.2-20.26 91.97-29.84 7.96-12.06-8.49-26.37-20.96-20.61m-444.57 2.89c-3.14 2.14-7.51 6.45-3.5 9.9 9.38 7.61 26.24 7.79 35.29 3.84-7.43-6.6-21.9-8.83-31.79-13.74m-37.79 29.15c-15.27 13.84-28.33 29.94-43.34 44.08-6.09 9.86 8.17 8.13 13.54 8.87 37.28 1.68 76.04 8.83 112.22 5.83-26.1-19.69-54.81-41.46-82.42-58.78m514.13 7.04c-33.78 2.68-66.26 13.94-96.4 28.98 2.85 9.7 16.34 14.45 25.12 18.46 31.39-2.41 52.8-29.75 78.4-45.15 4.55-4.05-5.89-2.55-7.12-2.29m28.98 16.93c-21.47 19.51-55.96 18.21-72.58 43.74-3.4 4.09 4.53 7.94 7.82 6.75 29.68-6.06 59.47-14.59 89.04-18.97-2.4-12.4-15.18-25.35-24.28-31.52m-258.27 2.96c-11.07 2.09-20.93 7.96-30.64 13.38-44.14 26.79-87.33 55.64-125.96 90.02-19.58 33.24-15.66 76.71-40.63 107.38-21.58 33.24-22.63 74.65-22.07 112.94-0.45 24.64-1.32 51.6 12.91 73.07 19.89 30.09 26.01 66.27 34.15 100.7 36.81 73.9 127.22 100.54 204.15 94.46 45.54-8.67 91.27-28.38 123.4-62.62 17.37-17.41 12.21-44.94 27.53-63.49 11.07-14.97 17.75-32.66 22.43-50.55 9.79-41.54 17.89-84.12 14.84-127-3.69-59.18-20.37-116.8-40.85-172.11-12.64-3.45-10.45-17.86-6.67-27.42-10.96-22.86-33.49-36.96-54.67-49.28-36.29-20.21-76.2-36.31-117.92-39.48m-348.75 43.3c-9.73 16.16-21.64 31.89-26.22 50.45 3.54 14.2 14.31-23.26 18.69-9.23 0.23 5.86 6.3 7.92 11.12 8.21 27.71 0.09 56.89-0.24 83.64-2.11-5.16-14.02-25.97-27.49-40.26-16.29-14.92-1.27-28.63-22.32-43.79-11.73-6.87-0.77-0.43-14.24-3.18-19.3m37.96 4c-3.57 0.25-13.81-0.1-7.18 4.15 32.47 9.86 69.25 8.92 98.36 28.49 6.01 4.47 11.65 17.97 2.56 22.25-44.32 14.27-94.3 8.71-138.03 14.3 39.15 8.42 76.14 33.67 118.07 30.08 21.89-27.08 45.43-53.02 69.45-78.3 1.11-2.36-2.22-3.54-3.76-4.57-32.17-16.48-69.77-10.68-104.44-12.17-4.45-11.18-24.62-2.31-35.03-4.23m608.81 4.79c-30.47 7.87-58.16 23.72-86.59 36.82-0.93 2.26-2.88 12.36 2.95 10.52 36.18-8.74 73.48-11.73 110.36-14.61-5.71-12.63-13.92-26.93-26.72-32.73m-78.65 8.12c-6.77 2.23-26.38 0.26-20.1 11.82 11.52 0.42 22.85-5.86 33.38-10.59-1.32-4.4-9.76-0.3-13.28-1.23m68.97 44.05c-23.81 3.45-49.25 3.99-70.71 15.88 2.08 7.17 0.65 29.97 12.94 22.46 22.51-9.96 47.04-18.58 63.99-37.29 1.08-3.83-5.75 0.64-6.22-1.05m54.6 2.7c-37.58 12.69-75.6 32.87-104.03 59.66 35.6 1.81 72.75-11.71 109.24-6.37 7 0.55 16.16 2.97 18.5 10.34-18.96 26.39-51.36 37.52-81.08 46.91-3.43 2.99-6.12 7.44-7.07 11.98 31.83-4.23 63.66-8.92 95.35-13.7 8.26-33.99-11.85-67.96-8.47-102.52-3.76-0.78-7.38 4.29-11.43 4.24-4-3.22-4.41-11.72-11.01-10.54m-721.56 19.16c-11.36 0.93 2.95 12.85-3.52 18.59-8.1 9.73-17.96 20.9-16.74 34.54 43.45-3.04 89.04-11.76 130.42-20.53-37.17-4.86-70.79-34.51-110.16-32.6m690.85 51.16c-23.56 1.34-47.63 4.5-69.17 14.65-9.66 6.11-0.21 18.24-0.19 26.76-1.26 6.83 5.17 3.39 7.65 1.92 22.95-13.08 46.43-25.62 67.57-41.53 2.53-3.12-5.35-2.38-5.86-1.8m-564.96 3.96c-31.52 2.84-66.6 8.08-95.46 14.21 29.3 4.83 62.48 27.95 90.18 7.47 4.67-0.3-4.83 8.35 0.66 8.53 11.73-1.65 14.13-15.42 15.83-24.98 3.24-8.59-7.11-5.31-11.21-5.23m-156.84 26.85c-12.65 2-3.14 19.89-11.74 26.92 4.59 1.21 11.25-0.89 13.88 4.19 0.31 10.88-12.14 15.9-16.7 23.54 43.88-6.85 87.47-15.51 131.3-22.63 11.37-0.43 22.66-3.28 32.77-8.52 0.1-4.83-6.77-1.93-9.19-2.9-48.18 1.65-91.64-27.31-140.32-20.6m760.87 26.11c-34.51 2.23-67.46 14.21-101.9 16.96-3.41 0.02-5.25 3.27-3.81 6.78 1.92 42.99 1.64 86.07 2.75 129.1-1.23 3.67-3.99 6.8-4.48 10.72 13.75-4.38 27.86-8.3 41.06-14.23-17.12-2.97-11.97-26.07-1.03-33.66 19.21-20.99 53.27-24.79 69.78-46.94-30.1 13.28-63.78 13.29-96.04 11.04-9.91-2.58-1.92-15.52 2-20.35 28.27-29.29 68.08-42.54 104.25-59.13-3.12-2.54-8.78 0.27-12.58-0.29m27.74 15.93c-28.34 12.08-56.29 25.15-84.62 37.28-5.87 2.74-12.13 8.69-10.21 15.78 28.29 2.87 50.28-23 77.83-22.93 2.37 12.58 19.2 3.82 26.8 0.03-2.95-8.72-2.67-25.32-9.8-30.16m-643.02 4.91c-39.96 6.94-80.17 12.37-120.21 18.79-1.48 3.87 5.91 1.44 6.87 2.97 39.28 3.48 77.8 15.74 117.52 12.59-1.75-9.13 6.99-33.04-4.18-34.35m-152.74 38.14c-6.63-1.37-10.03 3.29-13.31 6.47-5.06-13.63-3.65 11.37-2.74 15.46 16.21 0.93 33.21-2.23 49.64-4.13 4.02-2.29 5.48 1.2 6.93 3.64 11.88-6.47 25.32-8.74 38.44-11.22 1.67 0.31 2.04-2.78 0.4-2.67-26.04-5.44-52.8-8.13-79.36-7.55m798.95 19.02c-25.47 6.7-49.37 22.68-67.43 40.64 23.1 0.88 48.95-4.96 72.28-10.68 17.21-1.35 7.93-31.93-4.85-29.96m-651.18 6.86c-39.01 6.77-78.59 9.51-118 12.84-1.7 1.19 1.94 1.65 2.78 1.84 39.9 2.6 78.06 19.01 118.39 16.58-1.88-8.48 7.33-29.9-3.17-31.26m-121.73 31.19c-11.17 5.11-43.71-10.16-36.97 11.83 13.8 0.71-9.13 17.3 1.39 23.46 19.92-7.35 10.67 21.46 0.08 26.66 2.98 31.03 20.83 59.86 15.17 91.88 15.03 25.99 30.72 51.66 45.9 77.59 8.05-7.17 16.49-16.18 28.03-18.74 35.05-9.93 70.05-20 105.5-28.46 1.79-4.58-5.69-8.35-9.44-6.38-45.38 1.28-93.13 6.52-136.43-10.27-11.8-4.12-25.75-16.14-20.93-29.94 8.78-1.47 22.57-11.69 26.94-2.34 25.56-12.54 54.02-16.72 81.08-24.88 3.43-0.56 2.12-5.78-0.98-5.93-19.42-8.73-41.65-6.36-62.31-7.35-1.63-3.56-1.06-9.69-7.24-8.18-15.62-4.11-37.73-2.5-45.68-19.39-4.01-12.54 8.49-20.67 18.88-23.48 32.6-11.31 68.34-10.45 100.27-23.65 6.8-2.09-1.1-5.76-4.02-6.9-24.91-5.19-50.6-6.82-75.41-12.44-7.37-3.78-15.66-4.63-23.83-3.09m132.7 12.86c-2.44 11.21-11.24 19.55-22.02 22.91-27.63 10.82-57.43 13.62-85.97 21.03-5.3 2.02-12.86 4.47-14.26 10.47 41.88 15.17 88 14.2 130.5 27.58 6.29 2.33 15.89 7.09 11.41 15.4-37.37 13.39-75.91 23.75-113.53 36.57-2.27 1.39-7.65 2.68-6.12 6.32 19.25 5.21 39.22 6.66 58.78 10.16 29.21-2.88 58.11-8.77 87.42-10.24-11.55-36.48-26.06-72.97-38.71-109.47-3.55-9.09-0.45-25.45-7.5-30.73m651-0.07c-34.7 12.5-71.79 23.92-103.37 41.69 23.51 0.72 50.49-0.6 75.32-0.77 5.93 3.02 16.7 9.97 8.57 16.55-38.59 34.73-96.42 22.61-140.19 46.5 41.11 4.51 84.44-16.29 126.99-11.54 13.64 5.31 2.78 23.2-5.59 28.32-37.31 25.47-80.81 41.28-124.56 51.52-21.73 0.83-46.6 7.21-60.34 24.56 14.59 3.91 27.29-9.52 40.45-14.55 36.03-11.38 73.88-15.86 111.04-21.39 0.16 5.38 5.35 8.38 7.34 12.68-18.14 27.04-57.68 21.98-79.81 40.08 44.87-1.86 83.72-27.23 124.69-42.26-3.52-26.17 2.86-53.35 14.41-76.76 5.92 3.03-1.56 16.87 2.42 22.34 4.99-13.79 15.96-26.24 14.84-41.6-8.72 1.66-7.58-8.48-7.62-13.67 0.41-20.52 0.02-41.01-1.27-61.48-1.08-0.6-2.19-0.68-3.32-0.22m-102.87 66.09c-16.89 4.72-40-0.95-53.47 10.75 16.74 2.66 42 5.12 55.91-9.53 0.69-2.09-1.15-1.44-2.44-1.22m-18.83 57.14c-22.18 3.58-55.94 1.68-63.47 28.33 23.73-1.57 45.21-13.3 68.51-17.22 7.45-0.41 12.32-6.64 17.6-11.05-7.11-2.19-15.28-0.09-22.64-0.06m-465.94 57.92c-36.19 7.11-71 20.07-106.64 29.53-5.74-2.11-7.53 9.08-1.94 7.96 44.41-1.93 91.45 5.11 131.88-16.19 5.92-13.9-10.88-24.81-23.3-21.3m550.83 23.86c-12.04 9.05-26.49 14.58-41.71 14.44-58.63 10.72-110.67 41.41-166.01 62.13-3.86 4.15 7.62 1.35 9.14 2.19 57.19-3.26 119.41 0.41 170.81-29.34 17.03-9.4 33.34-31.03 27.77-49.42m-134.82 15.22c-22.82 4.93-45.99 10.54-66.71 21.63 1.02 7 11.3 8.82 16.98 6.98 19.83-7.93 39.76-15.7 59.47-23.89 3.4-6.12-5.86-6.42-9.74-4.72m-357.51 6.91c-6.78 0.68-15.37-1.48-19.55 5.36-7.98 9.97-21.48 15.5-29.56 24.16 24.37-3.4 49.45-4.54 72.72-13.2-5.39-6.43-13.93-16.71-23.61-16.32m-83.55 2.13c-43.76 1.53-88.6 1.47-131.53 9.79 5.64 18.81 26.13 29.75 39.05 43.5 42.16-16.04 83.06-35.75 125.66-50.92 1.18-0.87 4.9-1.2 4.01-2.96-12.39-0.05-24.84-0.49-37.19 0.59m137.03 20.8c-4.81 0.37-7.7 5.18-12.34 6.03-35.77 7.76-71.44 15.97-107.21 23.67-31.55 8.72-66.19 3.19-96.19 17.94 5.06 6.59 14.17 10.49 22.44 9.37 57.03-10.43 113.57-25.85 171.98-25.85 20.19-4.8 45.86-8.54 57.41-27.29-10.65-5.19-24.35-4.34-36.09-3.87m11.95 38.08c-57.24 6.5-115.68 13.16-169.56 34.55-14.74 4.21-15.38 23.26-6.15 33.1 10 7.36 22.67 5.4 34.11 3.95 9.82-3.55 3.38 8.76 7.27 11.7 13.65 0.79 23.21-11.78 36.36-13.33 6.47-1.7 13.48 2.11 19.57-1.38 46.22-19.22 92.54-38.24 138.76-57.42-14.77-3.61-35.47 4.97-52.46 2.83-5.26-7.48 8.59-19.48-7.9-14m307.01 5.07c-19.41 4.23-43.8-1.65-59.84 11.65 23.47 15.67 50.05-3.47 73.17-10.46-1.11-4.52-9.84-0.15-13.33-1.19m37.93 13.9c-9.19 4.36-18.8 7.67-28.54 10.55-79.87 40.8-164.84 71.19-252.01 92.1-7.16-1.73-5.39 13.13 1.88 8.73 82.64-4.3 166.98-22.42 237.47-67.47 16.99-11.24 32.39-25.48 43.11-42.89 1.1-1.95-0.67-1.41-1.91-1.02m-247.93 6.02c-19.37 1.41-37.21 13.86-52.38 22.45 21.53-3.85 43.53-8.94 62.52-20.25 0.48-4.26-7.95-2.16-10.14-2.2m45.48 19.92c-67.96 5.16-132.86 28.73-197.3 49.44-7.05 2.08-19.91 8.4-10.7 15.99 26.18 12.34 54.77-2.6 80.89-8.82 41.41-12.91 84.24-24.07 122.07-45.86 2.96-1.83 10.23-9.11 5.04-10.75m57.61 9.07c-21.46 8.82-42.78 18.06-64.22 26.94-1.16 0.4-4.19 2.59-1.3 2.72 24.92-0.05 47.36-13.04 67.53-26.37 3.98-2.15 3.99-5.78-2.01-3.29z"/>
</svg>
