<?xml version="1.0" encoding="utf-8"?>
<!-- Generator: Adobe Illustrator 22.0.1, SVG Export Plug-In . SVG Version: 6.00 Build 0)  -->
<svg version="1.1" id="Layer_1" xmlns="http://www.w3.org/2000/svg" xmlns:xlink="http://www.w3.org/1999/xlink" x="0px" y="0px"
	 width="850.4px" height="850.4px" viewBox="0 0 850.4 850.4" style="enable-background:new 0 0 850.4 850.4;" xml:space="preserve"
	>
<style type="text/css">
	.st0{fill:#41C0C0;}
	.st1{fill:#E53E3B;}
	.st2{fill:#FFFFFF;}
</style>
<g>
	<path class="st0" d="M671.8,435.2c10.3-9.8,17.4-19.3,20.8-28.5c-8.3,2.7-15.7,4.7-22.4,6.2c9.6-9.4,16.3-18.5,19.5-27.4
		c-14.3,4.5-25.8,7.3-35.9,8.9c-0.6-0.2-1.2-0.4-1.8-0.6c16.1-12.9,26.8-25.6,31.2-37.5c-16.8,5.3-29.9,8.2-41.2,9.7
		c15.7-12.8,26.2-25.3,30.6-37.1c-16.7,5.3-29.7,8.2-40.9,9.7c0-0.1,0.1-0.2,0.1-0.3c15.6-12.6,25.9-25,30.3-36.8
		c-8.2,2.6-28.7,7.6-31.3,8.1c1.7-4.5,18-20.7,16.5-32.9c-8,2.6-15.2,4.5-21.7,6.1c2.2-7,3.4-13.4,3.4-19.3
		c-6.8,5.4-13,9.9-18.8,13.8c1.7-3.6,8.6-28.7,8.6-32.5c-10.3,8.1-19.2,14.3-27.2,19.1c-1.5,0.3-3,0.6-4.5,0.9
		c10-17.3,15.3-32.5,15.3-45c-13.9,11-25.1,18.3-35.1,23.7c10.2-17.5,15.6-32.9,15.6-45.6c-13.9,11-25.1,18.3-35.1,23.7
		c10.2-17.5,15.6-32.9,15.6-45.6c-14.5,11.4-26,18.9-36.3,24.4c9-16.2,13.8-30.5,13.7-42.3c-15.9,12.6-28.3,20.3-39.4,25.9
		c-0.9-0.6-1.7-1.1-2.6-1.7c6.1-12.6,9.3-24,9.2-33.7c-11.2,8.9-20.7,15.3-29.2,20.4c4.4-11.8,14-23.3,27.3-33.2
		c13.3,11.2,30.4,18,49.1,18c41.9,0,75.9-34.1,75.9-76c0-41.9-34.1-75.9-75.9-75.9c-41.9,0-76,34.1-76,75.9
		c0,11.9,2.7,23.1,7.6,33.1c-10.4,7.9-19.1,16.7-25.9,26c0.4-17.9,1.6-38.3,3.9-66.3c-15.9,24-38.3,1.4-46.2,51.6
		c-21.3-39.6-43.1-65.4-63.2-73.3c9.6,32.5,9.2,62.6,7.8,93.4c-5.8-9.2-13.4-18-22.7-25.9c6.6-11.2,10.4-24.3,10.4-38.2
		c0-41.9-34.1-75.9-76-75.9c-41.9,0-76,34.1-76,75.9c0,41.9,34.1,76,76,76c16.7,0,32.1-5.4,44.6-14.6c12.3,10.3,20.7,22,23.7,33.8
		c-9.1-5.2-19.4-12.1-31.7-21.8c-0.1,10.3,3.6,22.5,10.4,36.2c-0.3,0.2-0.6,0.4-0.9,0.6c-11.9-5.7-25-13.7-42.3-27.4
		c-0.1,11.8,4.7,26.1,13.7,42.3c-10.3-5.5-21.9-12.9-36.3-24.4c-0.1,12.6,5.3,28,15.5,45.5c-10-5.4-21.2-12.7-35-23.7
		c-0.1,12.6,5.3,28,15.5,45.5c-10-5.4-21.2-12.7-35-23.7c-0.1,12.5,5.2,27.7,15.2,45c-1.5-0.3-2.9-0.6-4.5-0.9
		c-8-4.8-16.8-11-27.2-19.1c0,3.8,7,28.9,8.6,32.5c-5.7-3.9-11.9-8.4-18.8-13.8c0,5.8,1.1,12.3,3.4,19.3c-6.5-1.6-13.7-3.5-21.7-6.1
		c-1.6,12.2,14.7,28.4,16.5,32.9c-2.6-0.5-23-5.5-31.3-8.1c4.3,11.7,14.7,24.1,30.3,36.8c0,0.1,0.1,0.2,0.1,0.2
		c-11.2-1.5-24.2-4.4-40.9-9.7c4.4,11.8,14.9,24.4,30.6,37.1c-11.3-1.5-24.4-4.4-41.2-9.7c4.4,12,15.1,24.6,31.2,37.5
		c-0.6,0.2-1.2,0.4-1.8,0.6c-10.1-1.7-21.6-4.4-35.9-8.9c3.3,8.8,9.9,18,19.6,27.4c-6.7-1.6-14.1-3.6-22.4-6.2
		c3.4,9.1,10.4,18.7,20.7,28.5c-6-1.5-12.4-3.3-19.6-5.6c3.1,8.4,9.3,17.1,18.2,26c-4.4-1.2-9.1-2.6-14.1-4.2
		c3.8,10.5,12.6,21.4,25.4,32.6c-6.6,6.7-11.5,13.3-14.3,19.8c5.1-1.3,9.8-2.4,14.3-3.3c-9.4,8.4-16,16.7-19.6,24.9
		c7.3-1.9,13.8-3.3,19.9-4.4c-10.8,9.1-18.4,18.3-22.4,27.3c8.5-2.2,16-3.8,22.8-5c-10.2,8.8-17.3,17.6-21.1,26.2
		c16.1-4.1,28.6-6.2,39.5-7.2c-17.5,12.3-29.4,24.7-34.7,36.7c17.1-4.4,30.3-6.5,41.7-7.4c-16.5,11.8-27.7,23.7-32.7,35.3
		c17.1-4.4,30.3-6.5,41.7-7.4c-16.5,11.8-27.7,23.7-32.7,35.3c17.8-4.6,31.4-6.7,43.1-7.5c-14.8,11.1-25,22.3-29.7,33.1
		c22.3-5.7,34.6-6.1,48.1-6.4c-12.5,10-17.7,18.5-22,28.3c19.4-5,33.7-7,46-7.7c8.7,15.6,18.3,30,28.7,43l-77.3,44.7
		c-0.7,0.4-0.3,1.6,0.5,1.4l43.5-6.4c0.7-0.1,1.2,0.8,0.7,1.3l-41.1,41.2c-0.6,0.6,0.1,1.6,0.9,1.3l32.9-14.4
		c0.7-0.3,1.4,0.6,0.9,1.2l-26.2,31.9c-0.5,0.6,0,1.4,0.7,1.2l81.8-15.5l37.4-7.5c15.7-3.2,31.7-4.4,47.7-4
		c33.3,0.8,66.7,0.1,99.9-2.3c25.8-1.9,51.6,0.8,76.3,8.3l57.6,17.5c0.7,0.2,1.3-0.7,0.8-1.2l-25.9-31.6c-0.5-0.7,0.2-1.5,0.9-1.2
		l32.9,14.4c0.8,0.3,1.5-0.7,0.9-1.3l-41.2-41.2c-0.5-0.5-0.1-1.4,0.7-1.3l42.9,6.3c0.9,0.1,1.2-1.1,0.5-1.5l-71.6-36.7
		c12.4-14.7,23.8-31.4,33.8-49.8c9.8,1.2,21.1,3.2,35,6.7c-4.2-9.8-9.5-18.3-22-28.4c13.6,0.3,25.8,0.7,48.2,6.5
		c-4.7-10.8-14.9-22-29.7-33.1c11.7,0.8,25.3,2.9,43.1,7.5c-5.1-11.6-16.3-23.5-32.7-35.3c11.3,0.9,24.5,3,41.7,7.4
		c-5.1-11.6-16.2-23.5-32.7-35.3c11.3,0.9,24.5,3,41.7,7.4c-5.2-12-17.1-24.4-34.7-36.7c10.8,1,23.5,3.1,39.5,7.2
		c-3.7-8.6-10.9-17.4-21.1-26.2c6.8,1.2,14.3,2.8,22.7,5c-3.9-9-11.5-18.1-22.4-27.3c6,1.1,12.6,2.6,19.9,4.4
		c-3.6-8.2-10.2-16.5-19.6-24.9c4.5,0.9,9.2,2,14.3,3.3c-2.8-6.5-7.7-13.1-14.3-19.8c12.8-11.2,21.5-22.2,25.4-32.6
		c-5,1.6-9.7,2.9-14.1,4.1c8.9-8.9,15.1-17.6,18.2-25.9C684.2,431.9,677.7,433.7,671.8,435.2z M482.3,602.9c-0.3-0.1-0.7-0.2-1-0.2
		c0,0.5-0.1,1.2-0.2,1.7c-17.9,22.8-41.1,36.6-66.5,36.6c-56.9,0-102.7-68.7-102.7-153.7c0-85,45.9-153.9,102.7-153.9
		c56.9,0,102.7,68.9,102.7,153.9C517.3,533.4,503.8,574.7,482.3,602.9z"/>
	<path class="st1" d="M551.3,745.4c50.8-60.2,83.3-153.3,83.3-258.1c0-182.1-98.2-329.6-219.9-329.6S194.7,305.3,194.7,487.4
		c0,102.1,30.9,193.1,79.4,253.4l-77.3,44.7c-0.7,0.4-0.3,1.6,0.5,1.4l43.5-6.4c0.7-0.1,1.2,0.8,0.7,1.3l-41.1,41.2
		c-0.6,0.6,0.1,1.6,0.9,1.3l32.9-14.4c0.7-0.3,1.4,0.6,0.9,1.2l-26.2,31.9c-0.5,0.6,0,1.4,0.7,1.2l81.8-15.5l37.4-7.5
		c15.7-3.2,31.7-4.4,47.7-4c33.3,0.8,66.7,0.1,99.9-2.3c25.8-1.9,51.6,0.8,76.3,8.3l57.6,17.5c0.7,0.2,1.3-0.7,0.8-1.2l-25.9-31.6
		c-0.5-0.7,0.2-1.5,0.9-1.2l32.9,14.4c0.8,0.3,1.5-0.7,0.9-1.3l-41.2-41.2c-0.5-0.5-0.1-1.4,0.7-1.3l42.9,6.3
		c0.9,0.1,1.2-1.1,0.5-1.5L551.3,745.4z M580.8,452.2c-6,1.3-9.1,1.7-15.3,2.1c-15.3,0.9-24.9-10.8-21.1-21.5
		c1.2-3.4,1.8-5.2,3.1-8.6c3.8-10.6,13.3-14.9,22.3-12.2c3.6,1.1,5.5,1.5,9.3,2.1c9.4,1.4,19.4,5.4,21.7,11.8
		c0.7,2.1,1.1,3.1,1.8,5.2C604.9,437.5,595.7,449,580.8,452.2z M515.3,386.6c-3.8-4.9-5.5-7.5-8.5-12.9
		c-7.5-13.4-1.1-27.2,10.2-28.3c3.7-0.4,5.5-0.6,9.1-0.9c11.2-1.2,19.2,5.6,20.6,14.8c0.6,3.7,1,5.6,2.1,9.3
		c2.8,9.1,3.5,19.8-1.3,24.6c-1.5,1.6-2.3,2.3-3.8,3.9C538.9,401.9,524.7,398.6,515.3,386.6z M570.1,327.7c3.7-0.4,5.5-0.6,9.1-0.9
		c11.2-1.2,19.2,5.6,20.6,14.8c0.6,3.7,1,5.6,2.1,9.3c2.8,9.1,3.5,19.8-1.3,24.6c-1.5,1.6-2.3,2.3-3.8,3.9
		c-4.8,4.8-19,1.5-28.4-10.5c-3.8-4.9-5.5-7.5-8.5-12.9C552.4,342.6,558.8,328.8,570.1,327.7z M502.2,303.4c1.3-3.4,2-5.1,3.3-8.5
		c4.1-10.6,13.7-14.6,22.5-11.6c3.6,1.2,5.5,1.7,9.2,2.3c9.3,1.6,19.2,5.9,21.4,12.3c0.7,2.1,1,3.1,1.7,5.2
		c2.1,6.4-7.3,17.7-22.3,20.5c-6,1.2-9.1,1.5-15.3,1.7C507.5,325.9,498.2,314,502.2,303.4z M414.6,333.3
		c56.9,0,102.7,68.9,102.7,153.9c0,85.1-45.9,153.7-102.7,153.7c-56.9,0-102.7-68.7-102.7-153.7
		C311.9,402.2,357.7,333.3,414.6,333.3z M286.5,409.7c-1.6-1.6-2.3-2.3-3.9-3.9c-4.7-4.8-4.1-15.6-1.3-24.6c1.2-3.7,1.6-5.5,2.1-9.2
		c1.4-9.3,9.4-16,20.6-14.8c3.7,0.3,5.5,0.5,9.1,0.9c11.3,1.2,17.7,14.9,10.2,28.3c-3,5.4-4.7,8-8.5,12.9
		C305.5,411.2,291.2,414.5,286.5,409.7z M269.7,315.7c0.7-2.1,1.1-3.1,1.7-5.2c2.2-6.4,12-10.7,21.4-12.3c3.8-0.6,5.6-1.1,9.2-2.3
		c8.9-3,18.5,1.1,22.6,11.6c1.3,3.4,2,5.1,3.3,8.5c4.1,10.6-5.2,22.5-20.6,21.9c-6.2-0.2-9.3-0.6-15.3-1.7
		C277,333.3,267.6,322.1,269.7,315.7z M228.2,363.5c1.2-3.7,1.6-5.5,2.1-9.3c1.4-9.3,9.4-16,20.6-14.8c3.7,0.4,5.5,0.6,9.1,0.9
		c11.3,1.1,17.7,14.9,10.2,28.3c-3,5.4-4.7,8-8.5,12.9c-9.3,12.1-23.6,15.4-28.4,10.5c-1.6-1.6-2.3-2.3-3.9-3.9
		C224.8,383.2,225.4,372.5,228.2,363.5z M227.6,443.7c0.7-2.1,1.1-3.1,1.8-5.2c2.3-6.4,12.3-10.4,21.6-11.8c3.8-0.6,5.7-1,9.3-2.1
		c9-2.7,18.5,1.5,22.3,12.2c1.2,3.4,1.8,5.2,3.1,8.6c3.8,10.6-5.8,22.4-21.1,21.5c-6.2-0.4-9.3-0.8-15.3-2.1
		C234.4,461.5,225.3,450.1,227.6,443.7z M411.5,768.1h-0.7C333.6,767.4,285,651.5,264.2,602c-0.9-2.2-1.8-4.3-2.7-6.3
		c-2.2-5.2-0.1-11.1,4.8-13.8c1.7-0.9,3.5-1.4,5.3-1.4c4.2,0,8.2,2.4,10,6.6c0.8,1.9,1.7,4,2.7,6.4c10.2,24.4,30.4,72.4,57.9,108.1
		l0.5-7.2c0.5-8.6,8-15.1,16.6-14.6c8.2,0.5,14.6,7.5,14.6,15.6c0,0.3,0,0.7,0,1l-1.9,29.3c-0.1,1.8-0.6,3.6-1.2,5.2
		c7.3,5.5,14.9,9.8,22.8,12.4c-0.1-0.3-0.1-0.7-0.1-1v-48.4c0-8.6,7-15.6,15.6-15.6c4.3,0,8.2,1.7,11,4.6c2.8,2.8,4.6,6.7,4.6,11
		v48.4c0,0.8-0.1,1.6-0.2,2.3c8.1-2,16.3-5.7,24.6-11.2c-0.3-1-0.6-2.1-0.7-3.2l-3-26.4c-1-8.5,5.2-16.3,13.7-17.3
		c0.6-0.1,1.2-0.1,1.8-0.1c7.8,0,14.6,5.9,15.5,13.9l0.9,8.2c25.6-28,51.9-71.5,78.1-129.4c2.5-5.4,8.9-7.9,14.3-5.5
		c4.1,1.8,6.5,5.8,6.5,10.1c0,1.5-0.3,3-1,4.5C520.7,709.2,467,768.1,411.5,768.1z"/>
	<path class="st2" d="M341.8,78.7c0,36.9-30,66.9-66.9,66.9c-36.9,0-66.9-30-66.9-66.9c0-36.9,30-66.9,66.9-66.9
		C311.8,11.8,341.8,41.8,341.8,78.7z"/>
	<path class="st1" d="M274.2,46.8c-16.8,0-30.4,13.6-30.4,30.4s13.6,30.4,30.4,30.4s30.4-13.6,30.4-30.4S291,46.8,274.2,46.8z
		 M263,80.2c-4.8,0-8.6-3.9-8.6-8.6c0-4.8,3.9-8.6,8.6-8.6c4.8,0,8.6,3.9,8.6,8.6C271.6,76.4,267.8,80.2,263,80.2z"/>
	<path class="st2" d="M622,78.2c0,36.9-30,66.9-66.9,66.9c-36.9,0-66.9-30-66.9-66.9c0-36.9,30-66.9,66.9-66.9
		C592,11.3,622,41.4,622,78.2z"/>
	<path class="st1" d="M554.4,46.3c-16.8,0-30.4,13.6-30.4,30.4s13.6,30.4,30.4,30.4s30.4-13.6,30.4-30.4S571.2,46.3,554.4,46.3z
		 M543.2,79.8c-4.8,0-8.6-3.9-8.6-8.6c0-4.8,3.9-8.6,8.6-8.6s8.6,3.9,8.6,8.6C551.9,75.9,548,79.8,543.2,79.8z"/>
	<path class="st2" d="M424.8,693.9v48.4c0,0.8-0.1,1.6-0.2,2.3c-4.4,1.1-8.8,1.6-13.2,1.6H411c-5.9-0.1-11.7-1.1-17.3-2.9
		c-0.1-0.3-0.1-0.7-0.1-1v-48.4c0-8.6,7-15.6,15.6-15.6c4.3,0,8.2,1.7,11,4.6C423,685.7,424.8,689.6,424.8,693.9z"/>
	<path class="st2" d="M374,695.4c0,0.3,0,0.7,0,1l-1.9,29.3c-0.1,1.8-0.6,3.6-1.2,5.2c-10.2-7.7-19.7-17.8-28.5-29.2l0.5-7.2
		c0.5-8.6,8-15.1,16.6-14.6C367.6,680.3,374,687.3,374,695.4z"/>
	<path class="st2" d="M477.5,708.5c-9.6,10.4-19,18.7-28.3,24.9c-0.3-1-0.6-2.1-0.7-3.2l-3-26.4c-1-8.5,5.2-16.3,13.7-17.3
		c0.6-0.1,1.2-0.1,1.8-0.1c7.8,0,14.6,5.9,15.5,13.9L477.5,708.5z"/>
</g>
</svg>
