<svg width="288" height="593" xmlns="http://www.w3.org/2000/svg" xmlns:undefined="http://www.inkscape.org/namespaces/inkscape">
 <defs>
  <linearGradient x1="0.49999" y1="0.99839" x2="0.49999" y2="0.00035" id="imagebot_8">
   <stop stop-color="#d3d3d3" offset="0" id="imagebot_24"/>
   <stop stop-color="#eaeaea" offset="1" id="imagebot_23"/>
  </linearGradient>
  <linearGradient x1="0.49917" y1="0.99992" x2="0.49917" y2="0.00024" id="imagebot_6">
   <stop stop-color="#d3d3d3" offset="0" id="imagebot_22"/>
   <stop stop-color="#eaeaea" offset="1" id="imagebot_21"/>
  </linearGradient>
  <linearGradient x1="0.49965" y1="0.998" x2="0.49965" y2="0.00003" id="imagebot_4">
   <stop stop-color="#d3d3d3" offset="0" id="imagebot_20"/>
   <stop stop-color="#eaeaea" offset="1" id="imagebot_19"/>
  </linearGradient>
  <filter id="imagebot_16">
   <feGaussianBlur  stdDeviation="10.7609" id="imagebot_18"/>
  </filter>
 </defs>
 <g id="imagebot_2">
  <g opacity="0.5" filter="url(#imagebot_16)" transform="translate(-8.416 -8.664) translate(13.021 6.714)" id="imagebot_15">
   <path fill-rule="evenodd" d="M8.416,591.06C8.954,518.13 10.492,465.96 13.566,433.74C17.178,401.52 22.252,376.2 29.937,357.76C38.085,337.81 52.458,320.98 71.904,305.59C91.812,291.01 128.09,272.65 181.824,250.37L181.824,111.49L111.264,111.49C110.804,151.08 110.264,190.75 109.724,230.42C77.366,229.7 45.006,228.9 12.571,228.09C12.033,216.55 11.495,205.89 11.495,197.4C11.034,188.18 11.034,181.29 11.034,175.2C11.034,149.07 12.571,129.92 16.107,117.58C19.719,105.32 26.331,91.53 35.553,76.144C50.387,53.143 66.759,35.512 85.205,24.772C104.114,14.032 126.094,8.664 152.154,8.664C193.584,8.664 225.784,24.772 248.764,57.791C271.824,90.729 283.044,137.53 283.044,197.401C283.044,241.161 275.904,276.421 261.604,303.271C247.234,330.121 222.714,353.201 187.434,373.151C170.524,383.091 153.154,391.511 135.244,399.201C117.334,407.611 108.184,411.461 107.114,412.261C106.114,413.791 105.114,415.311 104.114,418.351C103.574,421.481 103.034,427.571 103.034,436.791L103.034,442.161L103.034,453.701L103.034,462.111C108.184,462.911 114.334,462.911 121.484,462.911L153.154,462.911C180.284,462.911 204.264,462.111 224.784,460.591C245.234,459.071 263.144,456.741 277.974,452.891C276.904,469.811 275.904,486.631 274.904,503.541C274.364,520.461 273.824,537.371 273.824,553.391L273.824,570.301C274.364,576.481 274.364,584.891 274.904,594.911C234.474,591.781 203.264,589.541 181.284,587.931C158.764,587.221 139.394,586.411 121.944,586.411C105.654,586.411 87.743,586.411 69.295,587.221C50.387,588.741 29.942,589.541 8.42,591.061L8.416,591.06z" id="imagebot_17"/>
  </g>
  <g transform="translate(-8.416 -8.664)" id="imagebot_13">
   <path fill-rule="evenodd" d="M8.416,591.06C8.954,518.13 10.492,465.96 13.566,433.74C17.178,401.52 22.252,376.2 29.937,357.76C38.085,337.81 52.458,320.98 71.904,305.59C91.812,291.01 128.09,272.65 181.824,250.37L181.824,111.49L111.264,111.49C110.804,151.08 110.264,190.75 109.724,230.42C77.366,229.7 45.006,228.9 12.571,228.09C12.033,216.55 11.495,205.89 11.495,197.4C11.034,188.18 11.034,181.29 11.034,175.2C11.034,149.07 12.571,129.92 16.107,117.58C19.719,105.32 26.331,91.53 35.553,76.144C50.387,53.143 66.759,35.512 85.205,24.772C104.114,14.032 126.094,8.664 152.154,8.664C193.584,8.664 225.784,24.772 248.764,57.791C271.824,90.729 283.044,137.53 283.044,197.401C283.044,241.161 275.904,276.421 261.604,303.271C247.234,330.121 222.714,353.201 187.434,373.151C170.524,383.091 153.154,391.511 135.244,399.201C117.334,407.611 108.184,411.461 107.114,412.261C106.114,413.791 105.114,415.311 104.114,418.351C103.574,421.481 103.034,427.571 103.034,436.791L103.034,442.161L103.034,453.701L103.034,462.111C108.184,462.911 114.334,462.911 121.484,462.911L153.154,462.911C180.284,462.911 204.264,462.111 224.784,460.591C245.234,459.071 263.144,456.741 277.974,452.891C276.904,469.811 275.904,486.631 274.904,503.541C274.364,520.461 273.824,537.371 273.824,553.391L273.824,570.301C274.364,576.481 274.364,584.891 274.904,594.911C234.474,591.781 203.264,589.541 181.284,587.931C158.764,587.221 139.394,586.411 121.944,586.411C105.654,586.411 87.743,586.411 69.295,587.221C50.387,588.741 29.942,589.541 8.42,591.061L8.416,591.06z" id="imagebot_14"/>
  </g>
  <path stroke="#000000" fill-rule="evenodd" fill="#ffffff" d="M 152.03399963378905 369.4560004425049 L 183.08399963378906 352.4660004425049 C 218.36399963378906 332.5160004425049 235.66399963378908 305.9060004425049 249.95399963378907 279.0560004425049 C 264.3239996337891 252.2060004425049 265.6339996337891 236.49600044250488 265.6339996337891 192.74600044250488 C 265.6339996337891 132.87600044250487 254.33399963378906 86.07600044250488 231.35399963378907 53.13600044250488 C 208.29399963378907 20.116000442504884 189.31399963378905 8.576000442504881 147.88399963378907 8.576000442504881 C 121.82399963378907 8.576000442504881 101.53399963378907 9.057000442504883 82.62799963378906 19.796000442504884 C 64.18099963378906 30.534000442504883 47.80999963378906 48.16500044250488 33.051999633789066 71.16600044250488 C 23.826999633789065 86.55400044250489 17.138999633789062 100.33600044250488 13.604999633789063 112.59600044250489 C 9.991999633789064 124.86600044250488 8.455999633789062 144.09600044250487 8.455999633789062 170.14600044250489 C 8.455999633789062 176.31600044250487 8.455999633789062 183.2060004425049 8.992999633789061 192.4260004425049 C 8.992999633789061 200.83600044250488 8.840999633789064 200.1960004425049 9.377999633789063 211.7360004425049 L 92.69399963378906 211.7360004425049 C 93.15399963378906 171.74600044250488 93.69399963378906 131.6760004425049 94.23399963378907 91.60600044250488 C 123.44399963378908 93.68600044250488 152.64399963378906 95.76600044250489 181.93399963378906 97.93600044250488 C 181.08399963378906 147.06600044250487 180.16399963378908 196.18600044250488 179.24399963378906 245.39600044250489 C 125.59399963378905 267.5960004425049 89.23799963378906 286.0260004425049 69.33399963378906 300.61600044250486 C 49.88299963378906 315.92600044250486 33.97499963378906 342.28600044250487 25.82599963378906 362.2460004425049 L 25.671999633789063 378.5960004425049 L 152.03199963378907 369.4560004425049 L 152.03399963378905 369.4560004425049 z" id="imagebot_11"/>
  <path stroke="#000000" stroke-width="4.5" fill-rule="evenodd" fill="#ffffff" d="M 183.08399963378906 352.4660004425049 C 174.01399963378907 357.1960004425049 166.48399963378907 360.7160004425049 160.48399963378907 362.72600044250487 C 154.26399963378907 364.6460004425049 150.26399963378907 366.0160004425049 146.72399963378905 364.6460004425049 C 143.11399963378906 363.2060004425049 140.65399963378906 359.7560004425049 139.04399963378907 354.3160004425049 C 128.59399963378905 364.48600044250486 120.75399963378905 369.4560004425049 114.29399963378906 369.85600044250486 C 108.06399963378907 370.0960004425049 103.53399963378907 365.4560004425049 101.30399963378906 355.91600044250487 C 100.68399963378906 359.91600044250487 98.15399963378906 363.2060004425049 94.00399963378906 365.4560004425049 C 89.62099963378907 367.4560004425049 81.47299963378906 370.3360004425049 76.09399963378907 369.4560004425049 C 70.63499963378906 368.41600044250487 66.33199963378907 365.4560004425049 62.33299963378906 359.91600044250487 C 58.491999633789064 364.4060004425049 54.878999633789064 367.6960004425049 50.881999633789064 369.4560004425049 S 42.81099963378906 371.61600044250486 38.658999633789065 370.6560004425049 C 34.35499963378906 369.3760004425049 30.281999633789063 366.5760004425049 25.823999633789064 362.2460004425049 C 18.13799963378906 380.67600044250486 16.523999633789064 398.54600044250486 12.910999633789064 430.7660004425049 C 9.835999633789061 463.0660004425049 3.6879996337890617 498.0860004425049 3.225999633789062 570.9360004425049 C 24.671999633789063 569.4160004425049 45.11599963378906 568.6160004425049 64.09999963378907 567.0960004425049 C 82.47099963378906 566.3660004425049 100.38399963378906 566.3660004425049 116.75399963378906 566.3660004425049 C 134.12399963378905 566.3660004425049 153.56399963378905 567.0960004425049 176.01399963378907 567.8860004425048 C 198.07399963378907 569.4060004425049 218.97399963378905 572.1360004425048 259.40399963378906 575.1760004425049 C 258.86399963378904 565.2460004425049 255.18399963378909 563.0060004425048 254.72399963378905 556.8260004425049 C 254.72399963378905 550.7360004425049 257.02399963378906 525.4960004425049 257.02399963378906 520.1260004425048 C 257.02399963378906 504.01600044250483 258.8739996337891 504.01600044250483 259.40399963378906 487.10600044250486 C 260.40399963378906 470.1960004425049 263.02399963378906 473.4060004425049 264.09399963378905 456.4960004425049 C 249.26399963378907 460.3360004425049 239.96399963378906 457.53600044250487 219.44399963378908 459.0560004425049 C 198.99399963378906 460.5760004425049 175.01399963378907 461.3760004425049 147.88399963378907 461.3760004425049 L 116.21399963378906 461.3760004425049 C 108.98399963378907 461.3760004425049 92.00399963378906 463.3860004425049 86.85299963378907 462.5760004425049 C 86.85299963378907 460.2560004425049 85.70199963378906 449.7560004425049 85.70199963378906 446.7160004425049 C 85.70199963378906 444.3860004425049 84.62499963378906 428.5960004425049 84.62499963378906 423.9560004425049 L 84.62499963378906 418.5860004425049 C 84.62499963378906 409.36600044250486 87.54599963378907 406.9660004425049 88.00699963378906 403.8360004425049 C 89.08399963378906 400.78600044250487 87.00799963378907 399.2660004425049 88.00699963378906 397.7460004425049 C 89.08399963378906 397.0260004425049 105.30399963378906 393.8960004425049 123.21399963378906 385.48600044250486 C 141.11399963378906 377.79600044250486 166.25399963378905 362.4060004425049 183.08399963378906 352.4660004425049 z" id="imagebot_9"/>
  <path stroke="#000000" stroke-width="4.5" fill-opacity="0" fill-rule="evenodd" fill="url(#imagebot_8)" d="M 73.58399963378906 28.850000442504886 C 80.11599963378906 26.606000442504886 76.78499963378906 27.56900044250488 81.77999963378906 28.690000442504882 C 86.69899963378906 29.57200044250488 91.15699963378906 32.296000442504884 94.54399963378906 36.54400044250488 C 98.69399963378906 34.299000442504884 103.22399963378906 33.338000442504885 108.45399963378907 33.658000442504886 C 113.75399963378906 33.81900044250488 121.44399963378908 35.10100044250488 125.59399963378905 37.82500044250488 C 129.51399963378907 40.47000044250488 131.58399963378906 45.99900044250488 131.51399963378907 49.44700044250488 C 131.28399963378905 52.73300044250488 128.66399963378908 55.137000442504885 123.98399963378907 57.301000442504886 C 128.82399963378907 56.659000442504876 131.66399963378908 57.38200044250489 133.12399963378905 59.786000442504886 C 134.43399963378906 62.19000044250488 135.50399963378905 69.56200044250488 131.89399963378906 71.40600044250488 C 127.97399963378905 73.08900044250488 117.60399963378906 72.12800044250488 110.83399963378906 69.80400044250489 C 104.07399963378906 67.23800044250488 97.69399963378906 62.91000044250488 91.69399963378906 56.49900044250488 C 90.38999963378906 66.19700044250489 88.00799963378907 72.60800044250489 84.54899963378907 76.37400044250488 C 80.78299963378906 79.74100044250488 75.55799963378907 80.30200044250488 70.63699963378906 78.05800044250488 C 65.64199963378907 75.73400044250488 60.56899963378906 70.60500044250489 55.112999633789066 62.67100044250488 C 52.72699963378906 68.92200044250488 50.116999633789064 72.92900044250489 46.34899963378906 74.37100044250488 C 42.66099963378906 75.65400044250488 38.122999633789064 74.69200044250488 33.052999633789064 71.16500044250488 C 37.664999633789066 62.59000044250489 42.58099963378906 54.81600044250488 47.81099963378906 48.164000442504886 C 52.95699963378906 41.27300044250488 62.81699963378907 34.51300044250488 68.58399963378906 29.545000442504886 L 73.58399963378906 28.850000442504886 z" id="imagebot_7"/>
  <path stroke-width="5" fill-opacity="0" stroke="#000000" fill-rule="evenodd" fill="url(#imagebot_6)" d="M 261.2539996337891 131.37600044250487 C 256.2539996337891 129.21600044250488 256.02399963378906 130.15600044250488 252.10399963378904 131.1960004425049 C 248.18399963378909 132.0760004425049 244.65399963378906 134.7960004425049 241.80399963378906 139.0460004425049 C 237.42399963378907 137.36600044250488 232.50399963378905 136.72600044250487 227.04399963378907 137.4460004425049 C 221.28399963378905 138.00600044250487 214.21399963378906 139.28600044250487 208.75399963378905 142.81600044250487 C 203.30399963378906 146.1760004425049 198.76399963378907 151.14600044250489 194.84399963378905 157.71600044250488 L 180.85399963378907 154.83600044250488 L 180.47399963378905 188.4160004425049 C 185.69399963378908 191.9460004425049 190.38399963378907 193.5460004425049 194.84399963378905 192.58600044250488 C 199.14399963378906 191.53600044250487 203.22399963378905 188.5760004425049 206.75399963378905 183.0460004425049 C 209.67399963378907 186.97600044250487 213.67399963378907 189.05600044250488 219.05399963378906 189.2960004425049 C 224.28399963378905 189.4560004425049 230.89399963378906 187.53600044250487 238.57399963378907 183.84600044250487 C 237.96399963378906 190.49600044250488 239.96399963378906 194.4260004425049 244.57399963378907 195.9460004425049 C 249.10399963378904 197.39600044250489 256.3039996337891 198.3260004425049 265.91399963378905 194.6360004425049 L 265.6339996337891 192.74600044250488 C 266.70399963378907 188.09600044250487 264.91399963378905 180.24600044250488 264.91399963378905 170.30600044250488 C 264.91399963378905 160.2060004425049 262.3239996337891 146.9260004425049 261.2539996337891 131.37600044250487 z" id="imagebot_5"/>
  <path stroke-width="5" stroke="#000000" fill-opacity="0" fill-rule="evenodd" fill="url(#imagebot_4)" d="M 8.454999633789061 144.09600044250487 C 11.143999633789061 140.00600044250487 14.219999633789062 137.2060004425049 17.676999633789062 136.56600044250487 C 21.212999633789064 135.43600044250488 25.518999633789065 136.4860004425049 28.82299963378906 139.0460004425049 C 31.820999633789064 141.53600044250487 33.972999633789065 146.1760004425049 35.58699963378906 152.3560004425049 C 44.27399963378906 145.05600044250488 50.49899963378906 142.25600044250487 55.11099963378906 143.61600044250488 C 59.488999633789064 144.89600044250489 61.87499963378906 150.4260004425049 62.25799963378907 160.2060004425049 C 69.48299963378906 158.28600044250487 73.63399963378906 158.6060004425049 75.01599963378906 161.4860004425049 C 76.16899963378906 164.1360004425049 73.09599963378906 173.6660004425049 70.25199963378907 176.7960004425049 C 67.09899963378906 179.75600044250487 61.48799963378906 180.80600044250488 57.87499963378906 179.27600044250488 C 54.34099963378906 177.43600044250488 51.189999633789064 173.02600044250488 48.72999963378906 166.05600044250488 C 46.49899963378906 175.1960004425049 43.73399963378906 179.9160004425049 40.426999633789066 180.56600044250487 C 36.969999633789065 181.12600044250487 32.97099963378906 177.27600044250488 28.43799963378906 169.34600044250487 C 29.05099963378906 177.43600044250488 27.820999633789064 182.80600044250488 24.43899963378906 185.12600044250487 C 21.05699963378906 187.4560004425049 15.832999633789061 186.81600044250487 8.453999633789063 183.2060004425049 C 8.376999633789062 181.12600044250487 8.376999633789062 176.47600044250487 8.453999633789063 170.14600044250489 C 8.377999633789063 163.3260004425049 8.377999633789063 155.15600044250488 8.454999633789061 144.09600044250487 z" id="imagebot_3"/>
  <title>imagebot_2</title>
 </g>
 <metadata>image/svg+xmlOpenclipartCreation Days Numbers2007-11-13T16:32:45The days of creation - completed originally to fulfill a request on the OpenClipart wiki.https://openclipart.org/detail/8221/creation-days-numbers-by-gerald_g-8221Gerald_Gadamcartooncreationevegodnumberreligionrequest+completedsource+wiki</metadata>
</svg>