<?xml version="1.0" encoding="utf-8"?>
<!-- Generator: Adobe Illustrator 22.0.1, SVG Export Plug-In . SVG Version: 6.00 Build 0)  -->
<svg version="1.1" id="Layer_1" xmlns="http://www.w3.org/2000/svg" xmlns:xlink="http://www.w3.org/1999/xlink" x="0px" y="0px"
	 width="850.4px" height="850.4px" viewBox="0 0 850.4 850.4" style="enable-background:new 0 0 850.4 850.4;" xml:space="preserve"
	>
<style type="text/css">
	.st0{fill:#BED788;}
	.st1{fill:#95C33E;}
	.st2{fill:#FFFFFF;}
	.st3{fill:#A54C9D;}
	.st4{fill:#C18DBF;}
</style>
<g>
	<path class="st0" d="M665.1,360.1c-19.3,6.4-32,10.9-47.2,16.1c12.4,28.1,24.6,56.6,40.7,82.8c-27.7,9.1-41.8,14.6-69.2,23.2
		c6.8,14.3,14,28.3,22.2,41.6c-17.5,5.8-26.3,11.3-37.2,16.9c-5.2,22-10.8,43.9-17.2,65.6c-4.8-15.1-9.2-30.4-13.4-45.7
		c-1.1,1.6-2.3,3.2-3.4,4.8c-14.9,24.4-19.8,35.7-36.3,71.4c-2.5-7.8-4.7-14.4-6.6-20.3c-11.4,12.2-23.2,23.8-35.1,34.9
		c-1.1,1.1,15.4,0,42.7-0.6c25.1-0.6,46.7-15.4,59.2-37c4.6-7.4,11.4-13.1,19.4-13.1c13.1,0,23.4,14.3,23.4,31.9
		c6.3,60.9,6.3,123,0,183.9c0,17.6-10.3,31.9-23.4,31.9c-7.4,0-327.4-1.7-364.4-3.4c-33-1.7-47.3-53-29.6-80.8
		C248.2,673,385.4,464,407.6,360.4c6.8-31.3-17.1-60.4-49-59.2c-58.1,2.9-137.2,46.1-169.1-18.8c-10.9-22.2-7-40.7,4.4-55.9
		c-9.3-16-14.7-34.6-14.7-54.5c0-59.9,48.7-108.6,108.6-108.6c7.5,0,14.9,0.8,22,2.2c-6.1-15.6-13-30.9-20.8-45.7
		c28.3,4.3,55.3,14.1,80,28.3c-4.2-9.6-8.7-19-13.5-28.3c23.4,3.6,46.1,11,67.2,21.4c23.2-15.1,48.4-27.1,75.1-34.9
		c-6.6,13.9-12.6,27.6-18.1,41.4c25.7-18.2,54.2-32.5,84.5-41.4C552,32,541.8,57.2,533,83.1c26.2-18.8,55.2-33.5,86.3-42.6
		c-8.4,17.6-15.8,35.1-22.5,52.7c15-7.6,30.6-13.9,46.8-18.6c-13.4,28.2-24.5,56-33.8,84.7c18.3-10.3,37.8-18.7,58.2-24.7
		c-17.6,37.1-31.2,73.4-42.2,112.2c11.6-5.3,23.5-9.7,35.8-13.3c-10.5,22-19.5,43.7-27.4,65.8C643.3,320,653.2,340.7,665.1,360.1z"
		/>
	<path class="st1" d="M606.9,632.5c0-17.6-10.3-31.9-23.4-31.9c-8,0-14.8,5.7-19.4,13.1c-12.5,21.7-34.2,36.5-59.2,37
		c-27.3,0.6-43.8,1.7-42.7,0.6c67.8-63.2,134.4-145.8,141.2-241.4c3.7-46.7-8.9-93.1-32.4-133.3c10.8-10,19.5-22,25.6-35.6
		c1.6-3.5,2.9-7,4.1-10.7c2.5-7.6,4.1-15.6,4.8-23.9v-0.2c0.1-1.3,0.2-2.6,0.3-3.8c0-0.1,0-0.2,0-0.2c0.1-1.8,0.1-3.6,0.1-5.3
		c0-6.4-0.6-12.6-1.6-18.6c-0.7-3.8-1.5-7.6-2.6-11.2c-13-45.4-54.9-78.8-104.5-78.8c-46.6,0-86.4,29.5-101.8,70.8
		c-0.2-1.9-0.5-3.8-0.8-5.6c-0.7-3.8-1.5-7.6-2.6-11.2c-13-45.4-54.9-78.8-104.5-78.8c-59.9,0-108.6,48.7-108.6,108.6
		c0,19.8,5.4,38.4,14.7,54.5c-11.4,15.1-15.2,33.6-4.4,55.9c31.9,64.9,111.1,21.6,169.1,18.8c31.9-1.1,55.8,27.9,49,59.2
		C385.4,464,248.2,673,189.6,764.1c-17.6,27.9-3.4,79.1,29.6,80.8c37,1.7,357,3.4,364.4,3.4c13.1,0,23.4-14.2,23.4-31.9
		C613.2,755.5,613.2,693.5,606.9,632.5z M383.4,176.8v0.2c-0.1,1.3-0.2,2.5-0.3,3.8v0.2c-4.5,48.6-45.5,86.7-95.2,86.7
		c-52.7,0-95.6-42.9-95.6-95.7c0-52.7,42.9-95.6,95.6-95.6c52.7,0,95.7,42.9,95.7,95.6C383.5,173.6,383.5,175.2,383.4,176.8z
		 M577.1,321.9c3.8,8.1-43.7,89.9-71.5,91c-29.8,1.2-88.2-75.2-88.2-75.2c1.1-3.8,56.2,31.8,83.1,28.6
		C524.8,363.4,575.9,319.3,577.1,321.9z M401.8,196.9c0-52.7,42.9-95.6,95.6-95.6c52.7,0,95.7,42.9,95.7,95.6c0,1.6,0,3.2-0.1,4.8
		v0.2c-0.1,1.3-0.2,2.5-0.3,3.8v0.2c-4.5,48.6-45.5,86.7-95.2,86.7C444.8,292.6,401.8,249.7,401.8,196.9z M328.8,794.3
		c-14.8,14.1-42.7-4.4-57.3-14c-18.4-12-36.4-37.7-20.1-59.3c18.2-24.1,47.1,2.8,58.8,17.8C320.7,752.2,344.5,779.3,328.8,794.3z
		 M404.5,735.6c-36.5,22.8-61.3-27.6-69.3-53.5c-7.1-23.1-25-71.3,3.4-83.3c26.8-11.2,54.6,27.6,69.2,47.7
		C426.3,671.8,437.3,715.1,404.5,735.6z M427,592.3c-18.3,6.7-35.7-20-44.9-33.9c-11.6-17.5-17.7-46.8,4.9-59.5
		c25.1-14.2,40.2,20.3,44.7,37.9C435.8,552.4,446.4,585.2,427,592.3z M521.3,787.6c-17.2,17-51.7,55.2-75.4,35.5
		c-22.4-18.5-0.8-61.1,10.3-83.4c13.9-28,47.3-57.9,80.6-38.3C573.9,723.2,540.7,768.5,521.3,787.6z"/>
	<path class="st2" d="M383.5,172.1c0,1.6,0,3.2-0.1,4.8v0.2c-0.1,1.3-0.2,2.5-0.3,3.8v0.2c-4.5,48.6-45.5,86.7-95.2,86.7
		c-52.7,0-95.6-42.9-95.6-95.7c0-52.7,42.9-95.6,95.6-95.6C340.6,76.4,383.5,119.3,383.5,172.1z"/>
	<path class="st3" d="M287.9,128.6c-24,0-43.5,19.5-43.5,43.5s19.5,43.5,43.5,43.5c24,0,43.5-19.5,43.5-43.5
		S311.9,128.6,287.9,128.6z M271.9,176.4c-6.8,0-12.3-5.5-12.3-12.3c0-6.8,5.5-12.3,12.3-12.3c6.8,0,12.3,5.5,12.3,12.3
		C284.2,170.9,278.7,176.4,271.9,176.4z"/>
	<path class="st2" d="M593.1,196.9c0,1.6,0,3.2-0.1,4.8v0.2c-0.1,1.3-0.2,2.5-0.3,3.8v0.2c-4.5,48.6-45.5,86.7-95.2,86.7
		c-52.7,0-95.6-42.9-95.6-95.7c0-52.7,42.9-95.6,95.6-95.6C550.2,101.3,593.1,144.2,593.1,196.9z"/>
	<path class="st4" d="M497.5,153.5c-24,0-43.5,19.5-43.5,43.5s19.5,43.5,43.5,43.5c24,0,43.5-19.5,43.5-43.5
		S521.5,153.5,497.5,153.5z M481.5,201.2c-6.8,0-12.3-5.5-12.3-12.3c0-6.8,5.5-12.3,12.3-12.3c6.8,0,12.3,5.5,12.3,12.3
		C493.8,195.7,488.3,201.2,481.5,201.2z"/>
	<path class="st2" d="M505.6,412.9c-29.8,1.2-88.2-75.2-88.2-75.2c1.1-3.8,56.2,31.8,83.1,28.6c24.2-2.9,75.4-47,76.5-44.4
		C580.9,330,533.4,411.7,505.6,412.9z"/>
	<path d="M505.6,412.8c-29.8,1.3-88.2-75.2-88.2-75.2c0.9-3.1,37.7,20,65.9,26.9v16.2c0,7.3,5.9,13.2,13.2,13.2
		c7.3,0,13.2-5.9,13.2-13.2l-0.7-16.7c26-9.4,67-44.5,68.1-42.2C580.9,330,533.4,411.7,505.6,412.8z"/>
</g>
</svg>
