<svg width="357" height="587" xmlns="http://www.w3.org/2000/svg">
 <defs>
  <linearGradient x1="0.5919" y1="0.00413" x2="0.47194" y2="1.04315" id="imagebot_88">
   <stop stop-color="#5fe5ff" offset="0" id="imagebot_102"/>
   <stop stop-color="#007f6f" offset="1" id="imagebot_101"/>
  </linearGradient>
  <linearGradient x1="0.5" y1="1" x2="0.5" y2="0" id="imagebot_83">
   <stop stop-color="#009f2f" offset="0" id="imagebot_100"/>
   <stop stop-color="#9fffb1" offset="1" id="imagebot_99"/>
  </linearGradient>
  <linearGradient x1="0.11727" y1="0.05983" x2="0.78727" y2="0.81776" id="imagebot_48">
   <stop stop-color="#00ff0c" offset="0" id="imagebot_96"/>
   <stop stop-color="#007f33" offset="1" id="imagebot_95"/>
  </linearGradient>
 </defs>
 <g id="imagebot_2">
  <path stroke-width="5" stroke="#000000" fill-opacity="0" fill-rule="evenodd" fill="url(#imagebot_88)" d="M 313.9815002822876 172.15450023651124 C 313.9815002822876 118.34450023651124 298.1615002822876 77.98150023651122 270.4415002822876 48.184500236511234 C 242.7215002822876 18.37950023651123 212.0715002822876 8.75850023651123 162.0415002822876 8.75850023651123 C 108.3815002822876 8.75850023651123 80.8925002822876 25.02750023651123 51.9415002822876 59.20850023651123 C 22.985500282287596 93.39450023651123 9.937500282287598 127.49450023651124 9.396500282287597 191.47850023651122 C 41.4395002822876 194.21850023651123 73.4815002822876 197.02850023651123 105.5215002822876 199.84850023651123 L 105.5215002822876 148.45850023651124 C 139.4215002822876 152.44850023651122 173.3115002822876 156.43850023651123 207.2815002822876 160.42850023651124 C 206.51150028228759 173.17850023651124 205.7415002822876 185.92850023651124 204.9615002822876 198.67850023651124 L 226.3515002822876 208.21850023651123 L 290.9815002822876 196.47850023651122 L 313.9815002822876 172.15850023651123 L 313.9815002822876 172.15450023651124 z" id="imagebot_87"/>
  <path fill-rule="evenodd" d="M 104.3840002822876 103.48200023651123 C 120.13400028228759 107.00200023651124 133.4940002822876 108.02200023651123 144.4540002822876 107.39200023651124 C 155.3440002822876 106.69200023651123 163.7540002822876 103.48200023651123 170.0140002822876 98.63200023651123 C 170.9340002822876 104.11200023651124 174.4840002822876 106.92200023651122 180.6640002822876 107.39200023651124 C 186.7640002822876 107.55200023651123 195.3340002822876 105.83200023651123 206.6840002822876 101.05200023651123 C 209.2340002822876 103.95200023651122 212.5540002822876 105.59200023651123 217.2640002822876 105.98200023651123 C 221.8140002822876 106.37200023651123 227.4540002822876 105.28200023651124 234.1740002822876 103.01200023651123 C 227.0640002822876 108.17200023651122 221.2740002822876 111.22200023651124 216.79400028228758 111.85200023651123 C 212.1640002822876 112.47200023651124 209.1540002822876 110.83200023651123 207.1440002822876 106.92200023651122 C 195.4140002822876 111.14200023651124 186.4540002822876 113.33200023651123 179.6640002822876 113.80200023651123 C 172.8640002822876 114.12200023651123 168.6240002822876 112.63200023651123 166.6140002822876 109.35200023651123 C 156.2640002822876 113.26200023651123 146.07400028228759 114.74200023651123 135.7340002822876 113.80200023651123 C 125.22400028228759 112.79200023651123 114.8840002822876 109.35200023651123 104.3840002822876 103.48200023651123 z" id="imagebot_86"/>
  <path fill-rule="evenodd" d="M 163.29400028228758 73.36800023651124 C 175.0240002822876 75.87000023651123 185.1440002822876 76.96600023651123 193.3340002822876 76.34000023651123 C 201.6640002822876 75.63600023651124 207.6840002822876 73.52400023651123 212.5540002822876 69.69200023651123 C 213.32400028228759 73.83800023651123 215.8740002822876 75.95000023651123 220.5040002822876 76.34000023651123 C 225.1340002822876 76.57400023651122 231.54400028228758 75.09000023651123 240.0340002822876 71.56900023651123 C 241.8940002822876 73.68100023651122 244.6740002822876 75.01000023651123 248.06400028228762 75.24500023651123 C 251.4640002822876 75.40200023651123 255.79400028228758 74.77600023651124 260.7340002822876 73.05500023651123 C 255.3240002822876 76.96600023651123 251.0840002822876 79.15500023651123 247.68400028228757 79.62600023651123 C 244.2040002822876 80.09400023651123 241.8940002822876 78.76500023651123 240.4240002822876 75.95000023651123 C 231.54400028228758 79.00000023651123 224.9840002822876 80.72100023651123 219.8140002822876 81.11200023651124 C 214.6340002822876 81.34600023651123 211.4740002822876 80.25200023651124 210.0040002822876 77.82600023651123 C 202.1340002822876 80.72000023651123 194.7140002822876 81.81500023651122 186.8340002822876 81.11200023651124 C 179.04400028228758 80.32900023651123 171.0940002822876 77.74800023651123 163.29400028228758 73.36800023651124 z" id="imagebot_85"/>
  <path fill-rule="evenodd" d="M 126.07400028228759 47.71300023651123 C 132.3340002822876 48.88600023651123 137.2740002822876 49.58900023651123 141.7540002822876 49.19900023651123 C 145.9240002822876 48.72900023651123 149.2440002822876 47.79100023651123 151.7140002822876 45.75700023651123 C 152.0240002822876 47.79100023651123 153.4140002822876 49.04200023651123 155.8840002822876 49.19900023651123 C 158.1940002822876 49.35500023651123 161.6740002822876 48.41600023651123 165.9940002822876 46.695000236511234 C 166.8440002822876 47.86800023651123 168.2340002822876 48.41600023651123 170.1640002822876 48.65200023651123 C 171.8640002822876 48.65200023651123 174.1840002822876 48.26000023651123 176.8040002822876 47.47900023651123 C 173.9440002822876 49.43400023651123 171.7840002822876 50.686000236511234 170.0140002822876 50.92000023651123 C 168.1540002822876 51.15400023651123 166.9940002822876 50.52800023651123 166.2240002822876 49.04200023651123 C 161.5940002822876 50.68500023651123 158.1240002822876 51.46700023651123 155.4940002822876 51.70200023651123 C 152.79400028228758 51.78100023651123 151.0940002822876 51.311000236511234 150.4040002822876 49.98100023651123 C 146.3040002822876 51.311000236511234 142.29400028228758 52.17100023651123 138.3540002822876 51.70200023651123 C 134.1840002822876 51.23300023651123 130.0940002822876 49.90300023651123 126.07400028228759 47.71300023651123 z" id="imagebot_84"/>
  <path stroke-width="5" stroke="#000000" fill-opacity="0" fill-rule="evenodd" fill="url(#imagebot_83)" d="M 204.5240002822876 200.67450023651122 L 198.5840002822876 240.09450023651124 L 125.6240002822876 240.09450023651124 C 124.92400028228761 279.66450023651123 124.1540002822876 319.2445002365112 123.38400028228759 358.90450023651124 C 155.1140002822876 362.26450023651125 186.8540002822876 365.63450023651126 218.6640002822876 369.07450023651126 C 220.2040002822876 397.70450023651125 221.7440002822876 426.32450023651126 223.3740002822876 455.03450023651124 C 188.0040002822876 454.64450023651125 152.6440002822876 454.2545002365112 117.2840002822876 453.8545002365112 C 118.67400028228761 438.45450023651125 120.0640002822876 423.0445002365112 121.5340002822876 407.5545002365112 C 83.3110002822876 406.77450023651124 45.094000282287595 405.91450023651123 6.8740002822875965 405.0545002365112 C 6.258000282287597 413.1045002365112 5.642000282287597 418.89450023651125 5.642000282287597 422.4945002365112 L 5.642000282287597 432.7345002365112 C 5.642000282287597 487.2545002365112 19.924000282287594 514.3945002365112 47.103000282287596 539.8145002365112 C 74.2010002822876 566.0245002365112 107.7140002822876 578.0645002365112 166.1530002822876 578.0645002365112 C 219.8130002822876 578.0645002365112 255.64300028228757 569.5445002365112 287.6030002822876 538.9545002365112 C 319.5730002822876 509.15450023651124 335.8630002822876 469.1845002365112 335.8630002822876 419.7545002365112 C 335.8630002822876 384.7945002365112 325.9830002822876 362.89450023651125 309.6930002822876 340.3645002365112 C 293.3930002822876 318.5445002365112 259.8130002822876 300.16450023651123 227.2330002822876 291.40450023651124 C 256.8030002822876 278.33450023651125 284.0530002822876 260.66450023651123 295.4830002822876 243.92450023651122 C 307.5230002822876 226.47450023651123 313.5430002822876 203.25450023651123 313.5430002822876 174.15450023651124 C 306.2930002822876 179.86450023651122 299.1130002822876 183.07450023651123 291.5430002822876 183.77450023651124 C 283.9030002822876 184.47450023651123 276.1030002822876 177.51450023651122 268.3830002822876 178.45450023651122 C 260.58300028228757 179.47450023651123 251.9330002822876 187.91450023651123 245.2130002822876 189.64450023651122 C 238.5030002822876 191.36450023651122 235.1030002822876 186.90450023651124 228.3130002822876 188.70450023651122 C 221.4330002822876 190.57450023651123 213.6330002822876 194.49450023651124 204.5230002822876 200.67450023651122 L 204.5240002822876 200.67450023651122 z" id="imagebot_82"/>
  <path stroke-width="5" stroke="#000000" fill-opacity="0" fill-rule="evenodd" fill="#ede9b0" d="M 8.512499614715576 403.8145032763481 L 75.68549961471558 405.6145032763481 C 74.29649961471557 416.2545032763481 71.51549961471558 425.8745032763481 66.72749961471558 434.7945032763481 C 61.78949961471558 443.5545032763481 56.46049961471557 452.1545032763481 47.19549961471557 458.8045032763481 C 37.853499614715574 465.2145032763481 25.962499614715576 470.3745032763481 11.216499614715573 473.9745032763481 C 9.207499614715577 463.7345032763481 7.509499614715576 454.1145032763481 6.969499614715577 444.8045032763481 C 6.196499614715577 435.26450327634814 6.583499614715578 424.9345032763481 6.969499614715577 418.0545032763481 C 7.123499614715577 411.01450327634814 7.739499614715577 406.5545032763481 8.512499614715576 403.8145032763481 z" id="imagebot_81"/>
  <path fill-rule="evenodd" fill="#000000" d="M 122.8340002822876 410.95200023651125 C 117.3540002822876 411.27200023651125 111.8740002822876 411.1920002365112 106.0840002822876 411.58200023651125 C 100.1340002822876 411.65200023651124 89.5590002822876 411.58200023651125 88.09300028228759 412.20200023651125 C 86.6240002822876 412.83200023651125 91.4100002822876 413.85200023651123 97.3540002822876 414.9420002365112 C 103.0740002822876 415.8020002365112 111.4840002822876 416.51200023651126 122.60400028228759 417.3720002365112 C 122.67400028228761 415.2520002365112 122.75400028228759 413.14200023651125 122.8340002822876 410.95200023651125 z" id="imagebot_74"/>
  <path fill-rule="evenodd" fill="#000000" d="M 120.87400182008744 426.3819994735718 C 114.47400182008744 426.1419994735718 108.37400182008741 425.8319994735718 102.88400182008743 425.1319994735718 C 97.09400182008744 424.42199947357176 87.44800182008743 421.29199947357176 87.29200182008742 422.0719994735718 C 87.06000182008745 422.7819994735718 96.32400182008743 426.85199947357177 101.96400182008745 428.80199947357175 C 107.52400182008745 430.4519994735718 113.61400182008742 431.54199947357176 120.56400182008744 432.0919994735718 C 120.64400182008742 430.2119994735718 120.72400182008744 428.3319994735718 120.87400182008744 426.3819994735718 z" id="imagebot_73"/>
  <path fill-rule="evenodd" fill="#000000" d="M 120.75400028228759 466.8820002365112 C 115.7340002822876 464.3020002365112 106.5440002822876 461.5620002365112 98.5940002822876 458.66200023651123 C 90.4090002822876 455.6920002365112 70.7970002822876 448.34200023651124 72.8040002822876 450.14200023651125 C 74.8120002822876 451.8620002365112 101.2940002822876 465.78200023651124 110.5640002822876 469.6120002365112 C 119.7440002822876 472.9820002365112 125.4640002822876 472.90200023651124 127.3940002822876 472.35200023651123 C 128.9340002822876 471.8120002365112 125.6140002822876 468.9920002365112 120.75400028228759 466.8820002365112 z" id="imagebot_72"/>
  <path fill-rule="evenodd" fill="#000000" d="M 71.8780002822876 459.60200023651123 C 72.4180002822876 461.01200023651126 89.5590002822876 476.97200023651124 95.89400028228759 481.1920002365112 C 102.22400028228759 485.02200023651125 109.4040002822876 485.34200023651124 109.0940002822876 483.9320002365112 C 108.3240002822876 482.21200023651124 98.4440002822876 476.7320002365112 92.2640002822876 472.66200023651123 C 85.7760002822876 468.3620002365112 71.3370002822876 458.27200023651125 71.8780002822876 459.60200023651123 z" id="imagebot_71"/>
  <path fill-rule="evenodd" fill="#000000" d="M 45.7810002822876 478.14200023651125 C 50.8770002822876 482.7520002365112 76.6650002822876 506.3720002365112 81.4530002822876 512.7920002365113 C 85.8510002822876 518.6620002365112 77.8210002822876 518.6620002365112 72.8040002822876 514.2820002365112 C 67.40000028228759 509.7420002365112 55.1220002822876 492.6920002365112 50.570000282287594 486.6720002365112 C 45.7810002822876 480.41200023651123 40.6070002822876 473.76200023651126 45.7810002822876 478.14200023651125 z" id="imagebot_70"/>
  <path fill-rule="evenodd" fill="#000000" d="M 35.2790002822876 482.0520002365112 C 37.6750002822876 487.76200023651126 51.804000282287596 517.6420002365112 55.0470002822876 522.4920002365112 C 58.1340002822876 526.8720002365112 56.823000282287595 515.0620002365113 54.429000282287596 509.43200023651127 C 51.8050002822876 503.72200023651124 43.542000282287596 492.9220002365112 40.378000282287594 488.47200023651124 C 37.1350002822876 483.6920002365112 32.6570002822876 476.4220002365112 35.2790002822876 482.0520002365112 z" id="imagebot_69"/>
  <path fill-rule="evenodd" d="M 70.3340002822876 422.84200023651124 C 74.8900002822876 426.4420002365112 79.2900002822876 429.1820002365112 83.8450002822876 431.91200023651123 C 88.09300028228759 434.4920002365112 90.4090002822876 437.2320002365112 96.7340002822876 438.33200023651125 C 103.14400028228759 439.1120002365112 111.25400028228759 438.8020002365112 121.67400028228761 437.39200023651125 L 121.98400028228761 433.71200023651124 C 114.4940002822876 435.7520002365112 108.0940002822876 436.76200023651126 103.0740002822876 436.76200023651126 C 98.0540002822876 436.6120002365112 96.50400028228759 435.9820002365112 91.3360002822876 433.71200023651124 C 85.9300002822876 431.3720002365112 78.8270002822876 427.85200023651123 70.3340002822876 422.84200023651124 z" id="imagebot_59"/>
  <path fill-rule="evenodd" d="M 67.6300002822876 436.21200023651124 C 68.8660002822876 436.0620002365112 84.9260002822876 439.1920002365112 92.5740002822876 441.07200023651126 C 99.9040002822876 442.7920002365112 106.39400028228759 444.90200023651124 112.64400028228759 447.09200023651124 C 118.89400028228759 448.96200023651124 125.3040002822876 450.6120002365112 129.7840002822876 453.5020002365112 C 133.7240002822876 456.16200023651123 136.4240002822876 459.52200023651125 137.8940002822876 464.77200023651125 C 139.2840002822876 470.16200023651123 139.6640002822876 479.8620002365112 139.0540002822876 485.41200023651123 C 138.4340002822876 490.4220002365112 138.5140002822876 493.8620002365112 133.9540002822876 496.0520002365112 C 128.9340002822876 498.2420002365112 117.6640002822876 498.95200023651125 110.25400028228759 498.4820002365112 C 102.7640002822876 497.9320002365112 95.9640002822876 496.21200023651124 89.5580002822876 493.0020002365112 C 82.9180002822876 489.5620002365112 77.51300028228759 486.1920002365112 71.2610002822876 479.0020002365112 C 64.5420002822876 471.41200023651123 53.1930002822876 452.95200023651125 50.8760002822876 449.28200023651124 C 48.637000282287595 445.76200023651126 52.7300002822876 451.39200023651125 57.74800028228759 457.41200023651123 C 62.61100028228759 463.1220002365112 71.4140002822876 477.59200023651124 79.3660002822876 483.9320002365112 C 87.0860002822876 489.7920002365112 95.50400028228759 492.53200023651124 103.6840002822876 494.2520002365112 C 111.4840002822876 495.82200023651126 121.0540002822876 495.90200023651124 126.1540002822876 494.8020002365112 C 130.9440002822876 493.8620002365112 131.5540002822876 492.45200023651125 133.1040002822876 488.15200023651124 C 134.57400028228759 483.6920002365112 135.9640002822876 473.60200023651123 134.8740002822876 468.1320002365112 C 133.4940002822876 462.5020002365112 133.5640002822876 459.21200023651124 125.3040002822876 454.9920002365112 C 116.8140002822876 450.45200023651125 94.6540002822876 444.97200023651124 85.0790002822876 441.9320002365112 C 75.4290002822876 438.72200023651124 66.2410002822876 436.21200023651124 67.6300002822876 436.21200023651124 z" id="imagebot_58"/>
  <path fill-rule="evenodd" d="M 37.9830002822876 459.91200023651123 C 41.8430002822876 461.2520002365112 46.246000282287596 463.6720002365112 51.4950002822876 467.5020002365112 C 56.74500028228759 471.26200023651126 62.9220002822876 476.8120002365112 68.8660002822876 482.3620002365112 C 74.5790002822876 487.84200023651124 81.9930002822876 494.02200023651125 85.6980002822876 499.7320002365112 C 89.0180002822876 504.97200023651124 90.4090002822876 509.43200023651127 90.1770002822876 514.9020002365112 C 89.8690002822876 520.3020002365113 87.4730002822876 527.5720002365113 84.4630002822876 531.8720002365112 C 81.2980002822876 535.7920002365113 76.5110002822876 539.5420002365113 71.8780002822876 539.5420002365113 C 67.0900002822876 539.3120002365113 61.6870002822876 535.8620002365112 56.2820002822876 532.1920002365113 C 50.7230002822876 528.5920002365112 43.3090002822876 525.0720002365113 39.1410002822876 518.2720002365112 C 34.585000282287595 511.2320002365112 32.5780002822876 500.20200023651125 30.185000282287596 490.89200023651125 C 27.791000282287598 481.35200023651123 25.783000282287595 471.7320002365112 24.472000282287595 461.71200023651124 C 23.621000282287596 467.1120002365112 23.621000282287596 473.2920002365112 24.472000282287595 480.2520002365112 C 25.243000282287596 487.21200023651124 26.944000282287597 495.82200023651126 29.2600002822876 503.01200023651126 C 31.189000282287594 509.6620002365112 33.890000282287595 515.8420002365112 37.9830002822876 521.2420002365112 C 42.1530002822876 526.7920002365113 49.0230002822876 531.5620002365113 54.737000282287596 535.5520002365113 C 60.450000282287604 539.3120002365113 66.4730002822876 543.0620002365113 71.5670002822876 543.7620002365112 C 76.2800002822876 544.0020002365112 80.0620002822876 542.2820002365112 83.8440002822876 538.2920002365113 C 87.4720002822876 533.9120002365112 91.8740002822876 525.6220002365112 93.4940002822876 519.7520002365112 C 95.11400028228759 514.1220002365112 96.1940002822876 509.6620002365112 92.8740002822876 503.6420002365112 C 88.9390002822876 496.91200023651123 78.74800028228759 488.3120002365112 71.5660002822876 481.4320002365112 C 64.3110002822876 474.6220002365112 55.816000282287604 466.95200023651125 50.2570002822876 463.51200023651126 C 44.6230002822876 459.84200023651124 40.5320002822876 458.7420002365112 37.9830002822876 459.91200023651123 z" id="imagebot_57"/>
  <path fill-rule="evenodd" d="M 92.2640002822876 519.4420002365113 C 97.7440002822876 521.1620002365112 102.4540002822876 521.8620002365112 106.0840002822876 521.2420002365112 C 109.5540002822876 520.6120002365112 111.5640002822876 519.1320002365112 113.8740002822876 515.5320002365112 C 116.11400028228759 511.69200023651126 117.8140002822876 505.59200023651124 119.2840002822876 497.85200023651123 L 122.29400028228758 496.9920002365112 C 120.51400028228761 505.2820002365112 118.8240002822876 511.5420002365113 117.2040002822876 516.0820002365112 C 115.3440002822876 520.3820002365112 114.0340002822876 522.3320002365112 111.7940002822876 523.7420002365112 C 109.3240002822876 524.8320002365112 106.6240002822876 524.8320002365112 103.0640002822876 524.6020002365112 C 99.5140002822876 524.4520002365113 95.4240002822876 524.0520002365113 90.7930002822876 523.1120002365112 C 91.25700028228759 521.9420002365113 91.7140002822876 520.6920002365113 92.2640002822876 519.4420002365113 z" id="imagebot_56"/>
  <path fill-rule="evenodd" d="M 137.2740002822876 475.86200028419495 C 140.9040002822876 475.86200028419495 143.9940002822876 474.772000284195 146.5340002822876 473.44200028419493 C 149.0840002822876 471.87200028419494 150.7040002822876 470.23200028419495 152.5640002822876 466.71200028419497 C 154.1040002822876 462.88200028419493 155.4140002822876 458.11200028419495 156.1940002822876 451.54200028419496 L 150.1640002822876 451.85200028419496 C 150.3940002822876 455.7620002841949 150.3940002822876 459.2020002841949 149.5540002822876 461.86200028419495 C 148.54400028228758 464.29200028419496 147.54400028228758 466.3220002841949 145.3740002822876 467.96200028419497 C 143.2140002822876 469.69200028419493 140.2040002822876 471.09200028419497 136.6540002822876 472.19200028419493 C 136.8140002822876 473.36200028419495 137.04400028228758 474.61200028419495 137.2740002822876 475.86200028419495 z" id="imagebot_55"/>
  <path fill-rule="evenodd" d="M 70.64100028228759 540.7120002365112 C 69.63800028228759 542.6720002365113 68.63500028228759 544.0820002365112 66.7820002822876 545.2520002365112 C 64.85200028228759 546.4220002365113 62.9220002822876 547.0520002365113 60.1420002822876 547.4420002365113 L 57.1300002822876 545.2520002365112 C 59.4460002822876 544.8620002365112 61.4550002822876 544.1520002365112 63.1510002822876 543.4520002365113 C 64.8510002822876 542.5920002365112 66.1630002822876 541.5720002365113 67.3980002822876 540.4020002365112 C 67.9390002822876 540.5620002365113 68.6340002822876 540.5620002365113 69.1740002822876 540.7120002365112 C 69.7160002822876 540.6420002365112 70.1010002822876 540.6420002365112 70.64100028228759 540.7120002365112 z" id="imagebot_54"/>
  <path stroke-width="5" stroke="#000000" fill-opacity="0" fill-rule="evenodd" fill="url(#imagebot_48)" d="M 201.7215002822876 226.50950023651123 C 206.2815002822876 228.30950023651124 209.3715002822876 230.65950023651124 210.9915002822876 233.54950023651122 C 212.4515002822876 236.12950023651123 213.8415002822876 239.64950023651124 210.9915002822876 243.24950023651124 C 207.7515002822876 246.76950023651122 201.9615002822876 251.22950023651123 192.6915002822876 255.76950023651125 C 200.5715002822876 260.84950023651123 205.2715002822876 265.38950023651125 206.8215002822876 269.6895002365112 C 208.2115002822876 273.9895002365112 206.1315002822876 279.8595002365112 201.7215002822876 280.94950023651126 C 197.01150028228759 281.7295002365112 189.9915002822876 279.69950023651126 179.8015002822876 274.53950023651123 C 180.1015002822876 283.52950023651124 179.3315002822876 290.33950023651124 178.3315002822876 295.26950023651125 C 177.0915002822876 299.8795002365112 176.4715002822876 304.4995002365112 172.6115002822876 304.02950023651124 C 168.5215002822876 303.2495002365112 159.3315002822876 297.3795002365112 154.3215002822876 293.07950023651125 C 149.0715002822876 288.9295002365112 144.9715002822876 284.38950023651125 141.73150028228758 279.46950023651124 C 140.8015002822876 285.95950023651125 139.1115002822876 290.09950023651123 136.3315002822876 292.83950023651124 C 133.3915002822876 295.26950023651125 129.6915002822876 295.96950023651124 124.9015002822876 294.63950023651125 L 125.8315002822876 240.51950023651122 L 198.4015002822876 240.51950023651122 C 199.4915002822876 235.89950023651124 200.5715002822876 231.19950023651123 201.7215002822876 226.50950023651123 z" id="imagebot_47"/>
  <path stroke-width="5" stroke="#000000" fill-opacity="0" fill-rule="evenodd" fill="#ad4200" d="M 139.3540002822876 291.1220002365112 C 139.7440002822876 296.2920002365112 140.0540002822876 301.0520002365112 140.5940002822876 305.7520002365112 C 141.0540002822876 310.21200023651124 140.3640002822876 312.5520002365112 142.3640002822876 318.5020002365112 C 144.2240002822876 324.21200023651124 147.3140002822876 331.72200023651124 151.9440002822876 340.71200023651124 C 147.8540002822876 340.95200023651125 145.1440002822876 341.34200023651124 142.9840002822876 342.20200023651125 C 140.9040002822876 342.82200023651126 140.2840002822876 343.14200023651125 139.6640002822876 345.5620002365112 C 138.8140002822876 347.9920002365112 138.1240002822876 351.7420002365112 137.8940002822876 356.82200023651126 L 124.9940002822876 355.57200023651126 L 126.1540002822876 293.3120002365112 C 128.9340002822876 294.8020002365112 131.3340002822876 295.5020002365112 133.6440002822876 295.1120002365112 C 135.7240002822876 294.64200023651125 137.7340002822876 293.3120002365112 139.3540002822876 291.1220002365112 z" id="imagebot_46"/>
  <path stroke="#000000" fill-opacity="0" fill-rule="evenodd" d="M 298.0140002822876 407.53200023651124 C 299.7040002822876 406.51200023651126 301.8740002822876 405.8120002365112 304.18400028228757 405.7320002365112 C 306.5040002822876 405.41200023651123 309.5940002822876 405.02200023651125 312.2140002822876 406.35200023651123 C 314.6140002822876 407.53200023651124 318.0040002822876 410.1920002365112 318.8540002822876 412.85200023651123 C 319.3940002822876 415.27200023651125 318.0840002822876 418.8720002365112 316.6940002822876 420.90200023651124 C 315.1540002822876 422.70200023651125 312.68400028228757 423.72200023651124 310.5240002822876 423.95200023651125 C 308.1240002822876 423.8720002365112 305.6540002822876 423.01200023651126 303.1040002822876 421.0620002365112 C 300.4840002822876 419.03200023651124 297.7740002822876 416.1320002365112 295.0040002822876 412.3820002365112 C 296.0040002822876 410.8120002365112 297.0040002822876 409.1720002365112 298.0140002822876 407.53200023651124 z" id="imagebot_44"/>
  <path stroke="#000000" fill-opacity="0" fill-rule="evenodd" d="M 286.7440002822876 402.60200023651123 C 285.5140002822876 401.03200023651124 284.43400028228757 399.2420002365112 283.8140002822876 396.89200023651125 C 282.8840002822876 394.46200023651124 282.2740002822876 391.34200023651124 282.8140002822876 388.7520002365112 C 283.2740002822876 386.02200023651125 285.6640002822876 382.1120002365112 287.9040002822876 380.9320002365112 C 290.1440002822876 379.45200023651125 293.7740002822876 380.5420002365112 296.0840002822876 381.4820002365112 C 298.0240002822876 382.58200023651125 299.7140002822876 384.53200023651124 300.2540002822876 387.03200023651124 C 300.6440002822876 389.15200023651124 300.18400028228757 391.8820002365112 298.8740002822876 394.9320002365112 C 297.3940002822876 397.83200023651125 295.2340002822876 401.1920002365112 292.0740002822876 404.71200023651124 C 290.2940002822876 404.01200023651126 288.5240002822876 403.3020002365112 286.7440002822876 402.60200023651123 z" id="imagebot_42"/>
  <path fill-opacity="0" stroke="#000000" fill-rule="evenodd" d="M 285.2840002822876 408.1320002365112 C 283.5040002822876 409.3120002365112 281.7340002822876 409.8620002365112 279.3340002822876 410.40200023651124 C 276.7940002822876 410.72200023651124 273.7740002822876 411.34200023651124 271.2340002822876 410.4820002365112 C 268.68400028228757 409.39200023651125 264.8240002822876 406.8120002365112 264.1340002822876 404.5420002365112 C 263.2740002822876 401.96200023651124 264.0540002822876 398.20200023651125 265.5940002822876 396.33200023651125 C 266.7540002822876 394.14200023651125 269.1440002822876 392.96200023651124 271.5340002822876 392.8120002365112 C 273.7040002822876 392.4920002365112 276.3240002822876 393.35200023651123 279.1040002822876 395.07200023651126 C 281.7340002822876 396.72200023651124 284.6640002822876 399.3720002365112 287.9040002822876 403.0520002365112 C 287.0540002822876 404.6920002365112 286.2040002822876 406.41200023651123 285.2840002822876 408.1320002365112 z" id="imagebot_40"/>
  <path stroke="#000000" fill-opacity="0" fill-rule="evenodd" d="M 285.9515002822876 414.0020002365112 C 286.0315002822876 415.96200023651124 285.8015002822876 418.07200023651126 284.9515002822876 420.34200023651124 C 283.9515002822876 422.53200023651124 283.0215002822876 425.5020002365112 280.9315002822876 427.46200023651124 C 278.62150028228757 429.10200023651123 274.7615002822876 430.90200023651124 272.2915002822876 430.7420002365112 C 269.4315002822876 430.27200023651125 267.12150028228757 427.14200023651125 265.9615002822876 425.26200023651126 C 264.87150028228757 422.9220002365112 264.87150028228757 420.4920002365112 265.9615002822876 418.3020002365112 C 266.8815002822876 416.1120002365112 268.8115002822876 414.39200023651125 271.7515002822876 412.83200023651125 C 274.6115002822876 411.26200023651126 278.2315002822876 410.01200023651126 282.9415002822876 409.07200023651126 C 283.9515002822876 410.72200023651124 284.9515002822876 412.3620002365112 285.9515002822876 414.0020002365112 z" id="imagebot_38"/>
  <path fill-opacity="0" stroke="#000000" fill-rule="evenodd" d="M 293.9240002822876 413.53200023651124 C 295.7740002822876 414.5520002365112 297.3140002822876 415.64200023651125 298.8640002822876 417.6820002365112 C 300.4140002822876 419.4820002365112 302.2640002822876 421.82200023651126 302.9540002822876 424.72200023651124 C 303.18400028228757 427.3820002365112 302.9540002822876 431.76200023651126 301.4140002822876 433.95200023651125 C 299.7140002822876 435.90200023651124 295.93400028228757 436.84200023651124 293.6140002822876 436.76200023651126 C 291.1440002822876 436.3720002365112 289.0540002822876 435.20200023651125 287.6640002822876 433.2420002365112 C 286.2840002822876 431.2920002365112 285.6640002822876 428.70200023651125 285.8140002822876 425.5020002365112 C 285.7340002822876 422.21200023651124 286.8240002822876 418.3020002365112 288.2040002822876 413.77200023651125 C 290.0640002822876 413.6920002365112 291.9940002822876 413.6120002365112 293.9240002822876 413.53200023651124 z" id="imagebot_36"/>
  <path stroke="#000000" fill-opacity="0" fill-rule="evenodd" d="M 296.3040002822876 403.77200023651125 C 296.1540002822876 401.7420002365112 296.6940002822876 399.6320002365112 297.6240002822876 397.4420002365112 C 298.5440002822876 394.8620002365112 299.4740002822876 392.35200023651123 301.8740002822876 390.5520002365112 C 304.0340002822876 388.7520002365112 308.0440002822876 387.1920002365112 310.6740002822876 387.66200023651123 C 312.9840002822876 387.97200023651124 315.68400028228757 391.1820002365112 316.6940002822876 393.3720002365112 C 317.4640002822876 395.40200023651124 317.3840002822876 398.22200023651124 316.4540002822876 400.33200023651125 C 315.3040002822876 402.3720002365112 313.2940002822876 404.01200023651126 310.43400028228757 405.57200023651126 C 307.5040002822876 407.0620002365112 303.7140002822876 407.9220002365112 299.0840002822876 408.78200023651124 C 298.1640002822876 407.1320002365112 297.2340002822876 405.4920002365112 296.3040002822876 403.77200023651125 z" id="imagebot_34"/>
  <path stroke="#000000" fill-opacity="0" fill-rule="evenodd" d="M 290.6967464251653 404.2363575691018 C 294.08931176139276 404.2363575691018 296.84205117894567 406.5575864833627 296.84205117894567 409.42192344487046 C 296.84205117894567 412.27882057011465 294.08931176139276 414.6000494843755 290.6967464251653 414.6000494843755 C 287.2967412526742 414.6000494843755 284.54400183512126 412.27882057011465 284.54400183512126 409.42192344487046 C 284.54400183512126 406.5575864833627 287.2967412526742 404.2363575691018 290.6967464251653 404.2363575691018" id="imagebot_32"/>
  <path fill-opacity="0" stroke="#000000" fill-rule="evenodd" d="M 253.0840002822876 466.41200023651123 C 254.8540002822876 465.39200023651125 256.7840002822876 464.6920002365112 259.18400028228757 464.6120002365112 C 261.4940002822876 464.3020002365112 264.5840002822876 463.90200023651124 267.2140002822876 465.2320002365112 C 269.6040002822876 466.57200023651126 272.9940002822876 469.07200023651126 273.8540002822876 471.8120002365112 C 274.4640002822876 474.2320002365112 273.0740002822876 477.83200023651125 271.7640002822876 479.8620002365112 C 270.2240002822876 481.5020002365112 267.7540002822876 482.91200023651123 265.5140002822876 482.91200023651123 C 263.1140002822876 482.6820002365112 260.6440002822876 481.97200023651124 258.0940002822876 479.9420002365112 C 255.4740002822876 477.91200023651123 252.7740002822876 475.01200023651126 249.99400028228757 471.26200023651126 C 250.99400028228757 469.6920002365112 252.00400028228762 468.0520002365112 253.0840002822876 466.41200023651123 z" id="imagebot_30"/>
  <path stroke="#000000" fill-opacity="0" fill-rule="evenodd" d="M 241.8140002822876 461.5620002365112 C 240.57400028228759 460.07200023651126 239.4940002822876 458.0420002365112 238.8840002822876 455.77200023651125 C 237.9540002822876 453.27200023651125 237.3340002822876 450.3720002365112 237.8740002822876 447.71200023651124 C 238.4940002822876 444.66200023651123 240.57400028228759 441.22200023651124 242.8940002822876 439.8120002365112 C 245.0540002822876 438.41200023651123 248.9140002822876 439.1920002365112 251.1540002822876 440.3620002365112 C 253.1640002822876 441.3820002365112 254.63400028228762 443.57200023651126 255.24400028228757 445.9920002365112 C 255.63400028228762 448.34200023651124 255.17400028228758 450.76200023651126 253.8540002822876 453.89200023651125 C 252.3940002822876 456.7920002365112 250.23400028228758 460.15200023651124 247.0640002822876 463.6720002365112 C 245.3640002822876 462.97200023651124 243.5940002822876 462.26200023651126 241.8140002822876 461.5620002365112 z" id="imagebot_28"/>
  <path stroke="#000000" fill-opacity="0" fill-rule="evenodd" d="M 241.2740002822876 466.02200023651125 C 239.4940002822876 467.1120002365112 237.7240002822876 467.89200023651125 235.3340002822876 468.3620002365112 C 232.7040002822876 468.6820002365112 229.9240002822876 469.3020002365112 227.3040002822876 468.4420002365112 C 224.5140002822876 467.35200023651123 221.04400028228758 464.77200023651125 220.1240002822876 462.5020002365112 C 219.2740002822876 459.84200023651124 220.04400028228758 456.39200023651125 221.5840002822876 454.28200023651124 C 222.7440002822876 452.2520002365112 225.1340002822876 450.76200023651126 227.5340002822876 450.6920002365112 C 229.9240002822876 450.45200023651125 232.0840002822876 451.2320002365112 235.1740002822876 453.03200023651124 C 237.79400028228758 454.83200023651125 240.7340002822876 457.1820002365112 243.9740002822876 460.9320002365112 C 243.1240002822876 462.58200023651125 242.2040002822876 464.3020002365112 241.2740002822876 466.02200023651125 z" id="imagebot_26"/>
  <path stroke="#000000" fill-opacity="0" fill-rule="evenodd" d="M 242.5840002822876 471.8820002365112 C 242.5140002822876 473.76200023651126 242.4340002822876 476.1120002365112 241.5040002822876 478.3020002365112 C 240.7340002822876 480.5620002365112 239.4240002822876 483.3020002365112 237.5640002822876 485.34200023651124 C 235.3340002822876 486.9820002365112 231.2340002822876 488.78200023651124 228.8440002822876 488.6220002365112 C 226.2140002822876 488.07200023651126 223.4340002822876 485.1820002365112 222.5840002822876 483.22200023651124 C 221.5840002822876 480.95200023651125 221.3540002822876 478.22200023651124 222.5140002822876 476.1820002365112 C 223.5940002822876 473.9920002365112 225.1340002822876 472.27200023651125 228.3040002822876 470.71200023651124 C 231.1540002822876 469.22200023651124 234.79400028228758 467.89200023651125 239.4940002822876 467.03200023651124 C 240.5040002822876 468.60200023651123 241.5040002822876 470.2420002365112 242.5840002822876 471.8820002365112 z" id="imagebot_24"/>
  <path stroke="#000000" fill-opacity="0" fill-rule="evenodd" d="M 247.9140002822876 471.4920002365112 C 249.7640002822876 472.35200023651123 251.31400028228762 473.60200023651123 252.8540002822876 475.5620002365112 C 254.3940002822876 477.3620002365112 256.2540002822876 479.71200023651124 256.9540002822876 482.60200023651123 C 257.1740002822876 485.26200023651126 256.9540002822876 489.64200023651125 255.4040002822876 491.83200023651125 C 253.7040002822876 493.78200023651124 249.8440002822876 494.72200023651124 247.68400028228757 494.64200023651125 C 245.2840002822876 494.41200023651123 242.8940002822876 493.16200023651123 241.6640002822876 491.20200023651125 C 240.1940002822876 489.1720002365112 239.8840002822876 486.6720002365112 239.8840002822876 483.3820002365112 C 239.8140002822876 479.8620002365112 240.8940002822876 476.34200023651124 242.2840002822876 471.65200023651124 C 244.1340002822876 471.65200023651124 245.9840002822876 471.57200023651126 247.9140002822876 471.4920002365112 z" id="imagebot_22"/>
  <path stroke="#000000" fill-opacity="0" fill-rule="evenodd" d="M 250.29400028228758 461.7320002365112 C 250.1440002822876 459.70200023651125 250.68400028228757 457.59200023651124 251.61400028228758 455.39200023651125 C 252.54400028228758 452.89200023651125 253.4640002822876 450.15200023651124 255.8540002822876 448.4320002365112 C 257.9440002822876 446.64200023651125 262.1940002822876 445.07200023651126 264.7340002822876 445.5420002365112 C 267.0540002822876 445.85200023651123 269.7540002822876 449.0620002365112 270.7640002822876 451.2520002365112 C 271.68400028228757 453.28200023651124 271.3040002822876 456.10200023651123 270.4540002822876 458.21200023651124 C 269.2140002822876 460.2520002365112 267.5140002822876 461.89200023651125 264.5040002822876 463.45200023651125 C 261.5740002822876 464.8620002365112 257.7840002822876 465.95200023651125 253.1540002822876 466.7420002365112 C 252.23400028228758 465.09200023651124 251.30400028228757 463.45200023651125 250.29400028228758 461.7320002365112 z" id="imagebot_20"/>
  <path fill-opacity="0" stroke="#000000" fill-rule="evenodd" d="M 247.93509895138624 462.0907820252674 C 251.37385913185955 462.0907820252674 254.15619654469373 464.41809911053355 254.15619654469373 467.2824893693226 S 251.37385913185955 472.47419671337775 247.93509895138624 472.47419671337775 C 244.50379812054516 472.47419671337775 241.71400135807872 470.14687962811166 241.71400135807872 467.2824893693226 S 244.50379812054516 462.0907820252674 247.93509895138624 462.0907820252674" id="imagebot_18"/>
  <path stroke="#000000" fill-opacity="0" fill-rule="evenodd" d="M 234.5540002822876 532.1120002365112 C 236.2540002822876 531.0220002365112 238.4140002822876 530.5520002365113 240.7340002822876 530.3920002365112 C 243.0540002822876 530.1520002365112 246.1340002822876 529.5320002365112 248.7640002822876 530.9420002365113 C 251.1540002822876 532.0320002365112 254.55400028228757 534.9320002365113 255.4040002822876 537.5120002365112 C 255.94400028228762 539.9320002365113 254.63400028228762 543.5320002365112 253.24400028228757 545.5620002365113 C 251.69400028228762 547.2120002365112 249.2240002822876 548.6120002365112 246.9840002822876 548.6120002365112 C 244.5140002822876 548.3820002365112 242.2740002822876 547.6820002365113 239.6540002822876 545.6420002365112 C 237.0240002822876 543.6120002365112 234.4040002822876 540.7120002365112 231.4640002822876 536.9620002365112 C 232.4740002822876 535.3920002365112 233.4740002822876 533.7520002365112 234.5540002822876 532.1120002365112 z" id="imagebot_16"/>
  <path stroke="#000000" fill-opacity="0" fill-rule="evenodd" d="M 225.29400028228758 527.2620002365112 C 224.0540002822876 525.7720002365112 222.9740002822876 523.7420002365112 222.3540002822876 521.4720002365112 C 221.4340002822876 518.9720002365112 220.8140002822876 516.0820002365112 221.3540002822876 513.4120002365112 C 221.8140002822876 510.3620002365112 224.2040002822876 506.9220002365113 226.4540002822876 505.5220002365112 C 228.6840002822876 504.1120002365112 232.3140002822876 504.8920002365112 234.6340002822876 506.06200023651127 C 236.5640002822876 507.08200023651125 238.2640002822876 509.2720002365112 238.8040002822876 511.69200023651126 C 239.1940002822876 514.0420002365113 238.7240002822876 516.4720002365112 237.4140002822876 519.5920002365112 C 235.9440002822876 522.4920002365112 233.7840002822876 525.8520002365112 230.6140002822876 529.3720002365112 C 228.8440002822876 528.6720002365113 227.0640002822876 527.9720002365112 225.29400028228758 527.2620002365112 z" id="imagebot_14"/>
  <path stroke="#000000" fill-opacity="0" fill-rule="evenodd" d="M 224.8340002822876 531.8020002365113 C 223.1240002822876 532.9720002365112 221.1240002822876 533.5220002365112 218.8040002822876 534.0720002365113 C 216.1740002822876 534.3820002365112 213.4040002822876 535.0120002365112 210.7740002822876 534.1420002365112 C 207.9940002822876 533.0520002365113 204.5240002822876 530.4720002365112 203.5940002822876 528.2020002365113 C 202.6740002822876 525.5420002365113 203.6740002822876 522.1020002365112 205.1440002822876 519.9920002365112 C 206.29400028228758 517.9520002365113 208.6940002822876 516.4720002365112 211.0840002822876 516.3920002365112 C 213.2440002822876 516.1520002365112 215.8740002822876 516.9320002365113 218.6540002822876 518.7320002365112 C 221.2740002822876 520.5320002365112 224.2140002822876 522.8820002365112 227.4540002822876 526.6320002365112 C 226.6040002822876 528.3520002365112 225.7540002822876 530.0820002365112 224.8340002822876 531.8020002365113 z" id="imagebot_12"/>
  <path stroke="#000000" fill-opacity="0" fill-rule="evenodd" d="M 226.0640002822876 537.5920002365112 C 225.9840002822876 539.4620002365112 225.9140002822876 541.8120002365113 224.9840002822876 544.0020002365112 C 224.2140002822876 546.1920002365113 222.8940002822876 549.1620002365112 221.04400028228758 551.1220002365112 C 218.8040002822876 552.7620002365112 214.7140002822876 554.6320002365112 212.32400028228759 554.3220002365113 C 209.6940002822876 553.7720002365112 206.9140002822876 550.8820002365112 206.0640002822876 548.9320002365113 C 204.9840002822876 546.6620002365112 204.9840002822876 543.9220002365113 206.0640002822876 541.8920002365112 C 206.9940002822876 539.7020002365113 208.9240002822876 537.9720002365112 211.8540002822876 536.4120002365112 C 214.7140002822876 534.9320002365113 218.3440002822876 533.6020002365112 223.0540002822876 532.7420002365112 C 224.0540002822876 534.3020002365113 225.0540002822876 535.9420002365113 226.0640002822876 537.5920002365112 z" id="imagebot_10"/>
  <path stroke="#000000" fill-opacity="0" fill-rule="evenodd" d="M 231.4640002822876 537.1920002365113 C 233.3140002822876 538.0520002365113 234.8640002822876 539.3120002365113 236.4140002822876 541.2620002365112 C 237.9540002822876 543.0620002365113 239.8040002822876 545.4120002365112 240.5040002822876 548.3020002365113 C 240.7340002822876 550.9620002365112 240.5040002822876 555.3420002365112 238.9540002822876 557.5320002365112 C 237.2540002822876 559.4920002365112 233.4740002822876 560.4220002365113 231.1540002822876 560.3520002365112 C 228.6840002822876 560.1120002365112 226.6040002822876 558.8620002365112 225.2140002822876 556.9120002365112 C 223.82400028228759 554.8720002365112 223.2040002822876 552.3720002365112 223.3640002822876 549.0820002365112 C 223.2840002822876 545.8820002365112 224.3640002822876 541.8920002365112 225.7540002822876 537.4320002365113 C 227.6040002822876 537.3520002365112 229.5340002822876 537.2720002365112 231.4640002822876 537.1920002365113 z" id="imagebot_8"/>
  <path stroke="#000000" fill-opacity="0" fill-rule="evenodd" d="M 231.8540002822876 528.4320002365113 C 231.6940002822876 526.4020002365112 232.2340002822876 524.2920002365113 233.1640002822876 522.1020002365112 C 234.0940002822876 519.5920002365112 235.0240002822876 516.8620002365112 237.4140002822876 515.1420002365112 C 239.57400028228759 513.3420002365112 243.5940002822876 511.7720002365112 246.2140002822876 512.2420002365112 C 248.5340002822876 512.5520002365113 251.23400028228758 515.7620002365112 252.23400028228758 517.9520002365113 C 253.0140002822876 519.9920002365112 252.93400028228757 522.8020002365113 252.00400028228762 524.9120002365112 C 250.8440002822876 526.9520002365113 248.8340002822876 528.5920002365112 245.9840002822876 530.1520002365112 C 243.0540002822876 531.5620002365113 239.2640002822876 532.6620002365112 234.6340002822876 533.4420002365113 C 233.7140002822876 531.8020002365113 232.7740002822876 530.1520002365112 231.8540002822876 528.4320002365113 z" id="imagebot_6"/>
  <path stroke="#000000" fill-opacity="0" fill-rule="evenodd" d="M 229.1937573583631 529.3700442603154 C 231.92977348225398 529.3700442603154 234.14351320939346 531.2217514851613 234.14351320939346 533.5007757618947 S 231.92977348225398 537.6315072634738 229.1937573583631 537.6315072634738 C 226.46367619352623 537.6315072634738 224.24400150733274 535.7798000386281 224.24400150733274 533.5007757618947 S 226.46367619352623 529.3700442603154 229.1937573583631 529.3700442603154" id="imagebot_4"/>
  <title>imagebot_2</title>
 </g>
 <metadata>image/svg+xmlOpenclipartCreation Days Numbers2007-11-13T16:32:45The days of creation - completed originally to fulfill a request on the OpenClipart wiki.https://openclipart.org/detail/8222/creation-days-numbers-by-gerald_g-8222Gerald_Gadamcartooncreationevegodnumberreligionrequest+completedsource+wiki</metadata>
</svg>