<?xml version="1.0" encoding="utf-8"?>
<!-- Generator: Adobe Illustrator 22.0.1, SVG Export Plug-In . SVG Version: 6.00 Build 0)  -->
<svg version="1.1" id="Layer_1" xmlns="http://www.w3.org/2000/svg" xmlns:xlink="http://www.w3.org/1999/xlink" x="0px" y="0px"
	 width="850.4px" height="850.4px" viewBox="0 0 850.4 850.4" style="enable-background:new 0 0 850.4 850.4;" xml:space="preserve"
	>
<style type="text/css">
	.st0{fill:#B27EB4;}
	.st1{fill:#FFFFFF;}
	.st2{fill:#903490;}
</style>
<path class="st0" d="M557.2,522c104.6,163.3,19.5,264.7-61.1,304c-23.1,11.3-45.9,17.5-63.7,18.6c-36.6,2.1-73.2,0.2-105.9-5.5
	c-82.7-14.2-141-51.7-115.1-104.8c3.8-7.6,8.7-13.6,14.5-18.1c39.2-30.6,119.7-1.4,164.7-24c20.2-10.1,33.3-30.7,32.1-71.9
	c-0.2-7.1-2.4-12.9-6.2-17.8c-20.1-26-83.8-23.7-105.2-40.5c-1.2-0.9-2.2-2-3.1-3.2c-3.4-4.2-5.4-9.6-7.1-14.7
	c-1.8-5.8-3-11.7-3.9-17.7c-2.1-14.2-1.7-28.8,1.8-42.8c0.3-1.3,0.7-2.6,1.1-3.9c1.9-6.6,4.2-12.7,9.2-17.7
	c21.1-21.8,48-17.2,72-21.9c17.1-3.4,32.9-11.4,44.1-37c7-16.8,8.6-36.2,0.6-51.9c-8.9-17.7-23-24.9-39.9-26.6
	c-55.7-5.5-141.8,48.8-174.6-18.8c-14.5-29.5-2.7-54.2,24.8-72.7c-17.1-19.1-27.5-44.2-27.5-71.8c0-57.5,45.3-104.6,102.2-107.5
	c1.8-0.1,3.7-0.2,5.5-0.2c11.1,0,21.9,1.7,32,4.9c0,0,0,0,0.1,0c1.7,0.5,3.3,1.1,4.9,1.7c0.1,0,0.2,0.1,0.3,0.1
	c1.5,0.6,3,1.2,4.6,1.8c0.2,0.1,0.4,0.2,0.6,0.2c1.4,0.6,2.8,1.3,4.2,1.9c0.3,0.2,0.6,0.3,0.8,0.4c1.3,0.6,2.6,1.3,3.8,1.9
	c0.3,0.2,0.6,0.4,1,0.6c1.2,0.6,2.4,1.3,3.5,2c0.4,0.2,0.8,0.5,1.1,0.7c1.1,0.7,2.2,1.4,3.2,2.1c0.4,0.2,0.8,0.5,1.1,0.8
	c1,0.7,2.1,1.4,3.1,2.2c0.4,0.3,0.8,0.6,1.1,0.9c1,0.7,2,1.5,2.9,2.3c0.4,0.3,0.7,0.6,1.1,0.9c1,0.8,1.9,1.6,2.8,2.5
	c0.3,0.3,0.6,0.6,1,0.9c0.9,0.8,1.8,1.6,2.6,2.5c44.3-15,85.8-54.6,114.5-81.7c12.9,35.2,22.1,71.9,29.3,109.3
	c37.2-4.4,75.4-18.4,103.8-28.7c-2.2,38.5-8.5,77.1-17.2,115.4c19,1.2,37.2,1.2,52.6,1.3c-15.6,35.9-35.2,70.3-56.9,103.7
	c29.1,29.3,70.6,51.2,100.4,67.1c-42.6,34.1-90.7,62-140.6,87.2c-4.1,12-9,24.4-14.9,37.2c-0.2,0.4-0.4,0.8-0.6,1.3
	c-1.9,4.1-3.9,8.2-6,12.4c-0.1,0.2-0.2,0.4-0.2,0.5C554.6,513.8,555.2,518.4,557.2,522z"/>
<path class="st1" d="M609.7,222.9c0,52.6-42.8,95.4-95.3,95.4c-52.6,0-95.4-42.8-95.4-95.4c0-52.6,42.8-95.4,95.4-95.4
	C566.9,127.5,609.7,170.3,609.7,222.9z"/>
<path class="st2" d="M514.3,179.7c-23.9,0-43.2,19.3-43.2,43.2c0,23.9,19.3,43.2,43.2,43.2c23.9,0,43.2-19.3,43.2-43.2
	C557.5,199,538.2,179.7,514.3,179.7z M498.5,227.2c-6.8,0-12.2-5.5-12.2-12.2s5.5-12.2,12.2-12.2s12.2,5.5,12.2,12.2
	S505.2,227.2,498.5,227.2z"/>
<path class="st1" d="M411.8,161.5c0,52.6-42.8,95.4-95.3,95.4c-52.6,0-95.4-42.8-95.4-95.4c0-52.6,42.8-95.4,95.4-95.4
	C369,66.1,411.8,108.9,411.8,161.5z"/>
<path class="st0" d="M316.4,118.3c-23.9,0-43.2,19.3-43.2,43.2c0,23.9,19.3,43.2,43.2,43.2c23.9,0,43.2-19.3,43.2-43.2
	C359.6,137.6,340.3,118.3,316.4,118.3z M300.6,165.8c-6.8,0-12.2-5.5-12.2-12.2s5.5-12.2,12.2-12.2s12.2,5.5,12.2,12.2
	S307.3,165.8,300.6,165.8z"/>
<path class="st1" d="M542.1,518.8c-8.2,9.2-19.1,16.7-28.7,22.3c-24.5,14.2-52.8,23-81.1,21.4c-17.1-1-33.9-5.4-49.4-12.5
	c-16-7.3-33.9-18-45.7-31.3c-9.6-10.9-24.3-33.7-13.3-47.9c7-8.9,23.9-12.2,34.1-8c6.2,2.5,11.5,7.9,16.5,12.2
	c5.4,4.6,11.1,8.7,17.4,12.1c12.7,6.9,26.9,10.9,41.3,11.5c23,0.9,46.2-6.9,63.9-21.6c5.5-4.6,11.1-9.9,18.1-11.9
	c8-2.3,17.7,1.4,24.8,5.1c5.3,2.8,10.1,6.9,12.4,12.4c2,4.5,2.2,9.7,1.2,14.6C552.1,505.1,547.8,512.4,542.1,518.8z"/>
<path class="st2" d="M556.7,509.6c43-85.5,43.8-152.5,24.2-202.2c25-19.7,41-50.2,41-84.5c0-59.4-48.3-107.7-107.6-107.7
	c-37.8,0-71.1,19.6-90.3,49.2c0-1,0.1-2,0.1-3c0-59.4-48.3-107.7-107.6-107.7c-59.4,0-107.7,48.3-107.7,107.7
	c0,27.6,10.4,52.7,27.5,71.8c-27.5,18.5-39.2,43.1-24.8,72.7c42.7,88.1,176.1-30.8,214.5,45.4c8.1,15.7,6.5,35.1-0.6,51.9
	c-27,61.6-79.9,21.6-116.1,58.9c-5.9,5.9-8.1,13.5-10.3,21.6c-4.9,20-3.8,41.1,2.2,60.5c2.2,6.5,4.9,13.5,10.2,17.8
	c25.4,20,110.2,13,111.3,58.4c4.3,146.4-171.3,32.4-211.3,114c-36.2,74,91.8,117.8,221,110.2c79.9-4.9,259.3-112.4,124.8-322.6
	C555.1,518.2,554.5,513.3,556.7,509.6z M316.4,256.8c-52.6,0-95.4-42.8-95.4-95.4c0-52.6,42.8-95.4,95.4-95.4
	c52.6,0,95.3,42.8,95.3,95.4C411.8,214,369,256.8,316.4,256.8z M534.5,412.6c-18.3-4-41.2-22.8-36.1-43.4
	c3.6-14.4,20.6-28,34.1-33.4c18.9-7.5,31.7,20.4,36.1,33.4C576.6,393,560,418.2,534.5,412.6z M419,222.9c0-52.6,42.8-95.4,95.4-95.4
	c52.6,0,95.3,42.8,95.3,95.4c0,52.6-42.8,95.4-95.3,95.4C461.7,318.2,419,275.4,419,222.9z M460.6,453.2c-14.2-3.1-32-17.7-28-33.7
	c2.8-11.2,16-21.7,26.5-25.9c14.6-5.8,24.6,15.8,28,25.9C493.3,438,480.4,457.5,460.6,453.2z M382.8,549.9
	c-16-7.3-33.9-18-45.7-31.3c-9.6-10.9-24.3-33.7-13.3-47.9c7-8.9,23.9-12.2,34.1-8c6.2,2.5,11.5,7.9,16.5,12.2
	c5.4,4.6,11.1,8.7,17.4,12.1c12.7,6.9,26.9,10.9,41.3,11.5c23,0.9,46.2-6.9,63.9-21.6c5.5-4.6,11.1-9.9,18.1-11.9
	c8-2.3,17.7,1.4,24.8,5.1c5.3,2.8,10.1,6.9,12.4,12.4c2,4.5,2.2,9.7,1.2,14.6c-1.5,8-5.9,15.3-11.6,21.8
	c-8.2,9.2-19.1,16.7-28.7,22.3c-24.5,14.2-52.8,23-81.1,21.4C415.1,561.5,398.3,557.1,382.8,549.9z M300.8,806.3
	c-18.3-4-41.2-22.8-36.1-43.4c3.6-14.4,20.6-28,34.1-33.4c18.9-7.5,31.7,20.4,36.1,33.4C342.8,786.7,326.2,811.9,300.8,806.3z
	 M415.7,808.2c-23-5-51.9-28.7-45.5-54.7c4.5-18.2,26-35.3,43-42.1c23.8-9.5,40,25.6,45.5,42.1C468.7,783.5,447.7,815.2,415.7,808.2
	z M510.2,730.4c-31.8-7-71.7-39.6-62.8-75.5c6.3-25.1,35.9-48.8,59.4-58.1c32.8-13.1,55.2,35.4,62.8,58.1
	C583.4,696.2,554.5,740.1,510.2,730.4z"/>
<path d="M553.6,497c-1.5,8.1-5.9,15.3-11.6,21.8c-8.2,9.2-19.1,16.7-28.7,22.3c-24.5,14.2-52.8,23-81.1,21.4
	c-17.1-1-33.9-5.4-49.4-12.5c-16-7.4-34-18-45.7-31.3c-9.6-10.9-24.3-33.7-13.3-47.9c7-8.9,23.9-12.1,34.1-8c4.9,2,9.2,5.8,13.3,9.4
	v26.8c0,13.1,10.7,23.8,23.8,23.8c13.1,0,23.8-10.7,23.8-23.8v-2.2c1.5,0.3,3.1,0.6,4.6,0.8v8.5c0,13.1,10.7,23.8,23.8,23.8
	c13.1,0,23.8-10.7,23.8-23.8V492c1.2-0.5,2.4-1,3.6-1.5v7c0,13.1,10.7,23.8,23.8,23.8s23.8-10.7,23.8-23.8v-33.1
	c6.1,0.5,12.5,3.1,17.5,5.7c5.3,2.8,10.1,7,12.4,12.4C554.4,487,554.6,492.2,553.6,497z"/>
</svg>
