<?xml version="1.0" encoding="UTF-8" standalone="no"?>
<!-- Created with Inkscape (http://www.inkscape.org/) -->
<svg xmlns:inkscape="http://www.inkscape.org/namespaces/inkscape" xmlns:rdf="http://www.w3.org/1999/02/22-rdf-syntax-ns#" xmlns="http://www.w3.org/2000/svg" xmlns:x="http://ns.adobe.com/Extensibility/1.0/" xmlns:ns="http://ns.adobe.com/ImageReplacement/1.0/" xmlns:cc="http://web.resource.org/cc/" xmlns:xlink="http://www.w3.org/1999/xlink" xmlns:a="http://ns.adobe.com/AdobeSVGViewerExtensions/3.0/" xmlns:dc="http://purl.org/dc/elements/1.1/" xmlns:svg="http://www.w3.org/2000/svg" xmlns:sodipodi="http://sodipodi.sourceforge.net/DTD/sodipodi-0.dtd" xmlns:ns1="http://sozi.baierouge.fr" id="svg2" version="1.0" viewBox="0 0 405 617" inkscape:version="0.91 r13725">
  <defs id="defs219">
    <linearGradient id="XMLID_3_" y2="13.507" gradientUnits="userSpaceOnUse" x2="193.29" y1="588.06" x1="193.29">
      <stop id="stop20" style="stop-color:#1c832b" offset="0"/>
      <stop id="stop22" style="stop-color:#b8e296" offset="1"/>
      <a:midPointStop style="stop-color:#1C832B" offset="0"/>
      <a:midPointStop style="stop-color:#1C832B" offset="0.5"/>
      <a:midPointStop style="stop-color:#B8E296" offset="1"/>
    </linearGradient>
    <linearGradient id="XMLID_4_" y2="29.01" gradientUnits="userSpaceOnUse" x2="312.15" y1="123.2" x1="366.53">
      <stop id="stop95" style="stop-color:#1c832b" offset="0"/>
      <stop id="stop97" style="stop-color:#add920" offset="1"/>
      <a:midPointStop style="stop-color:#1C832B" offset="0"/>
      <a:midPointStop style="stop-color:#1C832B" offset="0.5"/>
      <a:midPointStop style="stop-color:#ADD920" offset="1"/>
    </linearGradient>
    <linearGradient id="XMLID_5_" y2="462.71" gradientUnits="userSpaceOnUse" x2="143.22" y1="591.96" x1="217.85">
      <stop id="stop128" style="stop-color:#1c832b" offset="0"/>
      <stop id="stop130" style="stop-color:#add920" offset="1"/>
      <a:midPointStop style="stop-color:#1C832B" offset="0"/>
      <a:midPointStop style="stop-color:#1C832B" offset="0.5"/>
      <a:midPointStop style="stop-color:#ADD920" offset="1"/>
    </linearGradient>
    <filter id="filter3674">
      <feGaussianBlur id="feGaussianBlur3676" stdDeviation="12.009825" inkscape:collect="always"/>
    </filter>
  </defs>
  <g id="g3678">
    <path id="path2703" style="opacity:.5;filter:url(#filter3674);fill-rule:evenodd" d="m393.46 15.354v150.41c-93.66 89.6-141.22 222.27-141.22 397.21 0 11.34 0 24.54 1.44 38.68h-168.5c0.004-4.68 0.004-9.34 0.004-14.14 0-141.48 51.856-260.95 152.7-360.28 10.06-9.6 20.11-19.34 30.16-29.07 6.22-6.13 12.45-12.27 18.83-18.4 4.31-3.47 8.61-7.87 17.23-14h-164.19v78.14h-120.94c-0.004-76.14-0.004-152.28-0.004-228.55 124.77 0.004 249.55 0.004 374.49 0.004z"/>
    <path id="path17" style="fill-rule:evenodd" d="m382.78 8.707v150.4c-93.66 89.61-141.22 222.27-141.22 397.22 0 11.33 0 24.53 1.44 38.67h-168.5c0.002-4.67 0.002-9.34 0.002-14.14 0-141.47 51.858-260.94 152.7-360.28 10.06-9.6 20.11-19.33 30.16-29.07 6.22-6.13 12.45-12.26 18.83-18.39 4.31-3.47 8.61-7.87 17.23-14.01h-164.19v78.14h-120.95c0.004-76.14 0.004-152.27 0.004-228.54 124.78-0.003 249.56-0.003 374.5-0.003z"/>
    <path id="path24" style="fill-rule:evenodd;fill:url(#XMLID_3_)" d="m372.56 15.507c-0.31 47.602-0.79 95.333-1.27 143.07-93.67 89.6-145.04 215.87-145.04 390.82 0 11.46 0 24.66 1.43 38.66-47.39-0.27-94.78-0.66-142.33-1.06 0.003-4.67 0.003-9.34 0.003-14.01 0-141.47 62.227-259.87 163.07-359.21 10.06-9.6 20.11-19.2 30.16-28.93 6.22-6.14 12.45-12.27 18.67-18.54 4.47-3.46 8.78-7.86 17.39-14-65.1-0.8-130.2-1.6-195.3-2.53v78.27c-33.987 0.67-67.973 1.33-102.12 2-0.957-72.14-2.074-144.27-3.19-216.54 119.51 0.664 239.02 1.331 358.53 1.997z"/>
    <path id="path26" style="stroke:#000000;stroke-width:.036;stroke-miterlimit:10;fill-rule:evenodd" d="m118.7 497.93c1.76-0.81 3.83-1.47 6.22-1.47 2.08-0.4 5.59-0.8 8.14 0.4 2.4 1.2 5.91 3.07 6.86 5.6 0.32 1.73-0.64 5.2-2.23 6.8-1.76 1.6-4.31 2.27-6.38 2.53-2.4 0.13-5.11-1.2-7.5-2.53-2.87-1.73-5.43-4.14-8.3-7.2 0.96-1.33 2.07-2.66 3.19-4.13z"/>
    <path id="path28" style="fill-rule:evenodd;stroke:#000000;stroke-width:.036;stroke-miterlimit:10;fill:#ff0080" d="m120.3 498.19c3.03-0.8 6.06-1.07 8.45-0.8 2.24 0.14 4.47 0.8 6.07 2 1.43 0.94 3.51 2.67 3.67 4.67-0.32 1.6-2.56 4.54-4.15 5.73-2.08 0.67-4.47 0.67-6.54 0-2.72-0.93-5.91-3.73-7.66-4.8-1.76-1.33-2.71-2.4-2.87-3.19 0.95-1.2 1.91-2.4 3.03-3.61z"/>
    <path id="path30" style="stroke:#000000;stroke-width:.036;stroke-miterlimit:10;fill-rule:evenodd" d="m109.13 493.8c-1.28-1.34-2.24-2.94-2.87-4.81-1.44-1.99-1.6-4.79-1.12-6.8 0.48-2.93 2.87-5.33 5.26-6.67 1.92-1.06 5.91-0.53 8.3 0.54 2.08 0.53 3.51 2.8 4.31 4.66 0.32 1.74-0.16 4.14-1.44 6.67-1.75 2.4-3.51 4.94-7.02 8.13-1.75-0.52-3.51-1.06-5.42-1.72z"/>
    <path id="path32" style="fill-rule:evenodd;stroke:#000000;stroke-width:.036;stroke-miterlimit:10;fill:#ff0080" d="m109.13 492.33c-1.6-2.67-2.24-4.54-2.56-6.67-0.31-2.27 0.32-3.87 1.28-5.34 0.96-1.99 2.55-3.46 4.79-3.86 1.91-0.4 5.58 0.8 7.34 2.13 1.27 1.34 1.75 2.94 1.43 5.34-0.79 1.73-3.03 5.33-4.15 7.2-1.11 1.59-2.39 2.79-3.19 3.06-1.59-0.53-3.19-1.2-4.94-1.86z"/>
    <path id="path34" style="stroke:#000000;stroke-width:.036;stroke-miterlimit:10;fill-rule:evenodd" d="m108.65 497.66c-1.6 0.8-3.83 1.6-6.07 1.86-2.55 0.54-6.059 0.41-8.132 0.14-3.192-1.2-6.222-3.06-7.339-5.07-0.958-2.13 0-5.46 1.595-6.93 1.277-1.6 3.51-3.07 6.062-2.94 2.235 0 4.787 0.14 7.654 1.87 2.88 1.61 5.43 3.33 8.94 6.67-0.8 1.47-1.75 2.93-2.71 4.4z"/>
    <path id="path36" style="fill-rule:evenodd;stroke:#000000;stroke-width:.036;stroke-miterlimit:10;fill:#ff0080" d="m107.05 497.39c-3.19 0.8-6.22 1.47-8.454 1.47-2.394-0.27-4.627-0.8-6.064-1.6-1.913-1.33-4.307-2.8-4.148-4.4-0.158-2.27 1.597-4.93 3.51-6 1.277-1.2 3.989-1.2 6.382-0.54 2.394 0.54 5.744 2.81 8.134 4.27 1.76 1.34 2.88 2.01 3.36 3.07-0.8 1.2-1.76 2.4-2.72 3.73z"/>
    <path id="path38" style="stroke:#000000;stroke-width:.036;stroke-miterlimit:10;fill-rule:evenodd" d="m109.93 502.46c0 1.6-0.32 3.6-0.96 5.46-0.8 1.87-2.4 4-4.15 5.87-2.24 1.61-6.384 2.54-8.777 2.81-3.19-0.14-5.105-3.34-6.382-4.54-1.117-2-1.117-4.14 0-5.86 0.638-1.87 3.192-3.61 5.904-4.67 2.712-1.34 6.705-2.53 11.335-3.07 0.95 1.33 1.91 2.66 3.03 4z"/>
    <path id="path40" style="fill-rule:evenodd;stroke:#000000;stroke-width:.036;stroke-miterlimit:10;fill:#ff0080" d="m108.97 503.66c-0.48 2.53-1.6 4.94-2.71 6.66-1.44 1.74-3.04 2.8-4.79 3.74-2.556 0.8-4.789 1.2-6.704 0.66-2.552-1.06-3.989-3.73-4.307-5.46-0.16-1.74 0.318-3.73 2.712-4.93 2.075-1.47 5.744-3.21 8.459-3.74 2.23-0.8 3.83-1.07 4.78-0.8 0.8 1.2 1.6 2.53 2.56 3.87z"/>
    <path id="path42" style="stroke:#000000;stroke-width:.036;stroke-miterlimit:10;fill-rule:evenodd" d="m115.51 502.19c1.75 0.94 3.19 1.6 4.95 3.47 1.59 1.74 3.19 3.2 4.15 5.87 0.31 2.53-0.16 5.47-1.44 7.73-2.07 1.47-5.59 2.27-7.98 2.4-2.55-0.27-4.79-1.6-6.06-2.94-1.44-1.86-2.08-3.86-1.92-6.53 0-2.8 0.8-6.27 2.4-9.87 1.91 0 3.83 0 5.9-0.13z"/>
    <path id="path44" style="fill-rule:evenodd;stroke:#000000;stroke-width:.036;stroke-miterlimit:10;fill:#ff0080" d="m116.15 503.52c2.71 1.47 4.15 3.74 5.58 5.34 1.12 1.6 1.6 3.33 1.44 5.2-0.48 1.6-1.12 4-2.55 5.2-2.4 0.8-5.59 0.93-7.82 0.4-2.08-0.94-3.35-2.4-3.83-4.4-0.64-2.53-0.32-5.87 0.32-8 0-2 0.95-3.47 1.59-3.87 1.76 0.01 3.51 0.01 5.27 0.13z"/>
    <path id="path46" style="stroke:#000000;stroke-width:.036;stroke-miterlimit:10;fill-rule:evenodd" d="m115.83 494.86c-0.16-1.87 0.32-3.47 1.43-5.33 0.64-2.27 2.08-4.4 4.31-5.87 2.24-1.87 6.07-2.67 8.94-2.4 2.71 0.13 4.79 2.94 6.22 4.8 0.48 1.73 0.96 3.86-0.32 5.87-1.43 1.6-2.87 3.07-6.06 4.4-2.71 1.06-7.18 2.13-11.65 2.67-0.96-1.34-1.91-2.67-2.87-4.14z"/>
    <path id="path48" style="fill-rule:evenodd;stroke:#000000;stroke-width:.036;stroke-miterlimit:10;fill:#ff0080" d="m116.95 493.66c0.63-2.8 1.43-4.8 3.03-6.54 1.27-1.86 2.71-3.06 4.94-3.6 2.08-0.79 4.31-1.6 6.71-0.4 1.75 0.94 3.35 3.47 4.14 5.6 0.16 1.74-1.43 3.34-3.03 4.81-2.23 1.33-6.54 2.66-8.62 3.46-2.39 0.54-3.98 0.94-4.78 0.67-0.8-1.33-1.6-2.66-2.39-4z"/>
    <path id="path50" style="stroke:#000000;stroke-width:.036;stroke-miterlimit:10;fill-rule:evenodd" d="m112.69 492.34c4.67 0 8.46 2.63 8.46 5.87s-3.79 5.87-8.46 5.87-8.46-2.63-8.46-5.87 3.79-5.87 8.46-5.87"/>
    <path id="path52" style="fill-rule:evenodd;stroke:#000000;stroke-width:.036;stroke-miterlimit:10;fill:#ffff00" d="m112.16 493.23c3.7 0 6.7 2.03 6.7 4.54 0 2.49-3 4.53-6.7 4.53s-6.7-2.04-6.7-4.53c0-2.51 3-4.54 6.7-4.54"/>
    <path id="path54" style="stroke:#000000;stroke-width:.036;stroke-miterlimit:10;fill-rule:evenodd" d="m119.66 541.66c2.07-1.34 4.31-1.46 7.34-1.86 3.19-0.41 6.22-0.67 9.73 0.66 3.03 1.07 6.7 3.73 7.98 6.53 0.48 2.14-0.8 6-2.55 8.01-2.08 1.99-4.79 2.53-7.5 3.06-2.88-0.27-6.07-1.07-8.94-2.94-3.19-1.99-6.7-5.06-9.89-8.66 1.27-1.6 2.55-3.2 3.83-4.8z"/>
    <path id="path56" style="fill-rule:evenodd;stroke:#000000;stroke-width:.036;stroke-miterlimit:10;fill:#ff0080" d="m121.57 541.93c3.67-0.93 7.03-1.07 10.06-0.93 3.03 0.13 4.78 0.93 7.02 2.39 1.75 0.94 3.99 3.47 4.31 5.61-0.48 2.12-2.88 5.19-4.79 6.66-2.4 0.8-4.95 1.2-7.66 0.14-2.87-1.2-7.34-4.14-9.09-5.74-1.92-1.6-3.68-3.06-3.52-3.87 1.12-1.33 2.4-2.8 3.67-4.26z"/>
    <path id="path58" style="stroke:#000000;stroke-width:.036;stroke-miterlimit:10;fill-rule:evenodd" d="m108.33 536.73c-1.76-1.34-2.71-3.73-3.51-5.74-1.12-2.4-2.08-5.6-1.12-8 0.8-3.07 3.03-6.53 6.06-7.86 2.72-1.34 7.03-0.67 9.9 0.53 2.39 0.8 4.31 3.2 5.1 5.6 0.48 2.4-0.32 4.53-1.75 7.87-1.92 2.93-4.63 6-8.14 9.73-2.07-0.66-4.31-1.34-6.54-2.13z"/>
    <path id="path60" style="fill-rule:evenodd;stroke:#000000;stroke-width:.036;stroke-miterlimit:10;fill:#ff0080" d="m108.33 534.99c-1.6-2.93-3.03-5.6-3.03-8-0.32-2.4 0.16-4.66 1.43-6.26 1.12-2.01 3.04-4.4 5.75-4.67 2.07 0 7.02 0.54 8.77 2.66 1.6 1.61 1.92 3.34 1.6 6.28-0.8 2.66-3.67 6.26-4.95 8.66-1.59 1.87-2.87 3.07-3.82 3.6-1.92-0.67-3.84-1.46-5.75-2.27z"/>
    <path id="path62" style="stroke:#000000;stroke-width:.036;stroke-miterlimit:10;fill-rule:evenodd" d="m107.85 541.26c-2.07 0.93-4.47 1.86-7.18 2.27-3.03 0.4-6.861 0.79-9.732 0.13-3.51-1.47-7.659-3.46-8.776-6-0.957-2.53-0.32-6.27 1.916-8.14 1.595-2.26 3.988-3.46 7.178-3.59 2.714-0.14 5.746 0.27 9.094 2.26 3.03 1.6 7.02 4.27 10.69 8-0.96 1.6-2.07 3.34-3.19 5.07z"/>
    <path id="path64" style="fill-rule:evenodd;stroke:#000000;stroke-width:.036;stroke-miterlimit:10;fill:#ff0080" d="m105.78 541c-3.67 0.93-7.184 1.86-9.898 1.73-3.03-0.27-5.264-0.54-7.339-1.87-2.394-1.2-4.787-3.47-4.787-5.33-0.318-2.4 1.915-5.74 4.148-6.94 1.916-1.33 4.467-1.73 7.659-0.67 2.554 0.81 7.177 3.34 9.577 5.08 2.07 1.33 3.35 2.53 3.83 3.59-0.96 1.47-2.08 2.94-3.19 4.41z"/>
    <path id="path66" style="stroke:#000000;stroke-width:.036;stroke-miterlimit:10;fill-rule:evenodd" d="m109.29 547.12c0.16 1.88-0.48 4.14-1.28 6.28-1.44 2.26-2.39 4.79-4.79 7.06-3.19 1.46-7.337 3.6-10.527 3.33-3.51-0.66-6.224-3.33-7.499-5.46-1.277-2.53-1.277-4.67 0-6.94 1.274-2.13 3.35-4.13 6.86-5.46 3.51-1.74 7.819-2.81 13.566-3.74 1.11 1.61 2.39 3.21 3.67 4.93z"/>
    <path id="path68" style="fill-rule:evenodd;stroke:#000000;stroke-width:.036;stroke-miterlimit:10;fill:#ff0080" d="m108.17 548.46c-0.8 3.34-1.91 5.6-3.35 7.87-1.44 2-3.51 3.47-5.585 4.4-2.714 0.93-5.586 1.19-7.979 0.8-2.711-1.47-4.627-4.13-5.105-6.4-0.479-2.27 0.798-4.4 3.192-5.87 1.755-1.73 7.339-3.86 10.051-4.4 2.556-0.8 4.466-1.33 5.746-1.06 0.96 1.46 1.91 3.06 3.03 4.66z"/>
    <path id="path70" style="stroke:#000000;stroke-width:.036;stroke-miterlimit:10;fill-rule:evenodd" d="m115.83 546.6c2.07 0.93 3.83 2.13 5.9 4.13 1.76 1.86 3.99 4 4.95 6.94 0.48 2.39-0.32 7.19-1.76 9.33-2.07 1.86-6.86 2.8-9.41 2.8-3.03 0-5.9-2.01-7.34-3.47-1.76-2.27-2.23-4.53-2.07-7.87 0.16-3.33 1.11-7.2 2.87-11.6 2.23 0 4.47-0.13 6.86-0.26z"/>
    <path id="path72" style="fill-rule:evenodd;stroke:#000000;stroke-width:.036;stroke-miterlimit:10;fill:#ff0080" d="m116.63 548.2c3.03 1.99 5.26 4.13 6.7 6.4 1.43 1.73 1.75 4.26 1.59 6.13-0.31 1.73-1.11 4.8-3.03 6.13-2.23 1.07-7.18 1.07-9.25 0.53-2.56-1.06-3.83-2.8-4.47-5.2-0.64-2.66-0.32-7.19 0.32-9.46 0.32-2.67 0.96-3.73 1.91-4.67 2.08 0 4.15 0 6.23 0.14z"/>
    <path id="path74" style="stroke:#000000;stroke-width:.036;stroke-miterlimit:10;fill-rule:evenodd" d="m116.31 537.93c0-2 0.32-4.27 1.59-6.27 0.96-2.53 2.08-5.33 5.11-6.93 2.55-2.01 7.34-3.47 10.69-2.94 3.03 0.41 5.42 3.34 7.18 5.74 0.96 1.99 0.64 4.8-0.32 6.93-1.28 1.86-3.67 3.6-7.18 5.2-3.51 1.34-8.3 2.4-13.72 3.2-1.12-1.6-2.24-3.2-3.35-4.93z"/>
    <path id="path76" style="fill-rule:evenodd;stroke:#000000;stroke-width:.036;stroke-miterlimit:10;fill:#ff0080" d="m117.58 536.59c0.64-3.46 2.08-5.73 3.67-7.86 1.28-1.87 3.19-3.6 5.75-4.14 2.07-1.06 5.74-1.6 7.98-0.53 1.91 1.2 4.3 4.13 4.78 6.67-0.32 2-1.27 3.73-3.51 5.73-2.55 1.2-7.82 3.2-10.21 4-2.71 0.8-4.63 1.07-5.74 0.8-0.8-1.46-1.76-3.06-2.72-4.67z"/>
    <path id="path78" style="stroke:#000000;stroke-width:.036;stroke-miterlimit:10;fill-rule:evenodd" d="m112.16 534.83c5.55 0 10.05 3.11 10.05 6.93 0 3.83-4.5 6.94-10.05 6.94s-10.05-3.11-10.05-6.94c0-3.82 4.5-6.93 10.05-6.93"/>
    <path id="path80" style="fill-rule:evenodd;stroke:#000000;stroke-width:.036;stroke-miterlimit:10;fill:#ffff00" d="m112.16 536.3c4.32 0 7.82 2.45 7.82 5.46 0 3.02-3.5 5.47-7.82 5.47s-7.82-2.45-7.82-5.47c0-3.01 3.5-5.46 7.82-5.46"/>
    <path id="path82" style="stroke:#000000;stroke-width:.036;stroke-miterlimit:10;fill-rule:evenodd" d="m125.56 102.71c-0.95-2.4-2.07-5.065-3.99-6.532-2.07-1.868-4.78-3.734-7.49-4-3.04-0.667-6.39-0.667-8.78 0.534-3.35 0.933-5.426 4-6.863 6.133-1.435 1.995 0.478 4.395-0.479 6.135-0.957 1.2-3.032 1.73-5.586 1.6-0.796-5.07-1.595-9.468-3.03-13.202-1.755-3.599-2.394-7.066-5.585-9.867-3.351-3.599-11.33-9.866-14.042-10.533-3.35-0.934-2.872 2.533-3.51 5.199-0.639 2.4-0.318 5.333 0.318 9.334-3.03-1.867-6.86-4-10.21-4.934-3.51-1.065-7.819-2.399-11.648-2.532-1.915 5.999-2.394 10.933-2.075 15.866-0.158 4.669-1.275 7.469 3.989 12.539 4.947 4.66 13.883 9.59 26.808 15.33-2.075 3.07-6.703 5.07-13.883 6.53-7.339 1.2-17.071 1.34-29.838 0.94 2.076 3.33 5.108 5.2 8.458 7.06 3.35 1.47 7.021 2.27 11.647 2.4-3.51 2.54-4.945 4.4-3.032 5.6 1.755 1.07 5.585 1.47 12.764 1.2-3.03 3.47-3.668 6.14-2.552 7.47 1.117 1.33 3.989 1.73 9.254 1.2l12.446-18c9.574-0.14 16.435-1.6 22.339-4.94 5.11-3.6 7.02-10.93 10.69-14.8 3.35-4 6.86-6.53 10.53-8.13 2.55 0.13 4.79 0 6.7 0.13 1.44-0.13 2.72-0.4 3.19-0.8-0.79-1.73-1.75-3.33-2.87-4.26-1.11-1.2-2.55-2.27-3.67-2.67z"/>
    <path id="path84" style="fill-rule:evenodd;stroke:#000000;stroke-width:.036;stroke-miterlimit:10;fill:#b87800" d="m122.85 102.98c-0.64 0.53-1.6 1.33-1.6 2.4-0.15 1.06-0.63 1.86-0.15 3.46-3.68 1.47-6.39 3.74-8.78 5.74-2.24 2-3.67 4.13-4.95 6.93-1.75 2.4-3.51 6.13-5.9 8.67-3.193 2.4-7.182 3.73-11.331 5.06-3.988 0.94-9.254 1.34-14.041 1.2l-11.966 17.87c-2.554 0.4-3.991-0.26-4.309-0.93-0.478-1.2-0.798-2.54 0.799-4.54 1.117-2.26 7.021-6.93 6.7-7.33-0.799-0.53-7.819 3.6-10.531 4.67-3.67 0.66-6.86-0.14-7.659-0.94-0.479-1.2 0.798-3.06 4.469-5.6-3.032 0.14-5.107 0.67-7.501 0.14-2.552-0.54-4.149-1.07-6.062-2.14-1.597-1.06-3.51-2.66-4.469-4.26 12.446 0.13 21.86-0.67 28.881-2.4 6.703-2 11.009-4.8 12.286-8.94-5.744-2.26-10.053-3.86-13.563-5.33-3.67-1.73-6.86-2.67-7.181-3.87-0.796-1.46 0.638-2.66 3.67-4.13-4.627-0.53-7.499-1.33-8.616-2.4-1.437-1.07-1.117-3.2 0.957-4.93-3.35-1.737-5.265-4.405-6.382-7.472-1.117-3.2-1.117-7.334 0-11.866 7.181 1.199 13.245 3.333 18.828 6.398 5.105 2.934 8.936 6.667 13.245 10.668 3.828 3.202 8.137 8.932 11.647 10.532 3.19 1.33 8.138-0.13 9.893-1.33 1.596-1.6-0.16-4.94 0.956-6.94 0.32-2.262 2.08-4.93 3.99-5.996 2.08-1.733 4.79-1.867 8.14-1.867 2.71 0.134 5.26 1.333 7.66 3.067 1.59 1.47 2.55 3.606 2.87 6.406z"/>
    <path id="path86" style="fill-rule:evenodd;stroke:#000000;stroke-width:.036;stroke-miterlimit:10;fill:#b87800" d="m71.152 89.51c-1.437-1.599-2.554-3.467-2.714-5.599-0.957-2.934-0.639-8.001 0.958-8.535 1.595-0.533 6.222 3.333 9.572 6.534 3.353 3.333 5.426 6.8 7.979 11.466 1.277 4 2.552 8.264 2.073 12.804-2.394-3.34-5.583-6.536-8.297-9.07-3.028-2.8-6.221-5.332-9.571-7.6z"/>
    <path id="path88" style="stroke:#000000;stroke-width:.036;stroke-miterlimit:10;fill-rule:evenodd" d="m112.16 98.281c1.41 0 2.55 0.955 2.55 2.139 0 1.17-1.14 2.13-2.55 2.13s-2.55-0.96-2.55-2.13c0-1.184 1.14-2.139 2.55-2.139"/>
    <path id="path90" style="fill-rule:evenodd;stroke:#000000;stroke-width:.036;stroke-miterlimit:10;fill:#ffff00" d="m123.97 103.91c1.27 0 2.23 0.67 3.51 1.47 0.79 0.8 1.91 1.73 2.71 3.33-0.64 0.27-2.07 0.4-3.03 0.4-1.12-0.13-3.04-0.4-4.47-0.8-0.16-1.33-0.64-2.53-0.16-3.07 0.16-0.93 0.64-1.2 1.44-1.33z"/>
    <path id="path92" style="stroke:#000000;stroke-width:.036;stroke-miterlimit:10;fill-rule:evenodd" d="m374.48 19.374c-24.41-1.333-41.65-1.333-52.34 0.534-10.85 1.734-12.6 4.8-11.96 9.733 0 4.801 4.46 10.001 13.4 17.601-12.93-2.4-22.34-2.532-28.24-0.934-5.75 1.467-7.66 6.535-7.66 10.535-0.96 3.733-1.76 9.468 3.19 12.533 4.79 2.667 12.6 4.934 24.73 5.333-15.95 2.933-25.21 5.601-30.16 9.468-4.62 3.467 0.64 7.733 2.24 11.733 1.11 3.467-2.4 9.2 3.67 10 5.58 0.27 15.15-1.47 29.36-6.667-11.33 7.337-18.67 13.597-21.39 18.797-3.35 5.34-2.23 10.67 3.99 11.87 6.06 0.93 17.4-1.47 33.35-6.67 2.07 2.4 2.56 6.27 1.44 12.14-1.12 5.73-3.99 15.6-7.98 22.4-4.47 6.53-10.53 11.6-18.19 16.27 9.73-5.6 16.27-8.14 20.27-8.14 3.02-0.13-4.63 8.94 2.23 8.14 6.86-0.93 20.42-5.73 40.05-13.87 0-6 0.32-15.6 0.32-30.27-0.16-15.07-0.16-38 0-56.534 0-18.533-0.32-36.534-0.32-54.002z"/>
    <path id="path99" style="fill-rule:evenodd;stroke:#000000;stroke-width:.036;stroke-miterlimit:10;fill:url(#XMLID_4_)" d="m371.29 120.44c-0.16-3.86-0.48-9.86-0.32-18-0.16-8.262-0.16-22.129 0-31.329-0.16-9.333 0.16-16.401 0.32-24.269 0-8.4-0.32-15.6-0.32-23.601-20.75-0.933-34.79-0.933-43.4 0-8.46 0.402-8.78 0.935-7.66 5.201 0.32 4.4 3.83 10.935 10.53 20.668-14.2-1.601-24.09-1.734-30.32-0.399-6.22 0.799-6.7 4.532-7.02 7.599-0.8 3.067-2.07 6.534 2.88 9.867 4.62 2.934 12.76 5.599 25.04 8.001-1.11 1.599-4.94 3.333-9.73 5.733-5.42 1.732-18.19 4.666-21.06 7.333-3.19 2.8 2.55 6.934 3.67 9.867 0.64 2.534-4.78 5.869 0.96 5.869 5.42-0.14 15.47-2.94 30.79-7.336-1.11 3.333-2.71 6.936-5.42 10.266-3.19 2.93-7.98 6.27-10.05 9.47-2.08 3.2-3.2 8.4-1.44 10 1.28 0.93 4.31 0.13 9.73-1.87 5.27-2 12.29-4.93 21.7-9.33-0.48 8.4 2.23 12.93 7.5 14.13 5.11 1.07 12.77-1.73 23.62-7.87z"/>
    <path id="path101" style="fill-rule:evenodd;stroke:#000000;stroke-width:.036;stroke-miterlimit:10;fill:#ad4200" d="m342.09 131.11c0 1.73 2.07 2.13 6.86 1.2 4.63-0.93 11.33-3.33 20.74-6.67-0.16 6.41 0.16 12.14-0.32 17.74-0.16 5.46-1.11 9.86-1.59 14.26-15 7.34-24.89 11.2-29.68 12.14-4.63 0.53 1.44-6.13 0.96-7.2-0.96-1.33-4.15-1.07-7.82 0.27 3.35-5.87 5.42-11.61 7.5-16.67 1.75-5.33 2.87-10.54 3.35-15.07z"/>
    <path id="path103" style="stroke:#000000;stroke-width:.036;stroke-miterlimit:10;fill-rule:evenodd" d="m210.13 297.92c-0.8-4.94-1.28-8.53-2.07-10.8-0.8-2.67-1.12-3.87-2.72-4.14-2.07-0.66-7.5 1.47-8.93 1.2-2.08-0.8-3.19-1.73-1.44-3.33 1.91-2 8.14-5.87 11.97-6.53 2.71-0.8 6.06-0.14 7.02 2 0.48 1.73-0.96 7.2-0.64 9.73 0.48 2.4 2.23 3.33 4.63 3.87 0.95-4.8 3.51-8.67 7.66-11.07 3.83-2.67 10.85-4.27 16.11-4.27 4.95-0.4 10.53 1.6 14.2 4 2.87 2.27 3.84 6.8 5.43 10 1.43 3.07 2.87 5.6 3.67 8.14-2.4-0.94-4.63-0.94-4.95 0-0.95 1.06 0.8 2.26 0.96 4.66-0.48 1.74 0.16 4.41-1.12 5.87-1.75 0.93-5.1 1.34-6.38 1.2-1.28-0.27-2.39-1.06-2.07-2.4-1.6 0.67-2.88 1.73-4.47 1.73-2.24-0.26-3.83 1.07-4.79-0.66-0.8-1.87-1.43-4.54-0.64-9.07l-10.21-0.8c-0.16 3.07-0.95 5.6-1.75 7.07-0.96 1.06-1.92 1.47-3.52 1.73-2.07 0-4.62-0.26-5.74-0.8-1.28-0.53-1.28-1.6-0.64-2.67-1.43 1.2-2.55 1.74-3.99 2.14-1.75 0.13-4.46-0.27-5.1-1.2-0.96-1.2-1.12-3.07-0.48-5.6z"/>
    <path id="path105" style="fill-rule:evenodd;stroke:#000000;stroke-width:.036;stroke-miterlimit:10;fill:#008040" d="m217.47 290.98c-2.23-0.26-3.03-1.2-4.15-2.26-1.12-1.6-1.59-3.47-1.44-5.07-0.31-1.73 0.8-3.07 0.96-4.53-0.16-1.6-1.59-3.6-2.55-3.87-1.12-0.53-3.51-0.13-5.43 1.2-2.39 0.93-8.45 3.6-8.93 4.93-0.8 0.8 1.44 0.4 3.67 0.8 1.28-0.53 4.63-0.26 6.38-0.26 0.96-0.14 1.76 0.4 2.39 2.13 0.64 1.6 2.24 6 2.88 8.53 0.32 2.14 0.32 4 0.63 5.61-0.47 1.33-0.63 2-0.47 3.06 0.16 0.93 1.11 1.74 2.23 2.4 0.8 0 1.28-0.13 2.71-0.4 1.28-0.26 2.24-1.07 4.15-1.87-0.48 1.34-0.16 2.4 0.96 3.21 0.8 0.39 3.19 0.53 4.62 0.39 0.96-0.26 1.6-0.8 2.56-1.6 0.64-1.33 1.12-3.2 1.44-5.6-2.88-1.2-6.07-2.26-7.82-3.2-2.24-1.33-3.83-2.53-4.79-3.6z"/>
    <path id="path107" style="fill-rule:evenodd;stroke:#000000;stroke-width:.036;stroke-miterlimit:10;fill:#008040" d="m243.32 298.19c-0.96 2.4-0.48 3.73-0.32 5.46 0 1.2 0.8 2.81 2.4 3.2 1.59 0 3.34-0.66 6.53-2-0.31 1.34 0.81 2 1.6 2.54 1.28 0.13 3.03 0 4.63-0.41 0.64-0.93 1.75-1.99 1.6-3.73-0.32-1.86-0.16-3.86-1.28-6.53-4.15 0.27-7.5 0.8-10.06 1.06-2.55 0.27-4.46 0.41-5.1 0.41z"/>
    <path id="path109" style="fill-rule:evenodd;stroke:#000000;stroke-width:.036;stroke-miterlimit:10;fill:#00ff00" d="m262.62 294.98c-0.95 0.14-3.02 0.4-6.22 0.8-3.67 0.27-8.77 0.27-13.4 0.54-5.11-0.14-10.53-0.27-14.52-0.94-4.15-0.8-7.18-2.66-9.1-4.53 1.12-3.47 3.19-5.73 4.95-7.87 1.59-2.4 3.51-3.2 6.38-4.4 2.88-1.46 7.98-2.93 11.65-2.8 3.19 0 6.86 1.6 9.1 3.2 1.43 0.8 2.07 1.07 3.67 3.87 1.75 2.4 4.47 6.8 7.49 12.13z"/>
    <path id="path111" style="stroke:#000000;stroke-width:.036;stroke-miterlimit:10;fill-rule:evenodd" d="m223.22 281.65l7.49 4.8 1.12 9.87 1.44 0.13-0.64-8.93 8.61-5.34 6.71 5.47 0.95 8.8 2.08 0.4-0.96-9.47 6.7-3.33-0.8-1.6-7.5 3.47-5.9-5.07 2.08-5.33-3.36 0.13-0.63 4.53-8.14 5.2-7.02-4.53-2.23 0.8z"/>
    <path id="path113" style="stroke:#000000;stroke-width:.036;stroke-miterlimit:10;fill-rule:evenodd" d="m208.53 277.12c-0.95-0.27-3.98 0.66-4.14 1.33-0.16 0.27 2.39 0.93 3.35 0.93 0.16-0.66 1.43-2.13 0.79-2.26z"/>
    <path id="path115" style="stroke:#000000;stroke-width:.036;stroke-miterlimit:10;fill-rule:evenodd" d="m229.44 402.86c7.66 0.26 13.24 1.46 16.75 4.13 3.19 2.27 3.51 1.73 3.35 10.8-0.8 8.66-4.46 34.13-7.34 42-3.35 7.33-6.86 8.4-11.17 3.2l-2.23 42-46.91-3.19 7.34-38.27c-5.43 3.07-9.57 2.93-11.81-0.94-2.23-4.26-1.76-14-2.23-22-1.12-8.67-5.59-20.94-2.24-27.07 3.2-6 10.06-8.93 21.23-8.8-7.34-19.47-9.58-33.46-6.71-42.54 3.2-9.2 15.96-11.73 24.1-11.73 7.66-0.39 16.75 4.93 20.58 10.27 2.88 5.07-0.79 12.8-1.11 20.14-0.64 7.2-0.96 13.99-1.6 22z"/>
    <path id="path117" style="fill-rule:evenodd;stroke:#000000;stroke-width:.036;stroke-miterlimit:10;fill:#ffc080" d="m225.45 408.32l10.53 0.53c-1.12 6.27-2.07 12-2.88 17.74-0.95 5.6-1.75 10.53-2.39 16.27-0.95 5.46-2.23 10.66-3.19 16.13-2.23 21.6-3.67 35.2-4.31 42.81-0.8 7.06-0.8 7.19 0 0.39l-36.86-2.8 6.71-40.13c-4.31 2.4-6.71 3.33-8.94 2.8-1.92-0.8-2.39 0.8-3.35-6.53-1.92-7.87-8.3-30.41-5.59-38.27 2.72-8 10.38-10.8 22.98-8.94-3.67-14.26-4.94-25.6-4.47-34 0.16-9.07 2.56-14.67 7.82-17.34 5.27-2.53 18.83-2.26 23.46 2.81 3.67 4.67 0.16 18 0.48 26.13-0.16 8-0.16 15.47 0 22.4z"/>
    <path id="path119" style="stroke:#000000;stroke-width:.036;stroke-miterlimit:10;fill-rule:evenodd" d="m174.07 413.52c7.66 0.27 13.24 1.47 16.75 4.14 3.19 2.26 3.51 1.73 3.35 10.8-1.11 8.66-4.14 34.14-7.18 42-3.35 7.6-6.86 8.54-11.17 3.33l-2.23 42-46.91-3.33 7.18-38.27c-5.59 3.07-9.25 2.94-11.65-0.93-2.23-4-1.75-13.87-2.23-21.87-1.12-8.27-5.59-21.07-2.24-27.06 3.2-6.27 10.06-9.07 21.23-8.94-6.87-19.6-9.1-33.07-6.71-42.53 2.4-9.08 14.36-11.2 20.59-12.54 5.42-2.14 9.73-1.2 12.92 2.8 2.87 4 4.47 13.87 6.06 22.4 1.12 8.27 2.08 17.6 2.24 28z"/>
    <path id="path121" style="fill-rule:evenodd;stroke:#000000;stroke-width:.036;stroke-miterlimit:10;fill:#ffc080" d="m170.24 419.12c8.78-1.33 14.52-0.66 17.87 1.47 2.71 2.13 1.44 4.27 1.12 11.6-0.48 6.94-0.96 24.4-3.35 30.8-3.04 6-7.5 7.87-14.05 5.6-2.07 22-3.35 36.14-3.83 43.87-0.79 7.07-0.79 7.73 0 0.53l-36.86-2.79 6.71-40.14c-4.31 2.4-6.71 3.33-8.94 2.8-1.91-0.8-2.39 0.8-3.35-6.53-1.91-8.14-8.3-30.54-5.58-38.41 3.03-8 10.05-10.93 22.82-8.8-3.68-14.4-4.95-25.6-4.47-34.13 0.16-9.07 2.55-14.8 7.81-17.21 5.27-2.53 18.83-2.26 23.46 2.8 3.51 4.68 0.64 18.01 0.64 26.14-0.16 8-0.16 15.47 0 22.4z"/>
    <path id="path123" style="stroke:#000000;stroke-width:.036;stroke-miterlimit:10;fill-rule:evenodd" d="m143.91 355.12c-3.83 0.67-8.77-0.53-11.17 1.47-2.87 1.73-1.91 7.19-3.83 10.26-2.39 2.67-7.66 3.47-8.45 7.47-0.48 4.01 2.87 9.47 3.99 15.87 0 5.87-0.8 12.4-1.12 19.6-0.8 6.81-1.44 14.27-0.64 22.4 0.32 7.87 3.19 22.27 5.58 25.73 1.92 3.21 7.34-4.26 8.94-6.53 1.12-2.53-0.32-8.27 0.64-8.4 0.64-0.53 2.71 3.87 5.58 6.01 2.87 1.86 11.49 11.99 11.65 5.19-0.96-7.47-9.73-36.53-12.77-48.14-3.03-11.59-4.62-15.33-2.87-21.46 1.76-6.94 8.3-15.47 13.4-16.81 4.79-1.19 12.29 3.61 14.53 9.34 1.59 5.2-1.6 16-2.72 23.74-1.27 7.46-2.39 12.4-3.35 22-1.59 9.47-4.62 27.33-2.87 34.13 1.76 6 11.17 5.2 14.04 3.2 2.56-2.4 0.8-14.4 2.71-15.87 1.76-1.86 7.03 13.2 7.82 6.14 0-7.47-6.38-36-5.58-49.07 1.12-13.47 11.65-23.6 10.69-29.87-2.23-6.66-14.04-5.86-20.11-8.93-6.06-3.87-11.32-10-15.16-11.2-3.82-1.47-6.22 2.67-8.93 3.73z"/>
    <path id="path125" style="stroke:#000000;stroke-width:.036;stroke-miterlimit:10;fill-rule:evenodd" d="m238.21 460.86c-1.75-3.2-3.67-5.06-6.38-4.54-2.55 0-5.75 6.67-9.57 6.14-4.63-0.67-12.61-10.4-16.6-9.73-4.31 0.66-7.02 4.66-8.14 13.06-4.62-3.6-8.93-5.47-12.28-5.06-3.51 0.26-6.86 3.46-8.3 6.53-1.76 2.66-2.07 6.14-1.6 9.87-2.39-7.87-5.9-12.67-10.53-14.41-4.94-1.99-10.53-0.93-17.39 3.2 1.76-3.32 0.32-4.79-2.55-4.93-4.15 0-14.36 1.6-17.07 4.27-2.08 2.4-1.6 5.86 3.19 10.4-3.99-1.74-7.02-1.6-9.74-0.14-2.87 1.47-5.74 4.41-6.22 8.8-0.48 4.14-0.32 9.34 2.23 16.14-7.66 2.94-11.8 5.86-11.16 8.27 0 2.4 4.78 4.53 13.08 6.4-5.27 3.07-7.98 6.66-6.38 11.33 1.43 4.53 14.04 10.4 13.72 15.06-1.12 3.88-17.23 7.21-18.19 10.54-0.96 3.47 2.55 6.67 11.81 10.13-4.47 1.74-6.38 4.14-5.75 7.21 0.16 3.06 3.03 6.66 7.98 11.33 0.96-2.8 3.19-3.2 6.7-2.27 3.35 0.81 7.82 4 14.04 8.54 2.08-5.61 4.95-8.14 9.26-7.07 4.47 0.93 8.93 4.93 15.79 12.53l60.8-1.87c3.03-43.2 6.06-86.4 9.25-129.73z"/>
    <path id="path132" style="fill-rule:evenodd;stroke:#000000;stroke-width:.036;stroke-miterlimit:10;fill:url(#XMLID_5_)" d="m223.22 510.86l3.98-46c-2.07 3.2-5.42 4.13-8.3 3.33-3.51-1.07-7.81-9.73-11.16-9.07-3.51 0.54-6.23 4.41-8.78 12.14-5.1-2.94-9.57-4.27-11.65-4.53-2.55-0.4-2.39 1.2-3.19 3.33-1.28 2-2.71 5.06-4.31 9.2l-12.12 1.07c0.95-7.87-0.64-12.13-4.15-13.34-3.51-1.2-9.57 1.07-17.55 6.8-3.19-6.93-5.59-9.6-7.19-8.53-1.75 0.93-2.71 6.13-2.87 15.07-7.5-1.6-11.64-0.67-13.72 2.8-2.07 3.46-1.27 9.2 1.76 17.73-5.59 1.33-8.62 3.33-8.46 5.46-0.16 2.01 2.23 4.67 7.82 7.47-3.35 1.74-4.95 3.21-4.79 5.47 0.16 1.74 2.71 3.6 5.27 6.67 1.59 2.8 7.02 7.86 7.02 11.6-0.16 3.6-4.63 7.6-6.55 10.4-2.55 2.26-6.22 2.26-6.06 4.67 0.64 2.13 2.88 4.93 8.46 8.39-5.11 2.41-6.86 4.27-5.9 6.14 0.95 1.2 9.57 2.53 12.28 4 2.08 1.47 0.8 4.27 3.03 4.8 2.08 0 5.43-1.47 10.06-4.4 3.67-0.67 6.7-0.13 9.73 1.07 2.87 1.06 5.74 3.33 7.98 6.26l9.57 10.01h49.78c0.01-26.01 0.01-52.01 0.01-78.01z"/>
    <path id="path134" style="stroke:#000000;stroke-width:.036;stroke-miterlimit:10;fill-rule:evenodd" d="m199.92 505.39c-1.12-3.46-4.47-5.73-8.3-7.33-4.31-1.6-9.89-2.27-16.75-2-1.92 4.13-2.24 7.86 0.79 10.67 2.24 2.8 7.82 5.06 15 6.8-4.78-2.94-7.82-5.74-9.09-7.87-1.6-2.4-0.8-4.13 1.11-5.73 2.72 0.53 5.27 1.46 8.3 2.27 2.72 0.79 5.91 1.86 8.94 3.19z"/>
    <path id="path136" style="stroke:#000000;stroke-width:.036;stroke-miterlimit:10;fill-rule:evenodd" d="m169.92 512.46c0.32-3.2-0.64-5.73-2.87-8.13-2.71-2.53-5.91-4.94-11.33-6.67-3.35 2.4-4.95 5.07-4.15 8 0.64 2.94 3.03 6 7.82 9.74-2.23-3.48-3.03-6.8-3.03-8.54 0-2.4 1.12-3.2 3.35-3.87 1.91 1.2 3.03 2.81 5.1 4.27 1.92 1.47 3.04 3.2 5.11 5.2z"/>
    <path id="path138" style="stroke:#000000;stroke-width:.036;stroke-miterlimit:10;fill-rule:evenodd" d="m162.1 510.86c-2.55-2.13-5.9-3.34-9.41-3.07-3.83-0.13-8.46 1.2-13.25 3.47 0 3.46 1.92 6.53 5.11 7.73 3.19 1.6 7.66 1.34 14.04 0.67-4.94-0.94-8.29-2-10.05-3.2s-2.87-2.93-1.6-4.67c2.08-0.26 4.63-0.66 7.03-0.66 2.39-0.14 5.1-0.4 8.13-0.27z"/>
    <path id="path140" style="stroke:#000000;stroke-width:.036;stroke-miterlimit:10;fill-rule:evenodd" d="m159.87 516.19c-3.67 0-6.54 0.93-9.26 3.34-2.87 2.4-5.1 5.33-6.7 10.26 3.35 2.54 6.55 3.21 10.21 2.54 3.36-1.07 6.87-3.47 10.53-7.74-4.15 1.87-7.65 3.21-9.89 3.47-2.71 0.13-4.15-0.8-4.94-2.27 1.43-1.46 2.71-3.19 4.46-4.66 1.6-1.73 3.67-3.2 5.59-4.94z"/>
    <path id="path142" style="stroke:#000000;stroke-width:.036;stroke-miterlimit:10;fill-rule:evenodd" d="m190.35 542.19c-1.44-3.33-4.47-6-8.46-7.47-4.31-1.72-9.89-2.39-16.76-1.99-1.91 4.13-2.23 7.86 0.8 10.66 2.23 2.8 7.82 5.07 15 6.8-4.95-2.93-7.5-5.73-8.93-7.86-1.44-2.4-1.12-4.13 0.95-5.74 2.71 0.54 5.27 1.34 8.3 2.4 2.71 0.81 5.74 1.87 9.1 3.2z"/>
    <path id="path144" style="stroke:#000000;stroke-width:.036;stroke-miterlimit:10;fill-rule:evenodd" d="m178.38 543c-3.83-1.34-8.46-0.81-12.13 1.06-3.83 1.6-8.46 5.07-12.13 9.86 2.4 3.87 5.91 5.88 10.53 6.01 4.15-0.27 9.58-1.74 15.64-5.87-5.9 1.33-10.21 1.74-12.92 1.2-3.19-0.53-4.79-2.13-4.79-4.27 2.07-1.47 4.47-2.8 7.18-4 2.55-1.47 5.43-2.8 8.62-3.99z"/>
    <path id="path146" style="stroke:#000000;stroke-width:.036;stroke-miterlimit:10;fill-rule:evenodd" d="m165.13 385.92c-0.15-0.13-1.11-0.93-2.23-0.93-1.44-0.4-4.31-1.07-5.58-0.94-1.76 0-2.88 0.27-2.72 0.81-0.16 0.52 1.76 0.93 2.72 1.73 0.31 0.4 0.48 1.2 1.11 1.33 0.64-0.26 1.6-1.86 2.87-1.73 0.64-0.27 1.6 0.66 2.24 0.8 0.48-0.27 1.44-0.8 1.59-1.07z"/>
    <path id="path148" style="stroke:#000000;stroke-width:.036;stroke-miterlimit:10;fill-rule:evenodd" d="m152.69 385.92c-0.32-0.13-0.8-0.93-2.08-0.93-1.27-0.4-4.63-1.07-5.74-0.94-1.76 0-2.87 0.27-2.71 0.81-0.32 0.52 2.07 0.93 2.87 1.73 0.48 0.4 0 1.2 0.95 1.33 0.64-0.26 1.6-1.86 2.88-1.73 0.64-0.27 1.43 0.66 2.39 0.8 0.64-0.27 1.12-0.8 1.44-1.07z"/>
    <path id="path150" style="stroke:#000000;stroke-width:.036;stroke-miterlimit:10;fill-rule:evenodd" d="m154.76 388.72c-0.32-0.13-0.48 0.93-0.48 2.14-0.8 0.93-1.91 2.66-1.59 4.13-0.16 1.2 1.91 2.8 2.55 3.2 0.64 0 1.28-2.8 1.28-2.8-0.48-0.8-2.56 1.2-2.56 0.4-0.32-0.94 0.8-4 1.44-5.07 0-1.33-0.8-2-0.64-2z"/>
    <path id="path152" style="stroke:#000000;stroke-width:.036;stroke-miterlimit:10;fill-rule:evenodd" d="m158.59 400.99c-0.32-0.13-2.55 1.47-4.31 1.73-2.07-0.26-4.62-1.86-5.1-1.73-0.16 0.27 1.12 2.4 3.19 2.8 1.75-0.4 5.26-2.53 6.22-2.8z"/>
    <path id="path154" style="stroke:#000000;stroke-width:.036;stroke-miterlimit:10;fill-rule:evenodd" d="m220.98 372.99c-0.16-0.13-1.12-0.94-2.23-0.94-1.44-0.39-4.31-1.06-5.59-0.93-1.75-0.27-2.87 0.14-2.71 0.66-0.32 0.14 2.07 1.07 2.87 1.74 0.48 0.27 0 1.47 0.96 1.47 0.64-0.27 1.59-1.87 2.87-1.74 0.64-0.27 1.6 0.67 2.23 0.81 0.48-0.27 1.44-0.81 1.6-1.07z"/>
    <path id="path156" style="stroke:#000000;stroke-width:.036;stroke-miterlimit:10;fill-rule:evenodd" d="m208.53 372.99c-0.32-0.13-0.79-0.94-2.07-0.94-1.28-0.39-4.63-1.06-5.74-0.93-1.76-0.27-2.88 0.14-2.72 0.66-0.32 0.14 2.08 1.07 2.88 1.74 0.47 0.27 0 1.47 0.95 1.47 0.48-0.27 1.92-1.87 3.03-1.74 0.64-0.27 1.6 0.67 2.24 0.81 0.64-0.27 1.11-0.81 1.43-1.07z"/>
    <path id="path158" style="stroke:#000000;stroke-width:.036;stroke-miterlimit:10;fill-rule:evenodd" d="m210.29 375.78c0-0.39-0.8 1.47-0.64 2.54-0.64 1.34-2.23 2.94-1.75 4.8 0 0.93 2.23 3.87 3.03 3.73 0.32-0.13 1.59-2.93 1.43-3.33-0.79-0.26-2.55 0.93-2.87 0.53-0.48-1.06 1.28-4.93 1.6-5.99-0.16-1.87-0.64-2.14-0.8-2.28z"/>
    <path id="path160" style="stroke:#000000;stroke-width:.036;stroke-miterlimit:10;fill-rule:evenodd" d="m217.47 386.06c-0.64-0.54-4.47 3.2-7.18 3.46-3.03-0.13-8.78-4.26-8.62-3.6 0 0.27 4.79 5.6 8.14 5.74 2.39-0.14 7.18-5.6 7.66-5.6z"/>
    <path id="path162" style="stroke:#000000;stroke-width:.036;stroke-miterlimit:10;fill-rule:evenodd" d="m227.84 372.19c0.8-1.74 0.8-3.73 0.64-6.01-0.16-2.66-1.44-6.13-3.19-7.86-2.71-1.6-7.34-2.53-10.85-2.8-3.99-0.93-7.82-2.54-10.85-1.2-3.51 1.33-5.59 4.67-7.98 8.4-2.39 3.2-4.15 6.93-5.27 11.2-3.35-2.4-5.26-4.67-7.02-6.8-1.91-2.4-3.19-5.6-2.55-6.53 0.32-1.07 1.75-1.07 4.95 0 0.63-6.81 1.75-10.93 2.71-12.4s2.39-0.81 3.67 3.07c8.46-4.94 13.4-7.74 15.48-7.88 1.91-0.39 0.95 1.34-3.51 5.74 12.12-2.67 19.31-3.87 22.17-3.6 2.72 0 0.48 1.46-6.06 4.4 7.5 0.8 11.97 1.87 13.41 2.66 1.27 0.81-0.48 1.47-5.27 2.01 4.78 3.59 7.5 6.26 8.14 7.46 0.32 1.07-0.8 1.07-4.63 0 4.15 5.07 6.22 8.27 5.59 10.14-0.64 1.46-3.83 1.46-9.58 0z"/>
    <path id="path164" style="fill-rule:evenodd;stroke:#000000;stroke-width:.036;stroke-miterlimit:10;fill:#c2c200" d="m134.98 438.45c-0.8 0.81 0.48 1.74 0.16 4.27-0.64 2.54-2.08 8.4-3.04 10.4-1.59 1.47-2.87 1.34-3.83-1.46-0.95-3.2-0.95-10.94-1.27-16.53-0.8-6.01-1.44-12.14-1.28-18.94 0-7.47 1.6-17.33 1.76-23.87-0.8-6.67-3.67-11.46-3.67-14.93-0.32-3.74 2.55-4.27 4.31-6.67 1.43-2.94 3.19-6.67 5.26-8.66 1.6-2.14 3.51-2.54 6.38-3.74 2.88-1.73 7.98-4.93 11.65-4.53 3.35 0.53 4.31 4.27 9.58 7.07 4.94 2.26 15.31 5.33 19.46 7.73 3.67 1.86 3.19 2.26 2.87 5.86-1.11 3.2-5.58 10.54-7.18 15.87-2.07 4.93-2.87 7.6-2.39 16.27 0.64 8.8 6.54 30.27 6.7 36.13-0.32 5.33-5.74-3.86-7.02-2.93-1.75 0.53-2.07 3.6-2.23 6.67-0.16 3.2 0.8 8.4 0.32 10.93-1.44 2.14-4.95 2-6.86 1.07-1.92-1.07-4.95-3.74-4.79-8.53-0.16-5.2 1.59-12.94 3.51-22.67 1.75-9.73 4.63-28.01 6.06-36.27 1.28-8.8 2.24-11.33 0.32-15.34-2.39-4.39-11.01-9.47-14.84-10.13-4.46-1.2-7.02 0.8-10.05 4.4-3.35 3.6-7.98 10.4-8.94 16.27-1.11 5.2 0.16 8.27 2.56 16.4 1.91 8.27 7.18 23.46 9.57 31.73 1.92 7.74 3.35 12 3.03 14.27-0.79 1.34-4.63-0.8-6.54-2.8-2.23-2.27-4.95-6.93-6.22-8.27-1.76-1.33-2.87 0-3.35 0.93z"/>
    <path id="path166" style="stroke:#000000;stroke-width:.036;stroke-miterlimit:10;fill-rule:evenodd" d="m200.56 55.642c0.32-4.133 0-9.334-0.32-15.067-0.48-6.001-3.83-17.735-2.08-20.267 1.6-2.801 8.3 4.666 11.49 4.398 2.39-1.199 4.47-7.999 6.23-7.999 1.27 0.132 1.43 9.2 4.78 9.2 3.83-0.4 13.72-12.001 16.76-11.2 2.07 0-4.31 10.133-1.92 13.466 1.92 3.201 14.2 3.601 15.32 6.802 0.48 2.666-7.66 4.4-8.94 11.866-1.27 7.333-0.8 18.002 1.44 32.536 5.42-1.333 10.05-0.799 13.88 1.6 3.51 2 6.22 4.533 8.14 12.268 1.12 7.865 0.96 22.395 0.8 33.335 0 10.4-0.64 20.26-1.28 29.6h-94.46s-3.99-1.07-3.03-20.8c0.79-19.87 6.86-15.87 6.86-15.87l-18.35-2.4-2.4-8c-3.82-1.2-7.5-2.4-11-4.66-3.83-2.27-9.58-6.271-10.54-8.405-0.95-3.067 0.96-5.2 3.83-5.867 2.08-0.399 7.66 3.467 9.9 3.867 1.43-0.134 0.95-4.666 2.23-3.867 1.6 0.266 4.63 5.867 7.18 7.467 1.92 1.599 3.83 2.266 5.11 2l17.07-4.668c-0.48-5.733 1.76-9.467 6.7-12.667 4.95-2.799 12.61-5.067 22.98-5.333-2.08-7.068-4.15-14.134-6.38-21.335z"/>
    <path id="path168" style="fill-rule:evenodd;stroke:#000000;stroke-width:.036;stroke-miterlimit:10;fill:#a1a1a1" d="m207.26 63.908c2.71 6.135 5.74 10.401 9.1 13.868 3.18 3.067 6.7 6.534 10.53 5.201 3.82-1.868 7.33-6.534 11.8-15.069-0.8 9.202-0.8 14.535 0 17.468 0.32 2.4 4.15-3.601 4.63-1.6 0.48 2.134-3.03 10.133-1.92 12.667 0.48 1.735 7.02-3.599 6.7-1.6-0.63 1.734-8.45 7.997-8.61 11.597-0.32 2.67 9.41 4.94 7.02 6.27-3.35 0.93-20.26-0.13-24.25 2.4-3.51 2.8 1.59 12.94 1.12 13.47-1.76-0.67-4.79-11.2-7.82-13.07-2.72-1.73-7.82 4.27-8.62 3.6-1.11-1.47 3.83-7.73 1.92-9.6-2.72-2.13-13.89 1.07-15-1.2-1.28-2.8 8.77-10.4 8.61-13.467-0.8-3.2-9.89-4.133-10.05-5.867 0.32-2.4 6.22-5.2 9.73-6.8 2.71-1.866 5.43-3.065 7.5-3.599-0.8-4.668-1.12-8.4-1.59-10.669-0.32-2.665-0.8-4-0.8-4z"/>
    <path id="path170" style="fill-rule:evenodd;stroke:#000000;stroke-width:.036;stroke-miterlimit:10;fill:#ffc080" d="m209.17 60.709c-1.75-4.934-1.59-9.6-0.8-13.468 0.64-4.267 2.56-9.2 6.39-10.667 3.67-1.599 12.13-1.333 16.11 0.801 2.88 1.467 5.27 3.867 5.91 8.667 1.27 4.534 0.8 11.066 0.32 19.067-4.79 9.334-9.74 13.2-14.21 12.667-4.62-0.933-9.41-6.266-13.72-17.067z"/>
    <path id="path172" style="stroke:#000000;stroke-width:.036;stroke-miterlimit:10;fill-rule:evenodd" d="m211.41 45.776c0-0.668 0.63-0.534 1.91-1.067 1.12-0.667 3.19-1.201 4.95-1.067 1.11-0.268 1.91 0 2.39 0.799-0.16 0.4-2.23 1.201-2.55 1.866-0.32 0.268-0.8 1.467-0.8 1.467-0.64-0.132-2.07-2.132-2.55-1.866-0.96-0.132-1.44 0.533-2.08 0.933-0.48-0.265-1.91-0.799-1.27-1.065z"/>
    <path id="path174" style="stroke:#000000;stroke-width:.036;stroke-miterlimit:10;fill-rule:evenodd" d="m222.73 45.375c0-0.132 0.65-0.934 1.92-0.934 1.27-0.399 3.03-1.067 4.63-0.933 1.12-0.266 1.91 0.134 2.39 0.667-0.48 0.4-1.91 1.199-2.39 1.866-0.64 0.399-0.32 1.199-0.8 1.333-0.64-0.266-2.08-1.867-2.56-1.733-0.79-0.267-1.43 0.666-1.91 0.799-0.48-0.264-1.91-0.798-1.28-1.065z"/>
    <path id="path176" style="stroke:#000000;stroke-width:.036;stroke-miterlimit:10;fill-rule:evenodd" d="m221.62 48.442c-0.16-0.266 0 1.067 0.48 2.4 0.16 1.201 1.27 2.667 1.43 4.4-0.48 1.067-1.91 3.467-2.39 3.601-0.64-0.399-1.6-2.668-1.12-3.201-0.32-0.934 2.08 1.466 2.24 0.533 0-0.933-1.44-4.666-1.28-5.599-0.32-1.6 0.32-2.134 0.64-2.134z"/>
    <path id="path178" style="stroke:#000000;stroke-width:.036;stroke-miterlimit:10;fill-rule:evenodd" d="m216.51 62.975c-0.31-0.266 3.67 2.268 5.9 2.534 2.24-0.132 6.39-3.065 6.87-2.666-0.16 0.4-4.63 3.732-6.55 4.266-2.23-0.267-6.38-3.866-6.22-4.134z"/>
    <path id="path180" style="fill-rule:evenodd;fill:#a1a1a1" d="m205.34 53.242l3.51 16.667-5.9-11.466v-8.8c-0.64-6.934-0.96-12.801-1.6-17.069-1.27-4.799-3.35-8.8-1.91-9.465 1.6-0.934 8.46 6.001 11.33 5.867 2.07-0.534 2.23-6.534 3.51-6.668 0.96-0.132 0.64 6.269 3.99 6.269 3.03-0.801 11.97-8.001 14.52-8.267 1.59-0.133-3.99 4.932-1.92 7.466 1.92 2.134 12.93 4.534 14.52 7.201 1.28 2.4-0.48 5.2-5.9 7.867-0.96-4.534-4.15-7.735-8.3-9.068-5.27-1.867-13.88-3.733-18.51-0.399-4.47 3.331-6.7 9.598-7.34 19.865z"/>
    <path id="path182" style="fill-rule:evenodd;stroke:#000000;stroke-width:.036;stroke-miterlimit:10;fill:#ffffff" d="m190.98 85.777c2.72-3.067 10.21-6.4 10.21-6.4s-6.22-0.134-11.01 2.266c-4.78 2.534-6.38 4.934-8.29 7.334-1.76 2.533-2.72 4.934-2.87 7.601l-19.31 5.862c-1.44 1.34-2.08 3.34-1.92 5.47-0.16 2 0.48 4.54 1.92 7.6l15.79 2c6.39-5.07 10.06-7.47 11.01-7.2 0.48 0.27-6.54 6.8-6.38 8.8-0.32 1.33 6.06-0.13 5.59 1.2-0.64 1.07-3.99 3.33-9.42 6.27l-2.87 23.87 83.77-0.54c3.19-9.47 5.26-18.67 6.22-27.6 0.96-9.6 0.8-19.87-0.48-26.667-1.59-6.8-4.46-11.467-7.34-13.468-3.19-2.266-6.54-2.266-10.69 0-0.95 4-0.79 6.934 0.48 8.8 1.44 1.467 5.27-0.933 5.91 1.467-0.8 2.268-6.23 8.138-6.39 11.998 0.32 3.34 7.34 6.27 7.5 8.27-0.95 1.6-5.27 2-9.89 2.8-4.95 0.27-15-1.07-17.23 1.6-2.24 2.67 3.19 11.2 2.71 14.27-1.12 2.4-6.86 2.66-8.62 0.8-2.07-2.27-1.91-12.14-3.83-13.07-2.55-1.07-8.61 7.33-10.21 6.67-2.07-1.34 0.48-10.54-1.6-12.67-2.55-2.4-10.85-0.53-12.6-1.6-1.92-1.6-0.8-3.87 0.8-6.27 0.96-2.66 5.42-7.73 5.42-9.597-0.16-2.134-3.03-3.601-7.34-3.866 0 0.001-1.91-2.933 0.96-6z"/>
    <path id="path184" style="fill-rule:evenodd;stroke:#000000;stroke-width:.036;stroke-miterlimit:10;fill:#ffc080" d="m153.48 106.04c-3.18-1.06-6.22-2.39-9.09-4-3.19-2.263-7.5-4.929-8.62-6.395-0.79-1.6-0.31-2.268 2.08-2 1.91-0.134 6.54 2.534 8.93 2.799 1.12-0.533 0-3.067 1.6-2.399 1.6 0.667 3.99 3.067 7.82 7.195-0.8 1.6-1.76 3.2-2.72 4.8z"/>
    <path id="path186" style="stroke:#000000;stroke-width:.036;stroke-miterlimit:10;fill-rule:evenodd" d="m12.434 60.843l23.456 10.133-6.703-25.334 42.284 10.801-16.596-20.268 54.255 3.201-26.33-13.868 34.78-13.868-105.78-1.333 0.634 50.536z"/>
    <path id="path188" style="fill-rule:evenodd;stroke:#000000;stroke-width:.036;stroke-miterlimit:10;fill:#ffff00" d="m17.061 57.642l9.094 4.4-3.828-22.666 35.423 9.466-11.33-15.201 41.646 1.334-13.563-9.468 23.295-10.133-83.77-0.667 3.033 42.935z"/>
    <path id="path190" style="stroke:#000000;stroke-width:.036;stroke-miterlimit:10;fill-rule:evenodd" d="m291.51 229.38c1.43-0.8 3.67-1.46 6.06-1.46 2.39-0.54 5.27-0.54 7.98 0.53 2.39 0.93 5.42 3.07 6.54 5.33 0.48 1.74-0.8 4.94-2.07 6.54-1.44 1.6-4.32 2.26-6.23 2.53-2.23-0.13-4.62-0.93-7.18-2.4-2.55-1.87-5.26-3.73-8.14-7.07 0.96-1.33 1.92-2.66 3.04-4z"/>
    <path id="path192" style="fill-rule:evenodd;stroke:#000000;stroke-width:.036;stroke-miterlimit:10;fill:#ff0080" d="m293.26 229.65c3.03-0.8 5.75-1.07 8.14-0.8 2.39 0.13 4.15 0.8 5.9 2 1.6 0.8 3.19 2.8 3.51 4.53-0.48 1.34-2.23 4.54-3.99 5.47-2.23 0.53-4.14 1.07-6.38 0.13-2.71-1.06-5.74-3.33-7.34-4.66-1.75-1.34-2.71-2.4-2.87-3.2 0.96-1.07 1.91-2.27 3.03-3.47z"/>
    <path id="path194" style="stroke:#000000;stroke-width:.036;stroke-miterlimit:10;fill-rule:evenodd" d="m282.41 225.38c-1.28-1.2-2.23-2.93-2.87-4.66-1.12-1.87-1.44-4.94-0.96-6.67 0.32-2.67 2.55-5.33 4.95-6.4 1.91-1.07 6.06-0.53 8.13 0.53 1.76 0.67 3.52 2.54 4 4.54 0.48 1.6-0.16 3.73-1.28 6.4-1.44 2.4-3.67 5.06-6.7 8-1.76-0.54-3.51-1.07-5.27-1.74z"/>
    <path id="path196" style="fill-rule:evenodd;stroke:#000000;stroke-width:.036;stroke-miterlimit:10;fill:#ff0080" d="m282.41 224.05c-1.59-2.53-2.23-4.93-2.55-6.67-0.16-2 0-3.86 1.11-5.06 0.8-1.47 2.4-3.74 4.79-3.74 2.08-0.4 5.11 0.8 7.18 2.14 1.12 1.06 1.76 2.93 1.28 5.06-0.96 1.74-2.71 5.47-3.99 7.07-1.11 1.73-2.39 2.53-3.19 2.93-1.44-0.53-3.03-1.06-4.63-1.73z"/>
    <path id="path198" style="stroke:#000000;stroke-width:.036;stroke-miterlimit:10;fill-rule:evenodd" d="m281.93 229.12c-1.75 0.8-3.51 1.6-5.9 1.86-2.23 0.14-5.9 0.67-7.98 0-2.87-0.93-6.22-3.06-7.02-4.8-0.8-2.13-0.32-5.06 1.44-6.66 0.64-1.6 3.83-3.07 5.9-2.94 2.39 0 4.47 0.14 7.5 1.87 2.56 1.2 5.43 3.33 8.62 6.4-0.8 1.33-1.6 2.8-2.56 4.27z"/>
    <path id="path200" style="fill-rule:evenodd;stroke:#000000;stroke-width:.036;stroke-miterlimit:10;fill:#ff0080" d="m280.18 228.98c-3.03 0.94-5.91 1.2-7.98 1.34-2.39-0.27-4.63-0.8-6.06-1.6-2.08-1.07-3.99-2.67-3.99-4.27 0-2.14 1.12-4.53 3.35-5.73 1.28-1.2 3.99-1.2 6.38-0.54 2.07 0.14 5.9 3.07 7.82 4.14 1.75 0.93 3.03 2.26 3.19 2.93-0.8 1.2-1.76 2.4-2.71 3.73z"/>
    <path id="path202" style="stroke:#000000;stroke-width:.036;stroke-miterlimit:10;fill-rule:evenodd" d="m283.21 233.92c0.32 1.46-0.64 3.33-1.12 5.06-0.64 1.87-2.55 4-3.99 5.87-2.39 1.47-6.22 2.53-8.45 2.67-2.72-0.4-5.43-3.07-6.23-4.4-1.12-1.6-1.12-4.54 0-5.74 1.12-2 2.4-3.33 5.59-4.53 2.39-1.47 6.7-2.27 11.17-2.93 0.95 1.33 1.91 2.66 3.03 4z"/>
    <path id="path204" style="fill-rule:evenodd;stroke:#000000;stroke-width:.036;stroke-miterlimit:10;fill:#ff0080" d="m282.09 234.98c-0.48 2.67-1.59 4.67-2.71 6.54-1.28 1.46-2.55 2.66-4.47 3.6-2.23 0.8-4.62 1.2-6.54 0.66-2.23-1.06-3.83-3.86-4.15-5.33-0.16-1.87 0.48-3.47 2.56-4.8 1.75-1.73 5.74-2.93 8.3-3.6 1.91-0.8 3.66-1.07 4.62-0.8 0.8 1.2 1.59 2.4 2.39 3.73z"/>
    <path id="path206" style="stroke:#000000;stroke-width:.036;stroke-miterlimit:10;fill-rule:evenodd" d="m288.48 233.52c1.75 0.4 3.18 2 4.94 3.33 1.44 1.2 3.35 3.6 3.99 5.73 0.64 2.27-0.48 5.34-1.59 7.6-1.76 1.47-5.75 2.4-7.67 2.27-2.55-0.4-4.94-1.33-5.9-2.8-1.59-1.6-1.75-3.73-1.75-6.4s0.79-5.87 2.39-9.6c1.75 0 3.67 0 5.59-0.13z"/>
    <path id="path208" style="fill-rule:evenodd;stroke:#000000;stroke-width:.036;stroke-miterlimit:10;fill:#ff0080" d="m289.12 234.85c2.39 1.87 3.98 3.07 5.42 5.07 1.12 1.6 1.6 3.33 1.44 5.2-0.48 2-1.12 3.46-2.56 4.93-2.07 0.93-5.58 0.93-7.5 0.53-1.75-0.93-3.19-2.4-3.67-4.4-0.96-2.66 0.16-5.6 0.32-7.73s0.64-3.2 1.44-3.73c1.59 0 3.35 0 5.11 0.13z"/>
    <path id="path210" style="stroke:#000000;stroke-width:.036;stroke-miterlimit:10;fill-rule:evenodd" d="m288.8 226.32c-0.16-1.6 0.32-3.47 1.43-5.07 0.8-2.13 1.75-4.53 4.15-5.73 1.91-1.6 6.06-2.54 8.78-2.27 2.39 0.27 4.78 2.8 5.9 4.53 0.48 1.6 0.96 4-0.32 5.74-1.28 1.6-3.04 3.2-5.9 4.26-3.04 1.07-6.55 2.14-11.18 2.67-0.95-1.33-1.91-2.67-2.86-4.13z"/>
    <path id="path212" style="fill-rule:evenodd;stroke:#000000;stroke-width:.036;stroke-miterlimit:10;fill:#ff0080" d="m289.91 225.25c0.64-2.67 1.44-4.8 3.03-6.4 1.28-1.6 2.88-2.94 4.79-3.47 1.76-0.8 4.47-1.6 6.38-0.4 1.91 0.8 3.03 3.34 3.99 5.47-0.16 1.47-1.12 3.2-2.87 4.67-2.39 1.06-6.23 2.53-8.46 3.33-2.07 0.53-3.83 0.93-4.63 0.67-0.63-1.2-1.43-2.54-2.23-3.87z"/>
    <path id="path214" style="stroke:#000000;stroke-width:.036;stroke-miterlimit:10;fill-rule:evenodd" d="m285.55 224.15c4.49 0 8.14 2.51 8.14 5.6s-3.65 5.6-8.14 5.6-8.14-2.51-8.14-5.6 3.65-5.6 8.14-5.6"/>
    <path id="path216" style="fill-rule:evenodd;stroke:#000000;stroke-width:.036;stroke-miterlimit:10;fill:#ffff00" d="m285.02 224.46c3.52 0 6.38 1.97 6.38 4.4s-2.86 4.4-6.38 4.4c-3.53 0-6.38-1.97-6.38-4.4 0-2.42 2.85-4.4 6.38-4.4"/>
  </g>
  <metadata>
    <rdf:RDF>
      <cc:Work>
        <dc:format>image/svg+xml</dc:format>
        <dc:type rdf:resource="http://purl.org/dc/dcmitype/StillImage"/>
        <cc:license rdf:resource="http://creativecommons.org/licenses/publicdomain/"/>
        <dc:publisher>
          <cc:Agent rdf:about="http://openclipart.org/">
            <dc:title>Openclipart</dc:title>
          </cc:Agent>
        </dc:publisher>
        <dc:title>Creation Days Numbers</dc:title>
        <dc:date>2007-11-13T16:32:45</dc:date>
        <dc:description>The days of creation - completed originally to fulfill a request on the OpenClipart wiki.</dc:description>
        <dc:source>https://openclipart.org/detail/8226/creation-days-numbers-by-gerald_g-8226</dc:source>
        <dc:creator>
          <cc:Agent>
            <dc:title>Gerald_G</dc:title>
          </cc:Agent>
        </dc:creator>
        <dc:subject>
          <rdf:Bag>
            <rdf:li>adam</rdf:li>
            <rdf:li>cartoon</rdf:li>
            <rdf:li>creation</rdf:li>
            <rdf:li>eve</rdf:li>
            <rdf:li>god</rdf:li>
            <rdf:li>number</rdf:li>
            <rdf:li>religion</rdf:li>
          </rdf:Bag>
        </dc:subject>
      </cc:Work>
      <cc:License rdf:about="http://creativecommons.org/licenses/publicdomain/">
        <cc:permits rdf:resource="http://creativecommons.org/ns#Reproduction"/>
        <cc:permits rdf:resource="http://creativecommons.org/ns#Distribution"/>
        <cc:permits rdf:resource="http://creativecommons.org/ns#DerivativeWorks"/>
      </cc:License>
    </rdf:RDF>
  </metadata>
</svg>
