<?xml version="1.0" encoding="utf-8"?>
<!-- Generator: Adobe Illustrator 22.0.1, SVG Export Plug-In . SVG Version: 6.00 Build 0)  -->
<svg version="1.1" id="Layer_1" xmlns="http://www.w3.org/2000/svg" xmlns:xlink="http://www.w3.org/1999/xlink" x="0px" y="0px"
	 width="850.4px" height="850.4px" viewBox="0 0 850.4 850.4" style="enable-background:new 0 0 850.4 850.4;" xml:space="preserve"
	>
<style type="text/css">
	.st0{fill:#3792C1;}
	.st1{fill:#903490;}
	.st2{fill:#FFFFFF;}
	.st3{fill:#96C7C7;}
</style>
<g>
	<path class="st0" d="M623.8,233.5c26.6,17.9,49.2,44.7,64,68.5c-25.3,29.9-62.7,57.4-101.4,63.7c33.1,16.9,61.5,49.2,79,77.3
		c-23.4,27.6-57.1,53.2-92.7,61.9c30.7,17.5,56.9,47.8,73.4,74.3c-24.2,28.6-59.5,55-96.5,62.8c28.9,17.8,53.5,46.5,69.2,71.9
		c-33.5,39.6-88.2,74.9-139.2,62.5c5.1,35.5,8.3,73.7-33.1,68.8c-45.6-5.2-91.2-1.7-135.1-12.2c-28.2-6.9-59.1-38.2-50.7-70.6
		c7.3-27.2,42.8-38.2,50.1-66c0.6-1.2,84.5-287.3,79.9-312.2c-19.1-103.1-181.3-24.3-216.2,19.7c-5.1,6.3-11.3,9.8-18.6,9.8
		c-14.6,0-26.5-15.6-26.5-34.2c-6.3-61-6.6-122.4-1.2-183.5c-0.1-1.6-0.2-3.2-0.2-4.8c0-43.8,35.6-79.4,79.4-79.4
		c21.4,0,40.8,8.6,55.1,22.4c-1.5-7.1-2.3-14.5-2.3-22.1c0-58.6,47.7-106.3,106.3-106.3c2.3,0,4.6,0.1,6.8,0.2
		C417,2.7,454.4,10.7,484.3,26C519.3,7.1,565.1-1.5,619,6.8c5.4,27.7,5.9,59.4-1.5,87.8c36.3,15.5,67.6,50.6,86.4,80.8
		C683.3,199.8,654.7,222.5,623.8,233.5z"/>
	<path class="st1" d="M540,84c-28.3,0-53.2,14.9-67.2,37.2c0.3-3,0.4-6.1,0.4-9.2c0-58.6-47.7-106.3-106.3-106.3
		c-58.7,0-106.3,47.7-106.3,106.3c0,7.6,0.8,15,2.3,22.1c-14.3-13.8-33.7-22.4-55.1-22.4c-43.8,0-79.4,35.6-79.4,79.4
		c0,1.6,0.1,3.2,0.2,4.8c-5.4,61.1-5.1,122.5,1.2,183.5c0,18.5,11.8,34.2,26.5,34.2c7.3,0,13.5-3.5,18.6-9.8
		c34.9-44,197.1-122.8,216.2-19.7c4.5,24.9-79.4,311-79.9,312.2c-7.3,27.8-42.8,38.8-50.1,66c-8.5,32.4,22.5,63.7,50.7,70.6
		c43.9,10.4,89.5,7,135.1,12.2c63.1,7.5,22.5-85.1,29.8-115.8c28.8-116.3,97.5-400.9,116.2-506.7c16.3-14.6,26.6-35.7,26.6-59.2
		C619.3,119.6,583.7,84,540,84z M366.9,18.4c51.6,0,93.6,42,93.6,93.6c0,51.6-42,93.7-93.6,93.7c-51.6,0-93.7-42-93.7-93.7
		C273.2,60.4,315.2,18.4,366.9,18.4z M137.8,191.1c0-38.5,31.4-69.9,69.9-69.9c38.5,0,69.9,31.3,69.9,69.9
		c0,38.6-31.3,69.9-69.9,69.9C169.2,261,137.8,229.7,137.8,191.1z M375.3,802.9c-7,10.2-39.2,1.7-53.7-30.5
		c-14.5-32.3,0.5-62.1,12.8-60.5c12.3,1.6,19.1,22.1,28.1,42.1C371.4,774,382.2,792.7,375.3,802.9z M373.6,668.8
		c-12.1,2.6-29.7-25.7-18.1-59.1c11.6-33.4,43-44.7,50.9-35.2c7.8,9.6-1.3,29.2-8.5,49.9C390.6,645.1,385.7,666.1,373.6,668.8z
		 M409,403.4c11.6-33.4,43-44.7,50.8-35.2c7.9,9.6-1.3,29.2-8.5,49.9c-7.2,20.7-12.2,41.8-24.3,44.4
		C414.9,465.2,397.3,436.8,409,403.4z M453.9,704.5c-7.2,20.7-12.2,41.7-24.3,44.4c-12.1,2.6-29.7-25.7-18.1-59.1
		c11.6-33.4,43-44.7,50.9-35.2C470.3,664.2,461.2,683.8,453.9,704.5z M485,536.7c-7.2,20.7-12.2,41.8-24.3,44.4
		c-12.1,2.7-29.7-25.7-18.1-59.1c11.6-33.4,43-44.7,50.8-35.2C501.3,496.4,492.1,516,485,536.7z M396.6,330.5
		c-47.1,0-184.5-42.7-182.2-50.3c1.2-3.8,37.2,5.4,54.1,1.1c45.8-11.6,88-28.8,128-28.8s67.3,17.2,115.4,28.8
		c16.9,4.1,53.2-3.8,54.1-1.1C570.2,292.9,443,330.5,396.6,330.5z M540,233.2c-38.5,0-69.9-31.3-69.9-69.9
		c0-38.5,31.4-69.9,69.9-69.9c38.6,0,69.9,31.4,69.9,69.9C609.8,201.9,578.5,233.2,540,233.2z"/>
	<path class="st2" d="M609.8,163.3c0,38.6-31.3,69.9-69.9,69.9c-38.5,0-69.9-31.3-69.9-69.9c0-38.5,31.4-69.9,69.9-69.9
		C578.5,93.4,609.8,124.8,609.8,163.3z"/>
	<path class="st3" d="M539.2,130c-17.5,0-31.8,14.2-31.8,31.8s14.2,31.8,31.8,31.8s31.8-14.2,31.8-31.8S556.7,130,539.2,130z
		 M527.6,164.9c-5,0-9-4-9-9c0-5,4-9,9-9c5,0,9,4,9,9C536.5,160.9,532.5,164.9,527.6,164.9z"/>
	<path class="st2" d="M277.6,191.1c0,38.6-31.3,69.9-69.9,69.9c-38.5,0-69.9-31.3-69.9-69.9c0-38.5,31.4-69.9,69.9-69.9
		C246.2,121.3,277.6,152.6,277.6,191.1z"/>
	<path class="st3" d="M206.9,157.8c-17.5,0-31.8,14.2-31.8,31.8s14.2,31.8,31.8,31.8s31.8-14.2,31.8-31.8S224.5,157.8,206.9,157.8z
		 M195.3,192.7c-5,0-9-4-9-9c0-5,4-9,9-9c5,0,9,4,9,9C204.3,188.7,200.3,192.7,195.3,192.7z"/>
	<path class="st2" d="M460.5,112c0,51.6-42,93.7-93.6,93.7c-51.6,0-93.7-42-93.7-93.7c0-51.6,42-93.6,93.7-93.6
		C418.5,18.4,460.5,60.4,460.5,112z"/>
	<path class="st0" d="M365.8,67.4c-23.5,0-42.5,19-42.5,42.5s19,42.5,42.5,42.5c23.5,0,42.5-19,42.5-42.5S389.3,67.4,365.8,67.4z
		 M350.2,114.2c-6.7,0-12-5.4-12-12c0-6.7,5.4-12,12-12s12,5.4,12,12C362.3,108.8,356.9,114.2,350.2,114.2z"/>
	<g>
		<path class="st2" d="M396.6,330.5c-47.1,0-184.5-42.7-182.2-50.3c1.2-3.8,37.2,5.4,54.1,1.1c45.8-11.6,88-28.8,128-28.8
			s67.3,17.2,115.4,28.8c16.9,4.1,53.2-3.8,54.1-1.1C570.2,292.9,443,330.5,396.6,330.5z"/>
	</g>
	<path d="M412.5,329.4l3.6-26.3l-24.7,17l-23.7-18.4l2.1,26.1c-58.7-9.4-157.4-41.2-155.4-47.7c1.2-3.8,37.2,5.4,54.1,1.1
		c16.7-4.2,33-9.2,48.8-13.8l2.1,0.2l7.1,35.8l21.7-29.4l34.6,11.8l-13.6-31.1c9.2-1.5,18.3-2.3,27.3-2.3c11.2,0,21.4,1.3,31.4,3.5
		l-14.5,33l34.6-11.7l21.6,29.4l7.1-35.6c10.6,3.5,22.1,7.1,35.2,10.2c16.9,4.1,53.2-3.8,54.1-1.1
		C569.8,291.7,466.9,323.3,412.5,329.4z"/>
</g>
</svg>
