<svg width="257" height="596" xmlns="http://www.w3.org/2000/svg">
 <defs>
  <linearGradient x1="0.49986" y1="0" x2="0.49986" y2="1" id="imagebot_8">
   <stop stop-color="#f6ff3f" offset="0" id="imagebot_21"/>
   <stop stop-color="#363f00" offset="1" id="imagebot_20"/>
  </linearGradient>
  <linearGradient x1="0.50007" y1="0" x2="0.50007" y2="1" id="imagebot_6">
   <stop stop-color="#f6ff3f" offset="0" id="imagebot_19"/>
   <stop stop-color="#363f00" offset="1" id="imagebot_18"/>
  </linearGradient>
  <linearGradient x1="0.49996" y1="0" x2="0.49996" y2="1" id="imagebot_4">
   <stop stop-color="#f6ff3f" offset="0" id="imagebot_17"/>
   <stop stop-color="#363f00" offset="1" id="imagebot_16"/>
  </linearGradient>
 </defs>
 <g id="imagebot_2">
  <path stroke-width="5" stroke="#000000" fill-opacity="0" fill-rule="evenodd" d="M 61.60007444641567 571.5336613470316 C 68.75279691944097 485.70289247393606 75.9055193924663 399.8816276168823 83.05824186549164 314.0508587437868 C 84.95999547544693 255.99082474470137 86.93873161534044 197.94029476165773 88.917467755234 139.88026076257228 C 62.362296532964464 138.20755393922326 35.80712531069496 136.45881498754022 9.251003686821239 134.71007603585718 C 12.447204281663671 105.94617148548365 15.643404876506105 77.18416773831845 18.83865506974433 48.42216399115324 C 69.74216498938773 44.69373849797249 113.26200484619115 41.04229553472996 149.40482745138382 37.31387004154921 C 186.3089217415211 32.901155393362046 215.82839556721422 28.486539941966534 238.7330742278454 23.31350401043892 C 232.80256821778988 62.42253002226352 228.3832007583735 107.46681405216455 224.73365859833933 156.84492939710617 C 221.7684055933115 206.3038288784027 220.32379515496467 258.72798136472704 220.32379515496467 314.73514789879323 L 220.32379515496467 346.5355855745077 C 221.00808430997108 424.68710948586465 221.7684055933115 502.90516150951385 222.528726876652 581.123213533163 C 168.88806033698296 577.9203601270914 115.23788978127216 574.7270107370615 61.597223241603125 571.5336613470316 L 61.60007444641567 571.5336613470316 z" id="imagebot_12"/>
  <path transform="rotate(359.338 140.857 517.748) matrix(1 0 0 1 0.0141125 0.0189044)" stroke="#000000" stroke-width="0.036" stroke-miterlimit="10" fill-rule="evenodd" d="M 61.32666412624745 568.7019023580444 L 220.09834617860128 582.3721113063768 L 220.35287295498608 453.0619036205609 C 185.12212499039325 457.30401656030716 156.76359998818936 465.5443209457643 134.00466406645054 477.77221149458296 C 110.991201368327 489.98949676105224 96.81193886722508 510.71221847171273 84.5893509595811 526.1641148547386 C 72.36464199546727 541.4463267201746 64.72247553451434 555.2013779273019 61.32666412624745 568.7019023580444 z" id="imagebot_9"/>
  <path stroke="#000000" stroke-width="5" fill-opacity="0" fill-rule="evenodd" fill="url(#imagebot_8)" d="M 191.85649967193604 361.0075 C 193.54649967193603 334.7475 195.78649967193604 306.0075 198.58649967193602 272.9475 C 201.14649967193603 239.7975 204.27649967193602 204.4175 207.95649967193603 164.6275 L 171.12649967193605 156.8575 C 175.28649967193604 183.9975 178.57649967193603 209.9375 180.97649967193604 235.6375 C 183.13649967193604 260.8575 184.41649967193604 285.4375 185.13649967193604 309.6875 C 185.61649967193603 334.1075 185.53649967193604 357.5675 184.57649967193603 381.2675 C 186.97649967193604 374.5475 189.37649967193605 367.8175 191.85649967193604 361.0075 z" id="imagebot_7"/>
  <path stroke="#000000" stroke-width="5" fill-opacity="0" fill-rule="evenodd" fill="url(#imagebot_6)" d="M 173.68649967193605 384.3975 C 172.40649967193605 357.2575 170.64649967193603 329.1575 167.52649967193602 298.8975 C 164.24649967193602 268.4775 160.15649967193605 233.0875 155.59649967193604 203.5475 C 151.10649967193604 173.7675 145.98649967193603 146.8675 140.54649967193603 121.64750000000001 L 103.23649967193603 116.4375 C 113.64649967193604 140.8575 122.52649967193602 166.7175 130.21649967193605 195.2175 C 137.73649967193603 223.6375 143.34649967193604 251.09750000000003 148.86649967193603 285.9275 C 154.39649967193603 320.9075 159.11649967193603 358.8575 163.35649967193604 402.5675 C 166.80649967193602 396.5675 170.24649967193602 390.4875 173.68649967193605 384.3975 z" id="imagebot_5"/>
  <path transform="rotate(358.646 120.615 305.201)" stroke-width="5" stroke="#000000" fill-opacity="0" fill-rule="evenodd" fill="url(#imagebot_4)" d="M 154.08149967193603 409.44 C 147.91149967193604 363.4 139.82149967193604 321.37 129.18149967193602 280.86 C 118.53149967193603 240.19 105.96149967193604 203.52 90.82949967193603 168.38 L 87.14749967193603 266.85 C 103.72149967193603 309.84 116.05149967193603 345.07 124.45149967193603 374.69 C 132.86149967193603 404.07 136.70149967193603 426.01 136.94149967193604 442.02 C 142.63149967193604 431.21 148.31149967193605 420.32 154.08149967193603 409.44 z" id="imagebot_3"/>
  <title>imagebot_2</title>
 </g>
 <metadata>image/svg+xmlOpenclipartCreation Days Numbers2007-11-13T16:32:45The days of creation - completed originally to fulfill a request on the OpenClipart wiki.https://openclipart.org/detail/8220/creation-days-numbers-by-gerald_g-8220Gerald_Gadamcartooncreationevegodnumberreligionrequest+completedsource+wiki</metadata>
</svg>