<?xml version="1.0" encoding="utf-8"?>
<!-- Generator: Adobe Illustrator 22.0.1, SVG Export Plug-In . SVG Version: 6.00 Build 0)  -->
<svg version="1.1" id="Layer_1" xmlns="http://www.w3.org/2000/svg" xmlns:xlink="http://www.w3.org/1999/xlink" x="0px" y="0px"
	 width="850.4px" height="850.4px" viewBox="0 0 850.4 850.4" style="enable-background:new 0 0 850.4 850.4;" xml:space="preserve"
	>
<style type="text/css">
	.st0{fill:#F59639;}
	.st1{fill:#F26638;}
	.st2{fill:#FFFFFF;}
</style>
<path class="st0" d="M649.4,785.3l-43-6.3c-0.8-0.1-1.2,0.8-0.7,1.3l41.2,41.2c0.6,0.6-0.1,1.6-0.9,1.3l-33-14.4
	c-0.8-0.3-1.4,0.6-0.9,1.2l26,31.7c0.5,0.6-0.1,1.5-0.8,1.3L579.7,825c-24.8-7.5-50.7-10.2-76.5-8.4c-33.3,2.4-66.7,3.2-100.1,2.3
	c-16.1-0.4-32.1,0.9-47.8,4l-37.5,7.5L235.8,846c-0.7,0.1-1.2-0.7-0.8-1.3l26.3-32c0.5-0.6-0.2-1.5-0.9-1.2l-33,14.4
	c-0.8,0.3-1.5-0.6-0.9-1.3l41.2-41.2c0.5-0.5,0.1-1.4-0.7-1.3l-43.6,6.4c-0.8,0.1-1.3-1-0.5-1.4l89.7-51.8c5.7-3.3,12-5.1,18.5-5.3
	c1.9,0,3.5-1.6,3.5-3.6V317.5l-20.9,7.7c-35.2,12.6-61.5-43.4-51.1-70.3c4.9-12.6,14.8-22.5,26.4-30.8c6.8-5.2,16.4-11.3,27.8-17.7
	c-0.5-4.2-0.8-8.4-0.8-12.6c0-22.9,7.1-44.2,19.2-61.9c-3.9-26.3,1.7-55.7,9.6-77.8c24.6,0.8,52.1,7.3,73.3,21
	c8.3-45.7,65.6-66,106-70.3c9.8,21.9,15.8,48.8,13.2,73.3c26.4-1.3,55.1,7.1,76.3,17.1c-3.5,27.2-14.5,57.3-33.7,77.3
	c23.1,14.4,42.1,39.1,53.6,60.3c-12.4,13-28.1,25.1-45.2,33.3c16,10,30.2,23.1,40.9,35.3c-15.4,25.5-40.4,50.6-68.8,59.6
	c18.4,10.4,35,25.2,46.9,39c-12.5,20.7-31.4,41.1-53.2,52.9c6.4,5.7,12.2,11.7,17.2,17.5c-11.7,19.3-28.8,38.3-48.7,50.3v205.8
	c0,1.8,1.3,3.3,3.1,3.6l19.2,2.5c4.5,0.6,8.9,1.9,13,4l92,47.2C650.7,784.3,650.3,785.5,649.4,785.3z"/>
<path class="st1" d="M649.9,783.9l-92-47.2c-4.1-2.1-8.4-3.4-13-4l-19.2-2.5c-1.8-0.2-3.1-1.8-3.1-3.6V333.5
	c0-34.9,4-70.3,6.8-105.2c3.6-10.9,5.6-22.5,5.6-34.6c0-60.4-49.1-109.5-109.5-109.5c-60.4,0-109.5,49.1-109.5,109.5
	c0,4.3,0.3,8.5,0.8,12.6c-11.4,6.4-20.9,12.6-27.8,17.7c-11.5,8.3-21.4,18.1-26.4,30.8c-10.5,26.9,15.9,83,51.1,70.3l20.9-7.7v408.9
	c0,2-1.6,3.6-3.5,3.6c-6.5,0.2-12.9,2-18.5,5.3l-89.7,51.8c-0.8,0.4-0.3,1.6,0.5,1.4l43.6-6.4c0.8-0.1,1.2,0.8,0.7,1.3l-41.2,41.2
	c-0.6,0.6,0.1,1.6,0.9,1.3l33-14.4c0.7-0.3,1.4,0.6,0.9,1.2l-26.3,32c-0.5,0.6,0,1.4,0.8,1.3l81.9-15.5l37.5-7.5
	c15.7-3.1,31.8-4.4,47.8-4c33.4,0.8,66.8,0.1,100.1-2.3c25.8-1.9,51.8,0.8,76.5,8.4l57.7,17.5c0.7,0.2,1.3-0.7,0.8-1.3l-26-31.7
	c-0.5-0.6,0.2-1.5,0.9-1.2l33,14.4c0.8,0.3,1.5-0.6,0.9-1.3l-41.2-41.2c-0.5-0.5-0.1-1.4,0.7-1.3l43,6.3
	C650.3,785.5,650.7,784.3,649.9,783.9z M328.6,193.7c0-53.5,43.5-97,97-97c53.5,0,97,43.5,97,97c0,53.5-43.5,97-97,97
	C372.1,290.7,328.6,247.2,328.6,193.7z M415.9,441.3c-1.2-9.1,10.2-13.3,17.8-13.6c17.2-0.8,32.7,10.5,41.2,23
	c8.3,12.2,13.6,31.4,5.8,46.7c-3.8,7.5-12.4,15.5-20.9,10.5c-10.2-6-18.4-21.9-24.5-32.2C429.3,465.4,417.5,452.6,415.9,441.3z
	 M422.1,581.1c-11.6,10-28.8,10.5-41.5,6.4c-12.5-4-26.7-14.6-29.6-29.6c-1.4-7.4,0.2-17.6,8.9-18.8c10.5-1.4,24.9,5.3,34.9,9.2
	c9.7,3.9,25.1,6.4,32.3,13.5C433,567.6,427.2,576.8,422.1,581.1z M428.4,400.2c-41,0-74.3-19.3-74.3-43.1c0-14.7,12-18.1,30.7-18.6
	c8.2-0.2,17.7,0.1,28.2,0.4c2.4,0,4.8,0.1,7.3,0.1c2,0.1,4.1,0.1,6.2,0.1c7.6,0,15-0.2,22-0.3c1.1,0,2.1-0.1,3.1-0.1
	c10.6-0.2,20.2-0.3,28.2,0.6c14,1.5,22.9,6,22.9,18C502.7,380.9,469.5,400.2,428.4,400.2z M365.1,776.8
	c-4.8,14.5-19.2,23.8-32.3,26.8c-12.8,3-30.4,1.2-40.6-10.2c-5-5.6-8.9-15.2-2-20.7c8.3-6.6,24.1-8.3,34.6-10
	c10.3-1.7,24.8-7.4,34.6-5.1C367.5,759.6,367.3,770.5,365.1,776.8z M441.1,718.3c-4.2,8.3-13.7,17.2-23.2,11.6
	c-11.4-6.7-20.5-24.3-27.3-35.8c-6.6-11.3-19.8-25.5-21.5-38c-1.4-10.1,11.4-14.7,19.7-15.1c19.1-0.9,36.4,11.6,45.8,25.5
	C443.9,680,449.8,701.3,441.1,718.3z M481.5,631.5c-5.9,5.8-14.9-0.2-19.2-5.4c-9.8-11.8-10-29-5.6-41.6c4.3-12.4,15.1-26.4,30.2-29
	c7.4-1.3,17.6,0.6,18.6,9.3c1.2,10.5-5.8,24.8-9.9,34.6C491.6,609.1,488.7,624.4,481.5,631.5z M572.3,791
	c-11.6,10-28.8,10.5-41.5,6.4c-12.5-4-26.7-14.6-29.6-29.6c-1.4-7.4,0.2-17.6,8.9-18.8c10.5-1.4,24.9,5.3,34.9,9.2
	c9.8,3.8,25.1,6.4,32.3,13.5C583.2,777.4,577.4,786.6,572.3,791z"/>
<path class="st2" d="M428.4,400c-41,0-74.3-19.3-74.3-43.1c0-14.7,12-18.1,30.7-18.6c8.2-0.2,17.7,0.1,28.2,0.4
	c2.4,0,4.8,0.1,7.3,0.1c2,0.1,4.1,0.1,6.2,0.1c7.6,0,15-0.2,22-0.3c1.1,0,2.1-0.1,3.1-0.1c10.6-0.2,20.2-0.3,28.2,0.6
	c14,1.5,22.9,6,22.9,18C502.6,380.7,469.4,400,428.4,400z"/>
<path d="M502.6,356.9c0,23.8-33.3,43.1-74.3,43.1c-41,0-74.3-19.3-74.3-43.1c0-13.6,10.2-17.6,26.6-18.5v16.4
	c0,7.8,6.4,14.1,14.1,14.1c7.8,0,14.1-6.3,14.1-14.1v-16.2c1.3,0,2.7,0.1,4.1,0.1c1.1,0,2.1,0,3.2,0.1v8.8c0,7.7,6.3,14.1,14.1,14.1
	c7.7,0,14.1-6.4,14.1-14.1v-8.9c1.1,0,2.1-0.1,3.1-0.1v16.3c0,7.8,6.3,14.1,14.1,14.1c7.7,0,14.1-6.3,14.1-14.1v-16.2
	c1.4,0.1,2.8,0.2,4.1,0.4C493.8,340.5,502.6,345,502.6,356.9z"/>
<path class="st2" d="M522.6,193.7c0,53.5-43.5,97-97,97c-53.5,0-97-43.5-97-97c0-53.5,43.5-97,97-97
	C479.1,96.7,522.6,140.2,522.6,193.7z"/>
<path class="st0" d="M425.6,149.8c-24.3,0-44,19.7-44,43.9c0,24.3,19.7,43.9,44,43.9c24.2,0,43.9-19.7,43.9-43.9
	C469.5,169.5,449.8,149.8,425.6,149.8z M409.5,198.1c-6.9,0-12.5-5.6-12.5-12.5c0-6.9,5.6-12.4,12.5-12.4c6.9,0,12.4,5.6,12.4,12.4
	C421.9,192.5,416.3,198.1,409.5,198.1z"/>
</svg>
