<svg width="339" height="586" xmlns="http://www.w3.org/2000/svg">

 <g>
  <title>Layer 1</title>
  <path stroke-width="10" stroke="#000000" fill-opacity="0" fill-rule="evenodd" d="M 133.3488002204895 364.12900015354154 C 132.8988002204895 384.59900015354157 132.4388002204895 405.1490001535416 131.97880022048952 425.68900015354154 C 156.1088002204895 428.8890001535416 180.2988002204895 432.0790001535416 204.5088002204895 435.2790001535416 C 205.8788002204895 416.6390001535416 207.2388002204895 397.91900015354156 208.6088002204895 379.1990001535416 C 183.5788002204895 374.17900015354155 158.4688002204895 369.1490001535416 133.3488002204895 364.12900015354154 z M 151.0888002204895 245.03900015354156 C 163.2588002204895 232.25900015354156 170.7188002204895 226.08900015354158 183.9588002204895 220.45900015354155 C 197.1988002204895 214.06900015354157 194.7588002204895 213.15900015354157 210.2088002204895 213.15900015354157 C 244.9888002204895 213.15900015354157 273.6788002204895 227.38900015354156 296.27880022048953 255.08900015354158 C 318.9488002204895 282.85900015354156 329.9888002204895 319.7690001535416 329.9888002204895 365.2690001535416 C 329.9888002204895 429.2690001535416 316.2088002204895 479.0290001535416 288.0588002204895 515.2590001535416 C 260.4388002204895 552.2390001535416 221.8488002204895 570.0490001535416 172.1588002204895 570.0490001535416 C 140.1988002204895 570.0490001535416 112.0488002204895 561.5190001535416 86.6318002204895 544.4790001535416 C 61.8238002204895 527.3590001535416 42.4948002204895 503.91900015354156 28.722800220489503 474.0890001535416 C 22.102800220489502 458.40900015354157 16.547800220489503 435.65900015354157 12.743800220489502 405.8290001535416 C 8.862300220489502 375.92900015354155 6.656000220489502 341.1490001535416 6.656000220489502 302.7190001535416 C 6.656000220489502 201.81900015354157 21.0380002204895 126.40900015354157 49.725000220489505 76.63900015354156 C 77.80600022048951 26.19000015354157 120.8690002204895 1.3070001535415647 178.24500022048952 1.3070001535415647 C 221.8450002204895 1.306500153541565 256.01500022048947 16.983000153541564 280.8250002204895 48.258000153541566 C 305.7050002204895 78.77200015354157 318.4150002204895 122.14900015354158 318.4150002204895 176.93800015354157 C 288.4350002204895 178.30800015354157 258.4550002204895 179.74800015354157 228.46500022048951 181.19800015354156 C 227.9350002204895 161.02800015354157 227.4050002204895 140.86800015354157 226.7950002204895 120.69800015354157 C 201.6050002204895 116.89800015354156 176.3450002204895 113.08800015354157 151.0850002204895 109.28800015354156 L 151.0850002204895 245.03800015354156 L 151.0888002204895 245.03900015354156 z" id="imagebot_73"/>
  <path fill-opacity="0" stroke="#000000" stroke-width="4" stroke-miterlimit="10" fill-rule="evenodd" d="M 125.1728000831604 561.4830002021789 C 122.1328000831604 560.183000202179 119.2428000831604 557.6030002021789 116.5028000831604 553.7230002021789 C 113.5328000831604 549.4530002021789 107.5228000831604 541.393000202179 108.7428000831604 537.7430002021789 C 110.1128000831604 534.013000202179 114.9828000831604 532.033000202179 124.1828000831604 531.803000202179 C 121.5228000831604 523.053000202179 121.5228000831604 518.413000202179 124.1828000831604 517.273000202179 C 126.85280008316039 516.283000202179 132.1728000831604 518.793000202179 140.1628000831604 525.413000202179 C 132.7828000831604 518.413000202179 128.9828000831604 513.2330002021789 128.7528000831604 509.05300020217896 C 128.3728000831604 504.86300020217897 131.5628000831604 502.12300020217896 138.3428000831604 500.83300020217894 C 137.5828000831604 500.14300020217894 138.3428000831604 498.62300020217896 140.6228000831604 496.26300020217894 C 142.8328000831604 493.52300020217893 148.5328000831604 485.76300020217894 151.5828000831604 486.223000202179 C 154.2428000831604 486.68300020217896 156.0728000831604 491.0930002021789 157.0628000831604 499.46300020217893 C 166.8028000831604 495.12300020217896 172.5828000831604 494.06300020217896 174.4128000831604 496.26300020217894 C 176.2328000831604 498.32300020217895 174.1028000831604 503.64300020217894 168.0128000831604 512.2430002021789 C 177.8328000831604 510.80300020217896 183.6928000831604 511.71300020217893 185.2928000831604 514.9830002021789 S 184.3028000831604 523.433000202179 177.5328000831604 531.3430002021789 C 185.0628000831604 529.293000202179 189.7828000831604 530.9630002021789 191.6828000831604 536.3730002021789 C 193.5828000831604 541.6230002021789 192.6728000831604 550.5930002021789 188.9428000831604 563.303000202179 C 184.3028000831604 565.9730002021789 176.9228000831604 567.183000202179 166.1928000831604 566.9630002021789 C 155.4628000831604 566.5830002021789 141.9928000831604 564.753000202179 125.1728000831604 561.4830002021789 z" id="imagebot_68"/>
  <path stroke="#000000" stroke-width="0.03496" stroke-miterlimit="10" fill-rule="evenodd" d="M 145.1128000831604 560.643000202179 C 142.2228000831604 559.883000202179 140.1628000831604 558.433000202179 138.6428000831604 555.693000202179 C 136.9728000831604 552.883000202179 136.1328000831604 549.303000202179 135.8328000831604 544.663000202179 C 139.1028000831604 543.063000202179 141.7628000831604 542.683000202179 144.4328000831604 544.3630002021789 C 147.0128000831604 545.803000202179 149.0728000831604 548.923000202179 150.8928000831604 553.7230002021789 C 148.0828000831604 550.753000202179 145.8728000831604 549.073000202179 143.9728000831604 548.393000202179 C 142.0728000831604 547.7030002021789 140.4728000831604 548.013000202179 139.4828000831604 549.6130002021789 C 140.2428000831604 551.3630002021789 140.8528000831604 553.033000202179 141.9128000831604 554.943000202179 C 142.8328000831604 556.683000202179 143.8928000831604 558.5830002021789 145.1128000831604 560.643000202179 z" id="imagebot_65"/>
  <path stroke="#000000" stroke-width="0.03496" stroke-miterlimit="10" fill-rule="evenodd" d="M 146.0228000831604 554.173000202179 C 144.7328000831604 551.433000202179 144.8128000831604 548.923000202179 145.9528000831604 546.033000202179 C 147.2428000831604 543.143000202179 149.2228000831604 540.253000202179 153.0228000831604 537.053000202179 C 156.4528000831604 538.423000202179 158.2028000831604 540.7030002021789 158.5828000831604 543.5930002021789 C 158.9628000831604 546.643000202179 157.6728000831604 549.913000202179 155.0028000831604 554.553000202179 C 155.6928000831604 550.5930002021789 155.6128000831604 547.783000202179 155.0828000831604 545.803000202179 C 154.3928000831604 543.903000202179 153.2528000831604 542.8330002021789 151.3528000831604 542.913000202179 C 150.3628000831604 544.3530002021789 149.4528000831604 546.183000202179 148.6128000831604 548.0830002021789 C 147.6228000831604 549.8430002021789 146.8628000831604 551.9630002021789 146.0228000831604 554.173000202179 z" id="imagebot_64"/>
  <path stroke="#000000" stroke-width="0.03496" stroke-miterlimit="10" fill-rule="evenodd" d="M 151.5828000831604 554.323000202179 C 152.4128000831604 551.663000202179 154.3928000831604 549.6130002021789 157.2128000831604 548.4730002021789 C 159.9528000831604 547.253000202179 163.8328000831604 546.643000202179 168.5528000831604 546.943000202179 C 169.8428000831604 550.443000202179 169.6128000831604 553.1130002021789 167.8628000831604 555.543000202179 C 165.9628000831604 557.8330002021789 162.6928000831604 559.503000202179 157.7428000831604 560.8730002021789 C 161.0128000831604 558.433000202179 162.7628000831604 556.4630002021789 163.8328000831604 554.633000202179 C 164.7428000831604 552.7330002021789 164.4428000831604 551.283000202179 163.2228000831604 549.9930002021789 C 161.3928000831604 550.4530002021789 159.4228000831604 551.053000202179 157.5928000831604 551.813000202179 C 155.5428000831604 552.503000202179 153.6328000831604 553.3330002021789 151.5828000831604 554.323000202179 z" id="imagebot_63"/>
  <path stroke-width="2" stroke="#000000" fill-opacity="0" fill-rule="evenodd" d="M 101.24280007123947 361.27300020217893 C 100.02280007123947 346.74300020217896 100.78280007123948 335.17300020217897 103.83280007123948 326.27300020217893 C 106.72280007123948 317.36300020217897 111.89280007123948 311.353000202179 119.04280007123947 308.23300020217897 C 121.02280007123947 292.63300020217895 121.40280007123947 280.913000202179 119.88280007123947 272.24300020217896 C 118.13280007123947 263.49300020217896 112.27280007123947 264.55300020217896 110.22280007123948 256.64300020217894 C 108.24280007123947 248.42300020217897 109.92280007123946 231.00300020217895 108.47280007123948 225.21300020217896 C 106.80280007123947 219.81300020217896 104.44280007123947 222.85300020217895 100.55280007123947 223.46300020217896 C 96.29580007123947 223.77300020217896 87.69780007123947 227.57300020217895 84.73080007123947 226.96300020217896 C 81.76080007123947 226.05300020217896 80.01180007123948 223.84300020217896 83.89480007123947 218.59300020217896 C 87.62280007123947 213.11300020217897 95.53580007123948 205.05300020217896 107.63280007123947 194.39300020217897 L 108.70280007123947 184.81300020217896 C 106.19280007123947 183.59300020217896 105.05280007123947 182.14300020217897 104.97280007123948 180.17300020217897 C 104.82280007123947 177.96300020217896 106.95280007123947 173.70300020217894 108.47280007123948 172.93300020217896 C 109.69280007123947 172.10300020217895 111.59280007123947 173.09300020217896 113.34280007123947 175.60300020217895 C 116.31280007123947 175.07300020217895 118.21280007123947 175.37300020217896 119.66280007123947 176.21300020217896 C 120.95280007123947 176.89300020217897 121.79280007123947 178.87300020217896 121.25280007123948 180.39300020217897 C 120.57280007123947 181.91300020217895 118.67280007123946 183.36300020217897 115.55280007123947 185.03300020217895 L 116.16280007123947 194.24300020217896 C 121.63280007123947 196.98300020217894 125.36280007123946 200.33300020217897 127.65280007123948 204.59300020217896 C 129.77280007123946 208.62300020217896 129.77280007123946 213.80300020217896 129.40280007123948 219.28300020217895 C 128.94280007123947 224.45300020217894 123.76280007123947 229.17300020217897 124.98280007123947 236.70300020217894 C 126.05280007123946 244.16300020217895 131.76280007123947 258.24300020217896 135.94280007123947 263.94300020217895 C 139.82280007123947 269.12300020217896 141.65280007123948 267.52300020217893 148.50280007123948 269.43300020217896 C 155.34280007123948 271.17300020217897 169.04280007123947 269.80300020217896 176.42280007123946 275.5930002021789 C 183.58280007123946 281.223000202179 188.37280007123948 290.353000202179 191.11280007123946 303.293000202179 C 193.62280007123948 304.81300020217896 196.51280007123947 305.043000202179 199.48280007123947 304.58300020217894 C 202.45280007123947 303.82300020217895 206.18280007123948 302.223000202179 208.92280007123946 299.793000202179 C 211.50280007123948 297.12300020217896 213.33280007123946 293.70300020217894 214.70280007123947 289.21300020217893 C 210.44280007123947 284.26300020217894 209.83280007123946 280.913000202179 212.26280007123947 278.02300020217893 C 214.70280007123947 275.21300020217893 220.48280007123947 273.533000202179 229.61280007123946 272.70300020217894 C 230.98280007123947 280.46300020217893 230.83280007123946 285.63300020217895 229.16280007123947 288.52300020217893 C 227.33280007123946 291.3430002021789 224.13280007123947 291.80300020217896 219.26280007123947 289.89300020217894 C 217.82280007123947 298.19300020217895 214.70280007123947 304.50300020217895 209.60280007123947 309.45300020217894 C 204.43280007123948 314.24300020217896 197.58280007123946 317.293000202179 188.75280007123948 318.89300020217894 C 189.43280007123948 328.86300020217897 189.59280007123948 338.293000202179 188.90280007123948 346.89300020217894 C 188.22280007123948 355.56300020217896 186.09280007123948 368.88300020217895 184.56280007123948 370.40300020217893 C 182.81280007123948 371.543000202179 180.22280007123948 362.49300020217896 178.86280007123946 354.353000202179 C 177.33280007123946 345.98300020217897 176.12280007123948 334.87300020217896 175.51280007123947 320.71300020217893 C 170.41280007123947 326.12300020217896 166.53280007123948 331.82300020217895 163.87280007123948 338.14300020217894 C 161.13280007123947 344.23300020217897 160.44280007123947 354.73300020217897 158.84280007123948 357.92300020217897 C 156.94280007123947 361.043000202179 152.53280007123948 360.973000202179 152.68280007123948 356.55300020217896 C 152.68280007123948 351.76300020217894 154.81280007123948 342.86300020217897 159.07280007123947 329.543000202179 C 150.85280007123947 324.14300020217894 145.07280007123947 321.93300020217896 141.42280007123946 322.08300020217894 C 137.61280007123946 322.08300020217894 138.98280007123947 327.033000202179 137.31280007123948 331.06300020217896 C 135.33280007123946 335.02300020217893 132.21280007123949 341.26300020217894 131.15280007123948 346.89300020217894 C 130.08280007123946 352.44300020217895 132.21280007123949 364.24300020217896 131.07280007123947 364.62300020217896 C 129.77280007123946 364.543000202179 124.60280007123947 355.33300020217894 123.46280007123947 348.413000202179 C 122.17280007123946 341.413000202179 122.39280007123948 333.27300020217893 123.84280007123947 323.38300020217895 C 121.02280007123947 319.80300020217896 118.89280007123948 318.89300020217894 116.61280007123948 320.94300020217895 C 114.33280007123948 322.92300020217897 112.05280007123947 328.17300020217897 110.68280007123947 335.25300020217895 C 109.08280007123948 342.103000202179 108.77280007123947 358.30300020217896 107.40280007123947 362.723000202179 C 105.73280007123947 366.98300020217897 103.67280007123946 366.603000202179 101.24280007123947 361.27300020217893 z" id="imagebot_57"/>
  <path fill-opacity="0" fill-rule="evenodd" stroke="#000000" stroke-width="2" stroke-miterlimit="10" fill="#ad4200" d="M 120.2628000831604 286.70300020217894 C 122.7728000831604 286.70300020217894 124.67280008316041 287.31300020217896 126.57280008316039 288.223000202179 C 128.3328000831604 289.06300020217896 131.0728000831604 290.20300020217894 130.9928000831604 291.95300020217894 C 130.4628000831604 293.32300020217895 126.73280008316041 296.283000202179 124.82280008316039 297.65300020217893 C 122.85280008316039 299.02300020217893 121.1728000831604 299.56300020217896 119.8028000831604 299.86300020217897 C 119.9528000831604 295.52300020217893 120.1128000831604 291.11300020217897 120.2628000831604 286.70300020217894 z" id="imagebot_54"/>
  <path fill-opacity="0" fill-rule="evenodd" stroke="#000000" stroke-width="2" stroke-miterlimit="10" fill="#ad4200" d="M 133.12280007123948 262.46300020217893 C 131.68280007123948 267.40300020217893 131.68280007123948 271.13300020217895 133.12280007123948 273.64300020217894 C 134.34280007123948 276.08300020217894 138.15280007123948 277.90300020217893 141.04280007123947 277.37300020217896 C 143.85280007123947 276.68300020217896 146.59280007123948 273.87300020217896 149.56280007123948 269.23300020217897 C 146.67280007123946 268.853000202179 144.01280007123947 268.473000202179 141.27280007123946 267.25300020217895 C 138.37280007123948 266.033000202179 135.94280007123947 264.43300020217896 133.12280007123948 262.46300020217893 z" id="imagebot_53"/>
  <path fill-opacity="0" fill-rule="evenodd" stroke="#000000" stroke-width="2" stroke-miterlimit="10" fill="#ad4200" d="M 171.64152013778687 277.6954800796509 C 169.20152013778687 278.3854800796509 167.60152013778688 279.67548007965087 166.84152013778686 281.8854800796509 C 165.85152013778688 283.93548007965086 164.86152013778687 288.80548007965086 166.84152013778686 290.6354800796509 C 168.82152013778688 292.31548007965085 172.78152013778686 292.99548007965086 178.71152013778686 292.3854800796509 C 178.79152013778688 288.8854800796509 178.26152013778687 286.06548007965085 177.12152013778686 283.6354800796509 C 175.90152013778686 281.12548007965086 174.07152013778688 279.1454800796509 171.64152013778687 277.6954800796509 z" id="imagebot_52"/>
  <path fill-opacity="0" stroke="#000000" stroke-width="2" stroke-miterlimit="10" fill-rule="evenodd" d="M 137.4852799606323 299.94996022701264 C 136.56527996063232 301.9199602270126 138.0152799606323 305.79996022701266 140.06527996063232 308.0899602270126 C 141.66527996063232 309.9199602270126 145.24527996063233 313.1099602270126 148.43527996063233 312.7299602270126 C 151.78527996063232 312.11996022701265 158.02527996063233 308.61996022701265 159.24527996063233 306.3399602270126 C 160.00527996063232 304.04996022701266 155.81527996063232 301.31996022701264 153.68527996063233 299.55996022701265 C 151.10527996063232 297.88996022701264 148.5152799606323 295.29996022701266 145.62527996063233 295.6099602270126 C 142.65527996063233 295.75996022701264 138.47527996063232 297.50996022701264 137.4852799606323 299.94996022701264 z" id="imagebot_51"/>
  <path fill-opacity="0" stroke="#000000" stroke-width="2" stroke-miterlimit="10" fill-rule="evenodd" d="M 174.58352005004883 302.02764021873475 C 172.60352005004881 301.1876402187347 169.71352005004883 303.84764021873474 168.87352005004882 306.20764021873475 C 167.65352005004883 308.26764021873475 167.35352005004881 313.96764021873474 169.10352005004881 314.8076402187347 C 170.77352005004883 315.4876402187347 178.84352005004882 312.90764021873474 179.83352005004883 310.85764021873473 C 180.51352005004884 308.56764021873477 176.40352005004883 302.78764021873474 174.58352005004883 302.02764021873475 z" id="imagebot_49"/>
  <path stroke="#000000" stroke-width="0.03496" stroke-miterlimit="10" fill-rule="evenodd" d="M 110.7928000831604 203.45300020217894 C 109.4228000831604 202.99300020217896 105.3128000831604 206.26300020217894 105.7728000831604 207.40300020217896 C 106.1528000831604 208.39300020217897 111.6328000831604 210.37300020217896 112.7728000831604 209.84300020217896 C 113.4528000831604 209.00300020217895 112.0128000831604 203.83300020217897 110.7928000831604 203.45300020217894 z" id="imagebot_46"/>
  <path fill-opacity="0" stroke="#000000" stroke-width="2" stroke-miterlimit="10" fill-rule="evenodd" d="M 21.6098000831604 360.08700025081635 C 15.066800083160402 360.39700025081635 10.8048000831604 361.76700025081635 7.987800083160401 364.19700025081636 C 5.326400083160401 366.47700025081633 4.412600083160401 365.94700025081636 5.248700083160401 374.62700025081637 C 5.5537000831604 383.37700025081637 8.599800083160401 408.02700025081634 11.183800083160401 415.71700025081634 C 13.619800083160401 423.01700025081635 16.7418000831604 424.08700025081635 20.2428000831604 418.90700025081634 L 22.066800083160402 459.9270002508163 L 60.4198000831604 456.72700025081633 L 54.4828000831604 419.3670002508163 C 58.8968000831604 422.40700025081634 62.0938000831604 422.1070002508163 64.0708000831604 418.45700025081635 C 65.8978000831604 414.64700025081635 65.1368000831604 404.75700025081636 65.8978000831604 396.99700025081637 C 66.5838000831604 388.62700025081637 70.0058000831604 376.59700025081634 67.6488000831604 370.58700025081635 C 64.9078000831604 364.65700025081634 59.428800083160404 361.76700025081635 50.3758000831604 361.91700025081633 C 56.3868000831604 342.88700025081636 58.2118000831604 329.34700025081634 55.8548000831604 320.43700025081637 C 53.495800083160404 311.53700025081633 42.1558000831604 309.1070002508163 36.2228000831604 309.02700025081634 C 29.904800083160403 308.7970002508163 22.1438000831604 313.89700025081635 19.4048000831604 318.99700025081637 C 16.6648000831604 323.78700025081633 19.7098000831604 331.70700025081635 20.316800083160402 338.62700025081637 C 20.6208000831604 345.62700025081637 21.1528000831604 352.40700025081634 21.6098000831604 360.08700025081635 z" id="imagebot_43"/>
  <path fill="#ffffff" stroke="#000000" stroke-width="2" stroke-miterlimit="10" fill-rule="evenodd" d="M 66.8098000831604 369.49300020217896 C 60.3428000831604 369.793000202179 55.7778000831604 371.163000202179 53.114800083160404 373.603000202179 C 50.4498000831604 375.80300020217896 49.5358000831604 375.50300020217895 50.3748000831604 384.103000202179 C 50.678800083160404 392.70300020217894 53.7218000831604 417.43300020217896 56.3088000831604 425.11300020217897 C 58.742800083160404 432.42300020217897 61.7878000831604 433.48300020217897 65.4408000831604 428.31300020217896 L 67.2678000831604 469.33300020217894 L 105.5428000831604 466.20300020217894 L 99.6028000831604 428.76300020217894 C 104.0228000831604 431.81300020217896 107.2128000831604 431.50300020217895 109.1928000831604 427.853000202179 C 111.0228000831604 423.973000202179 110.2628000831604 414.38300020217895 111.0228000831604 406.473000202179 C 111.5528000831604 398.18300020217896 115.2828000831604 385.92300020217897 112.8528000831604 379.99300020217896 C 110.1828000831604 374.05300020217896 104.4028000831604 371.163000202179 95.4998000831604 371.31300020217896 C 101.0528000831604 352.44300020217895 102.8828000831604 338.82300020217895 100.9728000831604 329.8430002021789 C 98.8428000831604 320.793000202179 88.7258000831604 319.033000202179 84.0838000831604 317.51300020217894 C 79.5188000831604 315.61300020217897 76.0198000831604 316.223000202179 73.5838000831604 320.25300020217895 C 70.9988000831604 324.21300020217893 69.5538000831604 333.87300020217896 68.6388000831604 342.17300020217897 C 67.4188000831604 350.46300020217893 66.8098000831604 359.293000202179 66.8098000831604 369.49300020217896 z" id="imagebot_41"/>
  <path fill="#ffffff" stroke="#000000" stroke-width="3" stroke-miterlimit="10" fill-rule="evenodd" d="M 90.3668013458252 312.57300258636474 C 93.10380134582519 313.18300258636475 97.2188013458252 311.9630025863647 99.4988013458252 313.94300258636474 C 101.5488013458252 315.7730025863647 100.86880134582519 320.86300258636476 102.6888013458252 323.91300258636477 C 104.2088013458252 326.6530025863647 108.92880134582519 327.3330025863647 109.53880134582519 331.2130025863647 C 109.9188013458252 334.94300258636474 106.7988013458252 340.80300258636476 106.3488013458252 346.74300258636475 C 105.8888013458252 352.5230025863647 106.8788013458252 358.91300258636477 107.25880134582519 365.91300258636477 C 107.5588013458252 372.68300258636475 108.08880134582519 379.76300258636473 107.7188013458252 387.75300258636474 C 106.72880134582519 395.5930025863647 105.19880134582519 409.44300258636474 103.14880134582519 412.86300258636476 C 101.0988013458252 415.8330025863647 96.9888013458252 408.91300258636477 95.8438013458252 406.47300258636477 C 94.4748013458252 403.81300258636475 96.07080134582519 398.63300258636474 95.3858013458252 398.25300258636474 C 94.4748013458252 397.79300258636476 92.95180134582519 402.13300258636474 90.8198013458252 404.19300258636474 C 88.1568013458252 406.01300258636473 81.15780134582519 415.91300258636477 81.2338013458252 409.2130025863647 C 81.2338013458252 401.8330025863647 89.5278013458252 373.75300258636474 91.73480134582519 362.26300258636473 C 93.7878013458252 350.7730025863647 95.2338013458252 347.49300258636475 94.01780134582519 341.25300258636474 C 92.2668013458252 334.7130025863647 86.86580134582519 326.11300258636476 83.0578013458252 324.82300258636474 C 79.0248013458252 323.60300258636477 72.71080134582519 328.32300258636474 71.1888013458252 333.95300258636473 C 69.36280134582519 339.35300258636477 72.55680134582519 349.55300258636476 73.47280134582519 357.23300258636476 C 74.07980134582519 364.54300258636476 75.3738013458252 369.41300258636477 76.2098013458252 378.62300258636475 C 77.0468013458252 387.75300258636474 79.86280134582519 405.7130025863647 78.4928013458252 411.95300258636473 C 76.59180134582519 417.9630025863647 69.6658013458252 416.97300258636477 67.1558013458252 415.14300258636473 C 64.87180134582519 412.86300258636476 66.16380134582519 401.22300258636477 64.87180134582519 399.62300258636475 C 63.27380134582519 397.87300258636475 58.708801345825194 412.56300258636475 58.4818013458252 405.56300258636475 C 58.021801345825196 398.3330025863647 63.6538013458252 370.63300258636474 63.04480134582519 357.69300258636474 C 62.2838013458252 344.60300258636477 52.84980134582519 334.86300258636476 54.3688013458252 328.47300258636477 C 55.665801345825194 322.23300258636476 65.7098013458252 322.76300258636473 70.7298013458252 319.80300258636476 C 75.44880134582519 316.14300258636473 79.55680134582519 310.36300258636476 83.05680134582519 308.91300258636477 C 86.1048013458252 307.7730025863647 87.55080134582519 311.43300258636475 90.3668013458252 312.57300258636474 z" id="imagebot_39"/>
  <path fill="#ffffff" stroke="#000000" stroke-width="3" stroke-miterlimit="10" fill-rule="evenodd" d="M 18.23580047225952 414.1830002593994 C 21.73680047225952 410.5330002593994 24.854800472259523 408.6330002593994 27.900800472259522 408.7830002593994 C 30.790800472259523 408.7830002593994 31.93080047225952 415.17300025939943 35.73580047225953 414.72300025939944 C 39.31380047225952 414.0330002593994 45.78080047225952 404.60300025939944 49.28180047225952 405.2030002593994 C 52.55580047225952 405.8930002593994 54.83980047225952 409.7730002593994 55.82480047225952 417.9930002593994 C 59.70580047225952 414.41300025939944 63.05280047225952 412.8930002593994 65.86880047225952 413.1230002593994 C 68.91380047225952 413.1930002593994 70.89380047225953 416.54300025939943 72.64380047225953 419.3630002593994 C 73.93680047225952 421.8730002593994 74.39480047225952 425.29300025939943 74.01280047225953 429.0230002593994 C 76.06680047225952 421.5630002593994 78.65580047225953 416.6930002593994 82.61080047225953 415.0230002593994 C 86.34180047225952 413.2730002593994 91.05780047225952 414.1130002593994 96.76680047225952 418.1430002593994 C 95.47080047225953 415.0230002593994 96.15680047225952 413.42300025939943 98.82080047225952 413.35300025939944 C 101.63280047225952 413.1930002593994 110.61480047225952 414.8730002593994 112.82480047225953 417.4530002593994 C 114.72480047225952 419.8930002593994 113.73480047225952 423.0930002593994 110.15480047225952 427.6530002593994 C 113.20480047225952 426.1330002593994 115.86480047225952 426.2030002593994 118.14480047225952 427.5730002593994 C 120.35480047225953 428.79300025939943 122.33480047225952 432.1430002593994 123.17480047225952 436.17300025939943 C 123.62480047225952 440.3630002593994 123.02480047225953 445.23300025939943 121.34480047225952 451.9330002593994 C 127.66480047225951 454.97300025939944 130.70480047225954 457.3330002593994 130.47480047225952 459.92300025939943 C 130.1748004722595 462.2030002593994 126.59480047225952 464.41300025939944 119.74480047225953 466.23300025939943 C 124.15480047225952 469.4330002593994 125.90480047225952 472.9330002593994 124.99480047225953 477.3430002593994 C 123.93480047225952 481.7630002593994 113.04480047225952 487.54300025939943 113.80480047225952 492.0330002593994 C 114.26480047225952 495.8330002593994 127.73480047225952 499.0330002593994 128.65480047225952 502.22300025939944 C 129.40480047225952 505.57300025939946 126.28480047225952 508.7730002593994 118.98480047225952 512.1230002593994 C 123.47480047225952 514.8630002593994 125.15480047225952 516.9930002593994 123.70480047225952 519.1230002593994 C 122.10480047225953 521.1730002593994 117.69480047225952 522.6230002593994 110.15480047225952 524.0730002593995 C 107.57480047225953 527.7930002593994 104.98280047225953 529.0130002593994 101.78680047225953 527.1130002593994 C 98.51480047225952 525.2130002593995 95.16580047225952 520.4930002593994 91.43880047225952 512.9630002593995 C 91.05680047225952 517.9030002593994 89.99180047225953 521.8630002593994 87.63380047225952 524.5230002593994 C 85.19880047225952 527.1930002593995 82.07780047225953 528.6330002593994 77.66480047225951 528.8630002593994 C 64.19680047225953 522.7030002593995 53.00980047225952 510.06300025939936 42.96380047225952 490.9630002593994 C 32.99980047225952 471.6430002593994 24.854800472259523 446.4530002593994 18.23580047225952 414.1830002593994 z" id="imagebot_38"/>
  <path stroke="#000000" stroke-width="0.03496" stroke-miterlimit="10" fill-rule="evenodd" d="M 45.7338000831604 459.283000202179 C 46.9498000831604 455.783000202179 48.9278000831604 453.65300020217893 52.5058000831604 452.05300020217896 C 55.8538000831604 450.45300020217894 60.4198000831604 449.92300020217897 66.2028000831604 450.15300020217893 C 67.8758000831604 454.18300020217896 67.6478000831604 457.76300020217894 65.5188000831604 460.57300020217895 C 63.2358000831604 463.31300020217896 59.3528000831604 465.603000202179 53.2648000831604 467.12300020217896 C 56.9188000831604 464.23300020217897 59.6578000831604 461.793000202179 60.6478000831604 459.51300020217894 C 61.5588000831604 457.15300020217893 61.5588000831604 455.48300020217897 59.8118000831604 453.88300020217895 C 57.5278000831604 454.49300020217896 55.4738000831604 455.25300020217895 53.0378000831604 456.163000202179 C 50.678800083160404 456.92300020217897 48.2448000831604 458.07300020217895 45.7338000831604 459.283000202179 z" id="imagebot_35"/>
  <path stroke="#000000" stroke-width="0.03496" stroke-miterlimit="10" fill-rule="evenodd" d="M 70.2348000831604 466.13300020217895 C 69.7788000831604 463.0930002021789 70.5378000831604 460.73300020217897 72.5178000831604 458.21300020217893 C 74.5708000831604 455.63300020217895 77.3868000831604 453.73300020217897 81.8008000831604 451.67300020217897 C 84.4658000831604 454.18300020217896 85.6078000831604 456.543000202179 85.2268000831604 459.5930002021789 C 84.6168000831604 462.48300020217897 82.5618000831604 465.52300020217893 78.7588000831604 469.02300020217893 C 80.4328000831604 465.52300020217893 81.2688000831604 462.63300020217895 81.2688000831604 460.65300020217893 C 81.1938000831604 458.67300020217897 80.2788000831604 457.30300020217896 78.5308000831604 456.853000202179 C 77.0838000831604 458.07300020217895 75.7158000831604 459.36300020217897 74.4198000831604 461.033000202179 C 73.1268000831604 462.55300020217896 71.4518000831604 464.15300020217893 70.2348000831604 466.13300020217895 z" id="imagebot_34"/>
  <path stroke="#000000" stroke-width="0.03496" stroke-miterlimit="10" fill-rule="evenodd" d="M 76.6278000831604 464.61300020217897 C 78.6808000831604 462.55300020217896 81.1158000831604 461.56300020217896 84.2368000831604 461.64300020217894 C 87.3578000831604 461.56300020217896 90.7798000831604 462.783000202179 95.1188000831604 464.99300020217896 C 94.8138000831604 468.57300020217895 93.5208000831604 471.07300020217895 90.9318000831604 472.52300020217893 C 88.1178000831604 473.973000202179 84.6158000831604 473.89300020217894 79.5168000831604 473.13300020217895 C 83.4758000831604 472.14300020217894 85.9098000831604 471.38300020217895 87.6608000831604 470.01300020217894 C 89.1808000831604 468.57300020217895 89.6408000831604 467.353000202179 89.0288000831604 465.52300020217893 C 87.0518000831604 465.14300020217894 85.3008000831604 464.913000202179 83.1708000831604 464.8430002021789 C 80.96380008316041 464.61300020217897 78.9858000831604 464.533000202179 76.6278000831604 464.61300020217897 z" id="imagebot_33"/>
  <path stroke="#000000" stroke-width="0.03496" stroke-miterlimit="10" fill-rule="evenodd" d="M 78.4518000831604 469.86300020217897 C 81.3438000831604 469.86300020217897 83.6278000831604 470.62300020217896 85.9108000831604 472.98300020217897 C 88.0428000831604 475.11300020217897 89.8688000831604 478.46300020217893 91.3918000831604 483.02300020217893 C 88.7258000831604 485.38300020217895 85.9878000831604 486.293000202179 83.1718000831604 485.46300020217893 C 80.3558000831604 484.62300020217896 77.4628000831604 482.11300020217897 74.4978000831604 477.92300020217897 C 77.8458000831604 480.05300020217896 80.4318000831604 481.12300020217896 82.5618000831604 481.42300020217897 C 84.6948000831604 481.50300020217895 85.7608000831604 480.74300020217896 86.59480008316041 479.14300020217894 C 85.4528000831604 477.543000202179 84.2368000831604 476.02300020217893 82.9438000831604 474.58300020217894 C 81.6498000831604 473.05300020217896 80.0498000831604 471.38300020217895 78.4518000831604 469.86300020217897 z" id="imagebot_32"/>
  <path stroke="#000000" stroke-width="0.03496" stroke-miterlimit="10" fill-rule="evenodd" d="M 53.5698000831604 495.12300020217896 C 54.6358000831604 491.77300020217893 56.9178000831604 489.49300020217896 60.4198000831604 487.973000202179 C 63.767800083160395 486.45300020217894 68.33280008316041 485.69300020217895 74.1158000831604 485.99300020217896 C 75.7898000831604 490.02300020217893 75.5618000831604 493.603000202179 73.4318000831604 496.413000202179 C 71.1488000831604 499.23300020217897 67.2678000831604 501.44300020217895 61.178800083160404 503.033000202179 C 64.83280008316041 499.99300020217896 67.5718000831604 497.63300020217895 68.5598000831604 495.353000202179 C 69.4738000831604 493.223000202179 69.4738000831604 491.163000202179 67.7238000831604 489.793000202179 C 65.4418000831604 490.25300020217895 63.3878000831604 491.0930002021789 60.9528000831604 492.00300020217895 C 58.4388000831604 492.76300020217894 56.0818000831604 493.913000202179 53.5698000831604 495.12300020217896 z" id="imagebot_31"/>
  <path stroke="#000000" stroke-width="0.03496" stroke-miterlimit="10" fill-rule="evenodd" d="M 63.308800083160406 495.96300020217893 C 66.58280008316041 494.89300020217894 69.7788000831604 495.12300020217896 73.2018000831604 496.95300020217894 C 76.6268000831604 498.783000202179 79.6688000831604 501.89300020217894 83.1708000831604 506.6130002021789 C 80.8868000831604 510.57300020217895 77.9968000831604 512.323000202179 74.4968000831604 512.4730002021789 C 70.7658000831604 512.4730002021789 66.8088000831604 510.57300020217895 61.7868000831604 506.773000202179 C 66.4288000831604 507.9830002021789 69.8538000831604 508.3630002021789 72.3658000831604 507.913000202179 C 74.7248000831604 507.45300020217894 76.0188000831604 506.00300020217895 76.2478000831604 503.87300020217896 C 74.4178000831604 502.50300020217895 72.4408000831604 501.06300020217896 70.3098000831604 499.8430002021789 C 68.1798000831604 498.473000202179 65.7448000831604 497.18300020217896 63.308800083160406 495.96300020217893 z" id="imagebot_30"/>
  <path stroke="#000000" stroke-width="0.03496" stroke-miterlimit="10" fill-rule="evenodd" d="M 74.1158000831604 342.63300020217895 C 74.1158000831604 342.17300020217897 74.7248000831604 341.94300020217895 75.9408000831604 341.64300020217894 C 76.9308000831604 341.33300020217894 79.1368000831604 340.57300020217895 80.5078000831604 340.80300020217896 C 81.6498000831604 340.723000202179 82.4868000831604 340.95300020217894 82.71380008316041 341.48300020217897 C 82.4868000831604 341.793000202179 81.0408000831604 342.55300020217896 80.4308000831604 343.163000202179 C 79.6688000831604 343.543000202179 80.2018000831604 344.45300020217894 79.6688000831604 344.45300020217894 C 78.9098000831604 344.30300020217896 77.9958000831604 342.86300020217897 77.2338000831604 342.783000202179 C 76.4738000831604 342.70300020217894 75.8658000831604 343.39300020217894 75.4088000831604 343.62300020217896 C 74.7998000831604 343.46300020217893 73.96380008316041 342.93300020217896 74.1158000831604 342.63300020217895 z" id="imagebot_29"/>
  <path stroke="#000000" stroke-width="0.03496" stroke-miterlimit="10" fill-rule="evenodd" d="M 84.2368000831604 342.63300020217895 C 84.2368000831604 342.17300020217897 84.9218000831604 341.94300020217895 85.9868000831604 341.64300020217894 C 86.8988000831604 341.33300020217894 89.4108000831604 340.57300020217895 90.6288000831604 340.80300020217896 C 91.7708000831604 340.723000202179 92.6048000831604 340.95300020217894 92.8348000831604 341.48300020217897 C 92.6048000831604 341.793000202179 91.1608000831604 342.55300020217896 90.5518000831604 343.163000202179 C 89.8678000831604 343.543000202179 90.1718000831604 344.45300020217894 89.7128000831604 344.45300020217894 C 88.8778000831604 344.30300020217896 88.1928000831604 342.86300020217897 87.3568000831604 342.783000202179 C 86.6718000831604 342.70300020217894 85.83280008316041 343.39300020217894 85.4518000831604 343.62300020217896 C 84.7688000831604 343.46300020217893 84.1598000831604 342.93300020217896 84.2368000831604 342.63300020217895 z" id="imagebot_28"/>
  <path stroke="#000000" stroke-width="0.03496" stroke-miterlimit="10" fill-rule="evenodd" d="M 82.5618000831604 345.293000202179 S 82.7148000831604 346.20300020217894 83.0188000831604 347.42300020217897 C 83.2478000831604 348.49300020217896 84.2378000831604 350.01300020217894 84.2378000831604 351.38300020217895 C 83.8568000831604 352.52300020217893 82.7918000831604 354.3430002021789 82.1838000831604 354.50300020217895 C 81.4218000831604 354.57300020217895 80.9648000831604 351.913000202179 81.1168000831604 351.76300020217894 C 81.1938000831604 351.30300020217896 82.8668000831604 352.82300020217895 83.1718000831604 352.223000202179 C 83.1718000831604 351.23300020217897 82.1058000831604 348.413000202179 82.0298000831604 347.27300020217893 C 81.7998000831604 345.973000202179 82.2588000831604 345.21300020217893 82.5618000831604 345.293000202179 z" id="imagebot_27"/>
  <path stroke="#000000" stroke-width="0.03496" stroke-miterlimit="10" fill-rule="evenodd" d="M 79.4428000831604 357.31300020217896 C 79.21380008316041 357.01300020217894 81.5728000831604 358.913000202179 83.0188000831604 358.913000202179 C 84.0098000831604 358.76300020217894 87.0528000831604 356.93300020217896 87.2048000831604 357.24300020217896 C 87.2048000831604 357.31300020217896 85.8348000831604 359.90300020217893 84.5428000831604 360.05300020217896 C 83.0178000831604 359.98300020217897 79.7468000831604 357.39300020217894 79.4428000831604 357.31300020217896 z" id="imagebot_26"/>
  <path stroke="#000000" stroke-width="0.03496" stroke-miterlimit="10" fill-rule="evenodd" d="M 28.5358000831604 330.00300020217895 C 28.5358000831604 329.77300020217893 29.220800083160402 329.163000202179 30.2868000831604 329.00300020217895 C 31.196800083160397 328.62300020217896 33.7088000831604 328.02300020217893 34.925800083160404 328.0930002021789 C 36.0668000831604 328.02300020217893 36.9068000831604 328.24300020217896 37.1358000831604 328.783000202179 C 36.9068000831604 329.00300020217895 35.4588000831604 330.00300020217895 34.8518000831604 330.533000202179 C 34.1658000831604 330.913000202179 34.4698000831604 331.82300020217895 34.0138000831604 331.82300020217895 C 33.175800083160404 331.67300020217897 32.4908000831604 330.223000202179 31.653800083160398 330.15300020217893 C 30.9708000831604 330.15300020217893 30.132800083160397 330.603000202179 29.752800083160402 330.913000202179 C 29.0678000831604 330.76300020217894 28.4598000831604 330.15300020217893 28.5358000831604 330.00300020217895 z" id="imagebot_25"/>
  <path stroke="#000000" stroke-width="0.03496" stroke-miterlimit="10" fill-rule="evenodd" d="M 38.6538000831604 330.00300020217895 C 38.6538000831604 329.77300020217893 39.3398000831604 329.163000202179 40.4038000831604 329.00300020217895 C 41.3188000831604 328.62300020217896 43.8308000831604 328.02300020217893 45.0468000831604 328.0930002021789 C 46.1888000831604 328.02300020217893 47.0268000831604 328.24300020217896 47.2538000831604 328.783000202179 C 46.8738000831604 329.00300020217895 45.5038000831604 330.00300020217895 44.8968000831604 330.533000202179 C 44.1338000831604 330.913000202179 44.6668000831604 331.82300020217895 44.1338000831604 331.82300020217895 C 43.3728000831604 331.67300020217897 42.4588000831604 330.223000202179 41.6978000831604 330.15300020217893 C 40.9368000831604 330.15300020217893 40.3298000831604 330.603000202179 39.8718000831604 330.913000202179 C 39.1878000831604 330.76300020217894 38.5798000831604 330.15300020217893 38.6538000831604 330.00300020217895 z" id="imagebot_24"/>
  <path stroke="#000000" stroke-width="0.03496" stroke-miterlimit="10" fill-rule="evenodd" d="M 37.2088000831604 332.663000202179 C 37.2088000831604 332.73300020217897 37.2848000831604 333.65300020217893 37.7418000831604 335.0930002021789 C 38.0468000831604 336.08300020217894 39.111800083160404 338.44300020217895 39.1878000831604 339.81300020217896 C 38.8838000831604 341.11300020217897 37.2848000831604 343.31300020217896 36.7518000831604 343.46300020217893 C 35.9918000831604 343.39300020217894 35.3048000831604 340.65300020217893 35.5338000831604 340.19300020217895 C 35.6108000831604 339.89300020217894 37.6658000831604 341.33300020217894 37.8938000831604 340.723000202179 C 38.120800083160404 339.81300020217896 36.5228000831604 336.23300020217897 36.6008000831604 334.94300020217895 C 36.5228000831604 333.57300020217895 36.8288000831604 332.43300020217896 37.2088000831604 332.663000202179 z" id="imagebot_23"/>
  <path stroke="#000000" stroke-width="0.03496" stroke-miterlimit="10" fill-rule="evenodd" d="M 31.3508000831604 342.70300020217894 C 31.196800083160397 342.17300020217897 34.925800083160404 346.05300020217896 37.2848000831604 346.13300020217895 C 39.4918000831604 345.90300020217893 43.9818000831604 342.25300020217895 44.2848000831604 342.55300020217896 C 44.0588000831604 342.93300020217896 39.7968000831604 347.95300020217894 37.6668000831604 348.18300020217896 C 35.3048000831604 348.11300020217897 31.3508000831604 342.86300020217897 31.3508000831604 342.70300020217894 z" id="imagebot_22"/>
  <path stroke="#000000" stroke-width="0.03496" stroke-miterlimit="10" fill-rule="evenodd" d="M 22.9788000831604 329.23300020217897 C 22.2188000831604 327.56300020217896 22.1428000831604 325.58300020217894 22.4458000831604 323.30300020217896 C 22.7508000831604 320.86300020217897 23.0568000831604 317.293000202179 25.1108000831604 315.543000202179 C 26.9368000831604 313.86300020217897 30.8178000831604 313.413000202179 33.8608000831604 312.95300020217894 C 36.9068000831604 311.88300020217895 39.8718000831604 310.67300020217897 42.7638000831604 311.663000202179 C 45.3498000831604 312.65300020217893 47.4058000831604 316.68300020217896 49.2308000831604 319.95300020217894 C 50.9808000831604 323.223000202179 52.5048000831604 326.57300020217895 53.4948000831604 330.83300020217894 C 56.0818000831604 328.55300020217896 57.9068000831604 326.3430002021789 59.2778000831604 324.21300020217893 C 60.6468000831604 321.783000202179 61.5588000831604 318.96300020217893 61.4078000831604 317.82300020217895 C 61.0248000831604 316.76300020217894 59.6568000831604 316.76300020217894 57.2968000831604 317.82300020217895 C 56.6918000831604 311.12300020217896 56.0818000831604 307.17300020217897 55.1678000831604 305.65300020217893 C 54.2568000831604 304.13300020217895 53.3428000831604 305.043000202179 52.1248000831604 308.69300020217895 C 45.2758000831604 303.90300020217893 41.1668000831604 301.23300020217897 39.492800083160404 301.00300020217895 C 37.8168000831604 300.55300020217896 38.8838000831604 302.533000202179 42.3838000831604 306.63300020217895 C 32.2638000831604 304.05300020217896 26.479800083160402 302.98300020217897 24.1968000831604 303.14300020217894 C 21.912800083160402 303.14300020217894 23.5898000831604 304.663000202179 29.220800083160402 307.40300020217893 C 22.9038000831604 308.46300020217893 19.3278000831604 309.15300020217893 18.1868000831604 310.06300020217896 C 17.1208000831604 310.67300020217897 18.4918000831604 311.51300020217894 22.598800083160402 311.96300020217893 C 18.4928000831604 315.46300020217893 16.3618000831604 317.973000202179 15.9028000831604 319.19300020217895 C 15.295800083160401 320.33300020217894 16.662800083160402 320.48300020217897 19.7088000831604 319.3430002021789 C 15.978800083160401 324.293000202179 14.5338000831604 327.26300020217894 15.066800083160402 329.08300020217894 C 15.5218000831604 330.83300020217894 18.2628000831604 330.603000202179 22.9788000831604 329.23300020217897 z" id="imagebot_21"/>
  <path fill-opacity="0" stroke="#000000" stroke-width="2" stroke-miterlimit="10" fill-rule="evenodd" d="M 228.7428000831604 477.0930002021789 C 227.8328000831604 469.783000202179 227.1428000831604 464.23300020217897 226.0828000831604 460.42300020217897 C 224.8628000831604 456.473000202179 225.0928000831604 454.56300020217896 222.6528000831604 453.88300020217895 C 219.9928000831604 453.043000202179 213.2928000831604 456.0930002021789 211.0928000831604 455.71300020217893 C 208.6528000831604 454.87300020217896 206.9028000831604 453.19300020217895 209.1128000831604 450.68300020217896 C 211.3128000831604 447.87300020217896 220.5228000831604 441.86300020217897 224.7128000831604 440.56300020217896 C 228.6628000831604 439.3430002021789 232.2428000831604 440.33300020217894 233.6928000831604 443.533000202179 C 234.8328000831604 446.42300020217897 232.0928000831604 454.87300020217896 232.8528000831604 458.603000202179 C 233.8428000831604 462.17300020217897 235.5928000831604 464.08300020217894 238.9428000831604 464.61300020217897 C 240.2328000831604 457.07300020217895 243.8128000831604 451.603000202179 248.8328000831604 447.56300020217896 C 253.7828000831604 443.38300020217895 263.0628000831604 440.87300020217896 269.6828000831604 440.87300020217896 C 276.1528000831604 440.71300020217893 283.7628000831604 443.38300020217895 288.1028000831604 447.11300020217897 C 292.2028000831604 450.61300020217897 293.0428000831604 457.68300020217896 295.0228000831604 462.48300020217897 C 296.9228000831604 467.12300020217896 298.6028000831604 471.38300020217895 299.7428000831604 475.26300020217894 C 296.2428000831604 474.043000202179 294.3328000831604 474.043000202179 293.4228000831604 475.26300020217894 C 292.6628000831604 476.40300020217893 294.5628000831604 479.45300020217894 294.7228000831604 482.3430002021789 C 294.7228000831604 484.93300020217896 294.4928000831604 489.57300020217895 293.1228000831604 491.55300020217896 C 291.2128000831604 493.14300020217894 286.8028000831604 493.75300020217895 284.9028000831604 493.37300020217896 C 283.0028000831604 493.07300020217895 282.2328000831604 491.70300020217894 282.3128000831604 489.57300020217895 C 280.3328000831604 491.01300020217894 278.5128000831604 491.93300020217896 276.5328000831604 492.31300020217896 C 274.2428000831604 492.533000202179 271.3528000831604 493.68300020217896 270.2128000831604 491.32300020217895 C 269.0028000831604 488.65300020217893 268.7728000831604 484.163000202179 269.5328000831604 477.24300020217896 L 256.2128000831604 476.103000202179 C 255.75280008316042 481.043000202179 254.99280008316038 484.543000202179 253.93280008316037 486.90300020217893 C 252.8628000831604 488.88300020217895 251.2628000831604 489.49300020217896 249.4428000831604 489.64300020217894 C 247.2328000831604 489.793000202179 243.2728000831604 489.11300020217897 241.9828000831604 488.42300020217897 C 240.5328000831604 487.36300020217897 240.3828000831604 486.293000202179 241.2228000831604 484.39300020217894 C 239.7028000831604 486.223000202179 238.1028000831604 487.283000202179 236.1228000831604 487.5930002021789 C 234.0728000831604 487.973000202179 230.4928000831604 487.283000202179 229.5028000831604 485.8430002021789 C 228.2128000831604 484.01300020217894 228.0528000831604 481.20300020217894 228.7428000831604 477.0930002021789 z" id="imagebot_19"/>
  <path fill-opacity="0" fill-rule="evenodd" stroke="#000000" stroke-width="2" stroke-miterlimit="10" fill="#00ff00" d="M 296.0991110469484 472.2073024030747 C 294.8681718374872 472.59070969782493 292.48701074377533 473.12546197734497 288.10809585110184 473.5088692720952 C 283.5072083140993 473.8922765668454 276.66641500250336 474.2756838615956 270.53189828649994 474.3564011868062 C 264.1552295948648 474.19496653638504 256.8604013289594 474.1243388768258 251.64404418722626 472.8933996673646 C 246.41759737984177 471.27905316315315 242.58352443233963 469.21067170463226 239.81895604387756 465.8306337114396 C 241.5846475328588 460.76562155447624 243.73374631659027 456.77011395655296 246.26625239507194 453.5414209481301 C 248.49606850401398 450.40353493056915 250.56444996253487 448.1737188216271 254.55995756045814 446.5593723174157 C 258.5554651583814 444.41027353368423 265.0027615095758 442.1804574247422 269.7650836969995 442.2611747499528 C 274.3659712340021 442.2611747499528 278.5128238166952 445.3284331079545 281.5800821746969 447.3261869069161 C 284.0419605936193 449.0111610706868 284.0419605936193 449.0111610706868 286.3424043621206 453.23873097859047 C 288.72356545583244 457.46630088649414 291.8715411390447 463.6815349277081 296.0991110469484 472.2073024030747 z" id="imagebot_16"/>
  <path stroke="#000000" stroke-width="0.03496" stroke-miterlimit="10" fill-rule="evenodd" d="M 245.7828000831604 451.82300020217895 L 255.5328000831604 459.36300020217897 L 256.8228000831604 474.65300020217893 L 258.8028000831604 474.73300020217897 L 257.8828000831604 460.88300020217895 L 268.9928000831604 452.663000202179 L 277.7428000831604 461.18300020217896 L 279.0428000831604 474.80300020217896 L 281.7028000831604 475.413000202179 L 280.3328000831604 460.65300020217893 L 289.0828000831604 455.55300020217896 L 288.0928000831604 453.11300020217897 L 278.3528000831604 458.37300020217896 L 270.6728000831604 450.61300020217897 L 273.3328000831604 442.46300020217893 L 269.0728000831604 442.61300020217897 L 268.3128000831604 449.69300020217895 L 257.6528000831604 457.533000202179 L 248.6028000831604 450.603000202179 L 245.7928000831604 451.82300020217895 L 245.7828000831604 451.82300020217895 z" id="imagebot_15"/>
  <path stroke="#000000" stroke-width="0.03496" stroke-miterlimit="10" fill-rule="evenodd" d="M 226.7628000831604 444.90300020217893 C 225.7728000831604 444.5930002021789 221.6628000831604 446.043000202179 221.4328000831604 446.88300020217895 C 221.2128000831604 447.413000202179 224.7128000831604 448.48300020217897 225.7728000831604 448.32300020217895 C 226.5328000831604 447.71300020217893 227.4428000831604 445.21300020217893 226.7628000831604 444.90300020217893 z" id="imagebot_14"/>
  <path fill-opacity="0" stroke="#000000" stroke-width="2" stroke-miterlimit="10" fill-rule="evenodd" d="M 284.4428000831604 330.7810001778603 C 284.9728000831604 330.85100017786027 285.5828000831604 331.31100017786025 286.2728000831604 332.1510001778603 C 286.7228000831604 332.9110001778603 287.6428000831604 334.05100017786026 288.1728000831604 335.57100017786024 C 290.3028000831604 335.2710001778603 292.5828000831604 335.50100017786025 294.7128000831604 336.26100017786024 S 298.8228000831604 338.1610001778603 300.9528000831604 339.99100017786026 C 301.7128000831604 338.69100017786025 302.5528000831604 338.08100017786023 303.7728000831604 337.55100017786026 C 304.7628000831604 336.94100017786025 306.0528000831604 337.0210001778603 307.6528000831604 337.17100017786026 C 308.1128000831604 338.01100017786024 307.7328000831604 339.1510001778603 307.1228000831604 340.9010001778603 C 306.3528000831604 342.42100017786026 305.0628000831604 344.55100017786026 303.2428000831604 346.99100017786026 C 303.8428000831604 351.10100017786027 303.3928000831604 353.99100017786026 302.1728000831604 355.9710001778603 C 300.8828000831604 357.79100017786027 298.5228000831604 358.70100017786024 295.4028000831604 358.4010001778603 C 295.0228000831604 361.67100017786026 294.7928000831604 364.11100017786026 294.7128000831604 366.54100017786027 C 294.5628000831604 368.67100017786026 294.5628000831604 370.12100017786025 294.4128000831604 372.0210001778603 C 294.0328000831604 373.92100017786026 293.3428000831604 375.45100017786024 292.3528000831604 377.43100017786026 C 294.4828000831604 383.5910001778603 296.2328000831604 388.23100017786027 297.6028000831604 391.9610001778603 C 298.7528000831604 395.61100017786026 299.2828000831604 396.68100017786026 299.8128000831604 398.9610001778603 C 300.2728000831604 400.79100017786027 300.5728000831604 402.61100017786026 300.7228000831604 403.83100017786023 C 302.6328000831604 404.29100017786027 303.6928000831604 404.5910001778603 304.5328000831604 405.35100017786027 C 305.1428000831604 405.81100017786025 305.5228000831604 406.95100017786024 304.8328000831604 407.64100017786023 C 303.8428000831604 408.4010001778603 300.8028000831604 408.7810001778603 299.5028000831604 409.08100017786023 C 298.0628000831604 409.08100017786023 298.2128000831604 410.2210001778603 297.0728000831604 407.56100017786025 C 295.7828000831604 404.74100017786026 293.4928000831604 396.07100017786024 292.2828000831604 392.11100017786026 C 290.7528000831604 387.85100017786027 289.9128000831604 384.73100017786027 288.9328000831604 382.45100017786024 C 287.9428000831604 380.24100017786026 287.1028000831604 378.87100017786025 286.4228000831604 378.64100017786023 C 285.0528000831604 379.10100017786027 284.2928000831604 379.94100017786025 283.8328000831604 381.1510001778603 C 283.1428000831604 382.2210001778603 282.7628000831604 383.67100017786026 283.5228000831604 385.80100017786026 C 284.1328000831604 387.7710001778603 287.4828000831604 390.9710001778603 288.3228000831604 393.63100017786024 C 289.0028000831604 396.14100017786023 289.9228000831604 398.88100017786024 288.1728000831604 401.0210001778603 C 286.1128000831604 402.92100017786026 280.1828000831604 405.05100017786026 277.7428000831604 405.05100017786026 C 275.3128000831604 404.5910001778603 273.5628000831604 401.17100017786026 273.7128000831604 400.0210001778603 C 273.6328000831604 398.9610001778603 276.5228000831604 398.50100017786025 277.6728000831604 398.6610001778603 C 278.6628000831604 398.81100017786025 278.8128000831604 400.86100017786026 280.1828000831604 401.0210001778603 C 281.0928000831604 401.0210001778603 283.9128000831604 400.33100017786023 284.5128000831604 398.6610001778603 C 284.8228000831604 396.60100017786027 284.2928000831604 393.0310001778603 283.2228000831604 390.5910001778603 C 282.0828000831604 388.1610001778603 278.9628000831604 387.62100017786025 278.5828000831604 385.19100017786025 C 278.1228000831604 382.5210001778603 279.0428000831604 379.33100017786023 281.0228000831604 375.29100017786027 C 279.3428000831604 377.20100017786024 276.5228000831604 378.79100017786027 271.9628000831604 380.0910001778603 C 267.3228000831604 381.38100017786024 261.4628000831604 382.37100017786025 254.0828000831604 383.06100017786025 C 254.38280008316042 384.05100017786026 254.0828000831604 385.57100017786024 253.4728000831604 387.62100017786025 C 252.6328000831604 389.68100017786026 249.5128000831604 391.81100017786025 249.6628000831604 394.85100017786027 C 249.8128000831604 397.82100017786024 252.0228000831604 402.61100017786026 253.93280008316037 404.82100017786024 C 255.6028000831604 406.7210001778603 258.4228000831604 405.9610001778603 259.7128000831604 406.95100017786024 C 260.6228000831604 407.94100017786025 261.6928000831604 409.1610001778603 260.5428000831604 409.99100017786026 C 259.4028000831604 410.45100017786024 256.8228000831604 410.60100017786027 252.7828000831604 410.1510001778603 C 252.2528000831604 409.4610001778603 251.1928000831604 408.17100017786026 249.5928000831604 406.57100017786024 C 247.8428000831604 404.67100017786026 244.4928000831604 402.76100017786024 243.0428000831604 399.7210001778603 C 241.5228000831604 396.60100017786027 240.9128000831604 392.79100017786027 240.9128000831604 388.00100017786025 C 239.2428000831604 389.45100017786024 236.7328000831604 390.5910001778603 233.9928000831604 391.43100017786026 C 230.9428000831604 392.11100017786026 226.1528000831604 391.43100017786026 223.7228000831604 392.87100017786025 C 221.2828000831604 394.39100017786023 219.3828000831604 397.2110001778603 218.8528000831604 399.57100017786024 C 218.2428000831604 401.62100017786025 218.1628000831604 403.68100017786026 219.4528000831604 405.43100017786026 C 221.3628000831604 405.58100017786023 222.4228000831604 406.42100017786026 222.9528000831604 407.10100017786027 C 223.2628000831604 408.01100017786024 223.0328000831604 408.7810001778603 221.9628000831604 410.2210001778603 C 218.9228000831604 410.37100017786025 216.9428000831604 409.99100017786026 215.7228000831604 409.39100017786023 C 214.3628000831604 408.7810001778603 214.7428000831604 407.94100017786025 214.8128000831604 406.04100017786027 C 214.8128000831604 403.75100017786025 215.5028000831604 398.50100017786025 216.0328000831604 396.14100017786023 C 216.4928000831604 393.7110001778603 216.4928000831604 392.04100017786027 217.7828000831604 391.12100017786025 C 218.9228000831604 389.9110001778603 221.3628000831604 390.36100017786026 223.3428000831604 388.69100017786025 C 225.1628000831604 386.63100017786024 228.1328000831604 384.20100017786024 229.3528000831604 379.93100017786026 C 230.3428000831604 375.45100017786024 230.8728000831604 367.1510001778603 230.1128000831604 363.2710001778603 C 229.0428000831604 359.24100017786026 228.8928000831604 359.01100017786024 224.7028000831604 356.12100017786025 C 220.3728000831604 353.00100017786025 209.9428000831604 348.9710001778603 205.7628000831604 345.4610001778603 C 201.4928000831604 341.51100017786024 200.2028000831604 337.86100017786026 199.5128000831604 334.51100017786024 C 198.5328000831604 331.01100017786024 199.8228000831604 326.5210001778603 200.7328000831604 325.45100017786024 C 201.4228000831604 324.31100017786025 202.7928000831604 325.2210001778603 204.2328000831604 327.58100017786023 C 205.3828000831604 329.49100017786026 205.4528000831604 335.50100017786025 208.5728000831604 338.62100017786025 C 211.4628000831604 341.58100017786023 218.1628000831604 344.93100017786026 222.1928000831604 346.9110001778603 C 225.8428000831604 348.74100017786026 228.9628000831604 348.6610001778603 231.5528000831604 351.10100017786027 C 234.1428000831604 353.4610001778603 236.1928000831604 357.11100017786026 237.7228000831604 361.75100017786025 C 244.0328000831604 361.9010001778603 249.3628000831604 361.75100017786025 254.00280008316042 361.29100017786027 C 258.6428000831604 360.8410001778603 261.9128000831604 360.00100017786025 265.2628000831604 358.7810001778603 C 268.3828000831604 357.0310001778603 270.2928000831604 353.61100017786026 273.0328000831604 352.31100017786025 C 275.4628000831604 351.0210001778603 278.0528000831604 350.49100017786026 280.4828000831604 351.0210001778603 C 279.1928000831604 349.2710001778603 278.2728000831604 347.75100017786025 278.0528000831604 346.1510001778603 C 277.7428000831604 344.32100017786024 278.1228000831604 342.95100017786024 278.8828000831604 341.74100017786026 C 279.5728000831604 340.60100017786027 280.7928000831604 339.76100017786024 282.5428000831604 339.5310001778603 C 282.3128000831604 336.49100017786026 282.3828000831604 334.2810001778603 282.7628000831604 332.9110001778603 C 282.9228000831604 331.39100017786023 283.7528000831604 330.7810001778603 284.4428000831604 330.7810001778603 z" id="imagebot_13"/>
  <path stroke="#000000" stroke-width="0.03496" stroke-miterlimit="10" fill-rule="evenodd" d="M 296.0828000831604 345.75300020217895 C 295.4728000831604 346.58300020217894 294.3328000831604 346.89300020217894 293.6528000831604 346.43300020217896 C 292.8928000831604 345.90300020217893 292.8128000831604 344.76300020217894 293.4228000831604 343.92300020217897 C 294.0328000831604 343.01300020217894 295.0928000831604 342.783000202179 295.8528000831604 343.24300020217896 C 296.5428000831604 343.77300020217893 296.6928000831604 344.913000202179 296.0828000831604 345.75300020217895 z" id="imagebot_11"/>
  <path stroke="#000000" stroke-width="0.03496" stroke-miterlimit="10" fill-rule="evenodd" d="M 291.4428000831604 344.07300020217895 C 290.8328000831604 344.99300020217896 289.7728000831604 345.21300020217893 289.0128000831604 344.76300020217894 C 288.3228000831604 344.223000202179 288.1728000831604 343.08300020217894 288.7828000831604 342.25300020217895 C 289.3928000831604 341.413000202179 290.4528000831604 341.11300020217897 291.2128000831604 341.56300020217896 C 291.9028000831604 342.0930002021789 292.0528000831604 343.24300020217896 291.4428000831604 344.07300020217895 z" id="imagebot_10"/>
  <path stroke="#000000" stroke-width="0.03496" stroke-miterlimit="10" fill-rule="evenodd" d="M 298.6728000831604 350.31300020217896 C 297.6828000831604 351.15300020217893 296.9228000831604 352.223000202179 295.7828000831604 352.67300020217897 C 294.4128000831604 353.36300020217897 293.1228000831604 353.43300020217896 292.2028000831604 353.74300020217896 C 291.2128000831604 353.58300020217894 290.5328000831604 353.05300020217896 290.1528000831604 352.75300020217895 C 289.6128000831604 352.223000202179 289.2328000831604 351.8430002021789 289.3128000831604 351.30300020217896 C 289.2328000831604 350.77300020217893 289.4628000831604 349.86300020217897 289.9928000831604 349.17300020217897 C 290.9828000831604 348.793000202179 291.5928000831604 348.49300020217896 291.8228000831604 348.26300020217894 C 291.8228000831604 347.88300020217895 291.2128000831604 347.57300020217895 290.8328000831604 347.353000202179 C 290.1528000831604 346.96300020217893 289.6128000831604 345.98300020217897 289.2328000831604 346.43300020217896 C 289.0128000831604 346.5930002021789 288.9328000831604 347.353000202179 289.3128000831604 348.723000202179 C 288.7828000831604 349.63300020217895 288.4728000831604 349.93300020217896 287.7928000831604 350.24300020217896 C 287.1828000831604 350.24300020217896 286.1928000831604 350.0930002021789 285.6628000831604 349.783000202179 C 284.7428000831604 349.32300020217895 284.2128000831604 348.87300020217896 284.0628000831604 347.80300020217896 C 283.9828000831604 346.43300020217896 284.9028000831604 343.31300020217896 285.0528000831604 342.86300020217897 C 285.0528000831604 342.40300020217893 283.8328000831604 344.23300020217897 283.7528000831604 345.37300020217896 C 283.4528000831604 346.36300020217897 283.3028000831604 347.80300020217896 283.6028000831604 348.87300020217896 C 283.7528000831604 349.55300020217896 284.3628000831604 350.0930002021789 285.1228000831604 350.473000202179 C 285.8928000831604 350.70300020217894 287.0328000831604 350.92300020217897 288.5528000831604 350.853000202179 C 288.6228000831604 351.30300020217896 288.7828000831604 351.913000202179 289.0128000831604 352.37300020217896 C 289.0128000831604 352.83300020217894 289.4628000831604 353.20300020217894 289.5428000831604 353.51300020217894 C 289.0828000831604 354.19300020217895 288.7828000831604 354.80300020217896 288.3228000831604 355.033000202179 C 287.7128000831604 355.18300020217896 287.0328000831604 355.26300020217894 286.5728000831604 354.96300020217893 C 286.1128000831604 354.353000202179 285.5028000831604 352.14300020217894 285.5828000831604 352.14300020217894 C 285.3528000831604 352.14300020217894 285.5828000831604 354.58300020217894 285.9628000831604 355.3430002021789 C 286.2728000831604 355.95300020217894 287.2528000831604 356.02300020217893 288.0228000831604 355.87300020217896 C 288.5528000831604 355.57300020217895 289.5428000831604 355.033000202179 290.1528000831604 353.973000202179 C 291.0628000831604 354.353000202179 291.9028000831604 354.65300020217893 292.9628000831604 354.58300020217894 C 293.8028000831604 354.50300020217895 295.4028000831604 354.12300020217896 296.3128000831604 353.44300020217895 C 297.3028000831604 352.5930002021789 297.9828000831604 351.76300020217894 298.6728000831604 350.31300020217896 z" id="imagebot_9"/>
  <path stroke="#000000" stroke-width="0.03496" stroke-miterlimit="10" fill-rule="evenodd" d="M 286.3428000831604 346.89300020217894 C 284.3628000831604 344.83300020217894 282.2328000831604 342.93300020217896 280.2628000831604 341.18300020217896 C 278.2028000831604 339.43300020217896 275.9928000831604 337.533000202179 273.9428000831604 336.08300020217894 C 275.5428000831604 337.38300020217895 276.9828000831604 338.98300020217897 279.1128000831604 340.88300020217895 C 280.8628000831604 342.55300020217896 283.3028000831604 344.533000202179 285.5828000831604 346.81300020217896 C 285.8128000831604 346.81300020217896 286.0428000831604 346.81300020217896 286.3428000831604 346.89300020217894 z" id="imagebot_8"/>
  <path stroke="#000000" stroke-width="0.03496" stroke-miterlimit="10" fill-rule="evenodd" d="M 285.7328000831604 347.353000202179 C 283.4528000831604 345.603000202179 281.3228000831604 344.07300020217895 279.0428000831604 342.473000202179 C 276.6828000831604 340.88300020217895 274.4028000831604 339.43300020217896 272.1928000831604 338.14300020217894 C 273.7928000831604 339.353000202179 275.6928000831604 340.65300020217893 277.9028000831604 342.32300020217895 C 280.0328000831604 343.8430002021789 282.3128000831604 345.52300020217893 285.0528000831604 347.353000202179 L 285.7328000831604 347.353000202179 z" id="imagebot_7"/>
  <path stroke="#000000" stroke-width="0.03496" stroke-miterlimit="10" fill-rule="evenodd" d="M 285.7328000831604 348.033000202179 C 282.8428000831604 346.74300020217896 280.0328000831604 345.67300020217897 277.2928000831604 344.533000202179 C 274.4028000831604 343.39300020217894 271.6628000831604 342.40300020217893 268.7628000831604 341.56300020217896 C 270.8228000831604 342.32300020217895 273.3328000831604 343.543000202179 275.9928000831604 344.603000202179 C 278.7328000831604 345.67300020217897 281.6328000831604 346.89300020217894 284.9728000831604 348.26300020217894 C 285.2028000831604 348.18300020217896 285.4328000831604 348.11300020217897 285.7328000831604 348.033000202179 z" id="imagebot_6"/>
  <path stroke="#000000" stroke-width="0.03496" stroke-miterlimit="10" fill-rule="evenodd" d="M 293.8028000831604 351.30300020217896 C 296.3928000831604 352.293000202179 298.8228000831604 353.51300020217894 301.4128000831604 354.65300020217893 C 303.8528000831604 355.793000202179 306.1328000831604 357.163000202179 308.5628000831604 358.45300020217894 C 306.5928000831604 357.62300020217896 304.4628000831604 356.783000202179 302.1728000831604 355.64300020217894 C 299.6628000831604 354.50300020217895 297.0028000831604 353.36300020217897 294.1828000831604 351.913000202179 C 294.1028000831604 351.76300020217894 293.9528000831604 351.533000202179 293.8028000831604 351.30300020217896 z" id="imagebot_5"/>
  <path stroke="#000000" stroke-width="0.03496" stroke-miterlimit="10" fill-rule="evenodd" d="M 293.6528000831604 351.99300020217896 C 296.0828000831604 353.283000202179 298.4428000831604 354.80300020217896 300.7228000831604 356.25300020217895 C 303.0128000831604 357.69300020217895 305.2128000831604 359.37300020217896 307.3428000831604 360.96300020217893 C 305.6728000831604 359.82300020217895 303.3928000831604 358.61300020217897 301.3328000831604 357.31300020217896 C 298.9028000831604 355.87300020217896 296.6928000831604 354.42300020217897 293.8828000831604 352.67300020217897 C 293.8028000831604 352.44300020217895 293.7228000831604 352.223000202179 293.6528000831604 351.99300020217896 z" id="imagebot_4"/>
  <path stroke="#000000" stroke-width="0.03496" stroke-miterlimit="10" fill-rule="evenodd" d="M 292.9628000831604 352.293000202179 C 295.3228000831604 354.27300020217893 297.3028000831604 356.40300020217893 299.5128000831604 358.68300020217896 C 301.5628000831604 360.81300020217896 303.4628000831604 363.17300020217897 305.5228000831604 365.46300020217893 C 304.0028000831604 363.783000202179 301.8728000831604 361.95300020217894 299.9628000831604 359.98300020217897 C 297.8328000831604 357.853000202179 295.5528000831604 355.64300020217894 293.1228000831604 353.05300020217896 C 293.1228000831604 352.82300020217895 293.0428000831604 352.5930002021789 292.9628000831604 352.293000202179 z" id="imagebot_3"/>
 </g>
 <metadata>image/svg+xmlOpenclipartCreation Days Numbers2007-11-13T16:32:45The days of creation - completed originally to fulfill a request on the OpenClipart wiki.https://openclipart.org/detail/8225/creation-days-numbers-by-gerald_g-8225Gerald_Gadamcartooncreationevegodnumberreligionrequest+completedsource+wiki</metadata>
</svg>