<?xml version="1.0"?>
<svg xmlns:rdf="http://www.w3.org/1999/02/22-rdf-syntax-ns#" xmlns="http://www.w3.org/2000/svg" xmlns:cc="http://web.resource.org/cc/" xmlns:xlink="http://www.w3.org/1999/xlink" xmlns:dc="http://purl.org/dc/elements/1.1/" xmlns:svg="http://www.w3.org/2000/svg" id="svg2" viewBox="0 0 332.954 585.67" version="1.0">
  <defs id="defs180">
    <filter id="filter3658">
      <feGaussianBlur id="feGaussianBlur3660" stdDeviation="11.482812"/>
    </filter>
    <linearGradient id="linearGradient2278" y2="438.14" gradientUnits="userSpaceOnUse" x2="106.52" gradientTransform="matrix(.97109 0 0 .97109 2.0972 7.7675)" y1="507.35" x1="37.305">
      <stop id="stop105" stop-color="#005f19" offset="0"/>
      <stop id="stop107" stop-color="#bfff5f" offset="1"/>
    </linearGradient>
    <linearGradient id="linearGradient2309" y2="527.79" gradientUnits="userSpaceOnUse" x2="186.52" gradientTransform="matrix(.97109 0 0 .97109 2.0972 7.7675)" y1="578.99" x1="135.31">
      <stop id="stop42" stop-color="#005f19" offset="0"/>
      <stop id="stop44" stop-color="#bfff5f" offset="1"/>
    </linearGradient>
    <linearGradient id="linearGradient2313" y2="209.52" gradientUnits="userSpaceOnUse" x2="165.26" gradientTransform="matrix(.97109 0 0 .97109 2.0972 7.7675)" y1="577.91" x1="165.26">
      <stop id="stop33" stop-color="#009f24" offset="0"/>
      <stop id="stop35" stop-color="#c9ffbf" offset="1"/>
    </linearGradient>
    <linearGradient id="linearGradient2316" y2="4.2324" gradientUnits="userSpaceOnUse" x2="163.81" gradientTransform="matrix(.97109 0 0 .97109 2.0972 7.7675)" y1="210.63" x1="163.81">
      <stop id="stop26" stop-color="#bffff4" offset="0"/>
      <stop id="stop28" stop-color="#5fe5ff" offset="1"/>
    </linearGradient>
  </defs>
  <path id="path2687" opacity=".5" d="m138.76 379.06c-0.47 21.08-0.94 42.24-1.41 63.4 24.84 3.29 49.76 6.58 74.68 9.87 1.41-19.2 2.82-38.48 4.23-57.75-25.78-5.17-51.64-10.35-77.5-15.52zm18.26-122.63c12.54-13.17 20.22-19.51 33.85-25.31 13.63-6.59 11.13-7.52 27.03-7.52 35.82 0 65.36 14.65 88.63 43.17 23.35 28.6 34.72 66.61 34.72 113.47 0 65.9-14.19 117.15-43.18 154.45-28.45 38.08-68.18 56.42-119.35 56.42-32.91 0-61.9-8.78-88.072-26.33-25.547-17.63-45.451-41.77-59.633-72.49-6.817-16.14-12.538-39.57-16.455-70.29-3.997-30.79-6.2691-66.6-6.2691-106.18 0-103.9 14.81-181.56 44.351-232.8 28.917-51.959 73.268-77.583 132.35-77.583 44.9 0.0003 80.09 16.143 105.63 48.349 25.63 31.423 38.71 76.084 38.71 132.5-30.87 1.42-61.74 2.9-92.62 4.39-0.55-20.76-1.1-41.53-1.72-62.29-25.94-3.92-51.96-7.84-77.97-11.76v139.8z" fill-rule="evenodd" transform="matrix(.97109 0 0 .97109 2.0977 7.7675)" filter="url(#filter3658)"/>
  <path id="path23" fill-rule="evenodd" d="m128.79 370.59c-0.45 20.47-0.91 41.02-1.37 61.56 24.13 3.2 48.32 6.39 72.53 9.59 1.37-18.64 2.73-37.36 4.1-56.08-25.03-5.02-50.14-10.05-75.26-15.07zm17.74-119.09c12.17-12.78 19.63-18.95 32.87-24.58 13.24-6.39 10.8-7.3 26.25-7.3 34.78 0 63.47 14.23 86.07 41.93 22.67 27.77 33.71 64.68 33.71 110.18 0 64-13.78 113.76-41.93 149.99-27.62 36.98-66.21 54.79-115.9 54.79-31.96 0-60.11-8.53-85.527-25.57-24.808-17.12-44.137-40.56-57.909-70.39-6.62-15.68-12.175-38.43-15.979-68.26-3.8815-29.9-6.0878-64.68-6.0878-103.11 0-100.9 14.382-176.31 43.069-226.08 28.081-50.449 71.144-75.332 128.52-75.332 43.6-0.0005 77.77 15.676 102.58 46.951 24.88 30.514 37.59 73.891 37.59 128.68-29.98 1.37-59.96 2.81-89.95 4.26-0.53-20.17-1.06-40.33-1.67-60.5-25.19-3.8-50.45-7.61-75.71-11.41v135.75z"/>
  <path id="path30" fill-rule="evenodd" fill="url(#linearGradient2316)" d="m140.29 211.63c-0.61-34.09-1.3-68.26-1.98-102.43 30.51 4.11 61.1 8.22 91.69 12.33 0.46 19.1 0.92 38.28 1.37 57.45 25.49 0.46 51.06 0.92 76.63 1.37 0-54.71-10.73-87.05-35.54-117.64-24.88-31.275-49.69-50.832-93.29-50.832-57.38 0-99.075 25.644-128.52 75.334-21.236 34.698-30.291 71.608-36.302 125.1l125.94-0.68z"/>
  <path id="path37" fill-rule="evenodd" fill="url(#linearGradient2313)" d="m14.232 211.23c-2.206 33.63-4.3738 68.35-6.6569 102.06 0 38.43 2.2073 73.2 6.0889 103.11 3.804 29.83 14.078 54.87 20.697 70.47 13.772 29.9 34.014 47.25 58.821 64.3 25.338 17.04 48.698 17.8 80.738 17.8 49.61 0 77.77-17.73 105.39-54.71 28.08-36.22 38.28-59.2 38.28-123.12 0-45.58-6.09-94.06-28.77-121.83-22.6-27.7-33.63-39.65-68.41-39.65-15.37 0-22.29-5.02-35.53 1.37-13.24 5.63-31.66 18.65-43.83 31.43-0.23-16.89-0.46-33.86-0.76-50.83l-126.06-0.4zm109.47 154.19c-0.99 24.04-2.06 48.09-3.12 72.21 28.23 2.74 56.54 5.48 84.84 8.22 1.37-21.38 2.74-42.84 4.11-64.3-28.61-5.33-57.22-10.73-85.83-16.13z"/>
  <path id="path39" d="m127.27 566.92c-3.04-1.3-5.93-3.88-8.67-7.76-2.97-4.27-8.98-12.33-7.76-15.98 1.37-3.73 6.24-5.71 15.44-5.94-2.66-8.75-2.66-13.39 0-14.53 2.67-0.99 7.99 1.52 15.98 8.14-7.38-7-11.18-12.18-11.41-16.36-0.38-4.19 2.81-6.93 9.59-8.22-0.76-0.69 0-2.21 2.28-4.57 2.21-2.74 7.91-10.5 10.96-10.04 2.66 0.46 4.49 4.87 5.48 13.24 9.74-4.34 15.52-5.4 17.35-3.2 1.82 2.06-0.31 7.38-6.4 15.98 9.82-1.44 15.68-0.53 17.28 2.74s-0.99 8.45-7.76 16.36c7.53-2.05 12.25-0.38 14.15 5.03 1.9 5.25 0.99 14.22-2.74 26.93-4.64 2.67-12.02 3.88-22.75 3.66-10.73-0.38-24.2-2.21-41.02-5.48z" fill-rule="evenodd" stroke="#000" stroke-miterlimit="10" stroke-width=".034959"/>
  <path id="path46" d="m129.02 565.55c-7.3-8.22-11.03-14.31-10.88-18.27 0-4.1 3.88-6.08 11.34-5.93-2.59-7.84-2.28-12.1 0.91-12.79 3.28-0.68 9.06 2.21 18.27 8.68-5.33-11.26-8.22-18.64-8.68-22.75-0.46-4.03 1.52-4.49 5.93-1.37 2.75-9.06 4.88-13.62 6.4-13.7 1.37-0.23 2.13 4.03 2.28 12.79 7.91-5.79 12.78-7.77 14.61-5.94 1.68 1.67 0.31 7.15-4.11 16.44 8.75-3.2 14-3.05 15.45 0.45 1.44 3.35-0.91 10.12-6.77 20.02 6.01-4.19 10.34-4.19 12.7 0 2.36 4.03 2.82 12.25 1.38 24.65-8.98 2.51-18.5 3.58-28.24 3.2-10.04-0.38-19.86-2.21-30.59-5.48z" fill-rule="evenodd" stroke="#000" stroke-miterlimit="10" stroke-width=".034959" fill="url(#linearGradient2309)"/>
  <path id="path48" d="m147.21 566.08c-2.89-0.76-4.95-2.21-6.47-4.95-1.67-2.81-2.51-6.39-2.81-11.03 3.27-1.6 5.93-1.98 8.6-0.3 2.58 1.44 4.64 4.56 6.46 9.36-2.81-2.97-5.02-4.65-6.92-5.33-1.9-0.69-3.5-0.38-4.49 1.22 0.76 1.75 1.37 3.42 2.43 5.33 0.92 1.74 1.98 3.64 3.2 5.7z" fill-rule="evenodd" stroke="#000" stroke-miterlimit="10" stroke-width=".034959"/>
  <path id="path50" d="m148.12 559.61c-1.29-2.74-1.21-5.25-0.07-8.14 1.29-2.89 3.27-5.78 7.07-8.98 3.43 1.37 5.18 3.65 5.56 6.54 0.38 3.05-0.91 6.32-3.58 10.96 0.69-3.96 0.61-6.77 0.08-8.75-0.69-1.9-1.83-2.97-3.73-2.89-0.99 1.44-1.9 3.27-2.74 5.17-0.99 1.76-1.75 3.88-2.59 6.09z" fill-rule="evenodd" stroke="#000" stroke-miterlimit="10" stroke-width=".034959"/>
  <path id="path52" d="m153.68 559.76c0.83-2.66 2.81-4.71 5.63-5.85 2.74-1.22 6.62-1.83 11.34-1.53 1.29 3.5 1.06 6.17-0.69 8.6-1.9 2.29-5.17 3.96-10.12 5.33 3.27-2.44 5.02-4.41 6.09-6.24 0.91-1.9 0.61-3.35-0.61-4.64-1.83 0.46-3.8 1.06-5.63 1.82-2.05 0.69-3.96 1.52-6.01 2.51z" fill-rule="evenodd" stroke="#000" stroke-miterlimit="10" stroke-width=".034959"/>
  <path id="path54" d="m167.3 69.786c-0.31-2.436-0.23-4.566 0.53-6.392 0.76-2.284 1.9-4.033 3.73-5.251 1.68-1.369 3.73-2.13 6.16-1.979 2.21 0.076 5.03 1.674 6.7 3.044 1.14 1.218 1.22 3.806 2.28 4.794 1.15 0.685 2.36 0.685 4.27-0.304-1.37-4.185-2.06-7.99-2.37-11.414-0.6-3.652-0.3-5.935 0.61-9.512 0.92-3.957 4.27-10.728 5.94-12.402 1.52-1.751 2.89 1.369 4.11 3.196 1.06 1.826 2.13 4.261 2.89 7.609 1.37-2.359 3.2-4.87 5.17-6.697 1.98-1.901 4.34-3.957 7.08-5.326 2.97 4.185 5.25 8.371 6.55 12.251 1.29 4.033 3.27 5.707 1.52 11.186-2.06 5.176-6.17 11.643-12.94 19.709 2.28 1.826 6.09 2.512 11.42 1.445 5.4-1.141 12.02-3.423 20.46-7.457-0.61 3.197-1.75 5.783-3.42 8.066-1.67 2.132-4.11 3.957-7 5.175 3.27 1.066 4.57 2.283 3.88 3.652-0.76 1.217-3.5 2.816-8.22 4.491 3.05 1.901 4.34 3.652 4.19 5.251-0.38 1.369-2.21 2.662-5.79 3.576l-14.38-11.033c-6.39 2.586-11.95 3.195-16.66 2.13-4.87-1.446-8.6-6.697-12.1-8.98-3.65-2.283-6.93-3.196-9.82-3.576-1.98 0.837-3.27 1.597-4.49 1.978-1.29 0.228-1.9 0.381-2.43 0.152 0-1.674 0.07-2.967 0.53-4.185 0.23-1.219 0.76-2.284 1.6-3.197z" fill-rule="evenodd" stroke="#000" stroke-miterlimit="10" stroke-width=".034959"/>
  <path id="path56" d="m169.28 69.253c0.68 0.228 1.29 0.838 1.82 1.522 0.38 0.608 0.99 1.521 1.22 2.739 2.97 0.227 5.71 1.141 7.91 2.132 2.06 1.065 3.43 2.586 5.56 4.26 1.98 1.522 3.96 4.186 6.85 5.326 2.74 0.991 5.86 1.218 9.36 0.991 3.12-0.382 6.39-1.37 9.82-2.969l13.92 11.111c1.6-0.458 2.36-0.99 2.59-1.903 0.07-0.989-0.69-2.359-1.98-3.501-1.67-1.369-7.23-3.576-7-3.957 0.23-0.532 6.16 1.142 8.67 0.914 2.36-0.609 4.57-1.902 4.87-2.968-0.07-1.141-1.6-2.131-4.87-3.272 1.98-0.609 3.58-0.99 5.1-1.979 1.3-1.066 2.44-1.903 3.43-3.349 0.68-1.521 1.29-2.815 1.52-4.717-8.3 3.652-15.14 5.554-20.24 6.012-5.25 0.304-9.06-0.837-11.11-3.729 2.97-3.272 5.48-5.86 7.23-8.066 1.82-2.206 3.5-3.881 3.57-5.022-0.07-1.217-1.37-2.131-3.88-2.435 2.89-1.598 4.49-3.044 5.1-4.337 0.46-1.37-0.38-2.588-2.21-3.652 1.45-2.435 2.13-4.946 1.75-7.838-0.45-2.893-1.67-6.164-3.95-9.512-4.49 3.044-7.92 6.469-10.58 10.272-2.51 3.729-4.11 8.143-5.4 12.328-1.6 3.958-2.74 9.207-4.34 11.644-2.13 2.129-5.25 2.206-7 1.674-1.83-0.914-1.75-3.653-3.05-5.251-1.21-1.751-3.04-3.197-4.64-3.729-1.98-0.532-4.41-0.304-6.09 0.685-1.97 0.761-3.34 2.665-4.11 4.566-0.75 1.596-0.6 3.88 0.16 6.01z" fill-rule="evenodd" stroke="#000" stroke-miterlimit="10" stroke-width=".034959" fill="#b87800"/>
  <path id="path58" d="m199.64 44.142c0.53-1.445 0.53-3.5 0-5.327-0.76-2.054-2.13-7-3.5-6.62-1.37 0.077-3.5 4.566-4.34 7.915-1.14 3.348-1.75 7.381-1.52 11.491 0.23 3.803 1.07 7.228 2.82 10.882 0.6-3.501 1.59-6.621 2.66-9.665 0.99-3.273 2.28-5.861 3.88-8.676z" fill-rule="evenodd" stroke="#000" stroke-miterlimit="10" stroke-width=".034959" fill="#b87800"/>
  <path id="path60" d="m173.61 64.992c0.38 0.913 1.53 1.37 2.52 0.913 0.99-0.38 1.52-1.521 1.14-2.435s-1.53-1.369-2.51-0.914c-0.99 0.381-1.53 1.446-1.15 2.436z" fill-rule="evenodd" stroke="#000" stroke-miterlimit="10" stroke-width=".034959"/>
  <path id="path62" d="m168.9 70.318c-0.92 0.304-1.45 1.294-1.9 2.131-0.54 0.837-0.69 1.979-0.77 3.424 0.46 0.152 1.37-0.304 2.14-0.532 0.75-0.458 1.67-1.065 2.73-1.827-0.22-1.217-0.53-2.055-0.91-2.511-0.38-0.609-0.91-0.837-1.29-0.685z" fill-rule="evenodd" stroke="#000" stroke-miterlimit="10" stroke-width=".034959" fill="#ff0"/>
  <path id="path64" fill-rule="evenodd" d="m104.14 366.71c-1.22-14.53-0.46-26.1 2.59-35 2.89-8.91 8.06-14.92 15.21-18.04 1.98-15.6 2.36-27.32 0.84-35.99-1.75-8.75-7.61-7.69-9.66-15.6-1.98-8.22-0.3-25.64-1.75-31.43-1.67-5.4-4.03-2.36-7.92-1.75-4.257 0.31-12.855 4.11-15.822 3.5-2.97-0.91-4.719-3.12-0.836-8.37 3.728-5.48 11.641-13.54 23.738-24.2l1.07-9.58c-2.51-1.22-3.65-2.67-3.73-4.64-0.15-2.21 1.98-6.47 3.5-7.24 1.22-0.83 3.12 0.16 4.87 2.67 2.97-0.53 4.87-0.23 6.32 0.61 1.29 0.68 2.13 2.66 1.59 4.18-0.68 1.52-2.58 2.97-5.7 4.64l0.61 9.21c5.47 2.74 9.2 6.09 11.49 10.35 2.12 4.03 2.12 9.21 1.75 14.69-0.46 5.17-5.64 9.89-4.42 17.42 1.07 7.46 6.78 21.54 10.96 27.24 3.88 5.18 5.71 3.58 12.56 5.49 6.84 1.74 20.54 0.37 27.92 6.16 7.16 5.63 11.95 14.76 14.69 27.7 2.51 1.52 5.4 1.75 8.37 1.29 2.97-0.76 6.7-2.36 9.44-4.79 2.58-2.67 4.41-6.09 5.78-10.58-4.26-4.95-4.87-8.3-2.44-11.19 2.44-2.81 8.22-4.49 17.35-5.32 1.37 7.76 1.22 12.93-0.45 15.82-1.83 2.82-5.03 3.28-9.9 1.37-1.44 8.3-4.56 14.61-9.66 19.56-5.17 4.79-12.02 7.84-20.85 9.44 0.68 9.97 0.84 19.4 0.15 28-0.68 8.67-2.81 21.99-4.34 23.51-1.75 1.14-4.34-7.91-5.7-16.05-1.53-8.37-2.74-19.48-3.35-33.64-5.1 5.41-8.98 11.11-11.64 17.43-2.74 6.09-3.43 16.59-5.03 19.78-1.9 3.12-6.31 3.05-6.16-1.37 0-4.79 2.13-13.69 6.39-27.01-8.22-5.4-14-7.61-17.65-7.46-3.81 0-2.44 4.95-4.11 8.98-1.98 3.96-5.1 10.2-6.16 15.83-1.07 5.55 1.06 17.35-0.08 17.73-1.3-0.08-6.47-9.29-7.61-16.21-1.29-7-1.07-15.14 0.38-25.03-2.82-3.58-4.95-4.49-7.23-2.44-2.28 1.98-4.56 7.23-5.93 14.31-1.6 6.85-1.91 23.05-3.28 27.47-1.67 4.26-3.73 3.88-6.16-1.45z"/>
  <path id="path66" d="m110.91 224.34c-6.16 1.82-11.031 3.27-14.911 4.33-3.881 0.76-7.077 1.83-8.37 1.75-1.6 0-1.751-0.76-0.457-1.98 1.673-0.53 2.816-1.44 3.119-2.13 0.229-0.99-0.15-1.75-1.141-2.89 5.553-5.1 10.044-9.66 14.08-13.39 3.73-4.19 6.62-8.3 9.28-9.66 2.44-1.37 4.11 0.76 6.77 2.58 2.59 1.68 7.01 4.42 8.83 7.92 1.52 3.34 1.75 7.45 1.3 12.32-0.61 4.8-3.96 10.58-4.19 15.6-0.23 4.65 0.69 7 2.44 12.33 1.67 5.02 3.88 11.11 7.23 18.26-2.21 6.02-2.67 10.81-1.07 14.08 1.6 3.28 6.31 6.09 10.35 5.48 3.72-0.91 8.06-4.18 12.7-10.12 7.61 0.61 13.09 1.29 16.74 2.66 3.5 1.22 5.03 2.82 4.57 4.8-4.26 4.03-6.54 7.46-6.54 10.58-0.23 2.81 2.74 6.39 5.93 7.45 3.2 1.07 7.15 0.61 12.71-1.06l1.37 9.21c2.97 2.13 6.16 2.66 10.5 1.29 4.03-1.45 8.9-4.49 14.31-9.44-4.34 6.17-8.22 10.35-12.79 13.39-4.49 2.67-8.98 4.19-13.77 3.73-0.08 6.24-0.31 13.02-0.69 20.32-0.61 7.23-0.99 20.62-1.98 22.91-1.29 1.98-2.96-3.05-4.18-10.35-1.07-7.61-1.98-18.34-2.44-33.64-3.04 1.6-6.01 4.49-8.59 8.37-2.97 3.81-5.64 9.67-7.69 14.92-1.98 5.02-3.35 15.14-4.11 16.28-1.14 0.69-1.83-5.32-0.91-10.12 0.84-4.71 2.97-10.65 6.39-17.8-8.06-4.65-14.23-7.39-18.49-7.92-4.49-0.61-6.01 2.06-7.46 4.19-1.37 1.83-0.61 4.34-1.52 7.23-1.52 2.66-4.72 4.94-5.78 9.74-0.99 4.94 0.76 17.42 0.22 18.64-0.83 0.76-3.65-8.98-4.33-13.39-0.84-4.87-0.92-9.06-0.23-13.4 0.53-4.33 3.8-9.05 3.04-11.49-1.06-2.43-3.73-3.27-8.59-2.81l2.89-14.76c8.06-3.05 13.08-5.71 14.76-8.3 1.44-2.81-2.51-5.63-4.87-7.3-2.51-1.75-5.56-2.59-9.44-2.82 0.54-7.23 0-13.01-1.29-17.35-1.68-4.71-5.48-5.86-7.31-9.28-1.82-3.43-2.74-5.56-3.04-10.5-0.38-5.26 0.23-15.15 0.61-19.41 0.07-4.41 0.91-4.72 0.46-6.16-0.61-1.45-2.29-2.51-4.42-2.89z" fill-rule="evenodd" stroke="#000" stroke-miterlimit="10" stroke-width=".034959" fill="#ff8000"/>
  <path id="path68" d="m119.97 317.4c-2.89 0.08-5.48 2.05-7.46 5.94-2.21 3.65-4.11 9.2-5.1 16.66-1.14 7.23-2.05 24.5-1.52 26.86 0.23 2.21 2.28-7.46 3.5-13.16 0.91-6.09 1.6-16.52 3.27-21.61 1.6-5.18 3.96-8.07 7.08-8.98 0.07-1.9 0.15-3.81 0.23-5.71z" fill-rule="evenodd" stroke="#000" stroke-miterlimit="10" stroke-width=".034959" fill="#ff8000"/>
  <path id="path70" d="m126.36 292.14c2.51 0 4.41 0.61 6.31 1.52 1.76 0.84 4.5 1.98 4.42 3.73-0.53 1.37-4.26 4.33-6.17 5.7-1.97 1.37-3.65 1.91-5.02 2.21 0.15-4.34 0.31-8.75 0.46-13.16z" fill-rule="evenodd" stroke="#000" stroke-miterlimit="10" stroke-width=".034959" fill="#ad4200"/>
  <path id="path72" d="m136.02 271.9c-1.44 4.94-1.44 8.67 0 11.18 1.22 2.44 5.03 4.26 7.92 3.73 2.81-0.69 5.55-3.5 8.52-8.14-2.89-0.38-5.55-0.76-8.29-1.98-2.9-1.22-5.33-2.82-8.15-4.79z" fill-rule="evenodd" stroke="#000" stroke-miterlimit="10" stroke-width=".034959" fill="#ad4200"/>
  <path id="path74" d="m180.62 287.72c-2.44 0.69-4.04 1.98-4.8 4.19-0.99 2.05-1.98 6.92 0 8.75 1.98 1.68 5.94 2.36 11.87 1.75 0.08-3.5-0.45-6.32-1.59-8.75-1.22-2.51-3.05-4.49-5.48-5.94z" fill-rule="evenodd" stroke="#000" stroke-miterlimit="10" stroke-width=".034959" fill="#ad4200"/>
  <path id="path76" d="m144.17 306.37c-0.92 1.97 0.53 5.85 2.58 8.14 1.6 1.83 5.18 5.02 8.37 4.64 3.35-0.61 9.59-4.11 10.81-6.39 0.76-2.29-3.43-5.02-5.56-6.78-2.58-1.67-5.17-4.26-8.06-3.95-2.97 0.15-7.15 1.9-8.14 4.34z" fill-rule="evenodd" stroke="#000" stroke-miterlimit="10" stroke-width=".034959"/>
  <path id="path78" d="m146.75 307.74c0.38 1.21 1.68 5.25 3.58 6.54 1.75 1.06 5.4 0.99 7.46 0.68 1.9-0.45 4.56-1.36 4.18-3.04-0.83-1.67-5.09-5.94-7.53-6.62-2.51-0.84-5.56 0.68-6.77 1.29-1.53 0.31-1.45-0.3-0.92 1.15z" fill-rule="evenodd" stroke="#000" stroke-miterlimit="10" stroke-width=".034959" fill="#ad4200"/>
  <path id="path80" d="m175.37 308.12c-1.98-0.84-4.87 1.82-5.71 4.18-1.22 2.06-1.52 7.76 0.23 8.6 1.67 0.68 9.74-1.9 10.73-3.95 0.68-2.29-3.43-8.07-5.25-8.83z" fill-rule="evenodd" stroke="#000" stroke-miterlimit="10" stroke-width=".034959"/>
  <path id="path82" d="m174.07 311.46c-1.37 0.08-3.42 4.27-2.89 5.49 0.46 0.91 5.71 0.98 6.39 0.22 0.31-1.06-2.51-5.71-3.5-5.71z" fill-rule="evenodd" stroke="#000" stroke-miterlimit="10" stroke-width=".034959" fill="#ad4200"/>
  <path id="path84" d="m219.96 292.29c-1.83-1.6-2.74-3.05-3.05-4.34-0.45-1.52-0.53-2.28 1.52-3.5 1.98-1.22 5.64-2.59 10.96-3.81 0.61 5.33 0.61 8.98 0 11.27-0.76 2.05-2.43 1.67-3.88 1.75-1.67 0.07-3.42-0.38-5.55-1.37z" fill-rule="evenodd" stroke="#000" stroke-miterlimit="10" stroke-width=".034959" fill="#ff8000"/>
  <path id="path86" d="m112.89 208.89c-1.37-0.46-5.48 2.81-5.02 3.95 0.38 0.99 5.86 2.97 7 2.44 0.68-0.84-0.76-6.01-1.98-6.39z" fill-rule="evenodd" stroke="#000" stroke-miterlimit="10" stroke-width=".034959"/>
  <path id="path88" d="m116.24 197.02v-7.69c2.89-1.22 4.57-2.59 5.02-3.5 0.46-1.37-1.07-2.43-2.2-2.89-1.53-0.76-5.33-0.68-6.17 0.23-1.06 0.91-0.91 2.81 0.46 5.7l-0.23 8.15h3.12z" fill-rule="evenodd" stroke="#000" stroke-miterlimit="10" stroke-width=".034959" fill="#ad4200"/>
  <path id="path90" d="m112.51 180.35c-1.07 0.84-1.44 1.75-1.75 3.05-0.15 1.21-0.23 2.51 0.38 4.18-1.52-1.22-2.28-2.28-1.98-3.5 0.15-1.29 1.37-2.43 3.35-3.73z" fill-rule="evenodd" stroke="#000" stroke-miterlimit="10" stroke-width=".034959" fill="#ad4200"/>
  <path id="path92" d="m23.707 364.5c-6.543 0.31-10.805 1.68-13.622 4.11-2.6614 2.28-3.5752 1.75-2.7391 10.43 0.305 8.75 3.3511 33.4 5.9351 41.09 2.436 7.3 5.558 8.37 9.059 3.19l1.824 41.02 38.353-3.2-5.937-37.36c4.414 3.04 7.611 2.74 9.588-0.91 1.827-3.81 1.066-13.7 1.827-21.46 0.686-8.37 4.108-20.4 1.751-26.41-2.741-5.93-8.22-8.82-17.273-8.67 6.011-19.03 7.836-32.57 5.479-41.48-2.359-8.9-13.699-11.33-19.632-11.41-6.318-0.23-14.079 4.87-16.818 9.97-2.74 4.79 0.305 12.71 0.912 19.63 0.304 7 0.836 13.78 1.293 21.46z" fill-rule="evenodd" stroke="#000" stroke-miterlimit="10" stroke-width=".034959"/>
  <path id="path94" d="m26.905 369.98c-7.308-1.29-11.874-0.84-14.538 1.37-2.5088 1.9-1.443 4.41-0.91 11.34 0.304 7 0.152 23.89 2.739 30.13 2.283 5.86 6.164 7.69 11.338 5.48 1.598 21.46 2.663 35.46 3.195 42.85 0.533 7.15 0.533 7.3 0 0.45l30.134-2.74-5.48-39.19c3.196 2.36 5.632 3.27 7.305 2.74 1.522-0.83 1.448 0.84 2.739-6.39 1.142-7.61 6.774-29.68 4.566-37.44-2.435-7.84-8.674-10.42-18.717-8.6 2.89-13.92 4.106-25.03 3.651-33.33-0.456-8.52-2.283-14.53-6.393-16.81-4.413-2.59-15.902-1.98-19.177 2.74-3.421 4.71-0.453 17.42-0.453 25.49-0.152 7.83-0.152 15.14 0.001 21.91z" fill-rule="evenodd" stroke="#000" stroke-miterlimit="10" stroke-width=".034959" fill="#ffc080"/>
  <path id="path96" d="m68.907 374.93c-6.467 0.3-11.032 1.67-13.695 4.11-2.665 2.2-3.579 1.9-2.74 10.5 0.304 8.6 3.347 33.33 5.934 41.01 2.434 7.31 5.479 8.37 9.132 3.2l1.827 41.02 38.275-3.13-5.94-37.44c4.42 3.05 7.61 2.74 9.59-0.91 1.83-3.88 1.07-13.47 1.83-21.38 0.53-8.29 4.26-20.55 1.83-26.48-2.67-5.94-8.45-8.83-17.353-8.68 5.553-18.87 7.383-32.49 5.473-41.47-2.13-9.05-12.247-10.81-16.889-12.33-4.565-1.9-8.064-1.29-10.5 2.74-2.585 3.96-4.03 13.62-4.945 21.92-1.22 8.29-1.829 17.12-1.829 27.32z" fill-rule="evenodd" stroke="#000" stroke-miterlimit="10" stroke-width=".034959"/>
  <path id="path98" d="m72.028 380.41c-7.303-1.3-11.871-0.84-14.536 1.37-2.509 1.82-1.445 4.56-0.912 11.41 0.305 7.16 0.153 23.74 2.741 30.06 2.284 5.86 6.085 7.68 11.414 5.48 1.446 21.3 2.587 35.61 3.118 42.91 0.533 7.16 0.533 7.31 0 0.46l30.137-2.74-5.482-39.26c3.192 2.36 5.632 3.27 7.302 2.74 1.52-0.84 1.45 0.83 2.74-6.4 1.15-7.68 6.78-29.52 4.57-37.36-2.44-7.76-8.68-10.65-18.72-8.67 2.889-14.01 4.107-24.81 3.652-33.26-0.456-8.44-2.284-14.76-6.394-16.89-4.413-2.59-15.902-1.98-19.173 2.74-3.425 4.95-0.458 17.2-0.458 25.57-0.151 7.83-0.151 15.22 0.001 21.84z" fill-rule="evenodd" stroke="#000" stroke-miterlimit="10" stroke-width=".034959" fill="#ffc080"/>
  <path id="path100" d="m93.488 318.01c2.737 0.61 6.852-0.61 9.132 1.37 2.05 1.83 1.37 6.92 3.19 9.97 1.52 2.74 6.24 3.42 6.85 7.3 0.38 3.73-2.74 9.59-3.19 15.53-0.46 5.78 0.53 12.17 0.91 19.17 0.3 6.77 0.83 13.85 0.46 21.84-0.99 7.84-2.52 21.69-4.57 25.11-2.05 2.97-6.16-3.95-7.305-6.39-1.369-2.66 0.227-7.84-0.458-8.22-0.911-0.46-2.434 3.88-4.566 5.94-2.663 1.82-9.662 11.72-9.586 5.02 0-7.38 8.294-35.46 10.501-46.95 2.053-11.49 3.499-14.77 2.283-21.01-1.751-6.54-7.152-15.14-10.96-16.43-4.033-1.22-10.347 3.5-11.869 9.13-1.826 5.4 1.368 15.6 2.284 23.28 0.607 7.31 1.901 12.18 2.737 21.39 0.837 9.13 3.653 27.09 2.283 33.33-1.901 6.01-8.827 5.02-11.337 3.19-2.284-2.28-0.992-13.92-2.284-15.52-1.598-1.75-6.163 12.94-6.39 5.94-0.46-7.23 5.172-34.93 4.563-47.87-0.761-13.09-10.195-22.83-8.676-29.22 1.297-6.24 11.341-5.71 16.361-8.67 4.719-3.66 8.827-9.44 12.327-10.89 3.048-1.14 4.494 2.52 7.31 3.66z" fill-rule="evenodd" stroke="#000" stroke-miterlimit="10" stroke-width=".034959"/>
  <path id="path102" d="m12.141 422.18c3.501-3.65 6.619-5.55 9.665-5.4 2.89 0 4.03 6.39 7.835 5.94 3.578-0.69 10.045-10.12 13.546-9.52 3.274 0.69 5.558 4.57 6.543 12.79 3.881-3.58 7.228-5.1 10.044-4.87 3.045 0.07 5.025 3.42 6.775 6.24 1.293 2.51 1.751 5.93 1.369 9.66 2.054-7.46 4.643-12.33 8.598-14 3.731-1.75 8.447-0.91 14.156 3.12-1.296-3.12-0.61-4.72 2.054-4.79 2.812-0.16 11.794 1.52 14.004 4.1 1.9 2.44 0.91 5.64-2.67 10.2 3.05-1.52 5.71-1.45 7.99-0.08 2.21 1.22 4.19 4.57 5.03 8.6 0.45 4.19-0.15 9.06-1.83 15.76 6.32 3.04 9.36 5.4 9.13 7.99-0.3 2.28-3.88 4.49-10.73 6.31 4.41 3.2 6.16 6.7 5.25 11.11-1.06 4.42-11.95 10.2-11.19 14.69 0.46 3.8 13.93 7 14.85 10.19 0.75 3.35-2.37 6.55-9.67 9.9 4.49 2.74 6.17 4.87 4.72 7-1.6 2.05-6.01 3.5-13.55 4.95-2.58 3.72-5.172 4.94-8.368 3.04-3.272-1.9-6.621-6.62-10.348-14.15-0.382 4.94-1.447 8.9-3.805 11.56-2.435 2.67-5.556 4.11-9.969 4.34-13.468-6.16-24.655-18.8-34.701-37.9-9.964-19.32-18.109-44.51-24.728-76.78z" fill-rule="evenodd" stroke="#000" stroke-miterlimit="10" stroke-width=".034959"/>
  <path id="path109" d="m15.185 426.52c1.065-3.42 2.74-4.79 5.024-4.41 2.131 0.23 5.02 7.45 8.674 7 3.348-0.61 9.207-9.97 12.555-9.59 3.12 0.46 5.784 4.19 7.154 11.79 4.414-2.89 7.304-4.26 9.512-4.41 1.825-0.15 1.598 1.07 2.586 3.35 0.989 1.98 2.055 4.95 3.501 8.9l9.892 1.07c-0.609-7.69 0.457-11.95 3.501-13.09 2.966-1.14 7.607 1.07 14.227 6.62 2.513-6.7 4.493-9.36 5.938-8.29 1.291 0.99 2.054 6.01 2.281 14.76 5.94-1.52 9.36-0.61 11.19 2.74 1.52 3.42 1.14 8.9-1.45 17.35 4.41 1.37 6.7 3.12 6.85 5.25 0.15 2.05-2.06 4.49-6.32 7.3 2.59 1.52 3.88 3.43 3.88 5.4-0.3 1.91-2.5 3.5-4.26 6.55-1.82 3.19-5.7 7.38-5.78 11.34-0.3 3.65 3.65 7.3 5.4 10.04 1.53 2.28 5.33 2.44 4.95 4.57s-2.59 4.87-6.93 8.22c4.19 2.35 5.41 4.48 4.8 6.08-0.92 1.6-7.92 2.29-9.89 3.81-2.06 1.29-0.08 6.77-2.591 4.71-2.892-2.35-7.458-7.91-14.001-17.57-1.751 2.13-3.805 4.64-5.86 7.83-2.13 3.05-4.261 6.62-6.696 10.74-10.121-8.22-18.872-18.04-27.09-30.06-8.296-12.18-16.59-29-21.688-41.93-5.25-13.24-8.37-24.88-9.359-36.07z" fill-rule="evenodd" stroke="#000" stroke-miterlimit="10" stroke-width=".034959" fill="url(#linearGradient2278)"/>
  <path id="path111" d="m47.831 464.72c1.216-3.5 3.194-5.63 6.772-7.23 3.348-1.6 7.914-2.13 13.697-1.9 1.673 4.03 1.445 7.61-0.684 10.42-2.283 2.74-6.166 5.03-12.254 6.55 3.654-2.89 6.393-5.33 7.383-7.61 0.911-2.36 0.911-4.03-0.836-5.63-2.284 0.61-4.338 1.37-6.774 2.28-2.359 0.76-4.793 1.91-7.304 3.12z" fill-rule="evenodd" stroke="#000" stroke-miterlimit="10" stroke-width=".034959"/>
  <path id="path113" d="m72.332 471.57c-0.456-3.04 0.303-5.4 2.283-7.92 2.053-2.58 4.869-4.48 9.283-6.54 2.665 2.51 3.807 4.87 3.426 7.92-0.61 2.89-2.665 5.93-6.468 9.43 1.674-3.5 2.51-6.39 2.51-8.37-0.075-1.98-0.99-3.35-2.738-3.8-1.447 1.22-2.815 2.51-4.111 4.18-1.293 1.52-2.968 3.12-4.185 5.1z" fill-rule="evenodd" stroke="#000" stroke-miterlimit="10" stroke-width=".034959"/>
  <path id="path115" d="m78.725 470.05c2.053-2.06 4.488-3.05 7.609-2.97 3.121-0.08 6.543 1.14 10.882 3.35-0.305 3.58-1.598 6.08-4.187 7.53-2.814 1.45-6.316 1.37-11.415 0.61 3.959-0.99 6.393-1.75 8.144-3.12 1.52-1.44 1.98-2.66 1.368-4.49-1.977-0.38-3.728-0.61-5.858-0.68-2.207-0.23-4.185-0.31-6.543-0.23z" fill-rule="evenodd" stroke="#000" stroke-miterlimit="10" stroke-width=".034959"/>
  <path id="path117" d="m80.549 475.3c2.892 0 5.176 0.76 7.459 3.12 2.132 2.13 3.958 5.48 5.481 10.04-2.666 2.36-5.404 3.27-8.22 2.44-2.816-0.84-5.709-3.35-8.674-7.54 3.348 2.13 5.934 3.2 8.064 3.5 2.133 0.08 3.199-0.68 4.033-2.28-1.142-1.6-2.358-3.12-3.651-4.56-1.294-1.53-2.894-3.2-4.492-4.72z" fill-rule="evenodd" stroke="#000" stroke-miterlimit="10" stroke-width=".034959"/>
  <path id="path119" d="m55.667 500.56c1.066-3.35 3.348-5.63 6.85-7.15 3.348-1.52 7.913-2.28 13.696-1.98 1.674 4.03 1.446 7.61-0.684 10.42-2.283 2.82-6.164 5.03-12.253 6.62 3.654-3.04 6.393-5.4 7.381-7.68 0.914-2.13 0.914-4.19-0.836-5.56-2.282 0.46-4.336 1.3-6.771 2.21-2.514 0.76-4.871 1.91-7.383 3.12z" fill-rule="evenodd" stroke="#000" stroke-miterlimit="10" stroke-width=".034959"/>
  <path id="path121" d="m65.406 501.4c3.274-1.07 6.47-0.84 9.893 0.99 3.425 1.83 6.467 4.94 9.969 9.66-2.284 3.96-5.174 5.71-8.674 5.86-3.731 0-7.688-1.9-12.71-5.7 4.642 1.21 8.067 1.59 10.579 1.14 2.359-0.46 3.653-1.91 3.882-4.04-1.83-1.37-3.807-2.81-5.938-4.03-2.13-1.37-4.565-2.66-7.001-3.88z" fill-rule="evenodd" stroke="#000" stroke-miterlimit="10" stroke-width=".034959"/>
  <path id="path123" d="m76.213 348.07c0-0.46 0.609-0.69 1.825-0.99 0.99-0.31 3.196-1.07 4.567-0.84 1.142-0.08 1.979 0.15 2.206 0.68-0.227 0.31-1.673 1.07-2.283 1.68-0.762 0.38-0.229 1.29-0.762 1.29-0.759-0.15-1.673-1.59-2.435-1.67-0.76-0.08-1.368 0.61-1.825 0.84-0.609-0.16-1.445-0.69-1.293-0.99z" fill-rule="evenodd" stroke="#000" stroke-miterlimit="10" stroke-width=".034959"/>
  <path id="path125" d="m86.334 348.07c0-0.46 0.685-0.69 1.75-0.99 0.912-0.31 3.424-1.07 4.642-0.84 1.142-0.08 1.976 0.15 2.206 0.68-0.23 0.31-1.674 1.07-2.283 1.68-0.684 0.38-0.38 1.29-0.839 1.29-0.835-0.15-1.52-1.59-2.356-1.67-0.685-0.08-1.524 0.61-1.905 0.84-0.683-0.16-1.292-0.69-1.215-0.99z" fill-rule="evenodd" stroke="#000" stroke-miterlimit="10" stroke-width=".034959"/>
  <path id="path127" d="m84.659 350.73s0.153 0.91 0.457 2.13c0.229 1.07 1.219 2.59 1.219 3.96-0.381 1.14-1.446 2.96-2.054 3.12-0.762 0.07-1.219-2.59-1.067-2.74 0.077-0.46 1.75 1.06 2.055 0.46 0-0.99-1.066-3.81-1.142-4.95-0.23-1.3 0.229-2.06 0.532-1.98z" fill-rule="evenodd" stroke="#000" stroke-miterlimit="10" stroke-width=".034959"/>
  <path id="path129" d="m81.54 362.75c-0.229-0.3 2.13 1.6 3.576 1.6 0.991-0.15 4.034-1.98 4.186-1.67 0 0.07-1.37 2.66-2.662 2.81-1.525-0.07-4.796-2.66-5.1-2.74z" fill-rule="evenodd" stroke="#000" stroke-miterlimit="10" stroke-width=".034959"/>
  <path id="path131" d="m30.633 335.44c0-0.23 0.685-0.84 1.751-1 0.91-0.38 3.422-0.98 4.639-0.91 1.141-0.07 1.981 0.15 2.21 0.69-0.229 0.22-1.677 1.22-2.284 1.75-0.686 0.38-0.382 1.29-0.838 1.29-0.838-0.15-1.523-1.6-2.36-1.67-0.683 0-1.521 0.45-1.901 0.76-0.685-0.15-1.293-0.76-1.217-0.91z" fill-rule="evenodd" stroke="#000" stroke-miterlimit="10" stroke-width=".034959"/>
  <path id="path133" d="m40.751 335.44c0-0.23 0.686-0.84 1.75-1 0.915-0.38 3.427-0.98 4.643-0.91 1.142-0.07 1.98 0.15 2.207 0.69-0.38 0.22-1.75 1.22-2.357 1.75-0.763 0.38-0.23 1.29-0.763 1.29-0.761-0.15-1.675-1.6-2.436-1.67-0.761 0-1.368 0.45-1.826 0.76-0.684-0.15-1.292-0.76-1.218-0.91z" fill-rule="evenodd" stroke="#000" stroke-miterlimit="10" stroke-width=".034959"/>
  <path id="path135" d="m39.306 338.1c0 0.07 0.076 0.99 0.533 2.43 0.305 0.99 1.37 3.35 1.446 4.72-0.304 1.3-1.903 3.5-2.436 3.65-0.76-0.07-1.447-2.81-1.218-3.27 0.077-0.3 2.132 1.14 2.36 0.53 0.227-0.91-1.371-4.49-1.293-5.78-0.078-1.37 0.228-2.51 0.608-2.28z" fill-rule="evenodd" stroke="#000" stroke-miterlimit="10" stroke-width=".034959"/>
  <path id="path137" d="m33.448 348.14c-0.154-0.53 3.575 3.35 5.934 3.43 2.207-0.23 6.697-3.88 7-3.58-0.226 0.38-4.488 5.4-6.618 5.63-2.362-0.07-6.316-5.32-6.316-5.48z" fill-rule="evenodd" stroke="#000" stroke-miterlimit="10" stroke-width=".034959"/>
  <path id="path139" d="m25.076 334.67c-0.76-1.67-0.836-3.65-0.533-5.93 0.305-2.44 0.611-6.01 2.665-7.76 1.826-1.68 5.707-2.13 8.75-2.59 3.046-1.07 6.011-2.28 8.903-1.29 2.586 0.99 4.642 5.02 6.467 8.29 1.75 3.27 3.274 6.62 4.264 10.88 2.587-2.28 4.412-4.49 5.783-6.62 1.369-2.43 2.281-5.25 2.13-6.39-0.383-1.06-1.751-1.06-4.111 0-0.605-6.7-1.215-10.65-2.129-12.17-0.911-1.52-1.825-0.61-3.043 3.04-6.849-4.79-10.958-7.46-12.632-7.69-1.676-0.45-0.609 1.53 2.891 5.63-10.12-2.58-15.904-3.65-18.187-3.49-2.284 0-0.607 1.52 5.024 4.26-6.317 1.06-9.893 1.75-11.034 2.66-1.066 0.61 0.305 1.45 4.412 1.9-4.106 3.5-6.237 6.01-6.696 7.23-0.607 1.14 0.76 1.29 3.806 0.15-3.73 4.95-5.175 7.92-4.642 9.74 0.455 1.75 3.196 1.52 7.912 0.15z" fill-rule="evenodd" stroke="#000" stroke-miterlimit="10" stroke-width=".034959"/>
  <path id="path141" d="m100.87 399.35c0.45 0.61-0.69 1.68-0.15 4.11 0.45 2.44 1.36 8.45 2.43 10.13 0.99 1.29 2.13 1.52 3.12-1.38 0.46-3.11 0.84-10.34 1.14-16.13 0.54-5.78 0.76-11.87 0.99-18.56-0.23-7-1.82-17.2-1.52-23.29 0.31-6.47 2.89-11.11 3.05-14.53-0.31-3.43-2.29-4.11-3.58-6.47-1.22-2.51-2.82-6.62-4.19-8.52-1.67-2.21-3.039-2.36-5.322-3.66-2.665-1.37-6.621-4.87-9.513-4.33-2.968 0.53-3.883 4.18-7.764 6.84-4.108 2.36-12.935 5.18-15.904 7.54-3.12 2.2-3.12 2.05-2.357 5.7 0.533 3.5 4.337 10.12 5.857 15.45 1.219 5.02 2.589 7.38 2.057 15.9-0.762 8.76-5.558 29.53-5.558 35.31-0.073 5.18 4.492-3.42 5.785-2.89 1.142 0.53 1.445 3.5 1.749 6.54 0 2.75-1.142 8.68-0.225 10.73 0.685 1.91 4.032 2.14 5.631 0.99 1.598-1.29 3.575-3.27 3.881-8.29-0.077-5.4-1.523-12.4-2.893-22.14-1.447-9.82-3.957-27.02-4.871-35.47-0.914-8.59-2.361-10.95-0.227-14.99 2.053-4.33 8.445-8.9 12.099-9.89 3.499-1.06 5.249 0.99 8.142 4.42 2.51 3.34 6.314 10.42 7.303 15.9 0.61 5.33-0.378 7.76-2.053 15.83-1.826 7.91-6.089 23.36-7.836 31.12-1.98 7.46-2.894 11.79-2.436 13.85 0.304 1.67 3.422-0.99 5.249-2.74 1.827-2.05 3.654-6.77 5.174-7.99 1.295-1.37 2.212 0 2.742 0.91z" fill-rule="evenodd" stroke="#000" stroke-miterlimit="10" stroke-width=".034959" fill="#c2c200"/>
  <path id="path143" d="m230.84 482.53c-0.91-7.31-1.6-12.86-2.66-16.67-1.22-3.95-0.99-5.86-3.43-6.54-2.66-0.84-9.36 2.21-11.56 1.83-2.44-0.84-4.19-2.52-1.98-5.03 2.2-2.81 11.41-8.82 15.6-10.12 3.95-1.22 7.53-0.23 8.98 2.97 1.14 2.89-1.6 11.34-0.84 15.07 0.99 3.57 2.74 5.48 6.09 6.01 1.29-7.54 4.87-13.01 9.89-17.05 4.95-4.18 14.23-6.69 20.85-6.69 6.47-0.16 14.08 2.51 18.42 6.24 4.1 3.5 4.94 10.57 6.92 15.37 1.9 4.64 3.58 8.9 4.72 12.78-3.5-1.22-5.41-1.22-6.32 0-0.76 1.14 1.14 4.19 1.3 7.08 0 2.59-0.23 7.23-1.6 9.21-1.91 1.59-6.32 2.2-8.22 1.82-1.9-0.3-2.67-1.67-2.59-3.8-1.98 1.44-3.8 2.36-5.78 2.74-2.29 0.22-5.18 1.37-6.32-0.99-1.21-2.67-1.44-7.16-0.68-14.08l-13.32-1.14c-0.46 4.94-1.22 8.44-2.28 10.8-1.07 1.98-2.67 2.59-4.49 2.74-2.21 0.15-6.17-0.53-7.46-1.22-1.45-1.06-1.6-2.13-0.76-4.03-1.52 1.83-3.12 2.89-5.1 3.2-2.05 0.38-5.63-0.31-6.62-1.75-1.29-1.83-1.45-4.64-0.76-8.75z" fill-rule="evenodd" stroke="#000" stroke-miterlimit="10" stroke-width=".034959"/>
  <path id="path145" d="m240.5 471.8c-2.43-0.46-4.26-1.75-5.48-3.58-1.37-1.98-1.9-5.48-1.9-7.84-0.08-2.51 1.45-4.94 1.37-7-0.38-2.28-1.9-5.48-3.42-6.08-1.75-0.54-3.96 0-6.93 1.9-3.35 1.59-10.35 6.01-11.56 7.68-1.07 1.22 2.28 1.3 4.71 1.37 2.36-0.23 5.86-0.91 8.15-0.61 1.82 0.38 1.82 0.54 3.19 3.43 1.14 2.89 2.82 9.36 3.81 13.24 0.68 3.5 0.76 6.24 0.83 8.52-0.15 2.13-1.06 3.35-0.68 4.87 0.23 1.37 1.67 2.97 2.89 3.65 0.91 0.16 1.98-0.07 3.5-0.68 1.52-0.53 3.2-1.6 5.33-2.89-0.31 2.43-0.08 4.03 1.29 5.1 0.91 0.68 4.57 0.83 6.01 0.45 1.45-0.22 2.21-0.68 3.2-2.28 0.76-1.83 1.52-4.87 1.98-8.83-4.19-1.6-7.61-3.35-10.28-4.94-2.81-1.75-4.71-3.58-6.01-5.48z" fill-rule="evenodd" stroke="#000" stroke-miterlimit="10" stroke-width=".034959" fill="#008040"/>
  <path id="path147" d="m273.83 482.83c-0.76 3.43-0.99 6.39-0.38 8.6 0.23 2.13 1.29 4.41 3.2 4.79 1.83 0.23 4.72-0.76 8.37-2.96 0.07 1.97 0.68 3.5 2.13 3.95 1.14 0.61 4.56 0.15 5.86-0.76 1.37-1.14 1.98-3.12 2.13-5.63 0-2.74-0.46-6.01-1.68-10.12-5.4 0.69-9.74 1.22-13.01 1.6s-5.48 0.46-6.62 0.53z" fill-rule="evenodd" stroke="#000" stroke-miterlimit="10" stroke-width=".034959" fill="#008040"/>
  <path id="path149" d="m298.72 477.89c-1.22 0.38-3.58 0.91-7.92 1.29-4.56 0.38-11.34 0.76-17.42 0.84-6.32-0.16-13.55-0.23-18.72-1.45-5.18-1.6-8.98-3.65-11.72-7 1.75-5.02 3.88-8.98 6.39-12.18 2.21-3.11 4.26-5.32 8.22-6.92 3.96-2.13 10.35-4.34 15.07-4.26 4.56 0 8.67 3.04 11.71 5.02 2.44 1.67 2.44 1.67 4.72 5.86 2.36 4.19 5.48 10.35 9.67 18.8z" fill-rule="evenodd" stroke="#000" stroke-miterlimit="10" stroke-width=".034959" fill="#0f0"/>
  <path id="path151" d="m247.88 457.26l9.75 7.54 1.29 15.29 1.98 0.08-0.92-13.85 11.11-8.22 8.75 8.52 1.3 13.62 2.66 0.61-1.37-14.76 8.75-5.1-0.99-2.44-9.74 5.26-7.68-7.76 2.66-8.15-4.26 0.15-0.76 7.08-10.66 7.84-9.05-6.93-2.81 1.22h-0.01z" fill-rule="evenodd" stroke="#000" stroke-miterlimit="10" stroke-width=".034959"/>
  <path id="path153" d="m228.86 450.34c-0.99-0.31-5.1 1.14-5.33 1.98-0.22 0.53 3.28 1.6 4.34 1.44 0.76-0.61 1.67-3.11 0.99-3.42z" fill-rule="evenodd" stroke="#000" stroke-miterlimit="10" stroke-width=".034959"/>
  <path id="path155" d="m286.54 336.73c0.53 0.07 1.14 0.53 1.83 1.37 0.45 0.76 1.37 1.9 1.9 3.42 2.13-0.3 4.41-0.07 6.54 0.69s4.11 1.9 6.24 3.73c0.76-1.3 1.6-1.91 2.82-2.44 0.99-0.61 2.28-0.53 3.88-0.38 0.46 0.84 0.08 1.98-0.53 3.73-0.77 1.52-2.06 3.65-3.88 6.09 0.6 4.11 0.15 7-1.07 8.98-1.29 1.82-3.65 2.73-6.77 2.43-0.38 3.27-0.61 5.71-0.69 8.14-0.15 2.13-0.15 3.58-0.3 5.48-0.38 1.9-1.07 3.43-2.06 5.41 2.13 6.16 3.88 10.8 5.25 14.53 1.15 3.65 1.68 4.72 2.21 7 0.46 1.83 0.76 3.65 0.91 4.87 1.91 0.46 2.97 0.76 3.81 1.52 0.61 0.46 0.99 1.6 0.3 2.29-0.99 0.76-4.03 1.14-5.33 1.44-1.44 0-1.29 1.14-2.43-1.52-1.29-2.82-3.58-11.49-4.79-15.45-1.53-4.26-2.37-7.38-3.35-9.66-0.99-2.21-1.83-3.58-2.51-3.81-1.37 0.46-2.13 1.3-2.59 2.51-0.69 1.07-1.07 2.52-0.31 4.65 0.61 1.97 3.96 5.17 4.8 7.83 0.68 2.51 1.6 5.25-0.15 7.39-2.06 1.9-7.99 4.03-10.43 4.03-2.43-0.46-4.18-3.88-4.03-5.03-0.08-1.06 2.81-1.52 3.96-1.36 0.99 0.15 1.14 2.2 2.51 2.36 0.91 0 3.73-0.69 4.33-2.36 0.31-2.06-0.22-5.63-1.29-8.07-1.14-2.43-4.26-2.97-4.64-5.4-0.46-2.67 0.46-5.86 2.44-9.9-1.68 1.91-4.5 3.5-9.06 4.8-4.64 1.29-10.5 2.28-17.88 2.97 0.3 0.99 0 2.51-0.61 4.56-0.84 2.06-3.96 4.19-3.81 7.23 0.15 2.97 2.36 7.76 4.27 9.97 1.67 1.9 4.49 1.14 5.78 2.13 0.91 0.99 1.98 2.21 0.83 3.04-1.14 0.46-3.72 0.61-7.76 0.16-0.53-0.69-1.59-1.98-3.19-3.58-1.75-1.9-5.1-3.81-6.55-6.85-1.52-3.12-2.13-6.93-2.13-11.72-1.67 1.45-4.18 2.59-6.92 3.43-3.05 0.68-7.84 0-10.27 1.44-2.44 1.52-4.34 4.34-4.87 6.7-0.61 2.05-0.69 4.11 0.6 5.86 1.91 0.15 2.97 0.99 3.5 1.67 0.31 0.91 0.08 1.68-0.99 3.12-3.04 0.15-5.02-0.23-6.24-0.83-1.36-0.61-0.98-1.45-0.91-3.35 0-2.29 0.69-7.54 1.22-9.9 0.46-2.43 0.46-4.1 1.75-5.02 1.14-1.21 3.58-0.76 5.56-2.43 1.82-2.06 4.79-4.49 6.01-8.76 0.99-4.48 1.52-12.78 0.76-16.66-1.07-4.03-1.22-4.26-5.41-7.15-4.33-3.12-14.76-7.15-18.94-10.66-4.27-3.95-5.56-7.6-6.25-10.95-0.98-3.5 0.31-7.99 1.22-9.06 0.69-1.14 2.06-0.23 3.5 2.13 1.15 1.91 1.22 7.92 4.34 11.04 2.89 2.96 9.59 6.31 13.62 8.29 3.65 1.83 6.77 1.75 9.36 4.19 2.59 2.36 4.64 6.01 6.17 10.65 6.31 0.15 11.64 0 16.28-0.46 4.64-0.45 7.91-1.29 11.26-2.51 3.12-1.75 5.03-5.17 7.77-6.47 2.43-1.29 5.02-1.82 7.45-1.29-1.29-1.75-2.21-3.27-2.43-4.87-0.31-1.83 0.07-3.2 0.83-4.41 0.69-1.14 1.91-1.98 3.66-2.21-0.23-3.04-0.16-5.25 0.22-6.62 0.16-1.52 0.99-2.13 1.68-2.13z" fill-rule="evenodd" stroke="#000" stroke-miterlimit="10" stroke-width=".034959"/>
  <path id="path157" d="m303.05 347.08c0.31-0.76 1.3-1.37 2.13-1.83 0.76-0.46 2.21-0.76 3.5-0.91-0.3 1.52-0.76 2.74-1.37 3.96-0.61 1.14-1.82 2.28-2.81 3.11 0.61 3.2 0.68 5.79 0.23 7.77-0.54 1.75-1.6 2.58-2.89 3.42-1.3 0.61-3.12 0.84-5.18 0.69 0 3.57-0.15 6.08-0.15 8.14-0.31 1.67-0.38 2.43-0.53 3.5 0 1.06-0.08 1.9-0.23 3.42-0.38 1.45-1.37 3.04-2.36 5.1 0.91 1.52 1.75 3.73 2.81 6.31 0.99 2.59 2.13 6.47 3.13 9.29 0.68 2.44 0.98 3.65 1.52 5.71 0.38 1.75 0.83 3.57 1.37 5.48 1.14 0.15 1.97 0.38 2.81 0.99 0.61 0.53 1.45 1.14 1.67 1.82 0.16 0.31-0.22 0.61-0.83 0.61-0.69-1.06-1.07-1.22-1.14-1.29-0.31-0.08 0.07 0.38 0.3 1.37-0.99-0.99-1.6-1.07-1.82-1.07-0.23 0-0.08 0.53 0.45 1.6l-3.04 0.08c-0.91-2.44-1.68-5.25-2.59-8.45-1.14-3.65-2.05-8.45-3.04-11.42-0.92-3.11-1.75-4.41-2.51-6.24-1.07-1.75-2.52-3.34-4.04-4.49-1.52 0.23-2.36 0.92-3.12 1.76-0.91 0.76-1.29 1.97-1.14 3.34 0 1.14 0.91 3.05 1.83 4.49 0.83 1.3 1.9 2.36 2.89 4.34 0.91 1.83 2.13 4.95 1.9 7-0.53 1.75-3.73 2.97-5.17 3.96-1.83 0.83-3.5 1.44-4.72 1.52-1.14 0.15-1.83-0.23-2.36-0.84-0.76-0.68-1.44-1.9-2.05-3.35 0.45 0.46 0.83 0.54 1.14 0.54 0.15-0.15 0.3-0.69 0.15-1.3 0.38 0.54 0.76 0.69 0.84 0.76 0.15-0.07 0-0.45-0.15-1.14 0.53-0.3 0.98-0.15 1.36 0.15 0.39 0.23 0.31 1.22 1 1.76 0.45 0.3 1.06 0.83 2.13 0.76 0.98-0.23 3.34-1.07 4.18-1.91 0.61-0.99 0.38-2.36 0.15-3.8-0.3-1.6-0.76-4.49-1.37-5.78-0.76-1.53-2.2-2.13-2.89-2.97-0.84-0.99-1.6-1.75-1.67-2.89-0.16-1.53 0.38-3.12 0.99-4.8 0.53-1.75 0.91-3.04 1.75-4.72-0.54 0.31-1.37 0.31-2.51 0-1.22-0.38-2.74-1.06-4.57-2.05 0.61 0.76 1.45 1.75 2.2 2.13 0.77 0.61 1.68 0.61 2.74 0.84-1.97 0.98-3.88 1.98-5.7 2.66-2.06 0.68-3.96 1.29-6.01 1.83-2.21 0.45-4.19 0.76-6.85 1.21-3.12 0.23-7.92 0.61-10.28 0.84-2.28 0.15-3.19 0.15-3.04 0.3 1.07-1.44 1.75-2.96 2.36-4.87 0.53-2.05 0.84-4.79 0.61-6.46-0.76-1.68-3.27-3.35-3.43-3.28-0.15-0.07 2.21 1.3 2.67 2.9 0.15 1.37 0.07 3.95-0.53 6.01-0.69 1.82-1.3 3.57-3.05 5.55-2.21 1.91-5.55 4.57-8.29 6.24-2.82 1.37-5.33 1.83-7.54 2.51-2.51 0.31-4.41-0.15-6.01 0.38-1.75 0.16-2.58 0.99-3.42 1.91-1.07 1.06-1.83 2.2-2.28 4.03-0.77 1.52-1.15 3.8-1.15 5.4 0 1.45 0.38 2.36 1.15 3.05 0.98 0.15 1.9 0.15 2.43 0.6 0.46 0.31 0.76 0.77 0.91 1.38 0.16 0.45-0.3 1.06-0.53 1.82l-1.29 0.23c-0.08-0.99-0.31-1.45-0.38-1.37-0.31 0-0.46 0.3-0.77 1.22-0.15-0.99-0.15-1.45-0.3-1.37-0.15 0.07-0.46 0.23-0.61 1.29-0.61 0-1.14-0.08-1.6-0.23-0.53-0.22-1.29-0.15-1.37-1.21-0.15-1.3-0.15-3.73 0.31-6.17 0.45-2.81 0.76-7.91 1.75-9.74 0.61-1.82 1.9-0.99 3.04-1.29 0.99-0.38 2.44-1.07 3.73-1.75 1.14-0.92 2.21-1.45 3.5-3.96 1.22-2.89 2.97-8.98 3.81-12.71 0.38-3.95 0.15-7.91-0.38-10.42-0.84-2.59-0.99-3.35-3.66-5.18-2.89-2.2-9.13-4.87-12.55-6.84-3.58-2.14-6.01-3.58-8.15-5.26-2.13-1.82-3.57-3.42-4.64-5.4-1.37-2.36-2.13-5.17-2.28-7.3-0.08-2.21 0.53-5.41 1.52-5.18 0.76 0.31 2.28 4.26 3.35 6.62 0.84 1.91 0.53 4.04 2.36 5.79 1.6 1.59 4.87 3.27 8.07 5.02 2.89 1.75 7.83 3.5 10.42 4.95 2.59 1.21 3.65 0.83 5.25 2.35 1.37 1.22 2.05 3.43 3.2 5.41 0.99 1.82 1.97 4.49 2.66 5.63 0.46 0.83 0.53 0.91 0.23-0.08 5.32 0.46 9.96 0.61 14.3 0.38s8.3-0.84 11.42-1.82c3.04-1.07 4.94-2.97 6.77-4.34 1.67-1.45 1.75-3.12 3.57-4.03 1.91-0.84 4.27-1.22 7.31-1.15 0.23 0.38 0.61 0.92 1.14 1.68 0.61 0.76 1.3 2.05 2.13 2.74 0.84 0.68 1.68 1.14 2.74 1.37-0.68-0.46-1.37-1.22-2.2-2.13-0.84-0.99-2.06-2.44-2.74-3.73-0.61-1.37-2.13-2.89-2.21-4.26-0.07-1.37-0.53-3.58 0.08-4.95 0.6-1.37 3.04-1.45 4.49-3.04-0.38-0.23-0.54-2.21-0.46-3.12 0.08-0.92 0.38-2.14 0.99-3.66 0.99 0.91 1.75 1.68 2.2 2.44 0.54 0.76 0.69 1.44 0.69 2.05 1.98 0.38 3.65-0.38 5.02 0.08 1.3 0.46 3.73 0.84 4.72 1.29 0.84 0.54 2.82 2.51 3.58 3.12l0.3-0.45z" fill-rule="evenodd" stroke="#000" stroke-miterlimit="10" stroke-width=".034959" fill="#616161"/>
  <path id="path159" d="m298.18 351.19c-0.61 0.83-1.75 1.14-2.43 0.68-0.76-0.53-0.84-1.67-0.23-2.51 0.61-0.91 1.67-1.14 2.43-0.68 0.69 0.53 0.84 1.67 0.23 2.51z" fill-rule="evenodd" stroke="#000" stroke-miterlimit="10" stroke-width=".034959"/>
  <path id="path161" d="m293.54 349.51c-0.61 0.92-1.67 1.14-2.43 0.69-0.69-0.54-0.84-1.68-0.23-2.51 0.61-0.84 1.67-1.14 2.43-0.69 0.69 0.53 0.84 1.68 0.23 2.51z" fill-rule="evenodd" stroke="#000" stroke-miterlimit="10" stroke-width=".034959"/>
  <path id="path163" d="m300.77 355.75c-0.99 0.84-1.75 1.91-2.89 2.36-1.37 0.69-2.66 0.76-3.58 1.07-0.99-0.16-1.67-0.69-2.05-0.99-0.54-0.53-0.92-0.91-0.84-1.45-0.08-0.53 0.15-1.44 0.68-2.13 0.99-0.38 1.6-0.68 1.83-0.91 0-0.38-0.61-0.69-0.99-0.91-0.68-0.39-1.22-1.37-1.6-0.92-0.22 0.16-0.3 0.92 0.08 2.29-0.53 0.91-0.84 1.21-1.52 1.52-0.61 0-1.6-0.15-2.13-0.46-0.92-0.46-1.45-0.91-1.6-1.98-0.08-1.37 0.84-4.49 0.99-4.94 0-0.46-1.22 1.37-1.3 2.51-0.3 0.99-0.45 2.43-0.15 3.5 0.15 0.68 0.76 1.22 1.52 1.6 0.77 0.23 1.91 0.45 3.43 0.38 0.07 0.45 0.23 1.06 0.46 1.52 0 0.46 0.45 0.83 0.53 1.14-0.46 0.68-0.76 1.29-1.22 1.52-0.61 0.15-1.29 0.23-1.75-0.07-0.46-0.61-1.07-2.82-0.99-2.82-0.23 0 0 2.44 0.38 3.2 0.31 0.61 1.29 0.68 2.06 0.53 0.53-0.3 1.52-0.84 2.13-1.9 0.91 0.38 1.75 0.68 2.81 0.61 0.84-0.08 2.44-0.46 3.35-1.14 0.99-0.85 1.67-1.68 2.36-3.13z" fill-rule="evenodd" stroke="#000" stroke-miterlimit="10" stroke-width=".034959"/>
  <path id="path165" d="m288.44 352.33c-1.98-2.06-4.11-3.96-6.08-5.71-2.06-1.75-4.27-3.65-6.32-5.1 1.6 1.3 3.04 2.9 5.17 4.8 1.75 1.67 4.19 3.65 6.47 5.93 0.23 0 0.46 0 0.76 0.08z" fill-rule="evenodd" stroke="#000" stroke-miterlimit="10" stroke-width=".034959"/>
  <path id="path167" d="m287.83 352.79c-2.28-1.75-4.41-3.28-6.69-4.88-2.36-1.59-4.64-3.04-6.85-4.33 1.6 1.21 3.5 2.51 5.71 4.18 2.13 1.52 4.41 3.2 7.15 5.03h0.68z" fill-rule="evenodd" stroke="#000" stroke-miterlimit="10" stroke-width=".034959"/>
  <path id="path169" d="m287.83 353.47c-2.89-1.29-5.7-2.36-8.44-3.5-2.89-1.14-5.63-2.13-8.53-2.97 2.06 0.76 4.57 1.98 7.23 3.04 2.74 1.07 5.64 2.29 8.98 3.66 0.23-0.08 0.46-0.15 0.76-0.23z" fill-rule="evenodd" stroke="#000" stroke-miterlimit="10" stroke-width=".034959"/>
  <path id="path171" d="m295.9 356.74c2.59 0.99 5.02 2.21 7.61 3.35 2.44 1.14 4.72 2.51 7.15 3.8-1.97-0.83-4.1-1.67-6.39-2.81-2.51-1.14-5.17-2.28-7.99-3.73-0.08-0.15-0.23-0.38-0.38-0.61z" fill-rule="evenodd" stroke="#000" stroke-miterlimit="10" stroke-width=".034959"/>
  <path id="path173" d="m295.75 357.43c2.43 1.29 4.79 2.81 7.07 4.26 2.29 1.44 4.49 3.12 6.62 4.71-1.67-1.14-3.95-2.35-6.01-3.65-2.43-1.44-4.64-2.89-7.45-4.64-0.08-0.23-0.16-0.45-0.23-0.68z" fill-rule="evenodd" stroke="#000" stroke-miterlimit="10" stroke-width=".034959"/>
  <path id="path175" d="m295.06 357.73c2.36 1.98 4.34 4.11 6.55 6.39 2.05 2.13 3.95 4.49 6.01 6.78-1.52-1.68-3.65-3.51-5.56-5.48-2.13-2.13-4.41-4.34-6.84-6.93 0-0.23-0.08-0.46-0.16-0.76z" fill-rule="evenodd" stroke="#000" stroke-miterlimit="10" stroke-width=".034959"/>
  <path id="path177" d="m255.11 389.01c0.38 0.76 0.46 1.59 0.23 2.81-0.38 1.07-1.06 2.29-1.75 3.65-0.83 0.99-2.13 2.36-2.43 3.81-0.46 1.22 0 3.2 0.53 4.72 0.38 1.6 1.21 3.19 1.9 4.49 0.46 0.99 0.76 1.82 1.52 2.51 0.61 0.53 1.9 0.99 2.97 1.37 0.84 0 2.13 0.45 2.97 0.76 0.76 0.38 1.14 1.06 1.44 2.05l-1.52 0.69c-0.53-1.22-0.99-1.83-1.06-1.83-0.23-0.15-0.31 0.53-0.23 1.75-0.31-1.14-0.99-1.6-1.22-1.67-0.46-0.08-0.83 0.45-1.14 1.59l-1.83-0.15c-1.06-1.06-2.2-2.51-3.72-4.03-1.68-1.9-4.11-4.26-5.26-5.86-1.21-1.67-1.14-1.98-1.52-3.88-0.53-2.21-0.61-4.95-0.83-8.52 1.98-0.76 3.65-1.6 4.71-2.21 1.07-0.76 1.53-1.37 1.68-1.83 1.52-0.07 3.04-0.15 4.56-0.22z" fill-rule="evenodd" stroke="#000" stroke-miterlimit="10" stroke-width=".034959" fill="#616161"/>
  <metadata>
    <rdf:RDF>
      <cc:Work>
        <dc:format>image/svg+xml</dc:format>
        <dc:type rdf:resource="http://purl.org/dc/dcmitype/StillImage"/>
        <cc:license rdf:resource="http://creativecommons.org/licenses/publicdomain/"/>
        <dc:publisher>
          <cc:Agent rdf:about="http://openclipart.org/">
            <dc:title>Openclipart</dc:title>
          </cc:Agent>
        </dc:publisher>
        <dc:title>Creation Days Numbers</dc:title>
        <dc:date>2007-11-13T16:32:45</dc:date>
        <dc:description>The days of creation - completed originally to fulfill a request on the OpenClipart wiki.</dc:description>
        <dc:source>http://openclipart.org/detail/8225/creation-days-numbers-by-gerald_g-8225</dc:source>
        <dc:creator>
          <cc:Agent>
            <dc:title>Gerald_G</dc:title>
          </cc:Agent>
        </dc:creator>
        <dc:subject>
          <rdf:Bag>
            <rdf:li>adam</rdf:li>
            <rdf:li>cartoon</rdf:li>
            <rdf:li>clip art</rdf:li>
            <rdf:li>clipart</rdf:li>
            <rdf:li>creation</rdf:li>
            <rdf:li>eve</rdf:li>
            <rdf:li>god</rdf:li>
            <rdf:li>number</rdf:li>
            <rdf:li>religion</rdf:li>
          </rdf:Bag>
        </dc:subject>
      </cc:Work>
      <cc:License rdf:about="http://creativecommons.org/licenses/publicdomain/">
        <cc:permits rdf:resource="http://creativecommons.org/ns#Reproduction"/>
        <cc:permits rdf:resource="http://creativecommons.org/ns#Distribution"/>
        <cc:permits rdf:resource="http://creativecommons.org/ns#DerivativeWorks"/>
      </cc:License>
    </rdf:RDF>
  </metadata>
</svg>
