<?xml version="1.0" encoding="utf-8"?>
<!-- Generator: Adobe Illustrator 22.0.1, SVG Export Plug-In . SVG Version: 6.00 Build 0)  -->
<svg version="1.1" id="Layer_1" xmlns="http://www.w3.org/2000/svg" xmlns:xlink="http://www.w3.org/1999/xlink" x="0px" y="0px"
	 width="850.4px" height="850.4px" viewBox="0 0 850.4 850.4" style="enable-background:new 0 0 850.4 850.4;" xml:space="preserve"
	>
<style type="text/css">
	.st0{fill:#95C33E;}
	.st1{fill:#FFFFFF;}
	.st2{fill:#65BC45;}
	.st3{fill:#E01B6A;}
</style>
<g>
	<path class="st0" d="M692.8,587.8c-0.6-15.8-3-33.4-7.9-52.3C660,442.5,563.3,389,470.9,417c-23.7,7.3-43.2,13.4-47.4,14
		c-52.9,6.1-6.7-83.9,27.4-119.8c23.1-24.3,54.7-37.7,85.7-49.2c17.6-7.3,36.5-12.2,50.5-24.9c8.6-7.2,13.4-19.2,15-33.1l55.9-121.1
		l-91.7,8.4L507.6,2.4l-41.3,82.4l-98-41.1c-1.5-0.6-3.2,0.6-3,2.3l13.9,109.1l-131.4-31.3c-1.6-0.4-3.1,1.1-2.6,2.7l39.4,132.3
		L168.2,231c-1.6-0.4-3.1,1.1-2.6,2.7l45.2,151.7l-116,40.3c1.3,1.1,0.9,3.2-0.7,3.7l117.1,101.2L106,632.7c1.6,0.5,2.1,2.5,0.9,3.7
		l147.6,42.1c30.9,61.8,81.5,113.4,145.3,144c42.6,20.1,90.6,28.6,136.2,15.8c38.3-10.9,71.7-35.9,97.3-66.9
		C675.8,720.9,697,653.4,692.8,587.8z"/>
	<path class="st1" d="M590,583.7c0,56.3-45.8,102.1-102.1,102.1c-56.3,0-102.1-45.8-102.1-102.1c0-56.3,45.8-102.1,102.1-102.1
		C544.2,481.6,590,527.4,590,583.7z"/>
	<path class="st2" d="M486.8,535c-25.6,0-46.4,20.8-46.4,46.4s20.8,46.4,46.4,46.4c25.6,0,46.4-20.8,46.4-46.4S512.4,535,486.8,535z
		 M469.8,586c-7.3,0-13.1-5.9-13.1-13.1c0-7.3,5.9-13.1,13.1-13.1s13.1,5.9,13.1,13.1C482.9,580.1,477,586,469.8,586z"/>
	<path class="st3" d="M692.8,587.8c-0.6-15.8-3-33.4-7.9-52.3C660,442.5,563.3,389,470.9,417c-23.7,7.3-43.2,13.4-47.4,14
		c-52.9,6.1-6.7-83.9,27.4-119.8c23.1-24.3,54.7-37.7,85.7-49.2c17.6-7.3,36.5-12.2,50.5-24.9c34-28.6,9.1-133.7-42.6-124
		C339,153.1,193.7,378.7,224.1,582.3c15.2,102.7,80.8,194.5,175.7,240.1c42.6,20.1,90.6,28.6,136.2,15.8
		c38.3-10.9,71.7-35.9,97.3-66.9C675.8,720.9,697,653.4,692.8,587.8z M475,168.1c3.7-5,9.4-8.7,18.1-10.2
		c19.7-3.6,39.9-4.1,59.8-1.5c3.9,0.5,8.2,1.4,10.4,4.7c2.4,3.6,1,8.5-0.7,12.5c-9.9,23.4-27.2,43.6-48.8,57
		c-8.2,5.1-18.7,9.3-27.2,4.8c-6.4-3.4-9.7-10.7-11.8-17.7C469.7,200.9,466,180.4,475,168.1z M415.3,283c2-15.3,8.9-29.9,19.4-41.2
		c4-4.3,9.4-8.4,15.2-7.1c4.3,1,7.4,4.7,9.7,8.5c5.6,9,11.1,20.4,7.8,29c-1.3,3.5-4.1,6.6-8.9,8.9c-10.9,5.2-22.7,8.8-34.7,10.5
		c-2.3,0.3-5,0.5-6.8-1.1C414.9,288.7,415,285.7,415.3,283z M487.9,467.7c63.9,0,115.9,52,115.9,115.9c0,64-52,116-115.9,116
		c-64,0-116-52-116-116C371.9,519.7,423.9,467.7,487.9,467.7z M338.9,492.3c-2.3,0.3-5,0.5-6.8-1.1c-2-1.8-1.9-4.8-1.6-7.4
		c2-15.3,8.9-29.9,19.4-41.2c4-4.3,9.4-8.4,15.2-7.1c4.3,1,7.4,4.7,9.7,8.5c5.6,9,11.1,20.4,7.8,29c-1.3,3.5-4.1,6.6-8.9,8.9
		C362.7,487.1,350.9,490.6,338.9,492.3z M336.9,254.2c2.2-3,5.7-5.3,10.9-6.2c11.9-2.2,24.2-2.5,36.2-0.9c2.4,0.3,5,0.9,6.3,2.8
		c1.5,2.2,0.6,5.2-0.4,7.6c-6,14.2-16.5,26.4-29.6,34.6c-5,3.1-11.3,5.6-16.5,2.9c-3.9-2.1-5.9-6.5-7.1-10.7
		C333.8,274.1,331.5,261.7,336.9,254.2z M301.2,422.8c-1.3,3.5-4.1,6.6-8.9,8.9c-10.9,5.2-22.7,8.8-34.7,10.5
		c-2.3,0.3-5,0.5-6.8-1.1c-2-1.8-1.9-4.8-1.6-7.4c2-15.3,8.9-29.9,19.4-41.2c4-4.3,9.4-8.4,15.2-7.1c4.3,1,7.4,4.7,9.7,8.5
		C299,402.8,304.5,414.1,301.2,422.8z M317.6,385.9c-6.9-12.9-13.4-28.9-8.1-40.4c2.1-4.7,6.2-8.7,13-11.4
		c15.5-6.2,31.9-10,48.5-11.2c3.2-0.2,6.9-0.2,9.2,2.1c2.6,2.6,2.2,6.8,1.5,10.3c-4.1,20.7-14.8,40.1-30.1,54.7
		c-5.8,5.5-13.7,10.7-21.4,8.4C324.4,396.7,320.5,391.3,317.6,385.9z M538.6,782.6c-12.2,4.4-28.1,8.2-47,8.2
		c-41.9,0-98.2-18.5-160-89.8c-3.2-3.7-2.8-9.3,1-12.4c1.6-1.3,3.6-2,5.5-2c2.4,0,4.8,1,6.5,3c18.7,21.6,36.7,38.1,53.8,50.5
		l44.8-26.6c1.4-0.8,3.3,0.2,3.3,1.9l0.6,50.8c11.2,3.9,21.8,6.1,31.9,7.1l22.5-54.5c0.6-1.6,2.7-1.8,3.7-0.5l34.8,45.2
		c14.9-6.4,28.4-15.5,40.2-26.4L566,692.5c-0.5-1.6,0.9-3.1,2.5-2.8l42.9,9.3c15.9-25.5,25.4-54.1,27-79.6c0.3-4.6,4-8.1,8.6-8.1h0
		c4.9,0,9,4.2,8.7,9.1C651.8,682.3,608.6,757.3,538.6,782.6z"/>
	<path class="st1" d="M447,766.2c-15.3-5.3-31.6-13.6-48.7-26.1l44.8-26.6c1.4-0.8,3.3,0.2,3.3,1.9L447,766.2z"/>
	<path class="st1" d="M540,763.4c-2.4,1.1-4.8,2-7.3,2.9c-15.1,5.5-33.2,8.8-53.7,6.9l22.5-54.5c0.6-1.6,2.7-1.8,3.7-0.5L540,763.4z
		"/>
	<path class="st1" d="M611.5,699.1c-8.6,13.9-19.1,26.8-31.3,37.9L566,692.5c-0.5-1.6,0.9-3.1,2.5-2.8L611.5,699.1z"/>
</g>
</svg>
