<?xml version="1.0" encoding="utf-8"?>
<!-- Generator: Adobe Illustrator 22.0.1, SVG Export Plug-In . SVG Version: 6.00 Build 0)  -->
<svg version="1.1" id="Layer_1" xmlns="http://www.w3.org/2000/svg" xmlns:xlink="http://www.w3.org/1999/xlink" x="0px" y="0px"
	 width="850.4px" height="850.4px" viewBox="0 0 850.4 850.4" style="enable-background:new 0 0 850.4 850.4;" xml:space="preserve"
	>
<style type="text/css">
	.st0{fill:#883387;}
	.st1{fill:#FFFFFF;}
	.st2{fill:#211D1E;}
	.st3{fill:#368E8F;}
	.st4{fill:#000101;}
</style>
<g>
	<path class="st0" d="M724.1,256.8c10.1-20.9,21.7-41.4,35.1-62.2c-15.1,3.3-29.8,7.3-44.1,12c14-35.8,31.1-69.4,53.3-103.8
		c-41.7,9-80.5,23.8-115.3,42.8c15.1-43,34.2-82.1,60.2-122.4C663.8,34,618.2,52.9,578.7,77.3c-0.3-0.2-0.6-0.3-0.9-0.4
		c6.8-18,14.5-35.9,23.5-54.1c-27.4,9.3-53.2,21.2-77.1,35c-0.6-0.1-1.2-0.3-1.8-0.4c9.3-18.6,19.8-36.9,31.8-55.5
		C504.6,12.6,459,31.5,419.6,55.9C380.5,34.6,335,20.1,286.9,14.6c11.7,16.5,21.9,33.5,30.7,51c-25.8-9.1-53.3-15.5-81.8-18.7
		c7.9,11.2,15.1,22.6,21.7,34.2c-17-4.4-34.5-7.7-52.4-9.7c11.5,16.2,21.6,33,30.3,50.1c-33.8-15.3-71.3-25.9-110.7-30.3
		c25.5,36,43.9,74.6,56.2,114.2c-23.7-7.8-48.8-13.4-74.6-16.3c16,22.6,29.2,46.3,39.9,70.5c-7.6,10.1-15.9,19.9-25.2,29.2
		c15.8,3.6,28.2,6.7,40,9.6c0.7,2.2,1.4,4.5,2.1,6.8c-18.2,27.7-35.5,56.6-60.5,81.5c38.1,8.7,56.7,14.1,94,23.6
		c10.8,31.1,21,62.3,33.1,93.2c-25.2,29.2-46.5,60.4-45.3,94.4c-0.5,2.7,0,5.9,0.5,8.6c2.7,37.1,18.3,74.2,50,109.1
		c12.9,14.1,27.3,26.3,42.9,36.5l-58.6,33.8c-0.7,0.4-0.3,1.5,0.5,1.4l42.7-6.3c0.7-0.1,1.2,0.8,0.6,1.3l-40.3,40.4
		c-0.6,0.6,0.1,1.6,0.8,1.2l32.3-14.1c0.7-0.3,1.4,0.6,0.9,1.2l-25.7,31.3c-0.5,0.5,0,1.4,0.7,1.2l80.2-15.2l36.7-7.3
		c15.4-3.1,31.1-4.3,46.8-3.9c32.7,0.8,65.4,0.1,98-2.3c25.3-1.8,50.6,0.8,74.9,8.2l56.4,17.1c0.7,0.2,1.3-0.6,0.8-1.2l-25.4-31
		c-0.5-0.6,0.2-1.5,0.9-1.2l32.3,14.1c0.8,0.3,1.4-0.6,0.8-1.2l-40.3-40.4c-0.5-0.5-0.1-1.4,0.6-1.3l42.1,6.2c0.9,0.1,1.2-1,0.5-1.4
		l-53.6-27.5c17.5-10.9,33.6-24.1,47.9-39.7c31.7-34.9,47.3-72,50.5-109.1c0.4-2.2-6.3-54.8-41.1-100.3
		c8.6-25.3,16.3-50.8,24.4-76.2c36.5-8.5,54.5-13.6,90.6-22.4c-20.2-24.2-35.8-50.6-51.3-76.7c19.5-4.8,35.7-9.2,60.5-15.2
		C749.1,297.1,736.3,277,724.1,256.8z"/>
	<path class="st1" d="M541.6,336.2c0,61.9-50.3,112.3-112.2,112.3c-61.9,0-112.3-50.4-112.3-112.3c0-61.9,50.4-112.2,112.3-112.2
		C491.3,224,541.6,274.3,541.6,336.2z"/>
	<path class="st2" d="M428.1,282.7c-28.2,0-51,22.8-51,51c0,28.2,22.8,51,51,51s51-22.8,51-51C479.1,305.5,456.3,282.7,428.1,282.7z
		 M409.4,338.8c-8,0-14.4-6.5-14.4-14.4c0-8,6.5-14.4,14.4-14.4c8,0,14.4,6.5,14.4,14.4C423.9,332.3,417.4,338.8,409.4,338.8z"/>
	<path class="st3" d="M631.2,715.8c31.7-34.9,47.3-72,50.5-109.1c0.5-2.7-9.7-81.2-69.4-129.6c-4.3-3.2-5.4-10.2-1.1-14.5
		c19.4-21,47.3-54.3,55.4-76.3c15.1-41.4,14.5-80.6,1.1-115c0,0-19.4-123.7-234.4-123.7c-169.4,0-234.9,123.7-234.9,123.7
		c-12.9,34.4-14,73.7,1.1,115c8.6,22.6,41.9,47.3,62.9,66.1c4.3,3.2,4.8,9.7,1.1,14c-36,39.8-80.6,82.8-79,131.7
		c-0.5,2.7,0,5.9,0.5,8.6c2.7,37.1,18.3,74.2,50,109.1c12.9,14.1,27.3,26.3,42.9,36.5l-58.6,33.8c-0.7,0.4-0.3,1.5,0.5,1.4l42.7-6.3
		c0.7-0.1,1.2,0.8,0.6,1.3l-40.3,40.4c-0.6,0.6,0.1,1.6,0.8,1.2l32.3-14.1c0.7-0.3,1.4,0.6,0.9,1.2l-25.7,31.3
		c-0.5,0.5,0,1.4,0.7,1.2l80.2-15.2l36.7-7.3c15.4-3.1,31.1-4.3,46.8-3.9c32.7,0.8,65.4,0.1,98-2.3c25.3-1.8,50.6,0.8,74.9,8.2
		l56.4,17.1c0.7,0.2,1.3-0.6,0.8-1.2l-25.4-31c-0.5-0.6,0.2-1.5,0.9-1.2l32.3,14.1c0.8,0.3,1.4-0.6,0.8-1.2l-40.3-40.4
		c-0.5-0.5-0.1-1.4,0.6-1.3l42.1,6.2c0.9,0.1,1.2-1,0.5-1.4l-53.6-27.5C600.8,744.5,617,731.4,631.2,715.8z M429.4,208.7
		c70.3,0,127.5,57.2,127.5,127.5c0,70.3-57.2,127.5-127.5,127.5c-70.3,0-127.5-57.2-127.5-127.5
		C301.9,265.9,359.1,208.7,429.4,208.7z M536,685.7c-34.8,14.8-73.5,23.3-107,25c-3.2,0.2-6.3,0.2-9.6,0.2
		c-66.7,0-150.6-33.7-182.8-93.6c-9.7-17.9-10.2-33.9-1.5-47.6c33.1-52.4,192.3-45.8,193.9-45.8c1.7,0.1,171.3,11,196.5,62.6
		c5.7,11.7,4,24.2-5.1,37.1C601.9,650,570.8,670.9,536,685.7z"/>
	<path class="st1" d="M616.5,600.4c0,5.1-2,10.5-6.1,16.3c-34.3,48.9-119.4,78.6-182,81.8c-64.2,3.3-149.5-28.4-181-86.9
		c-7.5-13.9-8.1-25.5-1.9-35.3c20-31.6,107.3-40.5,162-40.5c7.7,0,14.8,0.2,20.9,0.5c43.5,2.2,168.5,19.5,186.1,55.7
		C615.8,594.7,616.5,597.5,616.5,600.4z"/>
	<path class="st4" d="M614.5,592c-8.4-17.1-40.8-30-77.2-39.1v17c0,11.8-9.6,21.4-21.4,21.4c-11.8,0-21.4-9.6-21.4-21.4V544
		c-5.2-0.9-10.3-1.7-15.3-2.4v35.9c0,11.8-9.6,21.4-21.4,21.4c-11.8,0-21.4-9.6-21.4-21.4v-40.8c-2.9-0.2-5.6-0.4-8-0.5
		c-1.9-0.1-3.8-0.2-5.8-0.2v27.8c0,11.8-9.6,21.4-21.4,21.4c-11.8,0-21.4-9.6-21.4-21.4v-27.3c-6,0.3-12.2,0.7-18.4,1.2
		c0,0,0,0.1,0,0.1v50.5c0,11.8-9.6,21.4-21.4,21.4c-11.8,0-21.4-9.6-21.4-21.4v-45.1c-33.3,6.1-62.5,16.4-73.1,33.1
		c-6.2,9.8-5.6,21.4,1.9,35.3c14.1,26.2,39.1,47,68.1,61.7v-10.1c0-11.8,9.6-21.4,21.4-21.4c11.8,0,21.4,9.6,21.4,21.4v26.7
		c4.6,1.3,9.2,2.4,13.8,3.4v-37.8c0-11.8,9.6-21.4,21.4-21.4c11.8,0,21.4,9.6,21.4,21.4v43c4.6,0.1,9.1,0.1,13.5-0.2
		c1.6-0.1,3.3-0.2,4.9-0.3v-25.7c0-11.8,9.6-21.4,21.4-21.4c11.8,0,21.4,9.6,21.4,21.4v19.3c6.1-1.4,12.2-2.9,18.4-4.7v-34.5
		c0-11.8,9.6-21.4,21.4-21.4c11.8,0,21.4,9.6,21.4,21.4v19c30.4-13.7,57.1-32.2,73-54.8c4.1-5.8,6.1-11.2,6.1-16.3
		C616.5,597.5,615.8,594.7,614.5,592z"/>
</g>
</svg>
