<?xml version="1.0" encoding="iso-8859-1"?>
<!-- Generator: Adobe Illustrator 19.0.0, SVG Export Plug-In . SVG Version: 6.00 Build 0)  -->
<svg version="1.1" id="Layer_1" xmlns="http://www.w3.org/2000/svg" xmlns:xlink="http://www.w3.org/1999/xlink" x="0px" y="0px"
	 viewBox="0 0 512 512" style="enable-background:new 0 0 512 512;" xml:space="preserve">
<circle style="fill:#31BAFD;" cx="256" cy="256" r="256"/>
<path style="fill:#2B9ED8;" d="M330.668,500.924c81.234-24.733,145.336-88.762,170.167-169.953l-93.698-93.698l-2.988,2.365
	l-42.043-42.043l-49.162,1.627l0,0l0,0l-71.337-71.466l-20.821-4.579l-5.573,24.452l75.457,74.314l-184.03,54.953L330.668,500.924z"
	/>
<circle style="fill:#F4E3C3;" cx="130.586" cy="255.983" r="31.811"/>
<circle style="fill:#FED8B2;" cx="381.414" cy="255.983" r="31.811"/>
<ellipse style="fill:#F4E3C3;" cx="256" cy="255.983" rx="131.913" ry="98.263"/>
<path style="fill:#FED8B2;" d="M387.905,255.974c0-54.196-58.901-98.14-131.617-98.257v196.515
	C329.002,354.114,387.905,310.17,387.905,255.974z"/>
<g>
	<circle style="fill:#386895;" cx="185.389" cy="266.24" r="10.659"/>
	<circle style="fill:#386895;" cx="326.611" cy="266.24" r="10.659"/>
</g>
<circle style="fill:#FFD300;" cx="256" cy="297.357" r="32.754"/>
<path style="fill:#F4A200;" d="M288.754,297.348c0-17.992-14.51-32.584-32.466-32.74v65.479
	C274.242,329.93,288.754,315.34,288.754,297.348z"/>
<path style="fill:#D83E20;" d="M256,361.131c-19.487,0-35.34-15.853-35.34-35.34s15.853-35.34,35.34-35.34s35.34,15.853,35.34,35.34
	S275.485,361.131,256,361.131z M256,304.242c-11.883,0-21.549,9.666-21.549,21.549c0,11.883,9.666,21.549,21.549,21.549
	c11.883,0,21.549-9.666,21.549-21.549C277.549,313.908,267.881,304.242,256,304.242z"/>
<path style="fill:#C1321F;" d="M291.34,325.791c0-19.389-15.7-35.168-35.052-35.325v13.791c11.748,0.157,21.261,9.749,21.261,21.533
	c0,11.785-9.513,21.378-21.261,21.533v13.791C275.64,360.96,291.34,345.181,291.34,325.791z"/>
<path style="fill:#FF5419;" d="M252.142,178.324c-0.122,0-0.248-0.005-0.372-0.016c-2.372-0.203-4.13-2.291-3.927-4.661
	c0.934-10.899-1.245-22.137-5.973-30.83c-5.223-9.604-11.488-14.698-16.729-13.614c-3.084,0.633-5.548,3.487-5.854,6.792
	c-0.333,3.548,1.858,6.477,6.172,8.245c2.201,0.902,3.255,3.42,2.35,5.623c-0.902,2.203-3.42,3.256-5.623,2.35
	c-9.285-3.808-12.019-11.292-11.481-17.024c0.665-7.099,5.891-13.034,12.705-14.433c4.406-0.898,15.75-0.964,26.034,17.941
	c3.241,5.958,8.459,18.516,6.99,35.681C256.238,176.63,254.355,178.324,252.142,178.324z"/>
<g>
</g>
<g>
</g>
<g>
</g>
<g>
</g>
<g>
</g>
<g>
</g>
<g>
</g>
<g>
</g>
<g>
</g>
<g>
</g>
<g>
</g>
<g>
</g>
<g>
</g>
<g>
</g>
<g>
</g>
</svg>
