<?xml version="1.0" encoding="UTF-8" standalone="no"?>
<!DOCTYPE svg PUBLIC "-//W3C//DTD SVG 1.1//EN" "http://www.w3.org/Graphics/SVG/1.1/DTD/svg11.dtd">
<svg version="1.1" xmlns="http://www.w3.org/2000/svg" xmlns:xlink="http://www.w3.org/1999/xlink" preserveAspectRatio="xMidYMid meet" viewBox="277.4520558304297 202.0097992597112 80.02387342669681 105.70680276240631" width="128" height="171.24"><defs><path d="M300.43 203.24L301.41 203.47L302.39 203.79L303.36 204.19L304.32 204.66L305.26 205.22L306.18 205.84L307.08 206.54L307.95 207.3L308.78 208.14L309.57 209.04L310.32 210.01L311.02 211.04L311.65 212.12L312.21 213.22L312.71 214.34L313.14 215.5L313.51 216.7L313.83 217.93L314.11 219.2L314.35 220.52L314.55 221.88L314.73 223.3L314.88 224.77L315.01 226.29L315.14 227.88L315.25 229.53L315.37 231.24L315.49 233.03L315.62 234.88L315.76 236.82L315.86 238.01L315.93 238.13L316.46 238.95L316.99 238.13L317.07 238.01L317.17 236.82L317.31 234.88L317.44 233.03L317.56 231.24L317.68 229.53L317.79 227.88L317.91 226.29L318.05 224.77L318.2 223.3L318.37 221.88L318.58 220.52L318.82 219.2L319.09 217.93L319.42 216.7L319.79 215.5L320.22 214.34L320.71 213.22L321.28 212.12L321.91 211.04L322.61 210.01L323.36 209.04L324.15 208.14L324.98 207.3L325.85 206.54L326.74 205.84L327.67 205.22L328.61 204.66L329.57 204.19L330.54 203.79L331.52 203.47L332.5 203.24L333.48 203.08L334.46 203.01L335.42 203.02L336.36 203.13L337.29 203.32L338.19 203.6L339.06 203.97L339.89 204.44L340.67 205L341.38 205.62L342.03 206.32L342.59 207.07L343.09 207.88L343.52 208.74L343.87 209.65L344.15 210.61L344.35 211.59L344.48 212.61L344.52 213.32L345.26 213.39L346.28 213.56L347.26 213.81L348.2 214.12L349.09 214.51L349.93 214.97L350.72 215.5L351.46 216.1L352.12 216.77L352.72 217.5L353.24 218.31L353.67 219.16L354.01 220.05L354.26 220.96L354.41 221.89L354.48 222.84L354.45 223.8L354.34 224.77L354.15 225.74L353.87 226.71L353.51 227.68L353.07 228.63L352.56 229.57L351.97 230.49L351.31 231.39L350.58 232.26L349.78 233.09L348.91 233.89L347.97 234.64L346.98 235.35L345.92 236.01L344.82 236.6L343.7 237.11L342.55 237.56L341.37 237.94L340.16 238.27L338.92 238.54L337.64 238.77L336.31 238.95L334.94 239.1L333.52 239.22L332.05 239.31L330.52 239.38L328.93 239.44L327.28 239.49L325.56 239.53L323.77 239.58L321.91 239.63L319.97 239.7L318.8 239.75L318.62 239.85L318.22 240.09L318.62 240.32L318.8 240.43L319.97 240.47L321.91 240.54L323.77 240.6L325.56 240.64L327.28 240.69L328.93 240.74L330.52 240.79L332.05 240.87L333.52 240.96L334.94 241.08L336.31 241.22L337.64 241.41L338.92 241.63L340.16 241.91L341.37 242.23L342.55 242.62L343.7 243.06L344.82 243.58L345.92 244.17L346.98 244.83L347.97 245.53L348.91 246.29L349.78 247.08L350.58 247.92L351.31 248.79L351.97 249.68L352.56 250.6L353.07 251.54L353.51 252.5L353.87 253.46L354.15 254.44L354.34 255.41L354.45 256.38L354.48 257.34L354.41 258.29L354.26 259.22L354.01 260.13L353.67 261.01L353.24 261.87L352.72 262.67L352.12 263.41L351.46 264.08L350.72 264.67L349.93 265.2L349.09 265.66L348.2 266.05L347.26 266.37L346.28 266.61L345.26 266.79L344.52 266.86L344.48 267.56L344.35 268.58L344.15 269.57L343.87 270.52L343.52 271.43L343.09 272.29L342.59 273.11L342.03 273.86L341.38 274.55L340.67 275.18L339.89 275.73L339.06 276.2L338.19 276.58L337.29 276.86L336.36 277.05L335.42 277.15L334.45 277.17L333.48 277.09L332.5 276.94L331.52 276.7L330.54 276.38L329.57 275.99L328.61 275.51L327.67 274.96L326.74 274.34L325.85 273.64L324.98 272.87L324.15 272.04L323.36 271.13L322.61 270.17L321.91 269.13L321.28 268.06L320.71 266.96L320.22 265.83L319.79 264.67L319.42 263.48L319.09 262.25L318.82 260.97L318.58 259.66L318.37 258.29L318.2 256.88L318.05 255.41L317.91 253.88L317.79 252.3L317.76 251.8L317.8 253.18L317.84 255.12L317.88 257L317.89 258.83L317.9 260.61L317.88 262.34L317.86 264.03L317.82 265.66L317.77 267.24L317.7 268.77L317.62 270.25L317.52 271.68L317.41 273.06L317.28 274.38L317.14 275.66L316.99 276.89L316.82 278.07L316.64 279.2L316.44 280.27L316.23 281.3L316.01 282.28L315.77 283.2L315.52 284.08L315.25 284.91L314.97 285.68L314.67 286.41L314.36 287.08L314.03 287.73L313.66 288.37L313.27 289L312.84 289.62L312.37 290.24L311.88 290.85L311.35 291.46L310.79 292.06L310.2 292.65L309.58 293.23L308.92 293.81L308.23 294.37L307.51 294.94L306.76 295.49L305.98 296.04L305.16 296.58L304.31 297.12L303.43 297.64L302.52 298.16L301.57 298.68L300.59 299.18L299.58 299.68L298.54 300.18L297.46 300.66L296.36 301.14L295.22 301.61L294.05 302.08L292.84 302.53L291.61 302.98L290.34 303.43L289.04 303.86L287.71 304.29L286.34 304.72L288.12 295.2L289.16 294.95L290.17 294.71L291.16 294.45L292.13 294.19L293.08 293.92L294 293.65L294.9 293.37L295.78 293.09L296.64 292.79L297.47 292.5L298.28 292.19L299.06 291.88L299.83 291.57L300.57 291.24L301.29 290.91L301.98 290.58L302.65 290.24L303.3 289.89L303.93 289.53L304.53 289.17L305.11 288.81L305.67 288.43L306.2 288.05L306.71 287.67L307.2 287.28L307.67 286.88L308.11 286.47L308.53 286.06L308.93 285.65L309.3 285.22L309.66 284.79L309.98 284.36L310.29 283.92L310.58 283.44L310.86 282.92L311.14 282.34L311.4 281.7L311.66 281.02L311.91 280.28L312.16 279.48L312.39 278.63L312.62 277.73L312.84 276.77L313.05 275.76L313.25 274.7L313.44 273.58L313.63 272.41L313.81 271.19L313.98 269.91L314.14 268.57L314.3 267.19L314.44 265.75L314.58 264.25L314.71 262.7L314.84 261.1L314.95 259.45L315.06 257.74L315.16 255.97L315.25 254.16L315.33 252.28L315.41 250.36L315.48 248.38L315.53 246.5L315.49 247.15L315.37 248.93L315.25 250.65L315.14 252.3L315.01 253.88L314.88 255.41L314.73 256.88L314.55 258.29L314.35 259.66L314.11 260.97L313.83 262.25L313.51 263.48L313.14 264.67L312.71 265.83L312.21 266.96L311.65 268.06L311.02 269.13L310.32 270.17L309.57 271.13L308.78 272.04L307.95 272.87L307.08 273.64L306.18 274.34L305.26 274.96L304.32 275.51L303.36 275.99L302.39 276.38L301.41 276.7L300.43 276.94L299.45 277.09L298.47 277.17L297.51 277.15L296.57 277.05L295.64 276.86L294.74 276.58L293.87 276.2L293.04 275.73L292.25 275.18L291.54 274.55L290.9 273.86L290.33 273.11L289.84 272.29L289.41 271.43L289.06 270.52L288.78 269.57L288.58 268.58L288.44 267.56L288.41 266.86L287.67 266.79L286.65 266.61L285.67 266.37L284.73 266.05L283.84 265.66L282.99 265.2L282.2 264.67L281.47 264.08L280.81 263.41L280.21 262.67L279.69 261.87L279.25 261.01L278.91 260.13L278.67 259.22L278.52 258.29L278.45 257.34L278.48 256.38L278.59 255.41L278.78 254.44L279.06 253.46L279.42 252.5L279.85 251.54L280.37 250.6L280.96 249.68L281.62 248.79L282.35 247.92L283.15 247.08L284.02 246.29L284.95 245.53L285.95 244.83L287.01 244.17L288.11 243.58L289.23 243.06L290.38 242.62L291.56 242.23L292.76 241.91L294.01 241.63L295.29 241.41L296.62 241.22L297.99 241.08L299.41 240.96L300.88 240.87L302.41 240.79L304 240.74L305.65 240.69L307.37 240.64L309.16 240.6L311.02 240.54L312.96 240.47L314.13 240.43L314.31 240.32L314.7 240.09L314.31 239.85L314.13 239.75L312.96 239.7L311.02 239.63L309.16 239.58L307.37 239.53L305.65 239.49L304 239.44L302.41 239.38L300.88 239.31L299.41 239.22L297.99 239.1L296.62 238.95L295.29 238.77L294.01 238.54L292.76 238.27L291.56 237.94L290.38 237.56L289.23 237.11L288.11 236.6L287.01 236.01L285.95 235.35L284.95 234.64L284.02 233.89L283.15 233.09L282.35 232.26L281.62 231.39L280.96 230.49L280.37 229.57L279.85 228.63L279.42 227.68L279.06 226.71L278.78 225.74L278.59 224.77L278.48 223.8L278.45 222.84L278.52 221.89L278.67 220.96L278.91 220.05L279.25 219.16L279.69 218.31L280.21 217.5L280.81 216.77L281.47 216.1L282.2 215.5L282.99 214.97L283.84 214.51L284.73 214.12L285.67 213.81L286.65 213.56L287.67 213.39L288.41 213.32L288.44 212.61L288.58 211.59L288.78 210.61L289.06 209.65L289.41 208.74L289.84 207.88L290.33 207.07L290.9 206.32L291.54 205.62L292.25 205L293.04 204.44L293.87 203.97L294.74 203.6L295.64 203.32L296.57 203.13L297.51 203.02L298.47 203.01L299.45 203.08L300.43 203.24Z" id="bo0bqZvec"></path></defs><g><g><use xlink:href="#bo0bqZvec" opacity="1" fill="#008000" fill-opacity="1"></use></g></g></svg>